<svg height="872" viewBox="0 0 996 872" width="996" xmlns="http://www.w3.org/2000/svg" xmlns:xlink="http://www.w3.org/1999/xlink"><linearGradient id="a"><stop offset="0" stop-color="#1158ff"/><stop offset="1" stop-color="#02e5ff"/></linearGradient><linearGradient id="b" x1="-.282644%" x2="100.282644%" xlink:href="#a" y1="50%" y2="50%"/><linearGradient id="c"><stop offset="0" stop-color="#141180"/><stop offset="1" stop-color="#0837b2"/></linearGradient><linearGradient id="d" x1="46.561469%" x2="54.967914%" xlink:href="#c" y1="65.2%" y2="28.33253%"/><linearGradient id="e" x1="55.317445%" x2="49.408599%" xlink:href="#c" y1="100.421687%" y2="44.527711%"/><linearGradient id="f" x1="6.830709%" x2="115.692913%" xlink:href="#a" y1="54.432761%" y2="43.178994%"/><linearGradient id="g" x1="102.392242%" x2="1.21509%" xlink:href="#c" y1="50.54546%" y2="49.442026%"/><linearGradient id="h" x1="97.549423%" x2="2.246637%" xlink:href="#a" y1="56.434541%" y2="43.617674%"/><linearGradient id="i"><stop offset="0" stop-color="#0078ff"/><stop offset="1" stop-color="#273fbf"/></linearGradient><linearGradient id="j" x1="0%" x2="100%" xlink:href="#i" y1="50%" y2="50%"/><linearGradient id="k" x1="20.179128%" x2="96.52648%" xlink:href="#i" y1="39.675972%" y2="66.191689%"/><linearGradient id="l"><stop offset="0" stop-color="#03d7ff"/><stop offset="1" stop-color="#115aff"/></linearGradient><linearGradient id="m" x1="92.11838%" x2="-1.985981%" xlink:href="#l" y1="49.833701%" y2="50.20675%"/><linearGradient id="n" x1="-4.291071%" x2="77.496181%" xlink:href="#c" y1="26.57801%" y2="61.858295%"/><linearGradient id="o" x1="0%" x2="100%" xlink:href="#i" y1="49.996626%" y2="49.996626%"/><linearGradient id="p" x1="91.764019%" x2=".385514%" xlink:href="#l" y1="47.12797%" y2="53.420368%"/><linearGradient id="q" x1="-4.291071%" x2="77.496181%" xlink:href="#c" y1="26.583134%" y2="61.863419%"/><linearGradient id="r" x1="20.179128%" x2="96.52648%" xlink:href="#l" y1="39.675972%" y2="66.191689%"/><linearGradient id="s" x1="98.973113%" x2=".901436%" xlink:href="#a" y1="54.259047%" y2="45.775104%"/><linearGradient id="t" x1="54.18405%" x2="45.433236%" xlink:href="#c" y1="44.701205%" y2="55.785542%"/><linearGradient id="u" x1="55.832893%" x2="44.967194%" xlink:href="#c" y1="56.491566%" y2="44.4%"/><linearGradient id="v" x1="0%" x2="100%" xlink:href="#a" y1="50%" y2="50%"/><linearGradient id="w" x1="0%" x2="100%" y1="49.995695%" y2="49.995695%"><stop offset="0" stop-color="#110e7c"/><stop offset=".5" stop-color="#0037b0"/><stop offset="1" stop-color="#0050d6"/></linearGradient><linearGradient id="x" x1="85.307665%" x2="33.077438%" xlink:href="#a" y1="43.610274%" y2="52.986187%"/><linearGradient id="y" x1="54.086614%" x2="49.834646%" xlink:href="#a" y1="55.456259%" y2="49.775188%"/><linearGradient id="z" x1="77.425197%" x2="48.874016%" xlink:href="#a" y1="86.246451%" y2="48.514539%"/><linearGradient id="A" x1="100.083696%" x2="-.104323%" xlink:href="#a" y1="52.651467%" y2="47.343055%"/><linearGradient id="B" x1="110.831409%" x2="-12.517321%" xlink:href="#a" y1="45.614831%" y2="54.514014%"/><linearGradient id="C"><stop offset="0" stop-color="#194ae8"/><stop offset="1" stop-color="#06b3f5"/></linearGradient><linearGradient id="D" x1="1.340929%" x2="150.569676%" xlink:href="#C" y1="71.506046%" y2="5.553262%"/><linearGradient id="E" x1="-2.964997%" x2="103.857241%" xlink:href="#C" y1="28.838883%" y2="71.515659%"/><linearGradient id="F" x1="97.50413%" x2="2.625636%" xlink:href="#a" y1="43.443408%" y2="56.45784%"/><linearGradient id="G" x1="-.108029%" x2="100.108029%" xlink:href="#a" y1="50.08854%" y2="50.08854%"/><linearGradient id="H" x1="-.142621%" x2="100.142621%" xlink:href="#a" y1="50.108259%" y2="50.108259%"/><linearGradient id="I" x1="-.209188%" x2="100.209188%" xlink:href="#a" y1="50.148368%" y2="50.148368%"/><linearGradient id="J" x1="-.590909%" x2="100.590909%" xlink:href="#a" y1="50%" y2="50%"/><linearGradient id="K" x1="-.641026%" x2="100.641026%" xlink:href="#a" y1="50%" y2="50%"/><linearGradient id="L" x1="-.347222%" x2="100.347222%" xlink:href="#a" y1="50%" y2="50%"/><linearGradient id="M" x1="51.555556%" x2="48.444444%" xlink:href="#l" y1="-16.333333%" y2="116.333333%"/><linearGradient id="N" x1="5208.11111%" x2="5211.22222%" xlink:href="#l" y1="-1099.66667%" y2="-967%"/><linearGradient id="O" x1="5225.44444%" x2="5228.55556%" xlink:href="#l" y1="-1103.33333%" y2="-970.666667%"/><linearGradient id="P" x1="5242.88889%" x2="5246%" xlink:href="#l" y1="-1107%" y2="-974.333333%"/><linearGradient id="Q" x1="5259.77778%" x2="5262.88889%" xlink:href="#l" y1="-1110.66667%" y2="-978%"/><linearGradient id="R" x1="5277.22222%" x2="5280.22222%" xlink:href="#l" y1="-1114.33333%" y2="-981.666667%"/><linearGradient id="S" x1="5294.55556%" x2="5297.66667%" xlink:href="#l" y1="-1118%" y2="-985.333333%"/><linearGradient id="T" x1="5311.88889%" x2="5315%" xlink:href="#l" y1="-1121.66667%" y2="-989%"/><linearGradient id="U" x1="5328.88889%" x2="5332%" xlink:href="#l" y1="-1125.33333%" y2="-992.333333%"/><linearGradient id="V" x1="5346.22222%" x2="5349.33333%" xlink:href="#l" y1="-1128.66667%" y2="-996%"/><linearGradient id="W" x1="5363.55556%" x2="5366.66667%" xlink:href="#l" y1="-1132.33333%" y2="-999.666667%"/><linearGradient id="X" x1="5211.66667%" x2="5214.66667%" xlink:href="#l" y1="-1100.66667%" y2="-967.666667%"/><linearGradient id="Y" x1="5229%" x2="5232.11111%" xlink:href="#l" y1="-1104.33333%" y2="-971.333333%"/><linearGradient id="Z" x1="5246.33333%" x2="5249.44444%" xlink:href="#l" y1="-1108%" y2="-975%"/><linearGradient id="aa" x1="5263.33333%" x2="5266.44444%" xlink:href="#l" y1="-1111.33333%" y2="-978.666667%"/><linearGradient id="ab" x1="5280.66667%" x2="5283.77778%" xlink:href="#l" y1="-1115%" y2="-982.333333%"/><linearGradient id="ac" x1="5298%" x2="5301.11111%" xlink:href="#l" y1="-1118.66667%" y2="-986%"/><linearGradient id="ad" x1="5315.33333%" x2="5318.44444%" xlink:href="#l" y1="-1122.33333%" y2="-989.666667%"/><linearGradient id="ae" x1="5332.33333%" x2="5335.44444%" xlink:href="#l" y1="-1126%" y2="-993%"/><linearGradient id="af" x1="5349.66667%" x2="5352.77778%" xlink:href="#l" y1="-1129.66667%" y2="-996.666667%"/><linearGradient id="ag" x1="5367.11111%" x2="5370.22222%" xlink:href="#l" y1="-1133.33333%" y2="-1000.33333%"/><linearGradient id="ah" x1="5218.22222%" x2="5221.33333%" xlink:href="#l" y1="-1102%" y2="-969.333333%"/><linearGradient id="ai" x1="5235.55556%" x2="5238.66667%" xlink:href="#l" y1="-1105.66667%" y2="-972.666667%"/><linearGradient id="aj" x1="5252.88889%" x2="5256%" xlink:href="#l" y1="-1109.33333%" y2="-976.333333%"/><linearGradient id="ak" x1="5269.88889%" x2="5273%" xlink:href="#l" y1="-1112.66667%" y2="-980%"/><linearGradient id="al" x1="5287.22222%" x2="5290.33333%" xlink:href="#l" y1="-1116.33333%" y2="-983.666667%"/><linearGradient id="am" x1="5304.55556%" x2="5307.66667%" xlink:href="#l" y1="-1120%" y2="-987.333333%"/><linearGradient id="an" x1="5322%" x2="5325.11111%" xlink:href="#l" y1="-1123.66667%" y2="-991%"/><linearGradient id="ao" x1="5338.88889%" x2="5342%" xlink:href="#l" y1="-1127.33333%" y2="-994.666667%"/><linearGradient id="ap" x1="5356.33333%" x2="5359.44444%" xlink:href="#l" y1="-1131%" y2="-998.333333%"/><linearGradient id="aq" x1="5373.66667%" x2="5376.77778%" xlink:href="#l" y1="-1134.66667%" y2="-1001.66667%"/><linearGradient id="ar" x1="5221.66667%" x2="5224.77778%" xlink:href="#l" y1="-1102.66667%" y2="-970%"/><linearGradient id="as" x1="5239%" x2="5242.11111%" xlink:href="#l" y1="-1106.33333%" y2="-973.666667%"/><linearGradient id="at" x1="5256.44444%" x2="5259.44444%" xlink:href="#l" y1="-1110%" y2="-977.333333%"/><linearGradient id="au" x1="5273.33333%" x2="5276.44444%" xlink:href="#l" y1="-1113.66667%" y2="-980.666667%"/><linearGradient id="av" x1="5290.77778%" x2="5293.77778%" xlink:href="#l" y1="-1117%" y2="-984.333333%"/><linearGradient id="aw" x1="5308.11111%" x2="5311.22222%" xlink:href="#l" y1="-1120.66667%" y2="-988%"/><linearGradient id="ax" x1="5325.44444%" x2="5328.55556%" xlink:href="#l" y1="-1124.33333%" y2="-991.666667%"/><linearGradient id="ay" x1="5342.44444%" x2="5345.55556%" xlink:href="#l" y1="-1128%" y2="-995.333333%"/><linearGradient id="az" x1="5359.77778%" x2="5362.88889%" xlink:href="#l" y1="-1131.66667%" y2="-999%"/><linearGradient id="aA" x1="5377.11111%" x2="5380.22222%" xlink:href="#l" y1="-1135.33333%" y2="-1002.66667%"/><linearGradient id="aB" x1="5228.66667%" x2="5231.77778%" xlink:href="#l" y1="-1104%" y2="-971.333333%"/><linearGradient id="aC" x1="5246%" x2="5249.11111%" xlink:href="#l" y1="-1107.66667%" y2="-975%"/><linearGradient id="aD" x1="5280.33333%" x2="5283.44444%" xlink:href="#l" y1="-1115%" y2="-982.333333%"/><linearGradient id="aE" x1="5297.66667%" x2="5300.77778%" xlink:href="#l" y1="-1118.66667%" y2="-986%"/><linearGradient id="aF" x1="5315%" x2="5318.11111%" xlink:href="#l" y1="-1122.33333%" y2="-989.666667%"/><linearGradient id="aG" x1="5332.44444%" x2="5335.55556%" xlink:href="#l" y1="-1126%" y2="-993%"/><linearGradient id="aH" x1="5349.33333%" x2="5352.44444%" xlink:href="#l" y1="-1129.33333%" y2="-996.666667%"/><linearGradient id="aI" x1="5366.77778%" x2="5369.88889%" xlink:href="#l" y1="-1133%" y2="-1000.33333%"/><linearGradient id="aJ" x1="5384.11111%" x2="5387.22222%" xlink:href="#l" y1="-1136.66667%" y2="-1004%"/><linearGradient id="aK" x1="5232.11111%" x2="5235.22222%" xlink:href="#l" y1="-1105%" y2="-972%"/><linearGradient id="aL" x1="5249.44444%" x2="5252.55556%" xlink:href="#l" y1="-1108.66667%" y2="-975.666667%"/><linearGradient id="aM" x1="5266.88889%" x2="5269.88889%" xlink:href="#l" y1="-1112%" y2="-979.333333%"/><linearGradient id="aN" x1="5283.77778%" x2="5286.88889%" xlink:href="#l" y1="-1115.66667%" y2="-983%"/><linearGradient id="aO" x1="5301.22222%" x2="5304.22222%" xlink:href="#l" y1="-1119.33333%" y2="-986.666667%"/><linearGradient id="aP" x1="5318.55556%" x2="5321.66667%" xlink:href="#l" y1="-1123%" y2="-990.333333%"/><linearGradient id="aQ" x1="5335.88889%" x2="5339%" xlink:href="#l" y1="-1126.66667%" y2="-994%"/><linearGradient id="aR" x1="5352.88889%" x2="5356%" xlink:href="#l" y1="-1130.33333%" y2="-997.333333%"/><linearGradient id="aS" x1="5370.22222%" x2="5373.33333%" xlink:href="#l" y1="-1134%" y2="-1001%"/><linearGradient id="aT" x1="5387.55556%" x2="5390.66667%" xlink:href="#l" y1="-1137.66667%" y2="-1004.66667%"/><linearGradient id="aU" x1="51.776903%" x2="48.0884%" xlink:href="#a" y1="1.486579%" y2="97.348016%"/><linearGradient id="aV" x1="53.416461%" x2="45.172753%" xlink:href="#a" y1="-24.781875%" y2="146.946243%"/><linearGradient id="aW" x1="50%" x2="50%" xlink:href="#a" y1="4.416774%" y2="89.210619%"/><linearGradient id="aX" x1="58.537521%" x2="45.352872%" xlink:href="#a" y1="-54.488149%" y2="98.827534%"/><linearGradient id="aY" x1="-.214592%" x2="100%" xlink:href="#c" y1="50%" y2="50%"/><linearGradient id="aZ" x1="0%" x2="100%" xlink:href="#c" y1="50%" y2="50%"/><linearGradient id="a0" x1="49.970981%" x2="49.970981%" xlink:href="#a" y1="8.749501%" y2="102.926488%"/><linearGradient id="a1"><stop offset="0" stop-color="#0a31aa"/><stop offset="1" stop-color="#0837b2"/></linearGradient><linearGradient id="a2" x1="50%" x2="50%" xlink:href="#a1" y1="8.751394%" y2="102.920847%"/><linearGradient id="a3"><stop offset="0" stop-color="#141180"/><stop offset="1" stop-color="#121788"/></linearGradient><linearGradient id="a4" x1="50%" x2="50%" xlink:href="#a3" y1="8.742273%" y2="102.926706%"/><linearGradient id="a5" x1="50.029019%" x2="50.029019%" xlink:href="#a" y1="8.749501%" y2="102.926488%"/><linearGradient id="a6" x1="49.955476%" x2="49.955476%" xlink:href="#a1" y1="8.751394%" y2="102.920847%"/><linearGradient id="a7" x1="50.029019%" x2="50.029019%" xlink:href="#a" y1="8.739513%" y2="102.9165%"/><linearGradient id="a8" x1="49.955476%" x2="49.955476%" xlink:href="#a1" y1="8.74122%" y2="102.921173%"/><linearGradient id="a9" x1="50%" x2="50%" xlink:href="#a3" y1="8.743376%" y2="102.927075%"/><linearGradient id="ba" x1="41.450381%" x2="82.557083%" y1="86.341751%" y2="6.861059%"><stop offset="0" stop-color="#1158ff" stop-opacity="0"/><stop offset="1" stop-color="#02e5ff"/></linearGradient><linearGradient id="bb" x1="-20.650814%" x2="82.540676%" xlink:href="#a" y1="16.834359%" y2="65.273621%"/><linearGradient id="bc" x1="89.899893%" x2="27.332857%" xlink:href="#a" y1="-6.141951%" y2="82.161588%"/><linearGradient id="bd" x1="8.166458%" x2="91.426784%" xlink:href="#a" y1="122.622551%" y2="-21.351022%"/><linearGradient id="be" x1="0%" x2="100%" xlink:href="#a" y1="49.865843%" y2="49.865843%"/><linearGradient id="bf" x1="89.86414%" x2="27.297104%" xlink:href="#a" y1="-6.0347%" y2="82.156592%"/><linearGradient id="bg" x1="-74.788865%" x2="182.671254%" xlink:href="#a" y1="-7.528815%" y2="111.168315%"/><linearGradient id="bh" x1="0%" x2="100%" xlink:href="#a" y1="50.074844%" y2="50.074844%"/><linearGradient id="bi" x1="-76.841448%" x2="253.620474%" xlink:href="#a" y1="-18.555574%" y2="160.298902%"/><linearGradient id="bj" x1="235.790131%" x2="-294.440974%" xlink:href="#a" y1="110.47038%" y2="-61.943576%"/><linearGradient id="bk" x1="-42.286071%" x2="313.491568%" xlink:href="#a" y1="-2.006739%" y2="198.173963%"/><linearGradient id="bl" x1="89.953522%" x2="27.368609%" xlink:href="#a" y1="-6.11753%" y2="82.159016%"/><linearGradient id="bm" x1="10.544431%" x2="231.289111%" xlink:href="#a" y1="28.113964%" y2="150.946285%"/><linearGradient id="bn" x1=".249688%" x2="100.249688%" xlink:href="#a" y1="49.85897%" y2="49.85897%"/><linearGradient id="bo" x1="137.832736%" x2="-40.834435%" xlink:href="#a" y1="58.123886%" y2="41.604332%"/><linearGradient id="bp" x1="-20.701058%" x2="82.60582%" xlink:href="#a" y1="16.839128%" y2="65.301382%"/><linearGradient id="bq" x1="-198.43646%" x2="219.91975%" xlink:href="#a" y1="9.331903%" y2="77.796794%"/><linearGradient id="br" x1="89.8641%" x2="27.312193%" xlink:href="#a" y1="-6.050807%" y2="82.163991%"/><linearGradient id="bs" x1="8.165289%" x2="91.471074%" xlink:href="#a" y1="122.637935%" y2="-21.315796%"/><linearGradient id="bt" x1="0%" x2="99.586777%" xlink:href="#a" y1="50.066165%" y2="50.066165%"/><linearGradient id="bu" x1="89.881065%" x2="27.298471%" xlink:href="#a" y1="-6.070325%" y2="82.172596%"/><linearGradient id="bv" x1="8.167989%" x2="91.501323%" xlink:href="#a" y1="122.515376%" y2="-21.14273%"/><linearGradient id="bw" x1="0%" x2="100%" xlink:href="#a" y1="49.831736%" y2="49.831736%"/><linearGradient id="bx" x1="0%" x2="100%" xlink:href="#a" y1="49.96535%" y2="49.96535%"/><linearGradient id="by" x1="-76.862228%" x2="253.592617%" xlink:href="#a" y1="-18.673281%" y2="160.400293%"/><linearGradient id="bz" x1="89.8641%" x2="27.293318%" xlink:href="#a" y1="-6.036859%" y2="82.140193%"/><linearGradient id="bA" x1="8.165289%" x2="91.504132%" xlink:href="#a" y1="122.548708%" y2="-21.258603%"/><linearGradient id="bB" x1="0%" x2="99.802632%" xlink:href="#a" y1="50.021632%" y2="50.021632%"/><linearGradient id="bC" x1="0%" x2="100%" xlink:href="#a" y1="50.132383%" y2="50.132383%"/><linearGradient id="bD" x1="-76.912929%" x2="253.759894%" xlink:href="#a" y1="-18.763909%" y2="160.545987%"/><linearGradient id="bE" x1="89.8641%" x2="27.293318%" xlink:href="#a" y1="-5.96597%" y2="82.158096%"/><linearGradient id="bF" x1="8.300181%" x2="91.665746%" xlink:href="#a" y1="122.658275%" y2="-21.35008%"/><linearGradient id="bG" x1="0%" x2="100%" xlink:href="#a" y1="49.983803%" y2="49.983803%"/><linearGradient id="bH" x1="-76.912929%" x2="253.759894%" xlink:href="#a" y1="-18.7439%" y2="160.576205%"/><linearGradient id="bI" x1="137.828902%" x2="-40.804519%" xlink:href="#a" y1="58.118637%" y2="41.609929%"/><linearGradient id="bJ" x1="-20.660559%" x2="82.497589%" xlink:href="#a" y1="16.927269%" y2="65.270613%"/><linearGradient id="bK" x1="-197.609244%" x2="219.433243%" xlink:href="#a" y1="9.423889%" y2="77.800021%"/><linearGradient id="bL" x1="89.887021%" x2="27.307798%" xlink:href="#a" y1="-6.108955%" y2="82.165472%"/><linearGradient id="bM" x1="8.15047%" x2="91.415481%" xlink:href="#a" y1="122.55272%" y2="-21.230898%"/><linearGradient id="bN" x1="-.20202%" x2="99.79798%" xlink:href="#a" y1="49.989764%" y2="49.989764%"/><linearGradient id="bO" x1="89.873243%" x2="27.29402%" xlink:href="#a" y1="-6.141736%" y2="82.165823%"/><linearGradient id="bP" x1="8.172613%" x2="91.417551%" xlink:href="#a" y1="122.513702%" y2="-21.194794%"/><linearGradient id="bQ" x1="0%" x2="99.807969%" xlink:href="#a" y1="49.93003%" y2="49.93003%"/><linearGradient id="bR" x1="0%" x2="99.807969%" xlink:href="#a" y1="50.008295%" y2="50.008295%"/><linearGradient id="bS" x1="-76.753122%" x2="253.21806%" xlink:href="#a" y1="-18.364647%" y2="159.95642%"/><linearGradient id="bT" x1="89.873243%" x2="27.29402%" xlink:href="#a" y1="-6.056004%" y2="82.160834%"/><linearGradient id="bU" x1="8.148505%" x2="91.417551%" xlink:href="#a" y1="122.530093%" y2="-21.201946%"/><linearGradient id="bV" x1="-.144023%" x2="99.663946%" xlink:href="#a" y1="50.155201%" y2="50.155201%"/><linearGradient id="bW" x1="0%" x2="99.807877%" xlink:href="#a" y1="50.015648%" y2="50.015648%"/><linearGradient id="bX" x1="-76.716275%" x2="253.096495%" xlink:href="#a" y1="-18.357671%" y2="159.940705%"/><linearGradient id="bY" x1="89.873243%" x2="27.29402%" xlink:href="#a" y1="-6.068609%" y2="82.157613%"/><linearGradient id="bZ" x1="8.148505%" x2="91.417551%" xlink:href="#a" y1="122.545068%" y2="-21.269762%"/><linearGradient id="b0" x1="0%" x2="99.807969%" xlink:href="#a" y1="49.895083%" y2="49.895083%"/><linearGradient id="b1" x1="0%" x2="99.807877%" xlink:href="#a" y1="49.974863%" y2="49.974863%"/><linearGradient id="b2" x1="-76.716275%" x2="253.048488%" xlink:href="#a" y1="-18.433369%" y2="159.944956%"/><linearGradient id="b3" x1="50%" x2="50%" xlink:href="#a" y1="8.749501%" y2="102.926488%"/><linearGradient id="b4" x1="49.808429%" x2="49.808429%" xlink:href="#a3" y1="8.754888%" y2="102.926706%"/><linearGradient id="b5" x1="50%" x2="50%" xlink:href="#a3" y1="8.754888%" y2="102.926706%"/><linearGradient id="b6" x1="49.970981%" x2="49.970981%" xlink:href="#a" y1="8.739513%" y2="102.9165%"/><linearGradient id="b7" x1="50%" x2="50%" xlink:href="#a1" y1="8.74122%" y2="102.921173%"/><linearGradient id="b8" x1="49.904031%" x2="49.904031%" xlink:href="#a3" y1="8.754888%" y2="102.926706%"/><linearGradient id="b9" x1="50%" x2="50%" xlink:href="#a" y1="8.739513%" y2="102.9165%"/><linearGradient id="ca" x1="49.904031%" x2="49.904031%" xlink:href="#a3" y1="8.743376%" y2="102.927075%"/><linearGradient id="cb" x1="57.319015%" x2="42.011782%" xlink:href="#c" y1="43.635088%" y2="56.947368%"/><linearGradient id="cc" x1="60.327301%" x2="41.089283%" xlink:href="#c" y1="57.894737%" y2="43.189474%"/><linearGradient id="cd" x1=".011825%" x2="100.004411%" xlink:href="#a1" y1="50.015654%" y2="50.015654%"/><linearGradient id="ce" x1="53.900314%" x2="1.875982%" xlink:href="#a" y1="51.879909%" y2="201.92971%"/><g fill="none" fill-rule="evenodd"><path d="m555.89 321.21-176.56 99.89 178.67 102.69 178.67-102.69z" stroke="url(#b)"/><path d="m689 418.5v-343l-127 73v342z" fill="url(#d)" fill-rule="nonzero"/><path d="m434.94 417.75v-343l127 73v342z" fill="url(#e)" fill-rule="nonzero"/><path d="m560.5 4.5-125.5 71 127 73 127-73z" fill="url(#f)" fill-rule="nonzero"/><path d="m647.35 83.47c-.344238.2628411-.704978.5033346-1.08.72l-72.79 41.84c-7.116225 4.108554-15.883775 4.108554-23 0l-85.27-49c-.461658-.2607077-.747158-.7498143-.747158-1.28s.2855-1.0192923.747158-1.28l82.07-46.43.5-.28c8.311067-4.4755771 18.326521-4.4228443 26.59.14l71.72 39.63c2.821455 1.5525161 4.672876 4.4199897 4.926645 7.6303656s-1.124148 6.3331171-3.666645 8.3096344z" fill="url(#g)" fill-rule="nonzero"/><path d="m689.33 118-127.41 70.75-126.92-75.25" stroke="#0ff" stroke-width=".5"/><path d="m689.33 238-127.41 70.75-126.92-75.25" stroke="#0ff" stroke-width=".5"/><path d="m689.33 268-127.41 70.75-126.92-75.25" stroke="#0ff" stroke-width=".5"/><path d="m689.33 358-127.41 70.75-126.92-75.25" stroke="#0ff" stroke-width=".5"/><path d="m689.33 388-127.41 70.75-126.92-75.25" stroke="#0ff" stroke-width=".5"/><path d="m372.21 494.5-150.22 84.98 152.01 87.37 152-87.37z" stroke="url(#h)"/><path d="m349.2 489.82 143.73 83.43-112.78 64.77-144.02-83.14z" fill="url(#j)" fill-rule="nonzero"/><path d="m349.2 471.31 143.73 83.43-112.78 64.77-144.02-83.13z" fill="url(#k)" fill-rule="nonzero"/><path d="m349.2 471.31 143.73 83.43-112.78 64.77-144.02-83.13z" fill="url(#m)" fill-rule="nonzero"/><path d="m492.93 554.74v23.13l-112.78 64.78v-23.14z" fill="#0544c7" fill-rule="nonzero"/><path d="m236.13 536.38v23.13l144.02 83.14v-23.14z" fill="url(#n)" fill-rule="nonzero"/><path d="m349.2 463.21 143.73 83.43-112.78 64.78-144.02-83.14z" fill="url(#o)" fill-rule="nonzero"/><path d="m349.2 444.71 143.73 83.42-112.78 64.78-144.02-83.14z" fill="url(#p)" fill-rule="nonzero"/><path d="m492.93 528.13v23.14l-112.78 64.77v-23.13z" fill="#0544c7" fill-rule="nonzero"/><path d="m236.13 509.77v23.13l144.02 83.14v-23.13z" fill="url(#q)" fill-rule="nonzero"/><path d="m349.2 436.61 143.73 83.43-112.78 64.77-144.02-83.14z" fill="url(#j)" fill-rule="nonzero"/><path d="m349.2 418.1 143.73 83.43-112.78 64.77-144.02-83.13z" fill="url(#r)" fill-rule="nonzero"/><path d="m492.93 501.53v23.13l-112.78 64.78v-23.14z" fill="#0544c7" fill-rule="nonzero"/><path d="m236.13 483.17v23.13l144.02 83.14v-23.14z" fill="url(#n)" fill-rule="nonzero"/><path d="m784.48 438.06-141.75 80.19c-9.61 5.44-9.64 14.31-.07 19.81l144 82.77c9.58 5.5 25.1 5.5 34.68 0l144-82.76c9.57-5.51 9.5-14.3-.17-19.64l-145.77-80.54c-9.67-5.34-25.3-5.27-34.92.17z" stroke="url(#s)"/><path d="m935 525.5v-343l-127 73v342z" fill="url(#t)" fill-rule="nonzero"/><path d="m681 525.5v-343l127 73v342z" fill="url(#u)" fill-rule="nonzero"/><path d="m806.5 111.5-125.5 71 127 73 127-73z" fill="url(#v)" fill-rule="nonzero"/><path d="m922 226.84v63.27l-94.01 52.86-.02-1.98-.72-60.25 90.75-51.62z" fill="#0ff" fill-rule="nonzero"/><path d="m922 226.84v63.27l-94.01 52.86-.02-1.98-.03-3.24 90.06-50.64v-57.99z" fill="#007aff" fill-rule="nonzero"/><path d="m695.25 226.84v63.27l94.01 52.86.02-1.98.72-60.25-90.75-51.62z" fill="#0ff" fill-rule="nonzero"/><path d="m695.25 226.84v63.27l94.01 52.86.02-1.98.03-3.24-90.06-50.64v-57.99z" fill="url(#w)" fill-rule="nonzero"/><path d="m806.5 86.5-125.51 71 127.01 73 127-73z" fill="url(#x)" fill-rule="nonzero" opacity=".2"/><path d="m806.5 86.5-125.51 71 127.01 73 127-73z" stroke="#0ff" stroke-linecap="round" stroke-linejoin="round"/><path d="m808 230.5v25l127-73v-25z" fill="url(#y)" fill-rule="nonzero" opacity=".2"/><path d="m681 158.5v24l127 73v-24z" fill="url(#z)" fill-rule="nonzero" opacity=".2"/><path d="m935.33 315-127.41 70.75-126.92-75.25" stroke="#0ff" stroke-width=".5"/><path d="m935.33 346-127.41 70.75-126.92-75.25" stroke="#0ff" stroke-width=".5"/><path d="m935.33 475-127.41 70.75-126.92-75.25" stroke="#0ff" stroke-width=".5"/><path d="m935.33 506-127.41 70.75-126.92-75.25" stroke="#0ff" stroke-width=".5"/><path d="m972.33 219.7v73.95l-109.88 61.79-.03-2.31-.84-70.43 106.08-60.33z" fill="#0733cb" fill-rule="nonzero" opacity=".5"/><ellipse cx="787.05071" cy="390.644356" fill="#0ff" fill-rule="nonzero" rx="1.92" ry="3.19" transform="matrix(.97854496 -.2060334 .2060334 .97854496 -63.59958 170.540024)"/><ellipse cx="779.165238" cy="385.909381" fill="#0ff" fill-rule="nonzero" rx="1.92" ry="3.19" transform="matrix(.97854496 -.2060334 .2060334 .97854496 -62.7932 168.813765)"/><ellipse cx="771.264832" cy="381.249086" fill="#0ff" fill-rule="nonzero" rx="1.92" ry="3.19" transform="matrix(.97854496 -.2060334 .2060334 .97854496 -62.002527 167.08603)"/><ellipse cx="763.377601" cy="376.563253" fill="#0ff" fill-rule="nonzero" rx="1.92" ry="3.19" transform="matrix(.97854496 -.2060334 .2060334 .97854496 -61.20631 165.360463)"/><ellipse cx="755.500671" cy="371.916348" fill="#0ff" fill-rule="nonzero" rx="1.92" ry="3.19" transform="matrix(.97854496 -.2060334 .2060334 .97854496 -60.417892 163.637852)"/><ellipse cx="823.792427" cy="395.122366" fill="#0ff" fill-rule="nonzero" rx="3.19" ry="1.92" transform="matrix(.2060334 -.97854496 .97854496 .2060334 267.418673 1119.831889)"/><ellipse cx="831.669727" cy="390.395048" fill="#0ff" fill-rule="nonzero" rx="3.19" ry="1.92" transform="matrix(.2060334 -.97854496 .97854496 .2060334 278.298879 1123.786848)"/><ellipse cx="839.577157" cy="385.736487" fill="#0ff" fill-rule="nonzero" rx="3.19" ry="1.92" transform="matrix(.2060334 -.97854496 .97854496 .2060334 289.135726 1127.825882)"/><ellipse cx="847.451539" cy="381.047196" fill="#0ff" fill-rule="nonzero" rx="3.19" ry="1.92" transform="matrix(.2060334 -.97854496 .97854496 .2060334 299.976404 1131.808179)"/><ellipse cx="855.346479" cy="376.402541" fill="#0ff" fill-rule="nonzero" rx="3.19" ry="1.92" transform="matrix(.2060334 -.97854496 .97854496 .2060334 310.789726 1135.846031)"/><ellipse cx="865.495906" cy="530.748234" fill="#0ff" fill-rule="nonzero" rx="6" ry="4" transform="matrix(.55469922 -.83205095 .83205095 .55469922 -56.203565 956.479294)"/><ellipse cx="889.49805" cy="518.245271" fill="#0ff" fill-rule="nonzero" rx="6" ry="4" transform="matrix(.55469922 -.83205095 .83205095 .55469922 -35.11229 970.882721)"/><path d="m227.06 677.33 159 92.28c7.16 4.16 7.15 10.87 0 15l-119.08 68.4c-7.19 4.12-18.83 4.11-26 0l-159.3-92c-7.18-4.14-7.17-10.85 0-15l119.47-68.75c7.12-4.11 18.75-4.09 25.91.07z" stroke="url(#A)"/><path d="m221.16 684.09 145.41 84.41-114.1 65.53-145.7-84.11z" fill="url(#j)" fill-rule="nonzero"/><path d="m221.16 665.37 145.41 84.4-114.1 65.54-145.7-84.12z" fill="url(#B)" fill-rule="nonzero"/><path d="m366.57 749.77v23.41l-114.1 65.53v-23.4z" fill="url(#D)" fill-rule="nonzero"/><path d="m106.77 731.19v23.41l145.7 84.11v-23.4z" fill="url(#E)" fill-rule="nonzero"/><path d="m599.48 633.06-141.75 80.19c-9.61 5.44-9.64 14.31-.07 19.81l144 82.77c9.58 5.5 25.1 5.5 34.68 0l144-82.76c9.57-5.51 9.5-14.3-.17-19.64l-145.77-80.54c-9.67-5.34-25.3-5.27-34.92.17z" stroke="url(#F)"/><path d="m329 817 95 54 136.42-79.06" stroke="url(#G)"/><path d="m354.3 802.79 63.7 36.21 111.59-64.66" stroke="url(#H)"/><path d="m378.71 788.65 32.29 18.35 87.22-50.55" stroke="url(#I)"/><ellipse cx="368" cy="491" fill="#120f7e" fill-rule="nonzero" rx="49.71" ry="29"/><ellipse cx="368" cy="491" rx="49.71" ry="29" stroke="#0ff"/><ellipse cx="368" cy="491" fill="#0ff" fill-rule="nonzero" rx="39.06" ry="22.79"/><ellipse cx="354" cy="430" fill="#120f7e" fill-rule="nonzero" rx="5" ry="3"/><ellipse cx="259" cy="482" fill="#120f7e" fill-rule="nonzero" rx="5" ry="3"/><ellipse cx="377" cy="551" fill="#120f7e" fill-rule="nonzero" rx="5" ry="3"/><ellipse cx="467" cy="500" fill="#120f7e" fill-rule="nonzero" rx="5" ry="3"/><path d="m447.5 624.5 44 27" stroke="url(#J)"/><path d="m471.5 611.5 39 22" stroke="url(#K)"/><path d="m422.5 638.5 72 42" stroke="url(#L)"/><g stroke-linecap="round"><path d="m240.5 490.5v3" stroke="url(#M)" stroke-linejoin="round"/><path d="m243.5 492.5v3" stroke="url(#M)" stroke-linejoin="round"/><path d="m246.5 494.5v3" stroke="url(#M)" stroke-linejoin="round"/><path d="m249.5 495.5v3" stroke="url(#M)" stroke-linejoin="round"/><path d="m252.5 497.5v3" stroke="url(#M)" stroke-linejoin="round"/><path d="m255.5 499.5v3" stroke="url(#M)" stroke-linejoin="round"/><path d="m258.5 501.5v3" stroke="url(#M)" stroke-linejoin="round"/><path d="m261.5 502.5v3" stroke="url(#M)" stroke-linejoin="round"/><path d="m264.5 504.5v3" stroke="url(#M)" stroke-linejoin="round"/><path d="m267.5 506.5v3" stroke="url(#M)" stroke-linejoin="round"/><path d="m240.5 499.5v3" stroke="url(#M)" stroke-linejoin="round"/><path d="m243.5 501.5v3" stroke="url(#M)" stroke-linejoin="round"/><path d="m246.5 503.5v3" stroke="url(#M)" stroke-linejoin="round"/><path d="m249.5 504.5v3" stroke="url(#M)" stroke-linejoin="round"/><path d="m252.5 506.5v3" stroke="url(#M)" stroke-linejoin="round"/><path d="m255.5 508.5v3" stroke="url(#M)" stroke-linejoin="round"/><path d="m258.5 510.5v3" stroke="url(#M)" stroke-linejoin="round"/><path d="m261.5 511.5v3" stroke="url(#M)" stroke-linejoin="round"/><path d="m264.5 513.5v3" stroke="url(#M)" stroke-linejoin="round"/><path d="m267.5 515.5v3" stroke="url(#M)" stroke-linejoin="round"/><path d="m240.5 517.5v3" stroke="url(#M)" stroke-linejoin="round"/><path d="m243.5 519.5v3" stroke="url(#M)" stroke-linejoin="round"/><path d="m246.5 521.5v3" stroke="url(#M)" stroke-linejoin="round"/><path d="m249.5 522.5v3" stroke="url(#M)" stroke-linejoin="round"/><path d="m252.5 524.5v3" stroke="url(#M)" stroke-linejoin="round"/><path d="m255.5 526.5v3" stroke="url(#M)" stroke-linejoin="round"/><path d="m258.5 528.5v3" stroke="url(#M)" stroke-linejoin="round"/><path d="m261.5 529.5v3" stroke="url(#M)" stroke-linejoin="round"/><path d="m264.5 531.5v3" stroke="url(#M)" stroke-linejoin="round"/><path d="m267.5 533.5v3" stroke="url(#M)" stroke-linejoin="round"/><path d="m240.5 526.5v3" stroke="url(#M)" stroke-linejoin="round"/><path d="m243.5 528.5v3" stroke="url(#M)" stroke-linejoin="round"/><path d="m246.5 530.5v3" stroke="url(#M)" stroke-linejoin="round"/><path d="m249.5 531.5v3" stroke="url(#M)" stroke-linejoin="round"/><path d="m252.5 533.5v3" stroke="url(#M)" stroke-linejoin="round"/><path d="m255.5 535.5v3" stroke="url(#M)" stroke-linejoin="round"/><path d="m258.5 537.5v3" stroke="url(#M)" stroke-linejoin="round"/><path d="m261.5 538.5v3" stroke="url(#M)" stroke-linejoin="round"/><path d="m264.5 540.5v3" stroke="url(#M)" stroke-linejoin="round"/><path d="m267.5 542.5v3" stroke="url(#M)" stroke-linejoin="round"/><path d="m240.5 545.5v3" stroke="url(#M)" stroke-linejoin="round"/><path d="m243.5 547.5v3" stroke="url(#M)" stroke-linejoin="round"/><path d="m246.5 549.5v3" stroke="url(#M)" stroke-linejoin="round"/><path d="m249.5 550.5v3" stroke="url(#M)" stroke-linejoin="round"/><path d="m252.5 552.5v3" stroke="url(#M)" stroke-linejoin="round"/><path d="m255.5 554.5v3" stroke="url(#M)" stroke-linejoin="round"/><path d="m258.5 556.5v3" stroke="url(#M)" stroke-linejoin="round"/><path d="m261.5 557.5v3" stroke="url(#M)" stroke-linejoin="round"/><path d="m264.5 559.5v3" stroke="url(#M)" stroke-linejoin="round"/><path d="m267.5 561.5v3" stroke="url(#M)" stroke-linejoin="round"/><path d="m240.5 554.5v3" stroke="url(#M)" stroke-linejoin="round"/><path d="m243.5 556.5v3" stroke="url(#M)" stroke-linejoin="round"/><path d="m246.5 558.5v3" stroke="url(#M)" stroke-linejoin="round"/><path d="m249.5 559.5v3" stroke="url(#M)" stroke-linejoin="round"/><path d="m252.5 561.5v3" stroke="url(#M)" stroke-linejoin="round"/><path d="m255.5 563.5v3" stroke="url(#M)" stroke-linejoin="round"/><path d="m258.5 565.5v3" stroke="url(#M)" stroke-linejoin="round"/><path d="m261.5 566.5v3" stroke="url(#M)" stroke-linejoin="round"/><path d="m264.5 568.5v3" stroke="url(#M)" stroke-linejoin="round"/><path d="m267.5 570.5v3" stroke="url(#M)" stroke-linejoin="round"/><path d="m489.75 508.75v3" stroke="url(#N)" stroke-linejoin="round"/><path d="m486.75 510.75v3" stroke="url(#O)" stroke-linejoin="round"/><path d="m483.75 512.75v3" stroke="url(#P)" stroke-linejoin="round"/><path d="m480.75 513.75v3" stroke="url(#Q)" stroke-linejoin="round"/><path d="m477.75 515.75v3" stroke="url(#R)" stroke-linejoin="round"/><path d="m474.75 517.75v3" stroke="url(#S)" stroke-linejoin="round"/><path d="m471.75 519.75v3" stroke="url(#T)" stroke-linejoin="round"/><path d="m468.75 520.75v3" stroke="url(#U)" stroke-linejoin="round"/><path d="m465.75 522.75v3" stroke="url(#V)" stroke-linejoin="round"/><path d="m462.75 524.75v3" stroke="url(#W)" stroke-linejoin="round"/><path d="m489.75 517.75v3" stroke="url(#X)" stroke-linejoin="round"/><path d="m486.75 519.75v3" stroke="url(#Y)" stroke-linejoin="round"/><path d="m483.75 521.75v3" stroke="url(#Z)" stroke-linejoin="round"/><path d="m480.75 522.75v3" stroke="url(#aa)" stroke-linejoin="round"/><path d="m477.75 524.75v3" stroke="url(#ab)" stroke-linejoin="round"/><path d="m474.75 526.75v3" stroke="url(#ac)" stroke-linejoin="round"/><path d="m471.75 528.75v3" stroke="url(#ad)" stroke-linejoin="round"/><path d="m468.75 529.75v3" stroke="url(#ae)" stroke-linejoin="round"/><path d="m465.75 531.75v3" stroke="url(#af)" stroke-linejoin="round"/><path d="m462.75 533.75v3" stroke="url(#ag)" stroke-linejoin="round"/><path d="m489.75 534.75v3" stroke="url(#ah)" stroke-linejoin="round"/><path d="m486.75 536.75v3" stroke="url(#ai)" stroke-linejoin="round"/><path d="m483.75 538.75v3" stroke="url(#aj)" stroke-linejoin="round"/><path d="m480.75 539.75v3" stroke="url(#ak)" stroke-linejoin="round"/><path d="m477.75 541.75v3" stroke="url(#al)" stroke-linejoin="round"/><path d="m474.75 543.75v3" stroke="url(#am)" stroke-linejoin="round"/><path d="m471.75 545.75v3" stroke="url(#an)" stroke-linejoin="round"/><path d="m468.75 546.75v3" stroke="url(#ao)" stroke-linejoin="round"/><path d="m465.75 548.75v3" stroke="url(#ap)" stroke-linejoin="round"/><path d="m462.75 550.75v3" stroke="url(#aq)" stroke-linejoin="round"/><path d="m489.75 543.75v3" stroke="url(#ar)" stroke-linejoin="round"/><path d="m486.75 545.75v3" stroke="url(#as)" stroke-linejoin="round"/><path d="m483.75 547.75v3" stroke="url(#at)" stroke-linejoin="round"/><path d="m480.75 548.75v3" stroke="url(#au)" stroke-linejoin="round"/><path d="m477.75 550.75v3" stroke="url(#av)" stroke-linejoin="round"/><path d="m474.75 552.75v3" stroke="url(#aw)" stroke-linejoin="round"/><path d="m471.75 554.75v3" stroke="url(#ax)" stroke-linejoin="round"/><path d="m468.75 555.75v3" stroke="url(#ay)" stroke-linejoin="round"/><path d="m465.75 557.75v3" stroke="url(#az)" stroke-linejoin="round"/><path d="m462.75 559.75v3" stroke="url(#aA)" stroke-linejoin="round"/><path d="m489.75 561.75v3" stroke="url(#aB)" stroke-linejoin="round"/><path d="m486.75 563.75v3" stroke="url(#aC)" stroke-linejoin="round"/><path d="m483.75 565.75v3" stroke="url(#aa)" stroke-linejoin="round"/><path d="m480.75 566.75v3" stroke="url(#aD)" stroke-linejoin="round"/><path d="m477.75 568.75v3" stroke="url(#aE)" stroke-linejoin="round"/><path d="m474.75 570.75v3" stroke="url(#aF)" stroke-linejoin="round"/><path d="m471.75 572.75v3" stroke="url(#aG)" stroke-linejoin="round"/><path d="m468.75 573.75v3" stroke="url(#aH)" stroke-linejoin="round"/><path d="m465.75 575.75v3" stroke="url(#aI)" stroke-linejoin="round"/><path d="m462.75 577.75v3" stroke="url(#aJ)" stroke-linejoin="round"/><path d="m489.75 570.75v3" stroke="url(#aK)" stroke-linejoin="round"/><path d="m486.75 572.75v3" stroke="url(#aL)" stroke-linejoin="round"/><path d="m483.75 574.75v3" stroke="url(#aM)" stroke-linejoin="round"/><path d="m480.75 575.75v3" stroke="url(#aN)" stroke-linejoin="round"/><path d="m477.75 577.75v3" stroke="url(#aO)" stroke-linejoin="round"/><path d="m474.75 579.75v3" stroke="url(#aP)" stroke-linejoin="round"/><path d="m471.75 581.75v3" stroke="url(#aQ)" stroke-linejoin="round"/><path d="m468.75 582.75v3" stroke="url(#aR)" stroke-linejoin="round"/><path d="m465.75 584.75v3" stroke="url(#aS)" stroke-linejoin="round"/><path d="m462.75 586.75v3" stroke="url(#aT)" stroke-linejoin="round"/></g><path d="m252.73 815.15-.15.25-18.06-10.4-.3-.17-8.71-5.02-.3-.17-8.71-5.01h-.01l-.29-.18-8.71-5.01-.29-.17-8.71-5.01-.3-.17-8.7-5.02-.3-.17-8.71-5.01-.3-.18-8.71-5.01-.3-.17-8.7-5.01-.31-.17-8.7-5.01-.3-.18-8.7-5.01-.3-.17-8.72-5.02-.3-.17-28.76-16.56.15-.26 28.91 16.65.3.17 8.72 5.02.3.17 8.7 5.01.3.17 8.7 5.01.3.18 8.7 5.01.3.17 8.71 5.02.3.17 8.71 5.01.3.18 8.7 5.01.3.17 8.71 5.01.29.17 8.71 5.01.3.18 8.71 5.01.3.17 8.71 5.02.3.17z" fill="#d9d9d9" fill-rule="nonzero"/><path d="m259.29 811.27-145.75-84.13.15-.26 145.75 84.13z" fill="#d9d9d9" fill-rule="nonzero"/><path d="m193.567453 680.999447h1v168.07h-1z" fill="#d9d9d9" fill-rule="nonzero" transform="matrix(.50151074 -.86515142 .86515142 .50151074 -565.304568 548.956387)"/><path d="m200.496259 676.776992h1v168.22h-1z" fill="#d9d9d9" fill-rule="nonzero" transform="matrix(.50015114 -.86593812 .86593812 .50015114 -558.588251 554.075739)"/><path d="m207.733497 672.653439h1v168.19h-1z" fill="#d9d9d9" fill-rule="nonzero" transform="matrix(.50151074 -.86515142 .86515142 .50151074 -551.074296 557.081674)"/><path d="m214.574204 668.752056h1v168.21h-1z" fill="#d9d9d9" fill-rule="nonzero" transform="matrix(.50045338 -.86576349 .86576349 .50045338 -544.531399 561.987572)"/><path d="m221.846616 664.704047h1v168h-1z" fill="#d9d9d9" fill-rule="nonzero" transform="matrix(.5018127 -.86497631 .86497631 .5018127 -537.015368 565.01666)"/><path d="m301.6 786.9-145.65-84.06.15-.26 145.65 84.06z" fill="#d9d9d9" fill-rule="nonzero"/><path d="m235.852 656.537723h1v168.09h-1z" fill="#d9d9d9" fill-rule="nonzero" transform="matrix(.50120871 -.86532643 .86532643 .50120871 -523.130061 573.614978)"/><path d="m242.871009 652.415134h1v168.2h-1z" fill="#d9d9d9" fill-rule="nonzero" transform="matrix(.50045338 -.86576349 .86576349 .50045338 -516.247586 578.322361)"/><path d="m322.66 774.66-145.21-84.32.15-.26 145.21 84.32z" fill="#d9d9d9" fill-rule="nonzero"/><path d="m329.78 770.64-145.08-84.51.15-.26 145.08 84.51z" fill="#d9d9d9" fill-rule="nonzero"/><path d="m336.76 766.53-145.27-84.32.15-.26 145.27 84.32z" fill="#d9d9d9" fill-rule="nonzero"/><path d="m343.84 762.49-145.23-84.44.15-.26 145.23 84.44z" fill="#d9d9d9" fill-rule="nonzero"/><path d="m278.091658 632.295855h1v168.03h-1z" fill="#d9d9d9" fill-rule="nonzero" transform="matrix(.50045338 -.86576349 .86576349 .50045338 -481.161103 598.722133)"/><path d="m285.234675 628.033007h1v168.03h-1z" fill="#d9d9d9" fill-rule="nonzero" transform="matrix(.50151074 -.86515142 .86515142 .50151074 -473.768149 601.849243)"/><path d="m252.47 815.4-.15-.26 113.08-65.29.15.26z" fill="#d9d9d9" fill-rule="nonzero"/><path d="m243.7 810.08-.15-.26 112.89-65.18.15.26z" fill="#d9d9d9" fill-rule="nonzero"/><path d="m347.59 739.71-112.78 65.12-.29.17-.3-.17.29-.17 112.93-65.21z" fill="#d9d9d9" fill-rule="nonzero"/><path d="m338.65 734.49-112.85 65.15-.29.17-.3-.17.29-.17 113-65.24z" fill="#d9d9d9" fill-rule="nonzero"/><path d="m216.49 794.63h.01l.29-.17 112.79-65.12-.15-.26-112.94 65.2-.29.17z" fill="#d9d9d9" fill-rule="nonzero"/><path d="m320.46 724.22-112.68 65.05-.29.17-.29-.17.29-.17 112.82-65.14z" fill="#d9d9d9" fill-rule="nonzero"/><path d="m311.63 718.93-112.85 65.16-.29.17-.3-.17.29-.17 113-65.25z" fill="#d9d9d9" fill-rule="nonzero"/><path d="m302.62 713.75-112.84 65.16-.29.16-.3-.17.29-.17 112.99-65.24z" fill="#d9d9d9" fill-rule="nonzero"/><path d="m293.7 708.52-112.93 65.2-.29.17-.3-.18.29-.16 113.08-65.29z" fill="#d9d9d9" fill-rule="nonzero"/><path d="m284.7 703.33-112.94 65.2-.29.17-.3-.17.29-.17 113.09-65.29z" fill="#d9d9d9" fill-rule="nonzero"/><path d="m275.72 698.13-112.96 65.22-.29.17-.31-.17.3-.18 113.11-65.3z" fill="#d9d9d9" fill-rule="nonzero"/><path d="m266.77 692.91-113.01 65.25-.3.18-.3-.18.3-.17 113.16-65.34z" fill="#d9d9d9" fill-rule="nonzero"/><path d="m257.7 687.77-112.94 65.21-.3.17-.3-.17.3-.17 113.09-65.3z" fill="#d9d9d9" fill-rule="nonzero"/><path d="m248.81 682.52-113.07 65.27-.3.17-.3-.17.3-.17 113.22-65.36z" fill="#d9d9d9" fill-rule="nonzero"/><path d="m126.13 742.96-.15-.26 113.66-65.62.15.26z" fill="#d9d9d9" fill-rule="nonzero"/><path d="m117.18 737.75-.15-.26 113.73-65.67.15.26z" fill="#d9d9d9" fill-rule="nonzero"/><path d="m176.87 532.47v207.07c0 6-8.33 10.88-18.6 10.88s-18.6-4.87-18.6-10.88v-207.07z" fill="url(#aU)" fill-rule="nonzero"/><ellipse cx="158.27" cy="532.87" fill="#0ff" fill-rule="nonzero" rx="18.6" ry="10.97"/><path d="m340.66 623.18v131.24c0 6-8.33 10.88-18.6 10.88s-18.6-4.88-18.6-10.88v-131.24z" fill="url(#aV)" fill-rule="nonzero"/><ellipse cx="322.06" cy="623.26" fill="#0ff" fill-rule="nonzero" rx="18.6" ry="10.97"/><path d="m230.87 610.21v159.37c0 6-8.33 10.89-18.6 10.89s-18.6-4.88-18.6-10.89v-159.37z" fill="url(#aW)" fill-rule="nonzero"/><ellipse cx="212.27" cy="609.65" fill="#0ff" fill-rule="nonzero" rx="18.6" ry="10.97"/><path d="m279.63 664.03v70.39c0 4.93-6.83 8.93-15.26 8.93s-15.26-4-15.26-8.93v-70.39z" fill="url(#aX)" fill-rule="nonzero"/><ellipse cx="264.37" cy="664.15" fill="#0ff" fill-rule="nonzero" rx="15.26" ry="9"/><ellipse cx="547.21" cy="53.58" fill="#f0f" fill-rule="nonzero" rx="2.5" ry="1.5"/><ellipse cx="597.57" cy="68.67" fill="#0ff" fill-rule="nonzero" rx="2.01" ry="1.21"/><ellipse cx="538.07" cy="95.92" fill="#f0f" fill-rule="nonzero" rx="2.01" ry="1.21"/><ellipse cx="545.03" cy="99.88" fill="#f0f" fill-rule="nonzero" rx="2.01" ry="1.21"/><ellipse cx="604.83" cy="72.83" fill="#0ff" fill-rule="nonzero" rx="2.01" ry="1.21"/><path d="m542.83 42.17 31.17 18.16" fill="#0ff" fill-rule="nonzero"/><path d="m554 43.38 38.79 22.37" stroke="#0ff" stroke-linecap="round" stroke-linejoin="round"/><path d="m490.58 68.46 38.8 22.37" stroke="#0ff" stroke-linecap="round" stroke-linejoin="round"/><path d="m540.19 47.63 20.56 11.81" stroke="#0ff" stroke-linecap="round" stroke-linejoin="round"/><path d="m523.94 56.88 27.81 16" stroke="#0ff" stroke-linecap="round" stroke-linejoin="round"/><path d="m535.22 51.03 13.41 7.66" stroke="#0ff" stroke-linecap="round" stroke-linejoin="round"/><path d="m518.8 60.07 13.41 7.66" stroke="#0ff" stroke-linecap="round" stroke-linejoin="round"/><path d="m506.64 90.03 7.44 4.3" stroke="#0ff" stroke-linecap="round" stroke-linejoin="round"/><path d="m519.3 97.45 7.45 4.3" stroke="#0ff" stroke-linecap="round" stroke-linejoin="round"/><path d="m529.22 53.75 20.84 11.94" stroke="#f0f" stroke-linecap="round"/><path d="m567.03 63.19 7.5 4.25" stroke="#f0f" stroke-linecap="round"/><path d="m555.09 62.47 7.5 4.25" stroke="#0ff" stroke-linecap="round" stroke-linejoin="round"/><path d="m556.28 69.41 14.03 8.03" stroke="#0ff" stroke-linecap="round" stroke-linejoin="round"/><path d="m557.72 76.38 14.03 8.03" stroke="#f0f" stroke-linecap="round"/><path d="m540.47 78.71 14.03 8.03" stroke="#0ff" stroke-linecap="round" stroke-linejoin="round"/><path d="m512.93 62.92 20.84 11.93" stroke="#f0f" stroke-linecap="round"/><path d="m479.76 74.67 20.84 11.93" stroke="#f0f" stroke-linecap="round"/><path d="m647.35 83.47-99.53-55.73c8.311067-4.4755771 18.326521-4.4228443 26.59.14l71.72 39.63c2.824683 1.5579267 4.674424 4.4340712 4.920293 7.6505165.245868 3.2164452-1.145224 6.3403226-3.700293 8.3094835z" fill="#0ff" fill-rule="nonzero"/><ellipse cx="567.19" cy="30.87" fill="url(#aY)" fill-rule="nonzero" rx="2.33" ry="1.63"/><ellipse cx="573.46" cy="34.42" fill="url(#aZ)" fill-rule="nonzero" rx="2.33" ry="1.63"/><ellipse cx="579.85" cy="38.17" fill="url(#aZ)" fill-rule="nonzero" rx="2.33" ry="1.63"/><path d="m461.38 144.56 17.12 9.94.11 90.18-17.2-9.99z" fill="url(#a0)" fill-rule="nonzero"/><path d="m464.4 232.96-.02-83.19 11.12 6.46.1 83.24z" fill="url(#a2)" fill-rule="nonzero"/><path d="m467.4 231.23-.02-76.25 5.12 2.98.1 76.29z" fill="url(#a4)" fill-rule="nonzero"/><path d="m511.71 173.56 17.12 9.94.11 90.18-17.2-9.99z" fill="url(#a5)" fill-rule="nonzero"/><path d="m514.74 261.96-.03-83.19 11.13 6.46.1 83.24z" fill="url(#a6)" fill-rule="nonzero"/><path d="m517.74 260.23-.03-76.25 5.13 2.98.09 76.29z" fill="url(#a4)" fill-rule="nonzero"/><path d="m486.71 159.15 17.12 9.93.11 90.19-17.2-10z" fill="url(#a7)" fill-rule="nonzero"/><path d="m489.74 247.54-.03-83.18 11.13 6.45.1 83.24z" fill="url(#a8)" fill-rule="nonzero"/><path d="m492.74 245.82-.03-76.25 5.13 2.97.09 76.29z" fill="url(#a9)" fill-rule="nonzero"/><path d="m486.09 160.22 17.12 9.94.11 90.18-123.84 306.96-144.01-83.13" fill="url(#ba)" fill-rule="nonzero" opacity=".7"/><g fill-rule="nonzero" opacity=".6" transform="translate(191 56)"><path d="m198.73.42-51.37 29.92c-1.331495.8737654-2.167096 2.329569-2.25 3.92v1.95c0 1.44 1 2 2.26 1.3l51.47-29.72c1.324531-.87027772 2.147543-2.32637614 2.21-3.91v-2.17c-.05-1.45-1.05-2.03-2.32-1.29z" fill="#3943cf"/><path d="m134.4 37.62-27.4 15.93c-1.328747.871712-2.163981 2.323163-2.25 3.91v2c0 1.43 1 2 2.25 1.3l27.49-15.74c1.330555-.8612832 2.158737-2.3161968 2.22-3.9v-2.17c-.04-1.48-1.07-2.06-2.31-1.33z" fill="url(#bb)"/><path d="m94.48 60.95-11.48 6.7c-1.3314946.8737654-2.1670962 2.329569-2.25 3.92v1.95c0 1.44 1 2 2.26 1.32l11.53-6.55c1.3399035-.8437353 2.1835707-2.288422 2.26-3.87v-2.17c-.06-1.45-1.08-2.03-2.32-1.3z" fill="#f0f"/><path d="m70.34 75.01-3.1 1.87c-1.3201049.8922741-2.1484431 2.349262-2.24 3.94v2c0 1.43 1 2 2.27 1.32l3.13-1.78c1.3350765-.8489571 2.168511-2.2990583 2.23-3.88v-2.17c-.04-1.48-1.06-2.05-2.29-1.3z" fill="#094dec"/><path d="m164 41.74-51.37 29.92c-1.331495.8737654-2.167096 2.329569-2.25 3.92v2c0 1.44 1 2 2.25 1.3l51.47-29.72c1.330848-.8656745 2.158601-2.3235637 2.22-3.91v-2.17c-.04-1.49-1.06-2.07-2.32-1.34z" fill="url(#bc)"/><path d="m99.68 78.95-27.39 15.93c-1.3287472.871712-2.1639812 2.323163-2.25 3.91v2c0 1.43 1 2 2.26 1.3l27.48-15.74c1.341633-.8648583 2.171809-2.334495 2.22-3.93v-2.17c0-1.45-1.07-2.03-2.32-1.3z" fill="url(#bd)"/><path d="m59.76 102.28-11.45 6.7c-1.3314946.873765-2.1670962 2.329569-2.25 3.92v1.95c0 1.44 1 2 2.27 1.32l11.53-6.55c1.3287108-.853675 2.157351-2.301929 2.22-3.88v-2.17c-.08-1.44-1.08-2.02-2.32-1.29z" fill="#0ff"/><path d="m190.67 26.77-11.45 6.7c-1.328366.8865629-2.153299 2.3543496-2.22 3.95v1.95c0 1.44 1 2 2.26 1.32l11.53-6.54c1.334082-.8546005 2.166653-2.3069322 2.23-3.89v-2.17c-.08-1.47-1.11-2.05-2.35-1.32z" fill="#0ff"/><path d="m35.63 116.34-3.1 1.87c-1.3163066.89443-2.1407495 2.351069-2.23 3.94v2c0 1.43 1 2 2.26 1.32l3.14-1.78c1.3312611-.8526 2.163443-2.300521 2.23-3.88v-2.17c-.06-1.48-1.07-2.05-2.3-1.3z" fill="url(#be)"/><path d="m151 70.05-51.37 29.92c-1.3314946.873765-2.1670962 2.329569-2.25 3.92v1.95c0 1.44 1 2 2.25 1.3l51.47-29.72c1.330848-.8656745 2.158601-2.3235637 2.22-3.91v-2.17c-.05-1.44-1.08-2.01-2.32-1.29z" fill="url(#bf)"/><path d="m86.67 107.26-27.4 15.93c-1.3287472.871712-2.1639812 2.323163-2.25 3.91v2c0 1.43 1 2 2.26 1.31l27.49-15.75c1.3292937-.862474 2.1570688-2.316673 2.22-3.9v-2.17c-.06-1.47-1.08-2.05-2.32-1.33z" fill="url(#bg)"/><path d="m46.75 130.59-11.46 6.7c-1.3276871.875981-2.159365 2.331418-2.24 3.92v1.95c0 1.44 1 2 2.26 1.32l11.53-6.54c1.3315382-.855675 2.1605672-2.308342 2.22-3.89v-2.17c-.06-1.46-1.06-2.02-2.31-1.29z" fill="url(#bh)"/><path d="m22.45 144.62-11.45 6.7c-1.32768707.875981-2.15936496 2.331418-2.24 3.92v1.95c0 1.44 1 2 2.26 1.32l11.53-6.54c1.3315382-.855675 2.1605672-2.308342 2.22-3.89v-2.17c-.06-1.44-1.08-2.02-2.32-1.29z" fill="#3943cf"/><path d="m177.65 55.08-11.45 6.7c-1.331495.8737654-2.167096 2.329569-2.25 3.92v1.95c0 1.44 1 2 2.27 1.32l11.52-6.55c1.334082-.8546005 2.166653-2.3069322 2.23-3.89v-2.17c-.05-1.43-1.08-2-2.32-1.28z" fill="url(#bi)"/><path d="m188 70.01-51.37 29.92c-1.331495.873765-2.167096 2.329569-2.25 3.92v1.95c0 1.44 1 2 2.25 1.3l51.5-29.68c1.330848-.8656745 2.158601-2.3235637 2.22-3.91v-2.17c-.05-1.47-1.08-2.05-2.35-1.33z" fill="#0ff"/><path d="m123.7 107.22-27.4 15.93c-1.3314946.873765-2.1670962 2.329569-2.25 3.92v2c0 1.44 1 2 2.26 1.31l27.49-15.75c1.329294-.862474 2.157069-2.316673 2.22-3.9v-2.17c-.02-1.48-1.08-2.06-2.32-1.34z" fill="#3943cf"/><path d="m83.78 130.55-11.46 6.7c-1.3276871.875981-2.159365 2.331418-2.24 3.92v1.95c0 1.44 1 2 2.26 1.32l11.53-6.54c1.3315382-.855675 2.1605672-2.308342 2.22-3.89v-2.17c-.09-1.42-1.09-2.02-2.31-1.29z" fill="url(#bj)"/><path d="m59.48 144.58-11.48 6.7c-1.3276871.875981-2.159365 2.331418-2.24 3.92v2c0 1.44 1 2 2.26 1.32l11.53-6.54c1.3315382-.855675 2.1605672-2.308342 2.22-3.89v-2.17c-.03-1.5-1.05-2.07-2.29-1.34z" fill="url(#bk)"/><path d="m214.68 55.04-11.45 6.7c-1.331495.8737654-2.167096 2.329569-2.25 3.92v1.95c0 1.44 1 2 2.27 1.32l11.52-6.51c1.334082-.8546005 2.166653-2.3069322 2.23-3.89v-2.17c0-1.47-1.08-2.04-2.32-1.32z" fill="#f0f"/><path d="m143 117.42-51.37 29.92c-1.3287472.871712-2.1639812 2.323163-2.25 3.91v2c0 1.43 1 2 2.26 1.3l51.47-29.73c1.324227-.865911 2.147656-2.319022 2.21-3.9v-2.17c-.01-1.48-1.03-2.06-2.32-1.33z" fill="url(#bl)"/><path d="m78.71 154.62-27.39 15.94c-1.3287472.871712-2.1639812 2.323163-2.25 3.91v1.95c0 1.44 1 2 2.25 1.31l27.49-15.74c1.3305552-.861283 2.1587368-2.316197 2.22-3.9v-2.17c-.03-1.44-1.03-2.02-2.32-1.3z" fill="url(#bm)"/><path d="m38.79 177.95-11.45 6.7c-1.3314946.873765-2.1670962 2.329569-2.25 3.92v2c0 1.43 1 2 2.26 1.31l11.53-6.54c1.3340819-.8546 2.1666525-2.306932 2.23-3.89v-2.17c-.06-1.47-1.11-2.05-2.32-1.33z" fill="#f0f"/><path d="m14.49 191.99-11.49 6.7c-1.32874721.871712-2.16398118 2.323163-2.25 3.91v2c0 1.43 1 2 2.26 1.32l11.53-6.55c1.3340819-.8546 2.1666525-2.306932 2.23-3.89v-2.17c-.02-1.47-1.04-2.05-2.28-1.32z" fill="url(#bn)"/><path d="m169.7 102.42-11.46 6.7c-1.327687.875981-2.159365 2.331418-2.24 3.92v2c0 1.44 1 2 2.26 1.32l11.53-6.54c1.335389-.852015 2.165677-2.306888 2.22-3.89v-2.17c-.01-1.46-1.07-2.04-2.31-1.34z" fill="#094dec"/></g><g fill-rule="nonzero" opacity=".1" transform="translate(0 468)"><path d="m187.64.72-48.64 28.33c-1.258221.8288596-2.048587 2.205507-2.13 3.71v1.85c0 1.36.95 1.91 2.13 1.23l48.74-28.15c1.260008-.81847888 2.043299-2.1985635 2.1-3.7v-2.05c-.06-1.36-1.03-1.91-2.2-1.22z" fill="url(#bo)"/><path d="m126.71 35.95-25.94 15.09c-1.2582206.8288596-2.0485869 2.205507-2.13 3.71v1.84c0 1.37 1 1.92 2.14 1.24l26-14.91c1.259718-.8140813 2.043441-2.1911942 2.1-3.69v-2c-.02-1.41-.99-1.96-2.17-1.28z" fill="url(#bp)"/><path d="m88.91 58.04-10.84 6.38c-1.2582206.8288596-2.0485869 2.205507-2.13 3.71v1.85c0 1.36 1 1.92 2.14 1.25l10.92-6.2c1.2619775-.8085977 2.0496791-2.182409 2.11-3.68v-2c-.05-1.45-1.02-1.99-2.2-1.31z" fill="#f0f"/><path d="m66.05 71.36-2.93 1.77c-1.2493114.8482783-2.029988 2.2320367-2.11 3.74v1.85c0 1.36 1 1.92 2.14 1.25l3-1.68c1.2645274-.8061676 2.0530644-2.181436 2.11-3.68v-2.06c-.08-1.36-1.04-1.89-2.21-1.19z" fill="url(#bq)"/><path d="m154.76 33.59-48.65 28.34c-1.256679.8256728-2.04706 2.1986342-2.13 3.7v1.85c0 1.37 1 1.92 2.14 1.24l48.74-28.15c1.258747-.8196658 2.041633-2.1990375 2.1-3.7v-2.06c-.05-1.39-1.02-1.91-2.2-1.22z" fill="url(#br)"/><path d="m93.84 68.83-25.94 15.08c-1.2582206.8288596-2.0485869 2.205507-2.13 3.71v1.85c0 1.36 1 1.92 2.14 1.24l26-14.91c1.2635327-.8118047 2.0512091-2.189305 2.11-3.69v-2.06c-.02-1.36-1.02-1.91-2.18-1.22z" fill="url(#bs)"/><path d="m56 90.92-10.85 6.34c-1.2573756.8342829-2.0469772 2.2133055-2.13 3.72v1.84c0 1.37 1 1.93 2.15 1.25l10.91-6.19c1.2645274-.8061676 2.0530644-2.181436 2.11-3.68v-2.06c-.01-1.36-.98-1.91-2.19-1.22z" fill="#f0f"/><path d="m180 19.42-10.84 6.34c-1.258221.8288596-2.048587 2.205507-2.13 3.71v1.85c0 1.36 1 1.92 2.14 1.25l10.92-6.2c1.261978-.8085977 2.049679-2.182409 2.11-3.68v-2c-.05-1.41-1.02-1.96-2.2-1.27z" fill="#f0f"/><path d="m33.18 104.23-2.94 1.77c-1.2446634.852548-2.0239302 2.233807-2.11 3.74v1.85c0 1.36 1 1.92 2.15 1.25l3-1.68c1.2619775-.808598 2.0496791-2.182409 2.11-3.68v-2c-.09-1.41-1.05-1.95-2.21-1.25z" fill="url(#bt)"/><path d="m142.43 54.14-48.64 28.34c-1.259084.8234034-2.0502299 2.1976943-2.13 3.7v1.85c0 1.36 1 1.91 2.13 1.23l48.74-28.15c1.257192-.816466 2.040101-2.1921479 2.1-3.69v-2.06c-.05-1.36-1.02-1.94-2.2-1.22z" fill="url(#bu)"/><path d="m81.51 89.42-25.94 15c-1.2582206.82886-2.0485869 2.205507-2.13 3.71v1.85c0 1.36 1 1.91 2.14 1.24l26-14.91c1.2600075-.8184789 2.0432988-2.1985635 2.1-3.7v-2.05c-.02-1.32-.99-1.87-2.17-1.14z" fill="url(#bv)"/><path d="m43.71 111.47-10.85 6.34c-1.2546517.832211-2.0438934 2.206899-2.13 3.71v1.9c0 1.36 1 1.92 2.15 1.25l10.91-6.2c1.2645274-.806168 2.0530644-2.181436 2.11-3.68v-2.05c-.05-1.41-1.02-1.96-2.19-1.27z" fill="url(#bw)"/><path d="m20.7 124.75-10.85 6.35c-1.25822058.82886-2.04858686 2.205507-2.13 3.71v1.85c0 1.36 1 1.92 2.15 1.25l10.91-6.2c1.2645274-.806168 2.0530644-2.181436 2.11-3.68v-2.06c-.05-1.36-1.02-1.9-2.19-1.22z" fill="url(#bx)"/><path d="m167.67 39.96-10.84 6.35c-1.258221.8288596-2.048587 2.205507-2.13 3.71v1.85c0 1.36 1 1.92 2.14 1.25l10.92-6.2c1.261978-.8085977 2.049679-2.182409 2.11-3.68v-2.06c-.05-1.36-1.02-1.9-2.2-1.22z" fill="url(#by)"/><path d="m177.5 47.84-48.65 28.33c-1.254652.8322108-2.043893 2.2068994-2.13 3.71v1.85c0 1.36 1 1.91 2.14 1.23l48.74-28.15c1.257192-.816466 2.040101-2.1921479 2.1-3.69v-2.06c-.05-1.36-1.02-1.91-2.2-1.22z" fill="url(#bz)"/><path d="m116.58 83.07-25.94 15.09c-1.2620282.8266474-2.0563162 2.203661-2.14 3.71v1.84c0 1.37 1 1.92 2.14 1.24l26-14.91c1.262266-.813007 2.04953-2.1897869 2.11-3.69v-2c-.03-1.41-1-1.93-2.17-1.28z" fill="url(#bA)"/><path d="m78.77 105.17-10.84 6.34c-1.2582206.82886-2.0485869 2.205507-2.13 3.71v1.85c0 1.36 1 1.92 2.15 1.25l10.91-6.2c1.281683-.803193 2.082926-2.18852 2.14-3.7v-2c-.08-1.4-1-1.94-2.23-1.25z" fill="url(#bB)"/><path d="m55.76 118.42-10.84 6.35c-1.2582206.82886-2.0485869 2.205507-2.13 3.71v1.85c0 1.36 1 1.92 2.14 1.25l10.92-6.2c1.2619775-.808598 2.0496791-2.182409 2.11-3.68v-2.06c-.05-1.33-1.02-1.88-2.2-1.22z" fill="url(#bC)"/><path d="m202.74 33.66-10.85 6.35c-1.252031.8332936-2.037732 2.2082702-2.12 3.71v1.85c0 1.36 1 1.92 2.14 1.25l10.92-6.2c1.259433-.8096719 2.043593-2.1838187 2.1-3.68v-2.06c-.05-1.36-1.01-1.9-2.19-1.22z" fill="url(#bD)"/><path d="m134.9 86.42-48.65 28.34c-1.2546517.832211-2.0438934 2.206899-2.13 3.71v1.85c0 1.36 1 1.91 2.14 1.23l48.74-28.13c1.260008-.8184789 2.043299-2.1985635 2.1-3.7v-2.05c-.05-1.34-1.02-1.89-2.2-1.25z" fill="url(#bE)"/><path d="m74 121.7-26 15.09c-1.261688.822321-2.0563753 2.196313-2.14 3.7v1.85c0 1.36 1 1.92 2.14 1.24l26-14.91c1.2597179-.814081 2.0434407-2.191194 2.1-3.69v-2c.02-1.42-.95-1.96-2.1-1.28z" fill="url(#bF)"/><path d="m36.17 143.79-10.84 6.35c-1.2582206.82886-2.0485869 2.205507-2.13 3.71v1.85c0 1.36 1 1.92 2.14 1.25l10.92-6.2c1.2619775-.808598 2.0496791-2.182409 2.11-3.68v-2.06c-.05-1.36-1.02-1.9-2.2-1.22z" fill="url(#bx)"/><path d="m13.16 157.08-10.84 6.34c-1.26183934.825451-2.05335525 2.204101-2.13 3.71v1.85c0 1.36 1 1.92 2.14 1.24l10.92-6.19c1.2619775-.808598 2.0496791-2.182409 2.11-3.68v-2.06c-.05-1.35-1.02-1.87-2.2-1.21z" fill="url(#bG)"/><path d="m160.14 72.29-10.85 6.35c-1.255614.8299412-2.042439 2.2068852-2.12 3.71v1.85c0 1.36 1 1.92 2.14 1.24l10.92-6.19c1.259433-.8096719 2.043593-2.1838187 2.1-3.68v-2.06c-.05-1.36-1.01-1.91-2.19-1.22z" fill="url(#bH)"/></g><g fill-rule="nonzero" opacity=".1" transform="translate(715)"><path d="m257.13 1.34-66.66 38.83c-1.724645 1.1337156-2.808378 3.019114-2.92 5.08v2.53c0 1.87 1.31 2.62 2.93 1.69l66.78-38.57c1.728827-1.11971455 2.803542-3.01166157 2.88-5.07v-2.81c-.07-1.87-1.4-2.6-3.01-1.68z" fill="url(#bI)"/><path d="m173.65 49.62-35.54 20.67c-1.722253 1.1359662-2.805229 3.0200476-2.92 5.08v2.54c0 1.86 1.31 2.62 2.93 1.69l35.66-20.43c1.727003-1.1134291 2.804898-2.9969484 2.89-5.05l-.05-2.82c-.02-1.88-1.35-2.62-2.97-1.68z" fill="url(#bJ)"/><path d="m121.86 79.89-14.86 8.7c-1.722253 1.1359662-2.805229 3.0200476-2.92 5.08v2.53c0 1.87 1.32 2.64 2.94 1.72l15-8.49c1.715425-1.0996792 2.789487-2.9643714 2.88-5v-2.82c-.1-1.91-1.43-2.66-3.04-1.72z" fill="#f0f"/><path d="m90.54 98.14-4 2.42c-1.7125516 1.160728-2.7851091 3.054347-2.9 5.12v2.54c0 1.86 1.32 2.63 2.94 1.71l4.07-2.3c1.7179881-1.098601 2.7955927-2.962969 2.89-5v-2.82c-.09-1.91-1.41-2.64-3-1.67z" fill="url(#bK)"/><path d="m212.08 46.42-66.65 38.82c-1.722253 1.1359662-2.805229 3.0200476-2.92 5.08v2.54c0 1.86 1.31 2.62 2.93 1.69l66.78-38.57c1.718728-1.1278808 2.787488-3.0158986 2.87-5.07v-2.82c-.09-1.89-1.39-2.67-3.01-1.67z" fill="url(#bL)"/><path d="m128.61 94.67-35.54 20.67c-1.7270523 1.131446-2.8115504 3.018176-2.92 5.08v2.53c0 1.87 1.31 2.63 2.93 1.7l35.66-20.43c1.727271-1.116511 2.80201-3.004768 2.88-5.06v-2.81c-.07-1.87-1.4-2.62-3.01-1.68z" fill="url(#bM)"/><path d="m76.81 124.94-14.81 8.69c-1.7223802 1.139111-2.8021788 3.027831-2.91 5.09v2.53c0 1.87 1.31 2.63 2.93 1.71l15-8.49c1.7179881-1.098601 2.7955927-2.962969 2.89-5v-2.82c-.16-1.91-1.49-2.65-3.1-1.71z" fill="#f0f"/><path d="m246.67 26.97-14.86 8.69c-1.722253 1.1359662-2.805229 3.0200476-2.92 5.08v2.54c0 1.86 1.32 2.63 2.94 1.71l15-8.49c1.728264-1.1122323 2.806569-2.9964673 2.89-5.05v-2.81c-.11-1.87-1.44-2.62-3.05-1.67z" fill="#f0f"/><path d="m45.49 143.18-4 2.42c-1.7102918 1.166054-2.7789477 3.06301-2.89 5.13v2.53c0 1.87 1.31 2.63 2.94 1.72l4.07-2.31c1.7167396-1.099795 2.7939355-2.963455 2.89-5v-2.81c-.09-1.91-1.41-2.64-3.01-1.68z" fill="url(#bN)"/><path d="m195.19 74.54-66.65 38.88c-1.724645 1.133716-2.808378 3.019114-2.92 5.08v2.53c0 1.87 1.31 2.62 2.92 1.69l66.79-38.57c1.722486-1.124357 2.792443-3.0144896 2.87-5.07v-2.81c-.07-1.92-1.39-2.67-3.01-1.73z" fill="url(#bO)"/><path d="m111.72 122.82-35.55 20.67c-1.7246447 1.133716-2.8083777 3.019114-2.92 5.08v2.53c0 1.87 1.32 2.63 2.93 1.7l35.67-20.38c1.727271-1.116511 2.80201-3.004768 2.88-5.06v-2.81c-.07-1.92-1.4-2.67-3.01-1.73z" fill="url(#bP)"/><path d="m59.92 153.09-14.86 8.69c-1.7226033 1.140268-2.8051912 3.027382-2.92 5.09v2.55c0 1.87 1.32 2.63 2.94 1.71l15-8.49c1.7179881-1.098601 2.7955927-2.962969 2.89-5v-2.82c-.11-1.92-1.44-2.67-3.05-1.73z" fill="url(#bQ)"/><path d="m28.39 171.3-14.86 8.69c-1.7222534 1.135966-2.8052293 3.020048-2.92 5.08v2.54c0 1.86 1.32 2.63 2.94 1.71l15-8.49c1.7282641-1.112232 2.8065688-2.996467 2.89-5.05v-2.81c-.11-1.87-1.44-2.62-3.05-1.67z" fill="url(#bR)"/><path d="m229.78 55.12-14.86 8.69c-1.724988 1.1380293-2.808328 3.0264535-2.92 5.09v2.52c0 1.87 1.32 2.63 2.94 1.71l15-8.49c1.715425-1.0996792 2.789487-2.9643714 2.88-5v-2.82c-.1-1.9-1.43-2.64-3.04-1.7z" fill="url(#bS)"/><path d="m243.24 65.9-66.65 38.83c-1.725846 1.132583-2.809961 3.018645-2.92 5.08v2.54c0 1.86 1.31 2.62 2.92 1.68l66.79-38.56c1.718728-1.1278808 2.787488-3.0158986 2.87-5.07v-2.82c-.07-1.86-1.4-2.61-3.01-1.68z" fill="url(#bT)"/><path d="m159.77 114.18-35.55 20.68c-1.724645 1.133716-2.808378 3.019114-2.92 5.08v2.53c0 1.87 1.31 2.63 2.93 1.7l35.67-20.43c1.720985-1.122439 2.793703-3.007145 2.88-5.06v-2.82c-.07-1.86-1.4-2.61-3.01-1.68z" fill="url(#bU)"/><path d="m108 144.42-14.86 8.69c-1.7249882 1.138029-2.8083279 3.026453-2.92 5.09v2.53c0 1.86 1.32 2.63 2.94 1.71l15-8.49c1.728264-1.112232 2.806569-2.996467 2.89-5.05v-2.81c-.14-1.83-1.47-2.58-3.05-1.67z" fill="url(#bV)"/><path d="m76.44 162.66-14.86 8.7c-1.7246447 1.133716-2.8083777 3.019114-2.92 5.08v2.53c0 1.87 1.32 2.64 2.94 1.72l15-8.49c1.7154248-1.099679 2.7894875-2.964371 2.88-5v-2.82c-.1-1.91-1.43-2.66-3.04-1.72z" fill="url(#bW)"/><path d="m277.83 46.48-14.87 8.7c-1.719641 1.1370487-2.799076 3.021423-2.91 5.08v2.54c0 1.86 1.31 2.63 2.94 1.71l15-8.49c1.720498-1.0961991 2.798927-2.9619929 2.89-5v-2.81c-.12-1.92-1.44-2.67-3.05-1.73z" fill="url(#bX)"/><path d="m184.87 118.83-66.66 38.83c-1.722039 1.134797-2.802231 3.020493-2.91 5.08v2.53c0 1.87 1.31 2.63 2.92 1.69l66.78-38.54c1.726005-1.117707 2.800335-3.005246 2.88-5.06v-2.82c-.07-1.9-1.4-2.65-3.01-1.71z" fill="url(#bY)"/><path d="m101.4 167.11-35.55 20.68c-1.7231032 1.130528-2.8068508 3.01224-2.92 5.07v2.56c0 1.86 1.31 2.62 2.93 1.7l35.67-20.43c1.719741-1.12361 2.792062-3.007617 2.88-5.06v-2.82c-.07-1.88-1.41-2.64-3.01-1.7z" fill="url(#bZ)"/><path d="m49.6 197.42-14.86 8.7c-1.7222534 1.135966-2.8052293 3.020048-2.92 5.08v2.54c0 1.86 1.32 2.63 2.94 1.71l15-8.49c1.7282641-1.112232 2.8065688-2.996467 2.89-5.05v-2.81c-.11-1.91-1.44-2.68-3.05-1.68z" fill="url(#b0)"/><path d="m18.07 215.59-14.86 8.69c-1.72260332 1.140268-2.80519123 3.027382-2.92 5.09v2.53c0 1.87 1.32 2.63 2.94 1.71l15-8.49c1.7154248-1.099679 2.7894875-2.964371 2.88-5v-2.82c-.11-1.88-1.43-2.65-3.04-1.71z" fill="url(#b1)"/><path d="m219.45 99.42-14.86 8.7c-1.722039 1.134797-2.802231 3.020493-2.91 5.08v2.53c0 1.87 1.31 2.64 2.94 1.71l15-8.48c1.733354-1.107393 2.81332-2.994531 2.89-5.05v-2.82c-.12-1.87-1.45-2.62-3.06-1.67z" fill="url(#b2)"/></g><path d="m911.28 378.56-17.13 9.94-.11 90.18 17.21-9.99z" fill="url(#b3)" fill-rule="nonzero"/><path d="m908.25 466.96.03-83.19-11.13 6.46-.1 83.24z" fill="url(#a6)" fill-rule="nonzero"/><path d="m905.25 465.23.03-76.25-5.13 2.98-.09 76.29z" fill="url(#b4)" fill-rule="nonzero"/><path d="m860.94 407.56-17.12 9.94-.11 90.18 17.2-9.99z" fill="url(#a0)" fill-rule="nonzero"/><path d="m857.91 495.96.03-83.19-11.12 6.46-.1 83.24z" fill="url(#a2)" fill-rule="nonzero"/><path d="m854.92 494.23.02-76.25-5.12 2.98-.1 76.29z" fill="url(#b5)" fill-rule="nonzero"/><path d="m885.94 393.15-17.12 9.93-.11 90.19 17.2-10z" fill="url(#b6)" fill-rule="nonzero"/><path d="m882.91 481.54.03-83.18-11.12 6.45-.1 83.24z" fill="url(#b7)" fill-rule="nonzero"/><path d="m879.92 479.82.02-76.25-5.12 2.97-.1 76.29z" fill="url(#a9)" fill-rule="nonzero"/><path d="m713.71 385.56 17.12 9.94.11 90.18-17.2-9.99z" fill="url(#a0)" fill-rule="nonzero"/><path d="m716.74 473.96-.03-83.19 11.13 6.46.1 83.24z" fill="url(#a6)" fill-rule="nonzero"/><path d="m719.74 472.23-.03-76.25 5.13 2.98.09 76.29z" fill="url(#b5)" fill-rule="nonzero"/><path d="m764.04 414.56 17.13 9.94.11 90.18-17.21-9.99z" fill="url(#b3)" fill-rule="nonzero"/><path d="m767.07 502.96-.03-83.19 11.13 6.46.1 83.24z" fill="url(#a6)" fill-rule="nonzero"/><path d="m770.07 501.23-.02-76.25 5.12 2.98.09 76.29z" fill="url(#b8)" fill-rule="nonzero"/><path d="m739.04 400.15 17.13 9.93.11 90.19-17.21-10z" fill="url(#b9)" fill-rule="nonzero"/><path d="m742.07 488.54-.03-83.18 11.13 6.45.1 83.24z" fill="url(#a8)" fill-rule="nonzero"/><path d="m745.07 486.82-.02-76.25 5.12 2.97.09 76.29z" fill="url(#ca)" fill-rule="nonzero"/><path d="m743 712.5v-213l-127 73v212z" fill="url(#cb)" fill-rule="nonzero"/><path d="m489 712.5v-213l127 73v212z" fill="url(#cc)" fill-rule="nonzero"/><path d="m614.5 428.5-125.5 71 127 73 127-73z" fill="url(#v)" fill-rule="nonzero"/><path d="m730 543.84v63.27l-94.01 52.86-.02-1.98-.72-60.25 90.75-51.62z" fill="#0ff" fill-rule="nonzero"/><path d="m730 543.84v63.27l-94.01 52.86-.02-1.98-.03-3.24 90.06-50.64v-57.99z" fill="#007aff" fill-rule="nonzero"/><path d="m503.25 543.84v63.27l94.01 52.86.02-1.98.72-60.25-90.75-51.62z" fill="#0ff" fill-rule="nonzero"/><path d="m503.25 543.84v63.27l94.01 52.86.02-1.98.03-3.24-90.06-50.64v-57.99z" fill="url(#w)" fill-rule="nonzero"/><path d="m614.5 403.5-125.51 71 127.01 73 127-73z" fill="url(#x)" fill-rule="nonzero" opacity=".2"/><path d="m614.5 403.5-125.51 71 127.01 73 127-73z" stroke="#0ff" stroke-linecap="round" stroke-linejoin="round"/><path d="m616 547.5v25l127-73v-25z" fill="url(#y)" fill-rule="nonzero" opacity=".2"/><path d="m489 475.5v24l127 73v-24z" fill="url(#z)" fill-rule="nonzero" opacity=".2"/><path d="m743.33 632-127.41 70.75-126.92-75.25" stroke="#0ff" stroke-width=".5"/><path d="m743.33 663-127.41 70.75-126.92-75.25" stroke="#0ff" stroke-width=".5"/><path d="m780.33 536.7v73.95l-109.88 61.79-.03-2.31-.84-70.43 106.08-60.33z" fill="#0733cb" fill-rule="nonzero" opacity=".5"/><path d="m742.14 599.71.06 18.16-6.5 3.66v-18.38z" fill="#0ff" fill-rule="nonzero"/><path d="m752.12 587.19.06 25.22-6.5 3.6v-25.38z" fill="#0ff" fill-rule="nonzero"/><path d="m762.1 573.65.06 33.22-6.5 3.6v-33.38z" fill="#0ff" fill-rule="nonzero"/><path d="m772.07 594.13.06 7.22-6.5 3.6v-7.38z" fill="#0ff" fill-rule="nonzero"/><ellipse cx="596.033278" cy="709.632577" fill="#0ff" fill-rule="nonzero" rx="1.92" ry="3.19" transform="matrix(.97854496 -.2060334 .2060334 .97854496 -133.420095 138.027959)"/><ellipse cx="588.157805" cy="704.907603" fill="#0ff" fill-rule="nonzero" rx="1.92" ry="3.19" transform="matrix(.97854496 -.2060334 .2060334 .97854496 -132.615561 136.303974)"/><ellipse cx="580.247399" cy="700.247308" fill="#0ff" fill-rule="nonzero" rx="1.92" ry="3.19" transform="matrix(.97854496 -.2060334 .2060334 .97854496 -131.825102 134.574179)"/><ellipse cx="572.370168" cy="695.551475" fill="#0ff" fill-rule="nonzero" rx="1.92" ry="3.19" transform="matrix(.97854496 -.2060334 .2060334 .97854496 -131.02661 132.850457)"/><ellipse cx="564.483239" cy="690.914569" fill="#0ff" fill-rule="nonzero" rx="1.92" ry="3.19" transform="matrix(.97854496 -.2060334 .2060334 .97854496 -130.240467 131.126001)"/><ellipse cx="631.802766" cy="712.115586" fill="#0ff" fill-rule="nonzero" rx="3.19" ry="1.92" transform="matrix(.2060334 -.97854496 .97854496 .2060334 -195.206823 1183.643403)"/><ellipse cx="639.680067" cy="707.378268" fill="#0ff" fill-rule="nonzero" rx="3.19" ry="1.92" transform="matrix(.2060334 -.97854496 .97854496 .2060334 -184.316831 1187.590424)"/><ellipse cx="647.587497" cy="702.729707" fill="#0ff" fill-rule="nonzero" rx="3.19" ry="1.92" transform="matrix(.2060334 -.97854496 .97854496 .2060334 -173.48977 1191.637397)"/><ellipse cx="655.461878" cy="698.040416" fill="#0ff" fill-rule="nonzero" rx="3.19" ry="1.92" transform="matrix(.2060334 -.97854496 .97854496 .2060334 -162.649092 1195.619693)"/><ellipse cx="663.356819" cy="693.395762" fill="#0ff" fill-rule="nonzero" rx="3.19" ry="1.92" transform="matrix(.2060334 -.97854496 .97854496 .2060334 -151.83577 1199.657547)"/><path d="m896.42 310.52c-.24.51-.5 1-.76 1.51-2.029942 3.958408-4.847618 7.460086-8.28 10.29-4.67 3.74-9.8 5.12-13.9 3.18-6.76-3.21-8.3-14.28-3.78-25.34.26-.64.54-1.28.84-1.91 4.81-10.16 13.23-16.55 20-15.8.990061.117601 1.955308.390975 2.86.81 7.23 3.4 8.54 15.6 3.02 27.26z" fill="url(#cd)" fill-rule="nonzero"/><path d="m883.25 304.75 4.13 17.57c-4.67 3.74-9.8 5.12-13.9 3.18-2.592305-1.334972-4.520216-3.678849-5.33-6.48-1.73-5-1.28-11.93 1.55-18.86.26-.64.54-1.28.84-1.91 4.81-10.16 13.23-16.55 20-15.8z" fill="url(#ce)" fill-rule="nonzero"/><path d="m964.53 242.72-41.14 23.9c-1.53653 1.002461-2.502455 2.677969-2.6 4.51v.16c0 1.66 1.17 2.34 2.61 1.52l41.14-23.51c1.535545-.989411 2.5027-2.655893 2.6-4.48v-.61c-.01-1.66-1.14-2.32-2.61-1.49z" fill="#0ff" fill-rule="nonzero"/><path d="m907.33 278.5v.07c0 1.65 1.17 2.33 2.61 1.5l3.73-2.14c1.54441-.998558 2.538102-2.657175 2.69-4.49v-.31c.05-1.66-1.07-2.32-2.5-1.48l-3.95 2.33c-1.524468 1.015693-2.480646 2.690857-2.58 4.52z" fill="#0ff" fill-rule="nonzero"/><path d="m964.53 256.72-41.14 23.9c-1.53653 1.002461-2.502455 2.677969-2.6 4.51v.16c0 1.66 1.17 2.34 2.61 1.52l41.14-23.51c1.535545-.989411 2.5027-2.655893 2.6-4.48v-.61c-.01-1.66-1.14-2.32-2.61-1.49z" fill="#0ff" fill-rule="nonzero"/><path d="m907.33 292.5v.07c0 1.65 1.17 2.33 2.61 1.5l3.73-2.14c1.54441-.998558 2.538102-2.657175 2.69-4.49v-.31c.05-1.66-1.07-2.32-2.5-1.48l-3.95 2.33c-1.524468 1.015693-2.480646 2.690857-2.58 4.52z" fill="#0ff" fill-rule="nonzero"/><path d="m964.53 271.72-41.14 23.9c-1.53653 1.002461-2.502455 2.677969-2.6 4.51v.16c0 1.66 1.17 2.34 2.61 1.52l41.14-23.51c1.535545-.989411 2.5027-2.655893 2.6-4.48v-.61c-.01-1.66-1.14-2.32-2.61-1.49z" fill="#0ff" fill-rule="nonzero"/><path d="m907.33 307.5v.07c0 1.65 1.17 2.33 2.61 1.5l3.73-2.14c1.54441-.998558 2.538102-2.657175 2.69-4.49v-.31c.05-1.66-1.07-2.32-2.5-1.48l-3.95 2.33c-1.524468 1.015693-2.480646 2.690857-2.58 4.52z" fill="#0ff" fill-rule="nonzero"/><path d="m887.38 322.32c-4.67 3.74-9.8 5.12-13.9 3.18-2.592305-1.334972-4.520216-3.678849-5.33-6.48l15.1-14.27z" fill="#0ff" fill-rule="nonzero"/></g></svg>