<?xml version="1.0" encoding="utf-8"?>
<!-- Generator: Adobe Illustrator 16.0.0, SVG Export Plug-In . SVG Version: 6.00 Build 0)  -->
<!DOCTYPE svg PUBLIC "-//W3C//DTD SVG 1.1//EN" "http://www.w3.org/Graphics/SVG/1.1/DTD/svg11.dtd">
<svg version="1.1" id="Layer_1" xmlns="http://www.w3.org/2000/svg" xmlns:xlink="http://www.w3.org/1999/xlink" x="0px" y="0px"
	 width="468px" height="288px" viewBox="0 0 468 288" enable-background="new 0 0 468 288" xml:space="preserve">
<g>
	<g>
		<defs>
			<rect id="SVGID_1_" width="468" height="288"/>
		</defs>
		<linearGradient id="SVGID_2_" gradientUnits="userSpaceOnUse" x1="189.8359" y1="273.4307" x2="305.1692" y2="-64.5694">
			<stop  offset="0" style="stop-color:#0C042E"/>
			<stop  offset="0.3302" style="stop-color:#221C3A"/>
			<stop  offset="1" style="stop-color:#575757"/>
		</linearGradient>
		<use xlink:href="#SVGID_1_"  overflow="visible" fill="url(#SVGID_2_)"/>
		<clipPath id="SVGID_3_">
			<use xlink:href="#SVGID_1_"  overflow="visible"/>
		</clipPath>
		<linearGradient id="SVGID_4_" gradientUnits="userSpaceOnUse" x1="107.4272" y1="-33.231" x2="225.4274" y2="167.7692">
			<stop  offset="0" style="stop-color:#000000"/>
			<stop  offset="0.2295" style="stop-color:#050505"/>
			<stop  offset="0.4926" style="stop-color:#131313"/>
			<stop  offset="0.7711" style="stop-color:#292929"/>
			<stop  offset="1" style="stop-color:#424242"/>
		</linearGradient>
		<path opacity="0.5" clip-path="url(#SVGID_3_)" fill="url(#SVGID_4_)" d="M-29.564,24.578
			c24.771-42.041,61.032-49.429,105.051-47.87c37.665,1.334,78.495,11.612,113.081-2.482c34.479-14.051,58.158-39.739,95.519-37.821
			c50.091,2.573,72.111,42.543,69.532,81.506c-3.576,54.022-50.184,81.028-96.765,77.578c-38.547-2.854-79.369-6.727-113.487,17.937
			c-31.424,22.716-52.203,72.815-96.2,73.892C-2.729,188.535-75.379,102.332-29.564,24.578z"/>
		<g clip-path="url(#SVGID_3_)">
			
				<linearGradient id="SVGID_5_" gradientUnits="userSpaceOnUse" x1="50.9092" y1="313.917" x2="163.5773" y2="505.8346" gradientTransform="matrix(0.9736 -0.2284 0.2284 0.9736 -130.1011 -305.3784)">
				<stop  offset="0" style="stop-color:#0C042E"/>
				<stop  offset="0.3302" style="stop-color:#221C3A"/>
				<stop  offset="1" style="stop-color:#575757"/>
			</linearGradient>
			<path fill="url(#SVGID_5_)" d="M-123.575,72.234c13.859-44.482,45.957-59.258,87.217-67.407
				C-1.055-2.146,39.143-1.496,68.22-22.14c28.988-20.581,45.397-49.624,80.546-55.987c47.125-8.532,76.312,23.823,82.41,60.605
				c8.457,50.998-28.981,86.267-73.035,93.216c-36.456,5.752-75.249,11.054-101.586,41.421
				c-24.258,27.97-32.649,79.071-73.314,89.667C-62.877,218.797-149.21,154.506-123.575,72.234z"/>
			<linearGradient id="SVGID_6_" gradientUnits="userSpaceOnUse" x1="330.4014" y1="170.6221" x2="416.4008" y2="279.2879">
				<stop  offset="0" style="stop-color:#0C042E"/>
				<stop  offset="0.3302" style="stop-color:#221C3A"/>
				<stop  offset="1" style="stop-color:#575757"/>
			</linearGradient>
			<path fill="url(#SVGID_6_)" d="M495.878,213.994c-22.933,27.752-65.985,19.448-98.96,31.272
				c-37.99,13.622-68.428,36.628-106.281,54.745c-36.743,17.587-98.457-11.854-55.833-73.172
				c16.786-24.148,32.726-41.502,43.87-70.234c12.404-31.988,20.517-60.82,52.126-75.638
				C410.623,43.545,558.699,137.967,495.878,213.994z"/>
			<linearGradient id="SVGID_7_" gradientUnits="userSpaceOnUse" x1="41.9458" y1="189.9199" x2="73.2792" y2="245.2534">
				<stop  offset="0" style="stop-color:#FC9512"/>
				<stop  offset="0.3533" style="stop-color:#FD5F35"/>
				<stop  offset="0.7913" style="stop-color:#FE225C"/>
				<stop  offset="1" style="stop-color:#FF0A6C"/>
			</linearGradient>
			<path fill="url(#SVGID_7_)" d="M105.336,170.846c19.484-19.345-2.717-38.457-27.893-15.795
				c-17.179,15.463-26.293,38.378-40.84,55.241c-13.398,15.532-29.937,8.831-46.915,15.092
				c-36.271,13.374,29.992,61.157,60.709,44.906c21.519-11.384,18.365-42.134,23.633-60.206
				C79.651,190.805,92.24,183.85,105.336,170.846z"/>
			<linearGradient id="SVGID_8_" gradientUnits="userSpaceOnUse" x1="381.1953" y1="43.5864" x2="305.8618" y2="139.5864">
				<stop  offset="0" style="stop-color:#0C042E"/>
				<stop  offset="0.3302" style="stop-color:#221C3A"/>
				<stop  offset="1" style="stop-color:#575757"/>
			</linearGradient>
			<path fill="url(#SVGID_8_)" d="M286.542,22.211c18.512-21.917,52.747-14.93,79.123-24.067
				c30.389-10.528,54.84-28.598,85.159-42.708c29.43-13.698,78.352,10.293,43.86,58.785c-13.584,19.098-26.434,32.789-35.562,55.589
				c-10.159,25.381-16.872,48.286-42.187,59.822C353.01,158.764,235.83,82.251,286.542,22.211z"/>
			
				<linearGradient id="SVGID_9_" gradientUnits="userSpaceOnUse" x1="521.1631" y1="60.0991" x2="474.0027" y2="-13.3475" gradientTransform="matrix(0.9638 0.0295 0.0295 0.9759 -46.061 37.0444)">
				<stop  offset="0" style="stop-color:#FC9512"/>
				<stop  offset="0.3533" style="stop-color:#FD5F35"/>
				<stop  offset="0.7913" style="stop-color:#FE225C"/>
				<stop  offset="1" style="stop-color:#FF0A6C"/>
			</linearGradient>
			<path fill="url(#SVGID_9_)" d="M511.938,19.454c3.331-16.43,17.583-24.21,19.588-41.529c4.366-37.708-33.461-57.98-50.877-29.179
				c-8.858,14.648-12.205,32.925-22.792,46.31c-10.745,13.582-26.968,15.494-40.259,25.286
				c-24.426,17.995-31.491,51.254-61.107,64.81c-68.303,31.264-65.516,71.605-15.516,73.586
				c41.836,1.656,53.167-54.213,106.884-53.412C535.235,106.629,504.69,55.191,511.938,19.454z"/>
			<g>
				<path fill="#FFFFFF" d="M179.247,320.338c-0.359,0-0.72-0.003-1.081-0.009c-23.824-0.394-38.675-7.262-40.745-18.843
					c-1.639-9.174,4.994-20.621,18.679-32.236c15.147-12.857,38.339-25.546,67.066-36.695c24.332-9.442,41.727-26.389,58.548-42.776
					c12.996-12.661,26.436-25.753,42.979-35.295c8.148-4.699,16.563-7.996,24.702-11.186c12.884-5.047,25.052-9.815,36.287-19.67
					c10.407-9.13,18.444-20.271,26.216-31.044c5.903-8.183,12.008-16.644,19.128-24.206c17.764-18.872,37.353-19.804,48.888-12.354
					c10.267,6.63,17.759,22.139,7.996,45.784c-4.482,10.856-12.648,18.778-20.545,26.438c-7.065,6.854-14.372,13.942-19.031,23.119
					l-0.223-0.113l0.223,0.113c-5.215,10.272-7.882,21.752-10.46,32.854c-4.001,17.224-8.138,35.035-21.952,48.163
					c-15.443,14.676-41.729,21.923-80.359,22.155c-36.756,0.222-63.042,18.467-88.464,36.111
					C225.11,305.91,204.322,320.338,179.247,320.338z M464.431,52.181c-10.07,0-21.907,4.713-33.041,16.539
					c-7.098,7.539-13.191,15.987-19.085,24.157c-7.789,10.796-15.843,21.959-26.292,31.126
					c-11.302,9.913-23.51,14.697-36.435,19.761c-8.121,3.184-16.52,6.473-24.635,11.153c-16.49,9.51-29.906,22.58-42.88,35.22
					c-16.857,16.423-34.289,33.405-58.716,42.885c-28.677,11.129-51.819,23.788-66.925,36.609
					c-13.543,11.495-20.116,22.777-18.51,31.768c2.024,11.323,16.698,18.042,40.261,18.431c0.356,0.006,0.717,0.009,1.071,0.009
					c24.924,0.002,45.645-14.383,67.568-29.601c25.484-17.688,51.836-35.978,88.745-36.2c38.498-0.231,64.673-7.434,80.019-22.018
					c13.706-13.025,17.825-30.762,21.81-47.914c2.585-11.131,5.259-22.64,10.502-32.967c4.696-9.251,12.033-16.368,19.128-23.251
					c7.86-7.625,15.988-15.51,20.431-26.271c9.646-23.361,2.293-38.653-7.805-45.173C475.482,53.756,470.251,52.181,464.431,52.181z
					"/>
			</g>
			<g>
				<path fill="#FFFFFF" d="M4.041,208.121c-0.654,0-1.304-0.011-1.95-0.032c-13.242-0.448-24.136-5.652-29.888-14.279
					c-8.431-12.644-5.562-33.396,19.854-51.255l0.144,0.204l-0.144-0.204c8.45-5.939,16.689-11.107,24.657-16.104
					c26.534-16.643,49.449-31.017,65.72-64.449c5.385-11.066,9.663-24.555,14.192-38.838c12.123-38.225,25.863-81.55,66.681-94.956
					c39.61-13.01,92.258,14.91,124.411,46.356c24.649,24.109,36.354,48.409,31.31,65.001c-3.253,10.7-13.14,17.659-29.384,20.683
					c-15.692,2.92-30.543,1.756-44.905,0.63c-24.979-1.958-48.571-3.809-72.767,16.153c-17.414,14.365-33.313,32.03-48.689,49.113
					c-21.441,23.822-43.613,48.456-70.992,65.759C35.463,202.538,18.829,208.121,4.041,208.121z M184.82-74.566
					c-7.394,0-14.566,1.019-21.357,3.249c-40.574,13.326-54.273,56.522-66.36,94.633c-4.534,14.3-8.818,27.807-14.22,38.905
					c-16.333,33.561-39.305,47.97-65.903,64.653c-7.962,4.994-16.195,10.159-24.636,16.089
					c-25.139,17.667-28.021,38.128-19.725,50.57c11.219,16.824,42.096,21.523,79.403-2.053
					c27.321-17.267,49.47-41.874,70.889-65.672c15.388-17.097,31.3-34.775,48.742-49.163c24.352-20.091,48.043-18.235,73.124-16.266
					c14.33,1.123,29.147,2.286,44.774-0.624c16.047-2.985,25.803-9.828,28.998-20.336c4.914-16.165-7.034-40.879-31.182-64.498
					C260.842-51.021,220.338-74.566,184.82-74.566z"/>
			</g>
		</g>
	</g>
</g>
</svg>
