<?xml version="1.0" encoding="utf-8"?>
<!-- Generator: Adobe Illustrator 16.0.0, SVG Export Plug-In . SVG Version: 6.00 Build 0)  -->
<!DOCTYPE svg PUBLIC "-//W3C//DTD SVG 1.1//EN" "http://www.w3.org/Graphics/SVG/1.1/DTD/svg11.dtd">
<svg version="1.1" id="Layer_1" xmlns="http://www.w3.org/2000/svg" xmlns:xlink="http://www.w3.org/1999/xlink" x="0px" y="0px"
	 width="960px" height="280px" viewBox="0 0 960 280" enable-background="new 0 0 960 280" xml:space="preserve">
<g>
	<path fill="#FFFFFF" d="M864.564,85.258c0.021,2.694,0.185,5.355,0.485,7.975c1.731,15.145-6.251,29.783-20.103,36.144
		c-13.816,6.346-26.963,15.362-38.597,26.994c-11.897,11.899-21.059,25.381-27.421,39.538
		c-7.474,16.626-26.118,24.859-43.453,19.225c-9.889-3.216-20.585-4.973-31.751-4.973c-27.63,0-52.391,10.754-69.123,27.744
		c-9.79,9.94-24.346,13.408-37.466,8.66c-8.775-3.175-18.395-4.927-28.481-4.927c-17.801,0-34.138,5.464-46.967,14.569
		c6.477,6.89,11.355,14.966,14.19,23.793H960V12.944c-6.92-2.002-14.249-3.042-21.838-2.937
		C897.31,10.572,864.243,44.4,864.564,85.258z"/>
	<path fill="#FFFFFF" d="M500.675,280c4.827-9.3,12.058-17.613,21.014-23.97c-13.692-14.565-34.44-24.03-57.666-24.03
		c-0.048,0-0.094,0-0.145,0c-7.946,0-15.438-3.578-19.929-10.135c-11.659-17.029-32.931-28.342-57.256-28.342
		c-20.922,0-39.59,8.478-51.822,21.675c-7.044,7.598-17.983,10.266-27.822,7.01c-11.795-3.905-24.582-6.03-37.94-6.03
		c-26.921,0-51.524,8.686-70.366,23.021c-8.547,6.503-20.044,7.214-29.428,1.99c-10.116-5.629-22.117-8.889-34.991-8.889
		c-6.753,0-13.267,0.898-19.395,2.563c0.012-0.561,0.024-1.117,0.024-1.678c0-31.434-17.11-59.365-43.615-77.054
		c9.22-12.427,14.674-27.813,14.665-44.479c-0.019-41.182-33.475-74.62-74.657-74.619c-3.857,0-7.646,0.293-11.345,0.857V280
		H500.675z"/>
	<path fill="#FFFFFF" d="M500.675,280h35.204c-2.835-8.827-7.714-16.903-14.19-23.793C512.732,262.563,505.502,270.7,500.675,280z"
		/>
</g>
<path opacity="0.63" fill="#FFFFFF" d="M229.901,157.397c10.583,23.588,10.583,23.588,23.404,25.635c0,0,0.766,0.123,0.77,0.123
	c13.23,2.112,20.845-6.315,29.542-14.648c11.24-10.771,26.141-16.122,41.767-15.27c15.041,0.821,28.252,7.159,37.125,16.585
	c4.804,5.103,12.547,6.065,18.303,2.065c8.265-5.743,18.972-8.932,30.494-8.302c18.17,0.991,33.291,11.194,39.556,25.002
	c3.009,6.633,10.47,10.068,17.328,7.615c8.323-2.977,17.566-4.397,27.226-3.87c34.051,1.859,60.352,27.179,58.748,56.555
	c-1.604,29.375-30.506,51.682-64.557,49.823c-34.048-1.859-60.349-27.181-58.745-56.556c0.115-2.114,0.386-4.187,0.777-6.22
	c-7.192,3.505-15.623,5.315-24.548,4.828c-17.158-0.937-31.597-10.09-38.431-22.733c-8.848,14.921-27.311,24.643-48.098,23.508
	c-14.423-0.788-27.158-6.652-36.008-15.44l-33.307,19.185l-90.832,5.549l-59.87-13.777l1.109-10.104
	c-10.878,5.711-23.562,8.683-36.962,7.95c-37.609-2.053-66.533-32.388-64.602-67.754c1.931-35.367,33.985-62.372,71.595-60.318
	c30.077,1.642,54.579,21.376,62.208,47.301l0.284-0.11l3.634,9.656c2.375,6.312,8.063,10.916,14.777,11.545
	c9.352,0.873,26.957-53.517,63.084-36.522"/>
<path opacity="0.63" fill="#FFFFFF" d="M688.855,180.271c0.104-0.026,0.207-0.052,0.313-0.078
	c8.648-2.162,15.171-9.094,16.943-17.831c3.547-17.489,17.069-35.539,37.521-47.347c8.4-4.85,17.131-8.162,25.672-9.986
	c8.803-1.882,15.597-8.688,17.498-17.487c3.503-16.214,14.885-33.05,32.352-45.308c30.103-21.124,73.994-24.855,94.171,3.394
	c15.416,21.582,25.26,200.021-4.842,221.146c-14.371,10.084-160.38-2.44-196.026,6.598c-35.645,9.037-69.827-4.477-76.346-30.186
	C629.596,217.477,653.208,189.309,688.855,180.271z"/>
</svg>
