<?xml version="1.0" encoding="utf-8"?>
<!-- Generator: Adobe Illustrator 16.0.0, SVG Export Plug-In . SVG Version: 6.00 Build 0)  -->
<!DOCTYPE svg PUBLIC "-//W3C//DTD SVG 1.1//EN" "http://www.w3.org/Graphics/SVG/1.1/DTD/svg11.dtd">
<svg version="1.1" id="Layer_1" xmlns="http://www.w3.org/2000/svg" xmlns:xlink="http://www.w3.org/1999/xlink" x="0px" y="0px"
	 width="690.321px" height="796.46px" viewBox="0 0 690.321 796.46" enable-background="new 0 0 690.321 796.46"
	 xml:space="preserve">
<g>
	<path fill="#C4D1FF" d="M237.244,200.124c0,0,73.259-40.498,82.081-76.498c8.822-36-12.769-61.236-12.769-61.236
		s-21.452,44.581-33.009,40.13c-11.559-4.45-7.059-26.83-1.071-44.313c5.989-17.483-1.233-35.271-1.233-35.271
		s-29.66-20.578-56.314-9.86c-0.814,44.069-16.162,80.352-25.267,77.329c-9.104-3.024-1.051-14.915,5.719-37.583
		c6.767-22.668-11.524-41.619-22.874-42.086c-11.351-0.467-33.41,3.985-33.41,3.985s15.924,57.125-2.567,57.874
		c-18.493,0.749-2.978-37.173-4.757-39.875c-1.78-2.703-38.88-20.501-93.019-0.927c0,0,7.674,39.892,5.742,48.138
		c17.28,7.412,36.61,1.462,48.303,4.803c11.694,3.341,9.429,14.906,4.443,15.866c-4.986,0.958-38.824,1.353-50.817-4.504
		c-6.854,21.95,0.773,46.18,2.296,46.727c1.521,0.547,26.476,8.136,47.531-1.664c21.056-9.798,27.281-15.642,30.482-10.193
		c3.2,5.447-19.74,39.154-73.801,28.843C45.74,194.188,69.13,216.172,75.177,218c6.047,1.831,24.813,0.319,56.604-11.125
		c31.789-11.444,34.516-3.863,32.692,2.238c-1.822,6.103-37.741,25.69-81.405,26.164c0,0,7.621,33.339,33.077,39.046
		C141.603,280.03,217.2,256.073,237.244,200.124z"/>
	<path opacity="0.51" fill="#FFFFFD" d="M105.884,254.961c-0.056-0.812,0.556-1.514,1.37-1.568
		c0.715-0.048,71.603-5.58,107.428-69.262c-5.896-6.149-13.477-14.092-22.05-23.154c-0.006-0.005-0.013-0.006-0.019-0.012
		c-0.005-0.006-0.008-0.015-0.014-0.022c-2.835-2.996-5.778-6.115-8.805-9.332c-2.821,4.103-11.406,15.308-27.283,25.776
		c-13.985,9.222-35.905,19.132-66.571,20.453c-8.63,0.372-17.953,0.064-27.986-1.13c-0.807-0.097-1.384-0.83-1.288-1.637
		c0.097-0.806,0.812-1.38,1.636-1.288c79.425,9.474,114.535-37.21,119.418-44.381c-12.786-13.609-26.933-28.839-40.634-43.939
		c-5.836,3.631-33.587,19.95-62.904,21.213c-10.551,0.456-21.308-1.042-31.31-5.789c-0.734-0.348-1.048-1.225-0.699-1.96
		c0.347-0.736,1.227-1.047,1.96-0.699c35.265,16.721,82.083-9.653,90.934-14.994c-3.127-3.456-6.229-6.9-9.279-10.312
		c-43.183-48.299-85.772-56.523-86.198-56.6c-0.799-0.145-1.33-0.912-1.183-1.711c0.144-0.799,0.919-1.331,1.708-1.186
		c0.436,0.079,43.961,8.427,87.868,57.534c6.385,7.142,12.99,14.425,19.611,21.659c18.587-30.236,25.398-55.728,19.648-73.778
		c-4.625-14.518-15.857-19.346-15.97-19.393c-0.75-0.309-1.108-1.169-0.798-1.919c0.31-0.751,1.168-1.112,1.92-0.801
		c0.51,0.21,12.547,5.322,17.623,21.13c6.205,19.319-0.658,45.234-20.353,77.022c13.983,15.241,27.953,30.16,40.041,42.945
		c40.872-40.758,44.107-107.456,44.136-108.13c0.031-0.811,0.729-1.447,1.528-1.41c0.813,0.033,1.445,0.719,1.411,1.531
		c-0.028,0.686-3.3,68.565-45.051,110.148c9.088,9.601,17.006,17.886,22.917,24.044c11.404-4.877,62.108-29.691,84.094-93.121
		c0.268-0.765,1.106-1.176,1.873-0.909c0.77,0.267,1.175,1.105,0.91,1.873c-3.658,10.549-8.097,20.047-13.02,28.586
		c-24.323,42.179-60.39,60.813-71.683,65.831c5.537,5.76,8.835,9.16,8.966,9.294c0.567,0.583,0.551,1.514-0.031,2.082
		c-0.269,0.261-0.613,0.399-0.962,0.415c-0.405,0.018-0.814-0.131-1.122-0.445c-0.136-0.142-3.745-3.859-9.758-10.119
		c-0.369,0.145-0.579,0.223-0.612,0.234c-0.428,0.152-0.867,0.078-1.23-0.135c-36.946,63.134-107.895,68.682-108.618,68.733
		c-0.013,0-0.026,0-0.038,0.001C106.62,256.366,105.938,255.761,105.884,254.961z"/>
</g>
<path fill="#BECCFB" d="M581.602,739.82h-455.47c-11.016,0-19.944-8.927-19.944-19.942V83.52c0-11.016,8.929-19.944,19.944-19.944
	h455.47c11.014,0,19.941,8.929,19.941,19.944v636.357C601.543,730.893,592.616,739.82,581.602,739.82z"/>
<path fill="#FFFFFD" d="M568.614,781.564H139.12c-2.306,0-4.174-1.869-4.174-4.175V90.014c0-2.306,1.868-4.175,4.174-4.175h429.494
	c2.306,0,4.174,1.87,4.174,4.175v687.375C572.788,779.695,570.919,781.564,568.614,781.564z"/>
<path fill="#FEC40C" d="M439.133,131.756H268.602c-3.63,0-6.572-2.941-6.572-6.57V46.492c0-3.629,2.941-6.57,6.572-6.57h170.531
	c3.629,0,6.568,2.941,6.568,6.57v78.695C445.702,128.815,442.762,131.756,439.133,131.756z"/>
<g>
	<g>
		<path fill="#F2F2F2" d="M220.614,223.155h-36.005c-3.617,0-6.549-2.933-6.549-6.548v-36.006c0-3.617,2.933-6.548,6.549-6.548
			h36.005c3.616,0,6.548,2.931,6.548,6.548v36.006C227.162,220.223,224.23,223.155,220.614,223.155z"/>
		<path fill="#EEEDEE" d="M329.833,176.304h-74.209c-1.234,0-2.236-1.001-2.236-2.235l0,0c0-1.233,1.001-2.235,2.236-2.235h74.209
			c1.234,0,2.234,1.001,2.234,2.235l0,0C332.067,175.303,331.068,176.304,329.833,176.304z"/>
		<path fill="#EEEDEE" d="M529.89,201.637H255.624c-1.234,0-2.236-1.001-2.236-2.235l0,0c0-1.234,1.001-2.235,2.236-2.235H529.89
			c1.236,0,2.236,1.001,2.236,2.235l0,0C532.126,200.636,531.126,201.637,529.89,201.637z"/>
		<path fill="#EEEDEE" d="M529.89,226.671H255.624c-1.234,0-2.236-1-2.236-2.236l0,0c0-1.234,1.001-2.235,2.236-2.235H529.89
			c1.236,0,2.236,1,2.236,2.235l0,0C532.126,225.671,531.126,226.671,529.89,226.671z"/>
	</g>
	<g>
		<path fill="#BECCFB" d="M200.444,208.153c-0.65,0-1.301-0.236-1.815-0.713l-9.946-9.232c-1.081-1.003-1.145-2.692-0.141-3.771
			c1.001-1.08,2.691-1.144,3.772-0.141l8.05,7.476l14.664-14.803c1.036-1.046,2.726-1.055,3.774-0.018
			c1.047,1.038,1.054,2.728,0.017,3.774l-16.48,16.638C201.82,207.889,201.132,208.153,200.444,208.153z"/>
	</g>
</g>
<g>
	<g>
		<path fill="#F2F2F2" d="M219.387,341.017h-36.006c-3.616,0-6.549-2.931-6.549-6.548v-36.006c0-3.616,2.934-6.546,6.549-6.546
			h36.006c3.615,0,6.548,2.93,6.548,6.546v36.006C225.935,338.086,223.002,341.017,219.387,341.017z"/>
		<path fill="#EEEDEE" d="M328.606,294.167h-74.209c-1.234,0-2.236-1.001-2.236-2.235l0,0c0-1.234,1.001-2.235,2.236-2.235h74.209
			c1.234,0,2.234,1,2.234,2.235l0,0C330.84,293.166,329.84,294.167,328.606,294.167z"/>
		<path fill="#EEEDEE" d="M528.666,319.499H254.396c-1.234,0-2.236-1.001-2.236-2.236l0,0c0-1.234,1.001-2.234,2.236-2.234h274.269
			c1.234,0,2.235,1,2.235,2.234l0,0C530.901,318.498,529.9,319.499,528.666,319.499z"/>
		<path fill="#EEEDEE" d="M528.666,344.533H254.396c-1.234,0-2.236-1-2.236-2.235l0,0c0-1.234,1.001-2.235,2.236-2.235h274.269
			c1.234,0,2.235,1,2.235,2.235l0,0C530.901,343.533,529.9,344.533,528.666,344.533z"/>
	</g>
	<g>
		<path fill="#BECCFB" d="M199.217,326.016c-0.651,0-1.302-0.236-1.814-0.713l-9.947-9.232c-1.081-1.003-1.144-2.691-0.141-3.771
			c1.001-1.08,2.691-1.143,3.772-0.14l8.052,7.475l14.663-14.801c1.035-1.047,2.725-1.055,3.773-0.018
			c1.047,1.038,1.054,2.728,0.017,3.774l-16.48,16.636C200.593,325.751,199.905,326.016,199.217,326.016z"/>
	</g>
</g>
<path fill="#EEEDEE" d="M415.264,419.691h-74.208c-1.235,0-2.236-1.001-2.236-2.235l0,0c0-1.234,1.001-2.235,2.236-2.235h74.208
	c1.234,0,2.236,1.001,2.236,2.235l0,0C417.5,418.69,416.499,419.691,415.264,419.691z"/>
<g>
	<g>
		<path fill="#FEC40C" d="M314.043,473.047h-56.11c-3.188,0-5.772-2.583-5.772-5.77v-56.112c0-3.187,2.584-5.772,5.772-5.772h56.11
			c3.188,0,5.772,2.585,5.772,5.772v56.112C319.815,470.464,317.23,473.047,314.043,473.047z"/>
		<path opacity="0.31" fill="#6BD79E" d="M319.893,435.247v32.879c0,2.722-2.204,4.925-4.927,4.925h-57.799
			c-2.723,0-4.927-2.203-4.927-4.925v-18.828l18.015-14.125l15.737,12.906l25.403-20.59L319.893,435.247z"/>
	</g>
	<path opacity="0.31" fill="#6BD79E" d="M291.566,422.425c0,4.223-3.424,7.646-7.647,7.646c-4.236,0-7.659-3.423-7.659-7.646
		c0-4.237,3.423-7.659,7.659-7.659C288.142,414.766,291.566,418.188,291.566,422.425z"/>
</g>
<g>
	<path fill="#F2F2F2" d="M219.387,463.679h-36.006c-3.616,0-6.549-2.933-6.549-6.548v-36.006c0-3.617,2.934-6.548,6.549-6.548
		h36.006c3.615,0,6.548,2.931,6.548,6.548v36.006C225.935,460.747,223.002,463.679,219.387,463.679z"/>
	<path fill="#BECCFB" d="M204.949,439.223l9.2-9.199c1.005-1.006,1.005-2.633,0-3.638s-2.632-1.005-3.637,0l-9.2,9.198l-9.199-9.198
		c-1.004-1.005-2.632-1.005-3.636,0c-1.005,1.005-1.005,2.632,0,3.638l9.198,9.199l-8.708,8.71c-1.005,1.003-1.005,2.63,0,3.636
		c0.503,0.501,1.16,0.752,1.819,0.752c0.657,0,1.316-0.251,1.818-0.752l8.708-8.708l9.2,9.197c0.502,0.501,1.16,0.754,1.818,0.754
		c0.658,0,1.316-0.253,1.819-0.754c1.005-1.004,1.005-2.63,0-3.637L204.949,439.223z"/>
</g>
<g>
	<path fill="#FEC40C" d="M542.751,703.909l-13.506,11.955c-0.404,0.359-0.296,1.021,0.209,1.223
		c3.347,1.355,14.764,5.051,35.929,3.05c0,0,3.264-0.193,1.349-14.187L542.751,703.909z"/>
	<path fill="#FEC40C" d="M621.666,704.605l12.24,13.102c0.368,0.393,0.196,1.036-0.318,1.189c-3.44,1.025-15.09,3.608-35.845-0.365
		c0,0-3.212-0.497,0-14.165L621.666,704.605z"/>
	<linearGradient id="SVGID_1_" gradientUnits="userSpaceOnUse" x1="594.9604" y1="712.1978" x2="620.0068" y2="447.8214">
		<stop  offset="0" style="stop-color:#F2F2F2"/>
		<stop  offset="1" style="stop-color:#FFFFFF"/>
	</linearGradient>
	<path fill="url(#SVGID_1_)" d="M589.713,461.892h46.568c0,0-3.21,187.342-12.311,243.009c0,0-10.17,2.676-28.903,0
		c5.352-107.052,3.746-189.484-5.354-205.54V461.892z"/>
	<linearGradient id="SVGID_2_" gradientUnits="userSpaceOnUse" x1="553.0171" y1="708.2241" x2="578.0632" y2="443.8496">
		<stop  offset="0" style="stop-color:#F2F2F2"/>
		<stop  offset="1" style="stop-color:#FFFFFF"/>
	</linearGradient>
	<path fill="url(#SVGID_2_)" d="M599.419,465.293l-46.343-4.559c0,0-15.154,186.755-11.55,243.046c0,0,9.858,3.657,28.766,2.829
		c5.158-107.062,14.83-188.937,25.458-204.026L599.419,465.293z"/>
	<path fill="#9B6EFF" d="M609.478,338.478c0,0,67.72,1.533,48.855,67.053l-16.61,23.993l-4.328,32.35c0,0-34.058,11.167-83.192,0
		c-3.349-51.369-3.349-51.369-3.349-51.369l-20.102-6.142c0,0,1.115-61.977,56.95-63.651L609.478,338.478z"/>
	<path fill="#FFCFB0" d="M658.333,405.531l-26.762-6.459l-3.689,11.995c0,0-28.606-14.765-36.913-13.842
		c-8.305,0.924-18.454,7.383-14.766,10.152c0,0,3.691-0.923,9.229-1.846s5.537,0,6.461,3.691c0.923,3.692,6.46-0.921,8.305-0.921
		c1.847,0,20.303,25.837,33.222,27.685C646.338,437.829,658.333,405.531,658.333,405.531z"/>
	
		<linearGradient id="SVGID_3_" gradientUnits="userSpaceOnUse" x1="-2369.3828" y1="349.4375" x2="-2284.439" y2="448.3723" gradientTransform="matrix(1 0 0 1 2868.0737 0)">
		<stop  offset="0" style="stop-color:#F2F2F2"/>
		<stop  offset="1" style="stop-color:#FFFFFF"/>
	</linearGradient>
	<polygon fill="url(#SVGID_3_)" points="483.924,357.544 556.433,359.206 575.281,414.759 502.865,411.783 	"/>
	<path fill="#FFCFB0" d="M522.231,412.579c0,0,3.219,13.255,15.216,13.255c11.996,0,23.993-13.843,20.302-16.612
		c-3.691-2.768-19.692,4.007-19.692,4.007L522.231,412.579z"/>
	
		<linearGradient id="SVGID_4_" gradientUnits="userSpaceOnUse" x1="-2346.4214" y1="329.7114" x2="-2261.469" y2="428.6561" gradientTransform="matrix(1 0 0 1 2868.0737 0)">
		<stop  offset="0" style="stop-color:#F2F2F2"/>
		<stop  offset="1" style="stop-color:#FFFFFF"/>
	</linearGradient>
	<path fill="url(#SVGID_4_)" d="M575.281,414.759c0,0,34.144-6.459,33.224-6.459c-0.923,0-35.327,0.258-35.327,0.258
		L575.281,414.759z"/>
	<path fill="#FFCFB0" d="M569.773,294.831c6.843-2.866,17.548-11.462,17.548-11.462s-1.736,4.202,4.146,6.219h3.109
		c0,0,15.47,10.555,16.077,11.049c3.666,2.977,4.397,6.044,3.974,8.638c-0.609,3.727-3.691,6.565-7.416,7.186l-1.543,0.257
		c0,0-3.969,10.053,1.75,22.763c0,0-2.215,7.436-13.284,7.23c-3.608-0.065-6.568-3.028-6.422-6.635
		c0.121-3.033-0.338-5.457-0.857-7.173c-1.237,0.529-2.584,1.012-4.063,1.432C565.797,339.163,569.976,308.908,569.773,294.831z"/>
	<path fill="#485377" d="M569.459,299.521c0,0-11.942-8.192-2.313-22.199c9.632-14.008,35.019-12.257,42.024,3.502
		c0,0,11.381-1.751,12.257,6.127c0.875,7.879-6.874,18.949-6.874,18.949s-3.634-6.692-10.636,1.187l-0.876-7.004
		c0,0-7.88,0-8.756-8.754c0,0-15.757,7.88-24.513,3.502L569.459,299.521z"/>
	<path fill="#3C3C59" d="M595.52,308.685c-0.647-3.048-3.263-5.42-6.52-5.606c-1.885-0.112-3.708,0.527-5.12,1.787
		c-1.192,1.064-1.97,2.469-2.248,4.018h-2.705c-0.603-3.302-3.493-5.815-6.965-5.815c-3.907,0-7.083,3.178-7.083,7.083
		c0,3.906,3.176,7.084,7.083,7.084c3.906,0,7.085-3.178,7.085-7.084c0-0.078-0.01-0.154-0.012-0.233h2.489
		c-0.13,3.827,2.825,7.086,6.667,7.306c0.138,0.008,0.273,0.012,0.41,0.012c3.723,0,6.853-2.917,7.067-6.681
		c0.016-0.278,0.012-0.551-0.005-0.821l9.516-3.948l0.12-0.116c0.709-0.691,1.526-1.264,2.419-1.695l0.829-0.401L595.52,308.685z
		 M571.962,316.199c-3.333,0-6.049-2.713-6.049-6.048s2.716-6.047,6.049-6.047c3.336,0,6.048,2.712,6.048,6.047
		S575.298,316.199,571.962,316.199z M594.635,310.496c-0.191,3.33-3.061,5.859-6.385,5.694c-1.61-0.093-3.092-0.806-4.167-2.013
		c-1.076-1.205-1.617-2.758-1.526-4.37c0.093-1.613,0.809-3.094,2.014-4.17c1.116-0.997,2.531-1.535,4.017-1.535
		c0.117,0,0.235,0.004,0.353,0.01c1.614,0.092,3.093,0.806,4.169,2.012C594.186,307.332,594.726,308.883,594.635,310.496z"/>
	<path opacity="0.5" fill="#FFCFB0" d="M599.033,322.699c-4.44,6.106-12.178,10.204-12.178,10.204
		c0.372,1.229,0.71,2.825,0.827,4.741C595.995,334.227,599.033,322.699,599.033,322.699z"/>
	<polygon opacity="0.5" fill="#9B6EFF" points="631.572,399.072 627.682,398.206 627.882,411.067 	"/>
</g>
<g>
	<path fill="#FEC40C" d="M122.708,725.836l-4.623,14.053l32.221,10.009c0,0,3.06-11.544-15.319-21.754L122.708,725.836z"/>
	<path fill="#485377" d="M112.224,334.858c0,0-2.734,2.156-2.472,14.521c0.253,11.853-6.086,22.929-16.601,28.404
		c-0.163,0.086-0.331,0.173-0.499,0.256c-24.693,12.494-22.563,40.544,0.869,54.75c41.357,25.074,59.441-59.095,59.729-63.327
		C153.541,365.231,112.224,334.858,112.224,334.858z"/>
	<linearGradient id="SVGID_5_" gradientUnits="userSpaceOnUse" x1="78.3979" y1="748.8188" x2="122.0977" y2="426.0034">
		<stop  offset="0" style="stop-color:#F2F2F2"/>
		<stop  offset="1" style="stop-color:#FFFFFF"/>
	</linearGradient>
	<path fill="url(#SVGID_5_)" d="M121.157,464.951c0,0-18.259,23.136-23.44,61.202c-5.209,38.271-12.697,43.249-12.697,43.249
		L26.543,592.26v19.282c0,0,30.863,1.069,63.763-5.534c13.45-2.697,24.797-11.678,30.694-24.061l20.802-43.671l-22.475,189.678
		c0,0,13.625,2.631,24.063,2.051c0,0,54.859-209.075,30.445-257.349L121.157,464.951z"/>
	<path fill="#F1F2F2" d="M175.31,476.065c-0.459-1.199-0.941-2.355-1.473-3.408l-52.68-7.706c0,0-1.914,2.43-4.671,6.988
		C124.867,476.305,146.705,484.982,175.31,476.065z"/>
	<path fill="#9B6EFF" d="M97.727,443.52c0,0-1.596-55.238,36.387-60.021c37.984-4.784,66.688-32.396,70.168-75.131
		c0,0,6.09-1.627,13.048,0c0,0,13.2,87.648-39.143,104.577c0,0,2.609,27.094-4.35,59.713
		C173.837,472.657,105.99,485.27,97.727,443.52z"/>
	<path opacity="0.2" fill="#9B6EFF" d="M127.736,415.683c0,0-6.517,44.113,48.063,43.782l0.543-0.915
		c0.282-1.952,0.155-0.853,0.375-2.73C127.494,454.886,127.736,415.683,127.736,415.683z"/>
	<path fill="#FFCFB0" d="M176.059,460.486c0,0,8.87-6.53,9.956-4.137c1.089,2.39-3.696,5.435-1.957,6.303
		c1.74,0.871,13.047-2.823,14.136,0c1.088,2.827-13.483,15.657-24.356,10.005C173.837,472.657,175.59,463.716,176.059,460.486z"/>
	<path fill="#FFCFB0" d="M204.282,308.367c0,0-4.761-14.233-2.177-14.707c2.584-0.474,4.375,4.905,5.643,3.429
		c1.265-1.476,0.425-13.344,3.432-13.712c3.006-0.368,11.08,11.106,4.816,24.714C215.996,308.092,207.301,309.606,204.282,308.367z"
		/>
	<path fill="#FEC40C" d="M26.543,593.348H13.351l-5.219,31.315c0,0,11.814,0.867,18.411-18.919V593.348z"/>
	<path fill="#F1F2F2" d="M141.803,538.277l-22.475,189.678c0,0,1.006,0.193,2.65,0.462c0.244-0.824,0.486-1.673,0.73-2.58
		c12.156-45.283,35.557-222.081,35.557-222.081L141.803,538.277z"/>
	<path fill="#FFCFB0" d="M134.114,383.499c0,0-0.145-15.803-3.189-20.587c-3.043-4.784-8.988-3.189-9.713-10.148
		c-0.724-6.958,5.799-7.829,8.408-5.219l2.175-11.307c0,0,29.72-3.915,30.009,1.448c0.291,5.365,4.901,42.37-15.07,31.914
		c0,0,0.603,6.03,2.748,12.448C149.482,382.048,142.958,388.137,134.114,383.499z"/>
	<path fill="#485377" d="M129.62,347.544c0,0,6.234-5.944,7.395-10.147c1.16-4.205-18.701-15.225-24.791-2.539l11.168,12.114
		C123.392,346.972,126.286,344.5,129.62,347.544z"/>
	<path opacity="0.3" fill="#FFB8B0" d="M147.931,376.475c-0.902-3.946-1.197-6.875-1.197-6.875l-9.67-5.169
		C137.064,364.43,140.834,373.087,147.931,376.475z"/>
	<path opacity="0.3" fill="#FFB8B0" d="M162.175,342.643c-0.155-2.281-0.322-4.063-0.371-4.958
		c-0.21-3.889-15.887-2.901-24.494-2.063l-0.77,3.024C136.54,338.647,149.065,347.87,162.175,342.643z"/>
	<path fill="#485377" d="M135.273,338.411c0,0,26.097,5.509,30.881-6.814c4.784-12.323-28.562-26.674-42.042-7.394l-1.595,3.01
		C122.517,327.214,117.587,332.901,135.273,338.411z"/>
</g>
<g>
	<path fill="#FFFFFD" d="M673.147,160.984H517.116c-3.17,0-5.742-2.572-5.742-5.744v-25.353c0-3.173,2.572-5.745,5.742-5.745
		h156.031c3.173,0,5.746,2.572,5.746,5.745v25.353C678.893,158.412,676.32,160.984,673.147,160.984z"/>
	<g>
		<polygon fill="#FEC40C" points="543.891,148.99 537.547,152.324 538.76,145.261 533.626,140.259 540.72,139.229 543.891,132.804 
			547.062,139.229 554.153,140.259 549.022,145.261 550.233,152.324 		"/>
		<polygon fill="#FEC40C" points="569.237,148.99 562.895,152.324 564.106,145.261 558.977,140.259 566.066,139.229 
			569.237,132.804 572.41,139.229 579.5,140.259 574.37,145.261 575.581,152.324 		"/>
		<polygon fill="#FEC40C" points="594.749,148.99 588.404,152.324 589.618,145.261 584.484,140.259 591.577,139.229 
			594.749,132.804 597.919,139.229 605.01,140.259 599.878,145.261 601.089,152.324 		"/>
		<polygon fill="#FEC40C" points="620.997,148.99 614.656,152.324 615.866,145.261 610.735,140.259 617.826,139.229 
			620.997,132.804 624.167,139.229 631.261,140.259 626.127,145.261 627.34,152.324 		"/>
		<polygon fill="#EEEDEE" points="646.375,148.99 640.032,152.324 641.241,145.261 636.112,140.259 643.201,139.229 
			646.375,132.804 649.545,139.229 656.636,140.259 651.504,145.261 652.715,152.324 		"/>
	</g>
</g>
<g>
	<path fill="#FFFFFD" d="M675.513,220.056H519.48c-3.17,0-5.742-2.571-5.742-5.744V188.96c0-3.172,2.572-5.744,5.742-5.744h156.033
		c3.173,0,5.744,2.572,5.744,5.744v25.353C681.257,217.485,678.686,220.056,675.513,220.056z"/>
	<g>
		<polygon fill="#FEC40C" points="546.256,208.062 539.912,211.396 541.125,204.334 535.991,199.333 543.084,198.302 
			546.256,191.876 549.426,198.302 556.517,199.333 551.386,204.334 552.597,211.396 		"/>
		<polygon fill="#FEC40C" points="571.603,208.062 565.261,211.396 566.472,204.334 561.341,199.333 568.432,198.302 
			571.603,191.876 574.774,198.302 581.866,199.333 576.734,204.334 577.947,211.396 		"/>
		<polygon fill="#FEC40C" points="597.114,208.062 590.768,211.396 591.982,204.334 586.85,199.333 593.941,198.302 
			597.114,191.876 600.284,198.302 607.375,199.333 602.243,204.334 603.454,211.396 		"/>
		<polygon fill="#EEEDEE" points="623.363,208.062 617.02,211.396 618.232,204.334 613.099,199.333 620.19,198.302 623.363,191.876 
			626.534,198.302 633.625,199.333 628.493,204.334 629.706,211.396 		"/>
		<polygon fill="#EEEDEE" points="648.739,208.062 642.396,211.396 643.608,204.334 638.476,199.333 645.567,198.302 
			648.739,191.876 651.912,198.302 659.002,199.333 653.869,204.334 655.08,211.396 		"/>
	</g>
</g>
<path fill="#EEEDEE" d="M452.28,435.867h-3.796h-98.638h-7.708h-1.023c-1.017,0-1.978,0.649-2.224,1.637
	c-0.363,1.463,0.733,2.772,2.135,2.772h1.112h7.708h98.638h3.796h1.112c1.22,0,2.205-0.988,2.205-2.204l0,0
	c0-1.218-0.985-2.205-2.205-2.205H452.28z"/>
<g>
	<path fill="#FEC40C" d="M314.058,595.654h-56.112c-3.188,0-5.772-2.583-5.772-5.771v-56.11c0-3.187,2.584-5.771,5.772-5.771h56.112
		c3.187,0,5.772,2.585,5.772,5.771v56.11C319.83,593.071,317.244,595.654,314.058,595.654z"/>
	<g>
		<linearGradient id="SVGID_6_" gradientUnits="userSpaceOnUse" x1="252.1855" y1="591.2505" x2="322.9005" y2="566.1368">
			<stop  offset="0" style="stop-color:#B3DA9C"/>
			<stop  offset="1" style="stop-color:#6BD79E"/>
		</linearGradient>
		<path opacity="0.31" fill="url(#SVGID_6_)" d="M311.469,550.096l-25.41,20.583l-15.731-12.898l-18.025,14.117v18.832
			c0,2.72,2.208,4.924,4.927,4.924h57.802c2.722,0,4.927-2.204,4.927-4.924v-32.874L311.469,550.096z"/>
		<linearGradient id="SVGID_7_" gradientUnits="userSpaceOnUse" x1="278.479" y1="548.5132" x2="293.7842" y2="548.5132">
			<stop  offset="0" style="stop-color:#B3DA9C"/>
			<stop  offset="1" style="stop-color:#BAE5BB"/>
		</linearGradient>
		<circle opacity="0.31" fill="url(#SVGID_7_)" cx="286.132" cy="548.512" r="7.653"/>
	</g>
</g>
<path fill="#EEEDEE" d="M415.264,542.039h-74.208c-1.235,0-2.236-0.999-2.236-2.233l0,0c0-1.235,1.001-2.236,2.236-2.236h74.208
	c1.234,0,2.236,1.001,2.236,2.236l0,0C417.5,541.04,416.499,542.039,415.264,542.039z"/>
<g>
	<path fill="#F2F2F2" d="M220.487,587.816h-36.006c-3.616,0-6.547-2.933-6.547-6.548v-36.005c0-3.617,2.931-6.55,6.547-6.55h36.006
		c3.616,0,6.548,2.933,6.548,6.55v36.005C227.035,584.883,224.103,587.816,220.487,587.816z"/>
	<g>
		<path fill="#BECCFB" d="M200.317,572.815c-0.65,0-1.301-0.236-1.813-0.714l-9.947-9.232c-1.079-1.004-1.143-2.692-0.139-3.771
			c1-1.08,2.69-1.144,3.77-0.142l8.053,7.477l14.662-14.803c1.036-1.046,2.726-1.054,3.773-0.017
			c1.047,1.037,1.054,2.728,0.017,3.773l-16.479,16.639C201.692,572.549,201.005,572.815,200.317,572.815z"/>
	</g>
</g>
<path fill="#EEEDEE" d="M452.28,559.623h-3.796h-98.638h-7.708h-1.023c-1.017,0-1.978,0.648-2.224,1.637
	c-0.363,1.463,0.733,2.772,2.135,2.772h1.112h7.708h98.638h3.796h1.112c1.22,0,2.205-0.988,2.205-2.205l0,0
	c0-1.216-0.985-2.204-2.205-2.204H452.28z"/>
<g>
	<g>
		<path fill="#FFFFFD" d="M304.88,603.2c-1.92,2.304-2.557,4.489-1.588,7.414c0.454,1.369,1.683,2.016,3.075,1.746
			c7.52-1.459,15.04-2.917,22.56-4.375c7.495-1.453,15.205-3.605,22.832-4.078c9.881-0.611,12.465,10.12,11.042,17.773
			c-1.145,6.154-4.854,11.372-5.18,17.72c-0.188,3.672,2.328,8.16,5.825,9.494c2.09,0.797,3.92,0.635,6.084,0.284
			c3.735-0.606,1.813,3.262,2.398,5.71c1.921,8.038,11.595,12.737,18.793,8.202c2.72-1.713,0.213-6.041-2.523-4.316
			c-5.43,3.421-12.235-1.583-11.225-7.688c0.694-4.188-1.43-6.999-5.618-7.188c-2.896-0.131-5.344,1.957-7.653-1.088
			c-2.284-3.013-0.555-7.203,0.634-10.269c2.406-6.203,4.5-11.988,3.76-18.751c-1.156-10.562-10.319-16.142-20.302-14.488
			c-14.305,2.37-28.521,5.476-42.755,8.235c1.025,0.582,2.05,1.164,3.075,1.746c0.101-0.85,0.202-1.699,0.302-2.549
			C310.464,604.277,306.947,600.72,304.88,603.2L304.88,603.2z"/>
	</g>
</g>
<g>
	<path fill="none" d="M398.495,715.863c10.98-6.74,20.859-15.366,32.521-20.97c3.094-1.489,6.31-2.722,9.639-3.573
		c1.331-0.341,3.291-1.479,2.92,0.947c-0.234,1.531-3.469,4.412-4.474,5.67c-2.776,3.473-8.403,8.378-7.961,13.398
		c0.453,5.119,5.576,4.628,9.298,3.723c3.739-0.913,7.447-1.98,11.123-3.122c0.725-0.224,9.052-3.533,9.534-2.862
		c0.05,0.067-0.978,1.404-1.1,1.806c-0.279,0.919-0.209,1.818,0.128,2.701c0.592,1.552,2.171,2.551,3.664,3.099
		c5.579,2.053,13.231,0.57,18.828-0.728c2.678-0.621,1.545-4.74-1.136-4.12c-3.962,0.92-7.973,1.436-12.045,1.302
		c-1.19-0.02-2.374-0.109-3.556-0.276c-1.337-0.001-1.697-0.518-1.08-1.552c0.033-0.489,0.85-1.273,0.976-1.838
		c0.89-3.953-3.683-5.026-6.607-4.489c-3.453,0.632-6.944,2.303-10.322,3.324c-2.105,0.635-4.221,1.237-6.348,1.808
		c-1.39,0.371-3.419,1.354-4.798,1.224c-3.899-0.367-1.688-2.544-0.455-4.244c1.2-1.656,2.551-3.22,3.825-4.817
		c2.015-2.516,4.565-5.055,6.192-7.851c1.779-3.056,1.739-7.377-2.526-8.006c-4.931-0.729-11.541,2.693-15.878,4.787
		c-11.65,5.63-21.536,14.23-32.517,20.973C394.001,713.611,396.145,717.308,398.495,715.863L398.495,715.863z"/>
</g>
</svg>
