<?xml version="1.0" encoding="utf-8"?>
<!-- Generator: Adobe Illustrator 16.0.0, SVG Export Plug-In . SVG Version: 6.00 Build 0)  -->
<!DOCTYPE svg PUBLIC "-//W3C//DTD SVG 1.1//EN" "http://www.w3.org/Graphics/SVG/1.1/DTD/svg11.dtd">
<svg version="1.1" id="Layer_1" xmlns="http://www.w3.org/2000/svg" xmlns:xlink="http://www.w3.org/1999/xlink" x="0px" y="0px"
	 width="1030.06px" height="613.899px" viewBox="0 0 1030.06 613.899" enable-background="new 0 0 1030.06 613.899"
	 xml:space="preserve">
<g>
	<g>
		<g>
			<polygon fill="#77B1E9" points="874.27,291.178 962.275,291.178 961.063,283.781 873.059,283.781 			"/>
			<path fill="#77B1E9" d="M1008.802,574.608l-51.05-311.006c-0.37-2.236,1.153-4.299,3.177-4.299l0,0
				c1.558,0,2.892,1.252,3.174,2.975l51.266,312.33H1008.802z"/>
			<path fill="#77B1E9" d="M914.224,574.608l-51.049-311.006c-0.366-2.236,1.155-4.299,3.178-4.299l0,0
				c1.559,0,2.892,1.252,3.175,2.975l51.265,312.33H914.224z"/>
			<polygon fill="#77B1E9" points="881.854,337.404 969.863,337.404 968.648,330.007 880.644,330.007 			"/>
			<polygon fill="#77B1E9" points="889.447,383.627 977.45,383.627 976.238,376.235 888.23,376.235 			"/>
			<polygon fill="#77B1E9" points="897.035,429.855 985.043,429.855 983.828,422.458 895.819,422.458 			"/>
			<polygon fill="#77B1E9" points="904.619,476.082 992.626,476.082 991.413,468.685 903.408,468.685 			"/>
			<polygon fill="#77B1E9" points="912.208,522.305 1000.219,522.305 999,514.912 910.995,514.912 			"/>
		</g>
		<g>
			<path fill="#79D9D3" d="M869.564,320.526c0,0.164,0.022,0.329,0.074,0.495l-0.1-0.495H869.564z"/>
			<g>
				<path fill="#FCD2C5" d="M910.54,265.584c-0.712,1.059-3.636,0.045-3.948-0.505c-0.788-1.376,0.038-2.779-0.732-4.049
					c1.102,1.149,2.345,2.22,3.708,2.915C910.323,264.33,911.261,264.527,910.54,265.584z"/>
				<path fill="#FCD2C5" d="M904.776,259.958c1.818,1.197,2.084,3.486,2.892,5.052c0.809,1.566,2.117,6.522,2.341,7.316
					c0.655,2.305,1.118,3.327,1.175,4.757c0.05,1.427-0.683,2.032-1.219,2.753c-0.538,0.717-0.99,0.283-1.494,0.176
					c-0.955,1-1.879-1.24-2.408-0.92c-2.161,1.313-2.449-1.371-3.556-4.063c-0.063-0.161-4.824-9.959-5.192-11.672
					C897.993,262.047,904.672,259.888,904.776,259.958z"/>
				<path fill="#FCD2C5" d="M894.952,201.88c3.999,18.906,4.688,40.03,10.543,58.449c-2.689,0.941-5.405,2.744-7.832,3.761
					c-6.999-11.984-18.791-49.579-14.136-61.358C888.182,190.954,894.734,200.847,894.952,201.88z"/>
				<path fill="#FCD2C5" d="M900.384,148.726c5.111-4.895,15.123,5.129,14.553,8.007c-3.149,15.888-12.488,30.137-16.77,43.668
					c-5.25,16.602-15.026,12.036-15.114,4.756C882.831,185.987,888.584,160.02,900.384,148.726z"/>
				<path fill="#FFFFFF" d="M894.042,152.564c8.892-16.006,27.53-8.229,23.487,6.578c-2.642,9.651-14.767,36.272-19.48,46.788
					c2.721,17.831,4.528,36.204,9.309,53.164c-3.911,2.132-7.658,4.434-11.679,6.461c-6.392-17.941-15.987-40.663-14.743-60.834
					C882.175,184.55,890.371,159.169,894.042,152.564z"/>
			</g>
			<path fill="#1731FC" d="M920.323,414.232l-5.314-2.956c0,0-1.139,1.707-2.071,2.813c-1.789,2.122-10.389,3.661-10.389,6.675
				c0,1.521,3.206,2.89,5.812,2.994c2.615,0.104,4.758-0.363,6.299-0.867c1.542-0.503,5.061-1.937,5.618-2.875
				c0.967-1.631,0.204-3.519,0.204-3.519C920.756,414.812,920.323,414.232,920.323,414.232z"/>
			<path fill="#FCD2C5" d="M913.474,411.106c0,0,0.818,1.283-0.536,2.982c0,0,1.08,1.851,3.093,2.959
				c1.136,0.628,4.451-0.551,4.451-0.551c0.276-1.682,0.13-4.113,0.13-4.113L913.474,411.106z"/>
			<path fill="#194767" d="M899.46,239.632c0,25.352,3.163,44.258,5.386,76.273c2.731,39.298,7.661,96.284,7.661,96.284
				c0.071,0.282,6.233,2.662,9.854,0L926.207,323c0,0,6.354-58.017,6.354-70.272c0-2.919,0.38-7.878,0.862-13.096H899.46z"/>
			<path fill="#1731FC" d="M935.676,412.903l5.533-2.53c0,0,1.003,1.791,1.843,2.964c1.622,2.257,10.072,4.463,9.833,7.471
				c-0.115,1.518-3.414,2.629-6.029,2.529c-2.608-0.102-4.883-0.428-6.207-1.359c-1.658-1.16-4.892-2.325-5.372-3.305
				c-0.84-1.701,0.069-3.527,0.069-3.527C935.204,413.45,935.676,412.903,935.676,412.903z"/>
			<path fill="#FCD2C5" d="M942.345,410.146c0,0-0.504,1.393,0.707,3.191c0,0-1.22,1.765-3.313,2.709
				c-1.182,0.536-4.393-0.897-4.393-0.897c-0.147-1.698-0.062-4.237-0.062-4.237L942.345,410.146z"/>
			<path fill="#194767" d="M931.648,239.632c-5.803,27.95,1.513,64.813,0.432,81.906v89.631c7.487,3.346,12.028-0.796,12.028-0.796
				s4.473-54.073,11.054-92.571c3.65-21.34,7.542-60.245,7.77-78.17H931.648z"/>
			<path fill="#1731FC" d="M921.838,96.967c-12.454,8.461-11.235,28.979,5.847,33.33c3.77,0.96,8.525-21.464,6.488-25.172
				c5.139-1.123,9.588-0.553,14.348,0.056C943.142,96.295,931.363,90.497,921.838,96.967z"/>
			<path fill="#FFFFFF" d="M962.932,149.336c-2.669-3.926-6.244-7.14-10.819-8.408c-6.043-1.672-12.963-3.369-17.211-3.387h-9.197
				c-4.248,0.018-12.714,2.136-18.759,3.812c-4.577,1.268-8.345,4.657-9.836,9.166c-4.384,13.204-2.375,24.37-1.646,29.803
				c3.236,24.162,1.638,30.02,0.777,54.827c-0.104,3.086,0.979,9.692,0.979,9.692s14.623,4.532,31.958,4.541
				c0.377,0,0.749-0.009,1.127-0.016c0.374,0.007,0.748,0.016,1.124,0.016c17.334-0.009,31.96-4.541,31.96-4.541
				s1.079-6.606,0.976-9.692c-0.858-24.807-2.456-30.665,0.785-54.827C965.873,174.888,967.998,156.784,962.932,149.336z"/>
			<path fill="#FCD2C5" d="M938.202,122.329h-14.01c0.331,5.753-0.533,11.665-0.851,17.448c1.499,2.665,4.761,3.758,7.354,3.878
				c0.165,0.011,0.324,0.021,0.498,0.021c0.175,0,0.334-0.01,0.499-0.021c2.595-0.12,5.857-1.214,7.355-3.878
				C938.729,133.994,937.865,128.083,938.202,122.329z"/>
			<path fill="#FCD2C5" d="M938.313,117.989c1.849-6.604,0.297-12.881-5.691-15.629c-3.681-1.688-13.185-4.7-16.01,3.094
				c-1.28,3.525-3.18,24.774,7.877,27.128c4.676,0.995,11.034-3.985,12.229-8.634C937.132,122.348,938.294,118.055,938.313,117.989z
				"/>
			<path fill="#1731FC" d="M915.795,87.453c4.538-1.849,6.154,0.309,9.936,3.371c5.536,4.489,14.957,2.017,21.529,7.184
				c9.54,7.503,2.917,23.348-2.063,28.142c-4.979,4.794-6.019,2.091-6.956,0.683c-2.574-3.881-1.036-12.209-0.292-16.316
				c-0.559,0.667-3.628,5.1-4.694,4.87c-2.233-0.482-0.845-5.407,0.312-8.133c-6.908,0.251-17.341-4.801-20.413-10.536
				C910.685,92.115,912.347,88.855,915.795,87.453z"/>
			<path fill="#FCD2C5" d="M938.637,113.978c-0.58-0.462-2.006-0.718-2.824-0.694c-0.699,2.691-0.891,5.273-0.911,8.048
				c1.739,0.029,4.21-0.638,5.014-2.348C940.726,117.273,940.171,115.188,938.637,113.978z"/>
			<path fill="#1731FC" d="M926.979,145.149c-1.213,2.246,1.572,7.042,3.79,7.042c3.424,0,5.625-4.863,4.515-6.813
				C934.179,143.428,928.194,142.9,926.979,145.149z"/>
			<path fill="#1731FC" d="M932.398,151.46c-4.882,18.91-7.954,39.265,6.924,54.797c-0.05,3.779-0.102,7.57-0.149,11.355
				c-3.938-0.302-7.862-0.604-11.806-0.904c-11.764-21.326-8.139-46.454,3.106-66.981C930.6,149.497,932.454,151.238,932.398,151.46
				z"/>
			<path fill="#B0C0DE" d="M938.877,136.296c-0.538,4.646-4.465,6.281-7.599,7.377l7.853,10.19c0,0,2.963-10.699,3.825-15.333
				L938.877,136.296z"/>
			<path fill="#B0C0DE" d="M923.513,136.296c0.542,4.646,4.469,6.284,7.604,7.38l-7.853,10.187c0,0-2.966-10.699-3.827-15.333
				L923.513,136.296z"/>
		</g>
		<g>
			<polygon fill="#FFFFFF" points="953.037,291.178 865.034,291.178 866.248,283.781 954.252,283.781 			"/>
			<path fill="#FFFFFF" d="M811.939,574.608l51.265-312.33c0.282-1.723,1.622-2.975,3.18-2.975l0,0c2.019,0,3.542,2.063,3.175,4.299
				l-51.053,311.006H811.939z"/>
			<path fill="#FFFFFF" d="M906.515,574.608l51.266-312.33c0.283-1.723,1.622-2.975,3.181-2.975l0,0
				c2.018,0,3.541,2.063,3.173,4.299l-51.051,311.006H906.515z"/>
			<polygon fill="#FFFFFF" points="945.452,337.404 857.443,337.404 858.659,330.007 946.663,330.007 			"/>
			<polygon fill="#FFFFFF" points="937.861,383.627 849.857,383.627 851.07,376.235 939.078,376.235 			"/>
			<polygon fill="#FFFFFF" points="930.275,429.855 842.271,429.855 843.48,422.458 931.487,422.458 			"/>
			<polygon fill="#FFFFFF" points="922.688,476.082 834.68,476.082 835.895,468.685 923.9,468.685 			"/>
			<polygon fill="#FFFFFF" points="915.101,522.305 827.092,522.305 828.305,514.912 916.315,514.912 			"/>
		</g>
	</g>
	<g>
		<g>
			<path fill="#D0D9E8" d="M34.456,17.101c-11.344,0-20.542,9.198-20.542,20.545v493.972c0,3.057,2.659,5.537,5.936,5.537h854.889
				c3.276,0,5.933-2.48,5.933-5.537V37.646c0-11.347-9.197-20.545-20.545-20.545H34.456z"/>
		</g>
		<g>
			<rect x="35.229" y="54.656" fill="#FFFFFF" width="823.669" height="457.909"/>
		</g>
		<g>
			<g id="XMLID_217_">
				<path fill="#D0D9E8" d="M756.517,401.573c-13.47,0-26.406,5.275-36.032,14.7l-3.994,3.907
					c-9.653,9.453-22.628,14.745-36.144,14.745c-8.302,0-16.482,2.001-23.847,5.831c-3.404,1.771-7.341,2.228-11.063,1.28
					l-11.291-2.875c-0.106-0.027-0.217-0.054-0.325-0.081c-15.168-3.745-31.055,2.636-40.172,15.324l-9.921,13.802h218.658v-83.675
					l-22.528,11.449C772.629,399.656,764.63,401.573,756.517,401.573z"/>
			</g>
			<path fill="#3AC2FE" d="M762.941,434.997l-15.122,0.161c-7.672,0.082-15.015,3.125-20.497,8.493
				c-5.564,5.443-13.035,8.492-20.816,8.492h-46.343c-11.339,0-22.627,1.533-33.56,4.56l-41.568,11.504h217.352v-49.124
				l-26.823,12.954C771.621,433.938,767.316,434.95,762.941,434.997z"/>
		</g>
		<g>
			<g>
				<path fill="#FFD817" d="M253.904,162.471c0.044-8.864,7.224-16.053,16.059-16.146l0.043-8.792
					c-13.687,0.073-24.829,11.185-24.896,24.896c-0.063,13.713,10.97,24.933,24.65,25.135l0.043-8.792
					C260.973,178.592,253.861,171.338,253.904,162.471z"/>
			</g>
			<g>
				<path fill="#D0D9E8" d="M270.255,137.528c-0.086,0-0.166,0.004-0.249,0.004l-0.043,8.792c0.08,0,0.163-0.005,0.251-0.005
					c8.947,0.042,16.194,7.359,16.148,16.309c-0.044,8.95-7.359,16.194-16.308,16.152c-0.083,0-0.169-0.006-0.251-0.008
					l-0.043,8.792c0.085,0,0.168,0.006,0.251,0.006c13.799,0.066,25.078-11.103,25.14-24.899
					C295.219,148.875,284.055,137.598,270.255,137.528z"/>
			</g>
		</g>
		<g>
			<g>
				<path fill="#3AC2FE" d="M347.174,161.876c0.008,0.225,0.017,0.448,0.017,0.672c0,8.949-7.282,16.231-16.234,16.231
					c-8.949,0-16.228-7.283-16.228-16.231c0-8.779,7.006-15.946,15.723-16.216v-8.792c-13.563,0.272-24.513,11.382-24.513,25.007
					c0,13.798,11.222,25.021,25.018,25.021c13.798,0,25.024-11.223,25.024-25.021c0-0.224-0.011-0.448-0.02-0.672H347.174z"/>
			</g>
			<g>
				<path fill="#D0D9E8" d="M330.958,146.32c8.726,0,15.86,6.919,16.217,15.557h8.788c-0.357-13.484-11.43-24.348-25.004-24.348
					c-0.166,0-0.333,0.01-0.505,0.013v8.792C330.624,146.328,330.792,146.32,330.958,146.32z"/>
			</g>
		</g>
		<g>
			<g>
				<path fill="#D0D9E8" d="M391.854,146.325c8.869,0,16.098,7.159,16.219,16.002h8.796c-0.123-13.692-11.3-24.791-25.015-24.791
					c-0.105,0-0.212,0.005-0.316,0.008v8.789C391.641,146.333,391.749,146.325,391.854,146.325z"/>
			</g>
			<g>
				<path fill="#1731FC" d="M408.072,162.327c0,0.078,0.008,0.152,0.008,0.229c0,8.95-7.28,16.229-16.227,16.229
					c-8.953,0-16.235-7.279-16.235-16.229c0-8.845,7.116-16.055,15.918-16.223v-8.789c-13.649,0.166-24.708,11.32-24.708,25.012
					c0,13.796,11.228,25.021,25.024,25.021c13.795,0,25.018-11.224,25.018-25.021c0-0.077-0.003-0.151-0.003-0.229H408.072z"/>
			</g>
		</g>
		<g>
			<rect x="221.038" y="16.76" fill="#D0D9E8" width="1.571" height="510.963"/>
		</g>
		<g>
			<rect x="442.602" y="86.911" fill="#D0D9E8" width="384.442" height="0.464"/>
		</g>
		<g>
			<rect x="442.602" y="107.936" fill="#D0D9E8" width="384.442" height="0.464"/>
		</g>
		<g>
			<rect x="442.602" y="128.96" fill="#D0D9E8" width="384.442" height="0.464"/>
		</g>
		<g>
			<rect x="442.602" y="149.988" fill="#D0D9E8" width="384.442" height="0.464"/>
		</g>
		<g>
			<rect x="442.602" y="171.012" fill="#D0D9E8" width="384.442" height="0.464"/>
		</g>
		<g>
			<rect x="442.602" y="192.037" fill="#D0D9E8" width="384.442" height="0.467"/>
		</g>
		<g>
			<g>
				<path fill="#AFBDDD" d="M857.464,31.279h-17.196c-0.795,0-1.434-0.641-1.434-1.432c0-0.792,0.639-1.435,1.434-1.435h17.196
					c0.794,0,1.435,0.643,1.435,1.435C858.898,30.638,858.258,31.279,857.464,31.279z"/>
			</g>
			<g>
				<path fill="#AFBDDD" d="M857.464,37.835h-17.196c-0.795,0-1.434-0.64-1.434-1.432s0.639-1.435,1.434-1.435h17.196
					c0.794,0,1.435,0.643,1.435,1.435S858.258,37.835,857.464,37.835z"/>
			</g>
			<g>
				<path fill="#AFBDDD" d="M857.464,44.392h-17.196c-0.795,0-1.434-0.641-1.434-1.432c0-0.792,0.639-1.435,1.434-1.435h17.196
					c0.794,0,1.435,0.643,1.435,1.435C858.898,43.751,858.258,44.392,857.464,44.392z"/>
			</g>
		</g>
		<g>
			<g>
				<g>
					<path fill="#D0D9E8" d="M531.104,293.384c-6.53,12.02-19.264,20.199-33.876,20.199c-21.243,0-38.529-17.284-38.529-38.525
						c0-20.635,16.31-37.53,36.712-38.479l0.101-4.199c-22.763,0.902-41.01,19.696-41.01,42.679
						c0,23.557,19.167,42.723,42.727,42.723c16.37,0,30.616-9.264,37.781-22.82L531.104,293.384z"/>
				</g>
				<g>
					<path fill="#1731FC" d="M497.228,236.532c21.24,0,38.52,17.282,38.52,38.525c0,6.63-1.683,12.874-4.644,18.326l3.905,1.576
						c3.149-5.949,4.938-12.719,4.938-19.902c0-23.558-19.167-42.724-42.72-42.724c-0.577,0-1.147,0.021-1.717,0.045l-0.101,4.199
						C496.013,236.551,496.616,236.532,497.228,236.532z"/>
				</g>
			</g>
		</g>
		<g>
			<g>
				<g>
					<path fill="#FFD817" d="M633.783,237.38c21.246,0,38.529,17.283,38.529,38.524c0,4.406-0.758,8.639-2.123,12.585l4.006,1.248
						c1.49-4.341,2.313-8.992,2.313-13.833c0-23.557-19.169-42.722-42.726-42.722c-0.003,0-0.003,0-0.003,0l-0.082,4.2
						C633.726,237.383,633.758,237.38,633.783,237.38z"/>
				</g>
				<g>
					<path fill="#D0D9E8" d="M670.189,288.489c-5.23,15.078-19.567,25.94-36.406,25.94c-21.24,0-38.526-17.284-38.526-38.525
						c0-21.212,17.235-38.473,38.441-38.521l0.082-4.2c-23.557,0.002-42.718,19.168-42.718,42.722
						c0,23.559,19.167,42.723,42.721,42.723c18.72,0,34.653-12.101,40.412-28.89L670.189,288.489z"/>
				</g>
			</g>
		</g>
		<g>
			<g>
				<g>
					<path fill="#D0D9E8" d="M802.915,292.703c-6.415,12.389-19.346,20.88-34.23,20.88c-21.242,0-38.521-17.284-38.521-38.525
						c0-20.997,16.881-38.111,37.789-38.507l0.07-4.198c-23.254,0.357-42.059,19.371-42.059,42.705
						c0,23.557,19.164,42.723,42.72,42.723c16.727,0,31.227-9.664,38.237-23.695L802.915,292.703z"/>
				</g>
				<g>
					<path fill="#983619" d="M768.685,236.532c21.245,0,38.524,17.282,38.524,38.525c0,6.357-1.556,12.356-4.294,17.646l4.007,1.382
						c2.867-5.734,4.486-12.192,4.486-19.027c0-23.558-19.165-42.724-42.724-42.724c-0.22,0-0.438,0.014-0.661,0.019l-0.07,4.198
						C768.196,236.546,768.441,236.532,768.685,236.532z"/>
				</g>
			</g>
		</g>
		<g>
			<rect x="363.457" y="69.743" fill="#D0D9E8" width="62.416" height="4.676"/>
			<rect x="234.818" y="69.743" fill="#D0D9E8" width="11.379" height="4.676"/>
			<rect x="259.071" y="69.743" fill="#D0D9E8" width="83.923" height="4.676"/>
			<rect x="234.818" y="79.834" fill="#D0D9E8" width="48.7" height="4.675"/>
			<rect x="298.927" y="79.834" fill="#D0D9E8" width="126.946" height="4.675"/>
			<rect x="234.818" y="89.925" fill="#D0D9E8" width="129.05" height="4.675"/>
			<rect x="392.56" y="89.925" fill="#D0D9E8" width="33.313" height="4.675"/>
			<rect x="234.818" y="100.013" fill="#D0D9E8" width="16.438" height="4.676"/>
			<rect x="340.051" y="100.013" fill="#D0D9E8" width="85.822" height="4.676"/>
			<rect x="265.389" y="100.013" fill="#D0D9E8" width="57.355" height="4.676"/>
			<rect x="234.818" y="110.104" fill="#D0D9E8" width="56.295" height="4.676"/>
			<rect x="304.622" y="110.104" fill="#D0D9E8" width="96.577" height="4.676"/>
			<rect x="234.818" y="120.192" fill="#D0D9E8" width="106.911" height="4.679"/>
			<rect x="357.766" y="120.192" fill="#D0D9E8" width="68.107" height="4.679"/>
		</g>
		<g>
			<rect x="557.906" y="335.378" fill="#D0D9E8" width="50.174" height="4.675"/>
			<rect x="454.501" y="335.378" fill="#D0D9E8" width="9.148" height="4.675"/>
			<rect x="473.998" y="335.378" fill="#D0D9E8" width="67.459" height="4.675"/>
			<rect x="454.501" y="345.469" fill="#D0D9E8" width="39.148" height="4.675"/>
			<rect x="506.037" y="345.469" fill="#D0D9E8" width="102.043" height="4.675"/>
			<rect x="454.501" y="355.56" fill="#D0D9E8" width="103.733" height="4.675"/>
			<rect x="581.3" y="355.56" fill="#D0D9E8" width="26.78" height="4.675"/>
			<rect x="647.807" y="335.378" fill="#D0D9E8" width="13.213" height="4.675"/>
			<rect x="732.398" y="335.378" fill="#D0D9E8" width="68.983" height="4.675"/>
			<rect x="672.387" y="335.378" fill="#D0D9E8" width="46.096" height="4.675"/>
			<rect x="647.807" y="345.469" fill="#D0D9E8" width="45.252" height="4.675"/>
			<rect x="703.916" y="345.469" fill="#D0D9E8" width="77.628" height="4.675"/>
			<rect x="647.807" y="355.557" fill="#D0D9E8" width="85.934" height="4.678"/>
			<rect x="746.636" y="355.557" fill="#D0D9E8" width="54.746" height="4.678"/>
		</g>
		<g>
			<rect x="234.818" y="207.887" fill="#D0D9E8" width="48.7" height="4.677"/>
			<rect x="298.927" y="207.887" fill="#D0D9E8" width="126.946" height="4.677"/>
			<rect x="234.818" y="217.978" fill="#D0D9E8" width="129.05" height="4.677"/>
			<rect x="392.56" y="217.978" fill="#D0D9E8" width="33.313" height="4.677"/>
			<rect x="234.818" y="228.065" fill="#D0D9E8" width="16.438" height="4.677"/>
			<rect x="340.051" y="228.065" fill="#D0D9E8" width="85.822" height="4.677"/>
			<rect x="265.389" y="228.065" fill="#D0D9E8" width="57.355" height="4.677"/>
			<rect x="234.818" y="238.157" fill="#D0D9E8" width="56.295" height="4.676"/>
			<rect x="304.622" y="238.157" fill="#D0D9E8" width="96.577" height="4.676"/>
			<rect x="234.818" y="248.245" fill="#D0D9E8" width="106.911" height="4.679"/>
			<rect x="357.766" y="248.245" fill="#D0D9E8" width="68.107" height="4.679"/>
		</g>
		<g>
			<rect x="251.255" y="445.271" fill="#D0D9E8" width="40.32" height="4.676"/>
			<rect x="304.335" y="445.271" fill="#D0D9E8" width="105.101" height="4.676"/>
			<rect x="251.255" y="455.362" fill="#D0D9E8" width="106.844" height="4.675"/>
			<rect x="381.85" y="455.362" fill="#D0D9E8" width="27.586" height="4.675"/>
			<rect x="251.255" y="465.45" fill="#D0D9E8" width="13.608" height="4.675"/>
			<rect x="338.384" y="465.45" fill="#D0D9E8" width="71.053" height="4.675"/>
			<rect x="276.571" y="465.45" fill="#D0D9E8" width="47.479" height="4.675"/>
			<rect x="251.255" y="475.54" fill="#D0D9E8" width="46.612" height="4.678"/>
			<rect x="309.047" y="475.54" fill="#D0D9E8" width="79.96" height="4.678"/>
		</g>
		<rect x="63.465" y="76.451" fill="#D0D9E8" width="115.836" height="13.412"/>
		<rect x="63.465" y="122.017" fill="#D0D9E8" width="27.919" height="10.718"/>
		<rect x="100.798" y="122.017" fill="#D0D9E8" width="55.215" height="10.718"/>
		<rect x="63.465" y="146.514" fill="#D0D9E8" width="62.433" height="10.715"/>
		<rect x="139.697" y="146.514" fill="#D0D9E8" width="16.316" height="10.715"/>
		<rect x="63.465" y="171.01" fill="#D0D9E8" width="92.548" height="10.717"/>
		<rect x="63.465" y="195.505" fill="#D0D9E8" width="62.433" height="10.717"/>
		<rect x="139.697" y="195.505" fill="#D0D9E8" width="16.316" height="10.717"/>
		<rect x="63.465" y="220.002" fill="#D0D9E8" width="92.548" height="10.716"/>
		<rect x="63.465" y="244.498" fill="#D0D9E8" width="27.919" height="10.718"/>
		<rect x="100.798" y="244.498" fill="#D0D9E8" width="55.215" height="10.718"/>
		<g>
			<g>
				<rect x="252.482" y="276.872" fill="#1731FC" width="30.386" height="24.913"/>
			</g>
			<g>
				<rect x="252.482" y="301.785" fill="#3AC2FE" width="30.386" height="38.494"/>
			</g>
			<g>
				<rect x="252.482" y="340.279" fill="#FFD817" width="30.386" height="37.561"/>
			</g>
			<g>
				<rect x="252.482" y="377.84" fill="#D0D9E8" width="30.386" height="49.673"/>
			</g>
			<g>
				<rect x="285.68" y="276.872" fill="#1731FC" width="30.391" height="10.014"/>
			</g>
			<g>
				<rect x="285.68" y="286.886" fill="#3AC2FE" width="30.391" height="31.041"/>
			</g>
			<g>
				<rect x="285.68" y="317.927" fill="#FFD817" width="30.391" height="38.185"/>
			</g>
			<g>
				<rect x="285.68" y="356.111" fill="#D0D9E8" width="30.391" height="71.401"/>
			</g>
			<g>
				<rect x="318.881" y="276.872" fill="#1731FC" width="30.394" height="3.804"/>
			</g>
			<g>
				<rect x="318.881" y="280.676" fill="#3AC2FE" width="30.394" height="36.633"/>
			</g>
			<g>
				<polygon fill="#FFD817" points="318.881,317.309 318.881,347.419 318.881,369.459 349.275,369.459 349.275,347.419 
					349.275,317.309 				"/>
			</g>
			<g>
				<rect x="318.881" y="369.459" fill="#D0D9E8" width="30.394" height="58.054"/>
			</g>
			<g>
				<rect x="352.089" y="276.872" fill="#1731FC" width="30.387" height="13.428"/>
			</g>
			<g>
				<rect x="352.089" y="290.3" fill="#3AC2FE" width="30.387" height="32.284"/>
			</g>
			<g>
				<rect x="352.089" y="322.584" fill="#FFD817" width="30.387" height="40.355"/>
			</g>
			<g>
				<rect x="352.089" y="362.939" fill="#D0D9E8" width="30.387" height="64.573"/>
			</g>
			<g>
				<rect x="385.288" y="353.628" fill="#D0D9E8" width="30.39" height="73.885"/>
			</g>
			<g>
				<rect x="385.288" y="294.646" fill="#3AC2FE" width="30.39" height="25.455"/>
			</g>
			<g>
				<rect x="385.288" y="276.872" fill="#1731FC" width="30.39" height="17.773"/>
			</g>
			<g>
				<rect x="385.288" y="320.101" fill="#FFD817" width="30.39" height="33.527"/>
			</g>
		</g>
		<g>
			<g>
				<path fill="#D0D9E8" d="M500.528,466.212L500.528,466.212V389.81l0,0c-20.368,0-36.879,17.103-36.879,38.203
					C463.649,449.109,480.16,466.212,500.528,466.212z"/>
			</g>
			<g>
				<path fill="#1731FC" d="M502.874,386.818v39.531l28.857-25.1C524.976,392.461,514.564,386.818,502.874,386.818z"/>
			</g>
			<g>
				<path fill="#FFD817" d="M503.432,431.334v36.873c14.798-0.003,27.558-9.038,33.429-22.072l-32.956-15.215L503.432,431.334z"/>
			</g>
			<g>
				<path fill="#3AC2FE" d="M536.86,443.501c2.208-4.902,3.449-10.365,3.449-16.13c0-8.989-3.008-17.244-8.023-23.77l-28.382,24.686
					L536.86,443.501z"/>
			</g>
		</g>
		<rect x="51.48" y="46.326" fill="#AFBDDD" width="25.167" height="2.838"/>
		
			<rect x="86.259" y="37.844" transform="matrix(0.7071 0.7071 -0.7071 0.7071 56.7152 -58.395)" fill="#AFBDDD" width="25.172" height="2.836"/>
		
			<rect x="86.258" y="37.842" transform="matrix(0.707 -0.7072 0.7072 0.707 1.1945 81.4052)" fill="#AFBDDD" width="25.169" height="2.838"/>
		<path fill="#FFD817" d="M457.566,172.258v-2.024h19.021c1.264,0,5.977-2.529,10.971-5.204
			c12.019-6.442,30.146-16.154,43.839-16.154c10.305,0,18.438,2.214,26.296,4.353c7.657,2.081,14.836,4.034,23.703,4.034
			c8.887,0,16.774-4.637,24.401-9.12c7.954-4.674,16.18-9.51,25.843-9.51c9.212,0,16.675,2.396,24.563,4.929
			c8.149,2.616,16.541,5.314,27.268,5.314c10.201,0,16.96-4.906,24.111-10.102c7.17-5.206,14.585-10.592,25.669-10.592
			c11.406,0,20.776,8.632,29.844,16.98c8.452,7.781,16.431,15.127,25.368,15.127h30.741v2.025h-30.741
			c-9.732,0-17.994-7.607-26.736-15.661c-8.785-8.087-17.866-16.447-28.476-16.447c-10.426,0-17.571,5.188-24.479,10.208
			c-7.094,5.153-14.438,10.485-25.301,10.485c-11.048,0-19.598-2.747-27.871-5.404c-7.741-2.488-15.056-4.838-23.959-4.838
			c-9.115,0-17.1,4.692-24.813,9.232c-7.872,4.623-15.996,9.396-25.431,9.396c-9.153,0-16.469-1.992-24.218-4.099
			c-7.751-2.112-15.746-4.287-25.781-4.287c-13.2,0-31.064,9.577-42.884,15.915c-6.363,3.409-10.164,5.444-11.926,5.444H457.566z"/>
		<path fill="#FFD817" d="M476.587,173.608c-1.299,0-2.364-1.062-2.364-2.364c0-1.301,1.065-2.363,2.364-2.363
			c1.301,0,2.366,1.062,2.366,2.363C478.953,172.546,477.888,173.608,476.587,173.608z"/>
		<path fill="#1731FC" d="M476.587,152.583c-1.299,0-2.364-1.062-2.364-2.364c0-1.301,1.065-2.363,2.364-2.363
			c1.301,0,2.366,1.062,2.366,2.363C478.953,151.521,477.888,152.583,476.587,152.583z"/>
		<path fill="#983619" d="M476.587,188.124c-1.299,0-2.364-1.062-2.364-2.364c0-1.301,1.065-2.363,2.364-2.363
			c1.301,0,2.366,1.062,2.366,2.363C478.953,187.063,477.888,188.124,476.587,188.124z"/>
		<path fill="#983619" d="M531.396,173.608c-1.3,0-2.362-1.062-2.362-2.364c0-1.301,1.063-2.363,2.362-2.363
			c1.301,0,2.366,1.062,2.366,2.363C533.763,172.546,532.697,173.608,531.396,173.608z"/>
		<path fill="#983619" d="M579.994,131.556c-1.299,0-2.361-1.062-2.361-2.364c0-1.302,1.063-2.363,2.361-2.363
			c1.306,0,2.366,1.062,2.366,2.363C582.36,130.494,581.3,131.556,579.994,131.556z"/>
		<path fill="#983619" d="M632.304,152.252c-1.3,0-2.362-1.062-2.362-2.363c0-1.302,1.063-2.363,2.362-2.363
			c1.304,0,2.366,1.062,2.366,2.363C634.67,151.19,633.607,152.252,632.304,152.252z"/>
		<path fill="#983619" d="M683.47,142.009c-1.306,0-2.366-1.062-2.366-2.363c0-1.305,1.061-2.366,2.366-2.366
			c1.302,0,2.367,1.062,2.367,2.366C685.837,140.947,684.771,142.009,683.47,142.009z"/>
		<path fill="#983619" d="M733.25,166.691c-1.305,0-2.367-1.062-2.367-2.363c0-1.302,1.063-2.364,2.367-2.364
			c1.302,0,2.364,1.062,2.364,2.364C735.614,165.629,734.552,166.691,733.25,166.691z"/>
		<path fill="#983619" d="M788.462,120.347c-1.298,0-2.362-1.062-2.362-2.363s1.064-2.363,2.362-2.363
			c1.305,0,2.366,1.062,2.366,2.363S789.767,120.347,788.462,120.347z"/>
		<path fill="#1731FC" d="M531.396,164.693c-1.3,0-2.362-1.062-2.362-2.363c0-1.301,1.063-2.363,2.362-2.363
			c1.301,0,2.366,1.062,2.366,2.363C533.763,163.631,532.697,164.693,531.396,164.693z"/>
		<path fill="#1731FC" d="M581.396,152.583c-1.303,0-2.367-1.062-2.367-2.364c0-1.301,1.064-2.363,2.367-2.363
			c1.3,0,2.363,1.062,2.363,2.363C583.759,151.521,582.695,152.583,581.396,152.583z"/>
		<path fill="#1731FC" d="M631.64,160.636c-1.306,0-2.365-1.062-2.365-2.363c0-1.301,1.06-2.363,2.365-2.363
			c1.302,0,2.363,1.062,2.363,2.363C634.003,159.574,632.941,160.636,631.64,160.636z"/>
		<path fill="#1731FC" d="M683.47,131.556c-1.306,0-2.366-1.062-2.366-2.364c0-1.302,1.061-2.363,2.366-2.363
			c1.302,0,2.367,1.062,2.367,2.363C685.837,130.494,684.771,131.556,683.47,131.556z"/>
		<path fill="#1731FC" d="M733.25,110.531c-1.305,0-2.367-1.062-2.367-2.363c0-1.302,1.063-2.364,2.367-2.364
			c1.302,0,2.364,1.062,2.364,2.364C735.614,109.47,734.552,110.531,733.25,110.531z"/>
		<path fill="#1731FC" d="M788.462,142.009c-1.298,0-2.362-1.062-2.362-2.363c0-1.305,1.064-2.366,2.362-2.366
			c1.305,0,2.366,1.062,2.366,2.366C790.828,140.947,789.767,142.009,788.462,142.009z"/>
		<path fill="#FFD817" d="M531.396,152.252c-1.3,0-2.362-1.062-2.362-2.363c0-1.302,1.063-2.363,2.362-2.363
			c1.301,0,2.366,1.062,2.366,2.363C533.763,151.19,532.697,152.252,531.396,152.252z"/>
		<path fill="#FFD817" d="M581.396,160.636c-1.303,0-2.367-1.062-2.367-2.363c0-1.301,1.064-2.363,2.367-2.363
			c1.3,0,2.363,1.062,2.363,2.363C583.759,159.574,582.695,160.636,581.396,160.636z"/>
		<path fill="#FFD817" d="M631.64,142.009c-1.306,0-2.365-1.062-2.365-2.363c0-1.305,1.06-2.366,2.365-2.366
			c1.302,0,2.363,1.062,2.363,2.366C634.003,140.947,632.941,142.009,631.64,142.009z"/>
		<path fill="#FFD817" d="M683.47,152.252c-1.306,0-2.366-1.062-2.366-2.363c0-1.302,1.061-2.363,2.366-2.363
			c1.302,0,2.367,1.062,2.367,2.363C685.837,151.19,684.771,152.252,683.47,152.252z"/>
		<path fill="#FFD817" d="M733.25,131.556c-1.305,0-2.367-1.062-2.367-2.364c0-1.302,1.063-2.363,2.367-2.363
			c1.302,0,2.364,1.062,2.364,2.363C735.614,130.494,734.552,131.556,733.25,131.556z"/>
		<path fill="#FFD817" d="M788.462,163.664c-1.298,0-2.362-1.062-2.362-2.364c0-1.302,1.064-2.364,2.362-2.364
			c1.305,0,2.366,1.062,2.366,2.364C790.828,162.602,789.767,163.664,788.462,163.664z"/>
		<path fill="#983619" d="M457.562,186.771v-2.024h19.025c7.714,0,12.016-2.479,17.003-5.346c7.093-4.083,15.93-9.167,37.807-9.167
			c7.684,0,13.988-9.154,20.662-18.848c7.863-11.414,15.984-23.204,27.936-23.204c11.188,0,19.191,5.377,26.932,10.579
			c7.746,5.202,15.063,10.115,25.378,10.115c18.63,0,27.376-3.508,34.402-6.324c5.227-2.103,9.751-3.919,16.764-3.919
			c15.492,0,21.705,6.781,27.707,13.337c5.345,5.836,10.392,11.347,22.073,11.347c12.088,0,19.693-11.633,27.054-22.881
			c7.533-11.534,15.331-23.463,28.158-23.463h30.741v2.025h-30.741c-11.725,0-18.884,10.95-26.466,22.544
			c-7.653,11.7-15.562,23.799-28.746,23.799c-12.571,0-17.91-5.831-23.56-12.003c-5.714-6.236-11.615-12.681-26.221-12.681
			c-6.613,0-10.973,1.747-16.012,3.771c-7.191,2.883-16.137,6.471-35.154,6.471c-10.938,0-18.853-5.315-26.507-10.458
			c-7.491-5.032-15.236-10.235-25.803-10.235c-10.891,0-18.697,11.344-26.256,22.315c-6.987,10.149-13.59,19.736-22.342,19.736
			c-21.335,0-29.91,4.933-36.798,8.896c-5.24,3.014-9.764,5.618-18.012,5.618H457.562z"/>
		<path fill="#1731FC" d="M531.396,163.343c-10.869,0-21.111-3.384-31.017-6.658c-8.507-2.806-16.522-5.455-23.793-5.455h-19.021
			v-2.022h19.021c7.615,0,15.783,2.7,24.425,5.559c9.776,3.225,19.856,6.552,30.385,6.552c9.571,0,16.061-2.764,22.932-5.692
			c7.412-3.156,15.072-6.418,27.067-6.418c12.265,0,20.54,2.249,28.541,4.42c6.88,1.87,13.377,3.634,21.703,3.634
			c7.333,0,12.078-5.223,17.575-11.271c7.593-8.352,16.185-17.811,34.255-17.811c13.464,0,19.702-5.431,25.733-10.683
			c5.84-5.083,11.88-10.342,24.047-10.342c14.454,0,26.951,10.966,36.991,19.777c7.151,6.282,13.327,11.699,18.221,11.699h30.741
			v2.025h-30.741c-5.65,0-12.083-5.645-19.53-12.178c-9.808-8.61-21.985-19.301-35.682-19.301c-11.41,0-16.898,4.779-22.713,9.842
			c-6.323,5.501-12.857,11.185-27.067,11.185c-17.174,0-25.45,9.106-32.753,17.144c-5.82,6.404-10.849,11.936-19.077,11.936
			c-8.595,0-15.221-1.797-22.234-3.702c-7.908-2.145-16.05-4.354-28.01-4.354c-11.582,0-19.046,3.183-26.27,6.258
			C548.058,160.5,541.378,163.343,531.396,163.343z"/>
	</g>
	<g>
		<g>
			<path fill="#FFD817" d="M160.583,305.893c8.008,28.465-18.51,74.956-62.706,87.393c-9.611,2.704-45.314,9.655-60.178-14.205
				c-6.602-10.601-9.797-23.844-5.521-35.579c6.237-17.116,25.893-26.984,44.037-25.343c7.637,0.693,15.071,3.087,22.735,3.429
				c8.917,0.396,18.92-2.711,22.085-11.78c1.505-4.325,4.269-8.183,8.008-10.835C142.042,289.752,158.449,298.293,160.583,305.893z"
				/>
		</g>
		<g>
			<path fill="#FCD2C5" d="M193.529,435.565c0.111,0.713-2.844,1.851-3.55,1.734c-1.609-0.794-1.139-1.736-2.755-2.263
				c1.47,0.254,3.084,0.203,4.571-0.004C192.605,434.864,193.446,434.448,193.529,435.565z"/>
			<path fill="#FCD2C5" d="M197.145,440.284c0.791,0.563,2.961,1.719,3.429,2.323c0.305,0.388,0.684,1.774,0.523,2.358
				c-0.209,0.769-1.094,0.809-1.094,0.809c-0.069,1.038-2.592,0.365-2.556,0.622c0.158,1.05-1.232,1.589-4.347-0.48
				c-0.187-0.123-8.848-3.687-11.521-5.052c0.704-1.712,4.327-6.278,4.423-6.256c1.618,0.528,3.291,1.232,4.899,2.031
				C192.82,437.562,196.862,440.107,197.145,440.284z"/>
			<path fill="#FCD2C5" d="M147.686,359.141c1.432,8.248-0.194,31.039,1.102,44.145c1.594,16.074-10.184,11.445-12.244,6.735
				c-5.407-12.41-11.055-44.258-7.867-50.552C131.607,353.688,147.427,357.646,147.686,359.141z"/>
			<path fill="#AFBDDD" d="M148.401,358.004c2.643,4.653,0.992,17.809,2.027,29.415c-4.835,2.444-13.859,4.092-20.918,3.007
				c-3.44-13.395-3.798-25.771-2.486-29.826C130.398,350.173,144.667,351.422,148.401,358.004z"/>
			<path fill="#FCD2C5" d="M145.234,402.896c7.598,4.921,32.557,28.022,41.294,31.889c-1.83,2.518-3.176,4.735-3.87,6.589
				c-14.235-6.65-47.813-27.203-46.867-33.41c0.864-5.687,5.1-6.437,7.854-5.729C144.271,402.395,144.815,402.628,145.234,402.896z"
				/>
		</g>
		<path fill="#D0DFE6" d="M62.312,593.743c-1.075-1.271-2.388-3.242-2.388-3.242l-6.132,3.409c0,0-0.498,0.672-0.181,2.61
			c0,0-0.886,2.184,0.238,4.061c0.646,1.084,4.465,2.131,6.476,3.317c1.614,0.95,4.254,1.12,7.264,1.001
			c3.011-0.122,6.708-1.699,6.708-3.453C74.297,597.967,64.379,596.194,62.312,593.743z"/>
		<path fill="#FCD2C5" d="M54.145,580.104c0,0-0.854,14.479-0.534,16.417c0,0,6.869,0.78,8.181,0.059
			c2.321-1.278,0.52-2.836,0.52-2.836c-1.931-1.925,0.494-8.417,0.494-8.417L54.145,580.104z"/>
		<path fill="#D0DFE6" d="M84.47,593.483l6.133-3.408c0,0,1.317,1.97,2.388,3.243c2.067,2.452,11.985,4.224,11.985,7.7
			c0,1.756-3.695,3.336-6.707,3.454c-3.012,0.12-5.486-0.418-7.264-1c-1.775-0.581-5.833-2.233-6.479-3.314
			c-1.118-1.881-0.235-4.061-0.235-4.061C83.975,594.156,84.47,593.483,84.47,593.483z"/>
		<path fill="#FCD2C5" d="M92.991,593.318c0.506,0.51,1.923,1.563-0.4,2.842c-2.041,1.122-8.299-0.063-8.299-0.063
			c-0.317-1.939-0.769-7.105-0.769-7.105l7.816-0.167C91.339,588.825,91.23,591.539,92.991,593.318z"/>
		<path fill="#1731FC" d="M105.065,418.015c2.865,8.986-12.766,173.222-12.766,173.222c-0.083,0.327-5.657,3.521-10.325,0.303
			l-10.161-180.65C83.798,411.858,103.687,413.712,105.065,418.015z"/>
		<path fill="#FCD2C5" d="M140.151,318.612c0.421,1.123,3.609,12.577,6.214,13.571c-0.444,0.718-6.556,7.469-7.444,12.505
			c-2.923,3.46-12.58-2.174-11.417-10.248C129.699,333.232,138.545,322.434,140.151,318.612z"/>
		<path fill="#1731FC" d="M77.354,421.811L62.213,592.413c-5.794,2.041-9.57-0.423-9.651-0.749c0,0-1.824-83.994-8.501-140.155
			c-1.795-15.079-5.49-28.014,5.903-43.557C53.939,410.098,65.367,422.778,77.354,421.811z"/>
		<path fill="#FCD2C5" d="M156.371,310.651c5.77,2.877,10.388,7.312,8.542,13.271c-0.664,2.137-11.404,18.598-21.947,15.86
			c-4.455-1.154-7.963-11.997-5.658-16.626c0,0,3.142-6.312,3.177-6.375C143.543,310.646,150.175,307.564,156.371,310.651z"/>
		<path fill="#D0D9E8" d="M107.029,337.24c3.657-1.854,20.475-2.8,20.475-2.8s2.244,9.216,6.959,10.711
			c3.426,1.089,4.458-0.463,4.458-0.463s7.354,9.049,8.058,11.217c0.785,2.401-5.746,4.58-4.214,14.711
			c2.8,18.587-13.93,22.438-18.302,27.872c-8.354,10.396-16.541,31.911-19.048,45.282c-22.838,0-45.741-13.949-58.168-34.223
			c10.938-14.543,22.5-19.96,30.852-34.192C88.855,357.018,94.513,343.59,107.029,337.24z"/>
		<path fill="#FFD817" d="M145.442,300.937c12.167-2.883,19.869,4.828,18.643,12.76c9.027,4.069-0.646,18.918-6.042,18.395
			c7.842-8.773,2.982-15.951,2.982-15.951c-16.437-8.157-24.072,6.676-26.045,8.464
			C134.981,324.604,127.472,305.194,145.442,300.937z"/>
		<path fill="#FCD2C5" d="M145.896,312.31c0.515,0.41,1.314,1.36,1.662,2.424c-1.856,1.436-5.223,3.425-6.885,4.409
			c-0.978-1.357-0.245-3.809,0.777-5.08C142.533,312.718,144.553,311.225,145.896,312.31z"/>
		<polygon fill="#194767" points="190.271,426.254 197.439,442.213 220.512,431.858 213.343,415.894 		"/>
		<path fill="#3AC2FE" d="M196.455,431.301c-4.054-9.046-14.685-13.089-23.729-9.026l-97.551,43.791
			c-9.046,4.064-13.087,14.692-9.026,23.74c4.064,9.048,14.684,13.087,23.74,9.025l97.539-43.792
			C196.48,450.98,200.52,440.349,196.455,431.301z"/>
		<path fill="#194767" d="M375.134,375.716c-6.118-31.548-30.288-57.438-61.593-65.991c-3.03-0.819-6.146-1.502-9.26-1.966
			c-33.376-5.163-67.605,10.762-85.167,39.579c-19.585,32.177-15.62,74.021,9.645,101.8c10.622,11.69,24.443,20.131,39.961,24.364
			c7.457,2.021,15.104,3.033,22.753,3.033c14.829,0,29.552-3.769,42.446-11.116C365.004,447.662,381.964,410.761,375.134,375.716z
			 M327.143,453.728c-16.389,9.369-36.383,11.83-54.79,6.801c-13.056-3.551-24.666-10.651-33.627-20.513
			c-21.25-23.354-24.583-58.534-8.11-85.577c14.775-24.255,43.568-37.637,71.645-33.295c2.622,0.382,5.248,0.955,7.787,1.639
			c26.3,7.183,46.627,28.981,51.786,55.502C367.568,407.757,353.31,438.785,327.143,453.728z"/>
		<g>
			<defs>
				<path id="SVGID_1_" d="M327.143,453.728c-16.389,9.369-36.383,11.83-54.79,6.801c-13.056-3.551-24.666-10.651-33.627-20.513
					c-21.25-23.354-24.583-58.534-8.11-85.577c14.775-24.255,43.568-37.637,71.645-33.295c2.622,0.382,5.248,0.955,7.787,1.639
					c26.3,7.183,46.627,28.981,51.786,55.502C367.568,407.757,353.31,438.785,327.143,453.728z"/>
			</defs>
			<clipPath id="SVGID_2_">
				<use xlink:href="#SVGID_1_"  overflow="visible"/>
			</clipPath>
			<g clip-path="url(#SVGID_2_)">
				<g>
					<rect x="136.963" y="137.525" fill="#D0D9E8" width="411.287" height="477.431"/>
				</g>
				<g>
					<rect x="136.963" y="137.525" fill="#FFFFFF" width="411.287" height="440.952"/>
				</g>
				<g>
					<rect x="207.084" y="478.647" fill="#D0D9E8" width="59.819" height="6.935"/>
					<rect x="285.829" y="478.647" fill="#D0D9E8" width="155.92" height="6.935"/>
					<rect x="207.084" y="493.618" fill="#D0D9E8" width="158.505" height="6.937"/>
					<rect x="400.826" y="493.618" fill="#D0D9E8" width="40.923" height="6.937"/>
					<rect x="207.084" y="508.581" fill="#D0D9E8" width="20.193" height="6.938"/>
					<rect x="336.34" y="508.581" fill="#D0D9E8" width="105.409" height="6.938"/>
					<rect x="244.639" y="508.581" fill="#D0D9E8" width="70.44" height="6.938"/>
					<rect x="207.084" y="523.554" fill="#D0D9E8" width="69.15" height="6.935"/>
					<rect x="292.826" y="523.554" fill="#D0D9E8" width="118.615" height="6.935"/>
				</g>
				<g>
					<g>
						<rect x="208.903" y="228.829" fill="#1731FC" width="45.083" height="36.957"/>
					</g>
					<g>
						<rect x="208.903" y="265.786" fill="#3AC2FE" width="45.083" height="57.104"/>
					</g>
					<g>
						<rect x="208.903" y="322.891" fill="#FFD817" width="45.083" height="55.725"/>
					</g>
					<g>
						<rect x="208.903" y="378.615" fill="#D0D9E8" width="45.083" height="73.686"/>
					</g>
					<g>
						<rect x="258.161" y="228.829" fill="#1731FC" width="45.083" height="14.852"/>
					</g>
					<g>
						<rect x="258.161" y="243.681" fill="#3AC2FE" width="45.083" height="46.051"/>
					</g>
					<g>
						<rect x="258.161" y="289.731" fill="#FFD817" width="45.083" height="56.646"/>
					</g>
					<g>
						<rect x="258.161" y="346.378" fill="#D0D9E8" width="45.083" height="105.923"/>
					</g>
					<g>
						<rect x="307.417" y="228.829" fill="#1731FC" width="45.082" height="5.642"/>
					</g>
					<g>
						<rect x="307.417" y="234.471" fill="#3AC2FE" width="45.082" height="54.341"/>
					</g>
					<g>
						<polygon fill="#FFD817" points="307.417,333.483 307.417,366.181 352.499,366.181 352.499,333.483 352.499,288.812 
							307.417,288.812 						"/>
					</g>
					<g>
						<rect x="307.417" y="366.181" fill="#D0D9E8" width="45.082" height="86.12"/>
					</g>
					<g>
						<rect x="356.669" y="228.829" fill="#1731FC" width="45.085" height="19.918"/>
					</g>
					<g>
						<rect x="356.669" y="248.747" fill="#3AC2FE" width="45.085" height="47.893"/>
					</g>
					<g>
						<rect x="356.669" y="296.64" fill="#FFD817" width="45.085" height="59.871"/>
					</g>
					<g>
						<rect x="356.669" y="356.511" fill="#D0D9E8" width="45.085" height="95.79"/>
					</g>
					<g>
						<rect x="405.926" y="342.692" fill="#D0D9E8" width="45.085" height="109.608"/>
					</g>
					<g>
						<rect x="405.926" y="255.194" fill="#3AC2FE" width="45.085" height="37.762"/>
					</g>
					<g>
						<rect x="405.926" y="228.829" fill="#1731FC" width="45.085" height="26.365"/>
					</g>
					<g>
						<rect x="405.926" y="292.956" fill="#FFD817" width="45.085" height="49.736"/>
					</g>
				</g>
			</g>
		</g>
		<g>
			<path fill="#AEBFDD" d="M310.047,322.782c-2.539-0.684-5.165-1.257-7.787-1.639c-28.076-4.342-56.87,9.04-71.645,33.295
				c-16.473,27.043-13.14,62.224,8.11,85.577c8.962,9.861,20.571,16.962,33.627,20.513c18.406,5.029,38.4,2.568,54.79-6.801
				c26.167-14.942,40.425-45.971,34.69-75.443C356.675,351.764,336.348,329.965,310.047,322.782z"/>
			<path fill="#B0C0DE" d="M309.955,322.858c-2.532-0.683-5.152-1.242-7.766-1.635c-28.023-4.207-56.723,9.017-71.46,33.209
				c-16.431,26.974-13.106,62.063,8.089,85.356c8.938,9.836,20.518,16.918,33.541,20.46c18.359,5.017,38.302,2.562,54.648-6.783
				c26.1-14.904,40.321-45.853,34.601-75.249C356.462,351.765,336.188,330.022,309.955,322.858z"/>
			<path fill="#B1C2DE" d="M309.862,322.934c-2.526-0.68-5.14-1.238-7.747-1.63c-27.95-4.196-56.577,8.993-71.275,33.123
				c-16.388,26.903-13.072,61.903,8.068,85.136c8.916,9.811,20.465,16.875,33.454,20.407c18.311,5.004,38.202,2.556,54.507-6.766
				c26.032-14.865,40.216-45.733,34.511-75.055C356.249,351.766,336.027,330.079,309.862,322.934z"/>
			<path fill="#B3C3DF" d="M309.77,323.01c-2.52-0.679-5.126-1.235-7.726-1.626c-27.878-4.186-56.43,8.97-71.091,33.037
				c-16.346,26.834-13.039,61.743,8.047,84.916c8.893,9.785,20.412,16.83,33.368,20.354c18.264,4.99,38.104,2.549,54.366-6.748
				c25.964-14.827,40.112-45.615,34.421-74.86C356.036,351.767,335.867,330.137,309.77,323.01z"/>
			<path fill="#B5C4E0" d="M309.677,323.085c-2.513-0.676-5.112-1.231-7.706-1.621c-27.806-4.175-56.284,8.946-70.906,32.951
				c-16.303,26.765-13.004,61.582,8.026,84.695c8.87,9.76,20.359,16.787,33.281,20.301c18.216,4.978,38.005,2.542,54.225-6.73
				c25.897-14.788,40.008-45.497,34.333-74.665C355.823,351.768,335.707,330.194,309.677,323.085z"/>
			<path fill="#B6C6E1" d="M309.584,323.161c-2.506-0.675-5.099-1.229-7.686-1.618c-27.733-4.169-56.137,8.925-70.722,32.866
				c-16.261,26.694-12.971,61.422,8.005,84.475c8.846,9.734,20.306,16.743,33.194,20.249c18.169,4.964,37.906,2.535,54.084-6.714
				c25.83-14.75,39.904-45.378,34.243-74.471C355.611,351.769,335.546,330.251,309.584,323.161z"/>
			<path fill="#B8C7E1" d="M309.492,323.237c-2.5-0.674-5.086-1.227-7.666-1.614c-27.66-4.158-55.99,8.901-70.537,32.78
				c-16.218,26.625-12.937,61.262,7.985,84.254c8.823,9.709,20.253,16.7,33.107,20.196c18.121,4.951,37.807,2.528,53.943-6.696
				c25.762-14.711,39.799-45.26,34.153-74.276C355.398,351.771,335.386,330.309,309.492,323.237z"/>
			<path fill="#BAC8E2" d="M309.399,323.313c-2.493-0.671-5.072-1.223-7.646-1.609c-27.589-4.143-55.844,8.878-70.353,32.695
				c-16.176,26.555-12.903,61.101,7.963,84.033c8.8,9.684,20.2,16.655,33.021,20.143c18.074,4.938,37.708,2.521,53.802-6.679
				c25.695-14.673,39.695-45.142,34.064-74.082C355.185,351.771,335.226,330.366,309.399,323.313z"/>
			<path fill="#BCCAE3" d="M309.306,323.389c-2.486-0.67-5.059-1.22-7.625-1.605c-27.517-4.131-55.697,8.854-70.168,32.609
				c-16.133,26.484-12.869,60.94,7.943,83.813c8.777,9.658,20.147,16.612,32.934,20.09c18.027,4.925,37.609,2.516,53.661-6.661
				c25.627-14.634,39.591-45.022,33.975-73.888C354.972,351.772,335.065,330.423,309.306,323.389z"/>
			<path fill="#BDCBE3" d="M309.214,323.464c-2.48-0.668-5.046-1.216-7.605-1.601c-27.445-4.121-55.551,8.831-69.983,32.523
				c-16.091,26.415-12.835,60.78,7.922,83.592c8.754,9.633,20.094,16.568,32.847,20.037c17.979,4.912,37.51,2.509,53.52-6.643
				c25.56-14.597,39.487-44.905,33.885-73.694C354.759,351.773,334.905,330.48,309.214,323.464z"/>
			<path fill="#BFCCE4" d="M309.121,323.54c-2.474-0.666-5.032-1.213-7.585-1.597c-27.372-4.109-55.404,8.808-69.799,32.438
				c-16.048,26.345-12.801,60.62,7.901,83.371c8.73,9.607,20.041,16.525,32.761,19.984c17.932,4.899,37.411,2.502,53.378-6.625
				c25.492-14.558,39.382-44.786,33.795-73.499C354.546,351.774,334.745,330.537,309.121,323.54z"/>
			<path fill="#C1CEE5" d="M309.028,323.616c-2.467-0.665-5.019-1.211-7.565-1.593c-27.3-4.099-55.258,8.784-69.614,32.352
				c-16.006,26.275-12.767,60.459,7.88,83.151c8.708,9.582,19.988,16.48,32.674,19.931c17.884,4.886,37.312,2.496,53.237-6.607
				c25.425-14.52,39.278-44.668,33.707-73.305C354.333,351.775,334.584,330.595,309.028,323.616z"/>
			<path fill="#C2CFE6" d="M308.936,323.691c-2.46-0.662-5.005-1.207-7.545-1.588c-27.227-4.088-55.111,8.761-69.43,32.266
				c-15.963,26.206-12.732,60.299,7.859,82.931c8.685,9.557,19.935,16.438,32.587,19.878c17.837,4.873,37.213,2.489,53.096-6.59
				c25.358-14.48,39.174-44.55,33.617-73.11C354.121,351.776,334.424,330.652,308.936,323.691z"/>
			<path fill="#C4D0E6" d="M308.843,323.768c-2.454-0.661-4.992-1.204-7.525-1.584c-27.155-4.078-54.965,8.737-69.245,32.18
				c-15.921,26.136-12.699,60.139,7.838,82.71c8.661,9.531,19.882,16.394,32.501,19.825c17.789,4.86,37.114,2.482,52.955-6.572
				c25.29-14.442,39.069-44.431,33.527-72.916C353.908,351.777,334.264,330.709,308.843,323.768z"/>
			<path fill="#C6D2E7" d="M308.75,323.843c-2.447-0.659-4.979-1.2-7.505-1.579c-27.083-4.066-54.818,8.714-69.061,32.094
				c-15.879,26.066-12.665,59.979,7.818,82.489c8.638,9.506,19.829,16.351,32.414,19.772c17.742,4.848,37.015,2.477,52.814-6.555
				c25.223-14.403,38.965-44.313,33.438-72.722C353.695,351.778,334.104,330.767,308.75,323.843z"/>
			<path fill="#C7D3E8" d="M308.658,323.919c-2.44-0.657-4.965-1.197-7.484-1.576c-27.01-4.061-54.672,8.692-68.876,32.009
				c-15.836,25.997-12.631,59.818,7.796,82.269c8.615,9.48,19.776,16.307,32.328,19.721c17.694,4.834,36.917,2.469,52.673-6.538
				c25.155-14.365,38.861-44.194,33.349-72.527C353.482,351.779,333.943,330.824,308.658,323.919z"/>
			<path fill="#C9D4E8" d="M308.565,323.995c-2.435-0.656-4.952-1.194-7.465-1.572c-26.937-4.05-54.525,8.669-68.691,31.923
				c-15.794,25.927-12.597,59.658,7.776,82.049c8.592,9.455,19.723,16.263,32.241,19.667c17.647,4.82,36.818,2.462,52.532-6.521
				c25.088-14.326,38.757-44.075,33.259-72.332C353.27,351.78,333.783,330.881,308.565,323.995z"/>
			<path fill="#CBD6E9" d="M308.473,324.07c-2.428-0.654-4.938-1.19-7.444-1.567c-26.865-4.039-54.379,8.646-68.507,31.837
				c-15.751,25.857-12.563,59.498,7.755,81.828c8.569,9.43,19.669,16.219,32.154,19.614c17.599,4.808,36.718,2.456,52.391-6.503
				c25.02-14.288,38.652-43.957,33.169-72.138C353.057,351.781,333.623,330.938,308.473,324.07z"/>
			<path fill="#CCD7EA" d="M308.38,324.146c-2.421-0.652-4.925-1.188-7.424-1.563c-26.792-4.028-54.232,8.622-68.322,31.751
				c-15.709,25.788-12.529,59.337,7.734,81.607c8.546,9.404,19.616,16.176,32.067,19.562c17.552,4.795,36.62,2.449,52.25-6.485
				c24.953-14.249,38.548-43.839,33.081-71.943C352.844,351.783,333.462,330.996,308.38,324.146z"/>
			<path fill="#CED8EA" d="M308.288,324.222c-2.415-0.65-4.912-1.185-7.404-1.559c-26.722-4.013-54.086,8.599-68.138,31.666
				c-15.667,25.717-12.495,59.176,7.713,81.386c8.523,9.379,19.563,16.132,31.981,19.509c17.505,4.782,36.521,2.442,52.108-6.468
				c24.886-14.211,38.444-43.72,32.991-71.749C352.631,351.784,333.302,331.053,308.288,324.222z"/>
			<path fill="#D0DAEB" d="M308.195,324.298c-2.408-0.648-4.898-1.182-7.384-1.555c-26.648-4.001-53.939,8.575-67.953,31.58
				c-15.624,25.647-12.461,59.016,7.692,81.166c8.5,9.354,19.511,16.088,31.894,19.455c17.458,4.769,36.422,2.437,51.967-6.45
				c24.818-14.172,38.34-43.602,32.902-71.555C352.418,351.785,333.142,331.11,308.195,324.298z"/>
			<path fill="#D1DBEC" d="M308.102,324.374c-2.401-0.647-4.885-1.179-7.364-1.551c-26.577-3.99-53.793,8.552-67.769,31.494
				c-15.582,25.578-12.427,58.855,7.671,80.945c8.477,9.328,19.458,16.044,31.808,19.402c17.41,4.756,36.323,2.43,51.826-6.433
				c24.75-14.134,38.235-43.483,32.812-71.36C352.205,351.786,332.981,331.168,308.102,324.374z"/>
			<path fill="#D3DCED" d="M308.009,324.449c-2.395-0.646-4.871-1.175-7.344-1.546c-26.504-3.979-53.646,8.528-67.584,31.408
				c-15.539,25.508-12.393,58.695,7.651,80.725c8.453,9.303,19.404,16.001,31.721,19.35c17.362,4.743,36.224,2.423,51.685-6.415
				c24.683-14.095,38.131-43.364,32.723-71.165C351.992,351.787,332.821,331.225,308.009,324.449z"/>
			<path fill="#D5DEED" d="M307.917,324.525c-2.389-0.644-4.858-1.172-7.324-1.542c-26.432-3.969-53.5,8.505-67.399,31.322
				c-15.497,25.438-12.359,58.535,7.629,80.504c8.431,9.277,19.352,15.957,31.634,19.297c17.315,4.73,36.125,2.417,51.544-6.397
				c24.616-14.057,38.027-43.246,32.633-70.971C351.779,351.788,332.661,331.282,307.917,324.525z"/>
			<path fill="#D7DFEE" d="M307.824,324.602c-2.382-0.643-4.845-1.169-7.304-1.538c-26.359-3.958-53.353,8.482-67.215,31.236
				c-15.454,25.368-12.325,58.374,7.609,80.283c8.407,9.252,19.298,15.914,31.548,19.244c17.267,4.717,36.026,2.41,51.402-6.38
				c24.548-14.019,37.923-43.128,32.544-70.776C351.566,351.789,332.5,331.34,307.824,324.602z"/>
			<path fill="#D8E0EF" d="M307.731,324.677c-2.375-0.641-4.831-1.165-7.283-1.534c-26.287-3.952-53.207,8.46-67.03,31.151
				c-15.412,25.299-12.292,58.214,7.588,80.063c8.384,9.227,19.245,15.869,31.461,19.191c17.22,4.703,35.927,2.402,51.262-6.362
				c24.481-13.98,37.818-43.01,32.455-70.583C351.354,351.79,332.34,331.396,307.731,324.677z"/>
			<path fill="#DAE2EF" d="M307.639,324.753c-2.369-0.639-4.818-1.163-7.263-1.53c-26.214-3.941-53.061,8.437-66.846,31.065
				c-15.369,25.229-12.257,58.054,7.567,79.843c8.361,9.201,19.192,15.826,31.374,19.139c17.172,4.69,35.828,2.396,51.121-6.345
				c24.414-13.942,37.714-42.892,32.365-70.389C351.141,351.791,332.18,331.454,307.639,324.753z"/>
			<path fill="#DCE3F0" d="M307.546,324.828c-2.362-0.637-4.805-1.159-7.243-1.525c-26.142-3.931-52.914,8.413-66.661,30.979
				c-15.327,25.159-12.224,57.894,7.546,79.622c8.338,9.176,19.139,15.782,31.288,19.086c17.125,4.678,35.729,2.39,50.979-6.327
				c24.346-13.903,37.61-42.772,32.276-70.194C350.928,351.792,332.02,331.511,307.546,324.828z"/>
			<path fill="#DDE4F1" d="M307.454,324.904c-2.355-0.635-4.791-1.156-7.223-1.521c-26.07-3.92-52.768,8.39-66.477,30.894
				c-15.284,25.09-12.189,57.733,7.525,79.401c8.315,9.15,19.086,15.739,31.201,19.033c17.077,4.665,35.63,2.383,50.838-6.31
				c24.278-13.865,37.505-42.654,32.186-69.999C350.715,351.793,331.859,331.568,307.454,324.904z"/>
			<path fill="#DFE6F2" d="M307.361,324.98c-2.349-0.634-4.777-1.153-7.203-1.518c-25.998-3.909-52.621,8.366-66.292,30.808
				c-15.242,25.021-12.156,57.573,7.504,79.182c8.292,9.125,19.033,15.694,31.114,18.979c17.03,4.651,35.531,2.377,50.697-6.292
				c24.211-13.826,37.401-42.536,32.097-69.805C350.502,351.794,331.699,331.626,307.361,324.98z"/>
			<path fill="#E1E7F2" d="M307.269,325.056c-2.343-0.632-4.765-1.149-7.183-1.513c-25.925-3.898-52.474,8.343-66.108,30.722
				c-15.199,24.95-12.122,57.413,7.484,78.961c8.269,9.1,18.98,15.651,31.027,18.927c16.982,4.639,35.433,2.37,50.556-6.274
				c24.144-13.788,37.297-42.417,32.007-69.61C350.29,351.796,331.539,331.683,307.269,325.056z"/>
			<path fill="#E2E8F3" d="M307.176,325.132c-2.336-0.63-4.751-1.146-7.163-1.509c-25.854-3.883-52.328,8.319-65.923,30.637
				c-15.157,24.88-12.088,57.251,7.462,78.739c8.246,9.074,18.927,15.607,30.941,18.874c16.936,4.626,35.334,2.363,50.415-6.257
				c24.077-13.749,37.193-42.299,31.918-69.416C350.077,351.797,331.378,331.74,307.176,325.132z"/>
			<path fill="#E4EAF4" d="M307.083,325.207c-2.329-0.628-4.737-1.143-7.142-1.504c-25.781-3.872-52.181,8.296-65.739,30.551
				c-15.114,24.811-12.054,57.091,7.442,78.519c8.222,9.049,18.874,15.564,30.854,18.821c16.888,4.613,35.234,2.357,50.274-6.239
				c24.009-13.711,37.088-42.181,31.829-69.222C349.864,351.798,331.218,331.798,307.083,325.207z"/>
			<path fill="#E6EBF4" d="M306.991,325.283c-2.323-0.627-4.725-1.14-7.123-1.5c-25.709-3.861-52.035,8.272-65.554,30.465
				c-15.072,24.74-12.02,56.931,7.421,78.299c8.199,9.023,18.821,15.52,30.768,18.768c16.84,4.6,35.136,2.351,50.133-6.222
				c23.941-13.672,36.984-42.062,31.739-69.027C349.651,351.799,331.058,331.854,306.991,325.283z"/>
			<path fill="#E7ECF5" d="M306.898,325.359c-2.316-0.625-4.711-1.138-7.102-1.497c-25.636-3.855-51.888,8.251-65.37,30.38
				c-15.029,24.671-11.986,56.771,7.4,78.078c8.176,8.998,18.768,15.477,30.681,18.716c16.793,4.586,35.037,2.343,49.992-6.205
				c23.874-13.634,36.88-41.943,31.65-68.832C349.438,351.8,330.897,331.912,306.898,325.359z"/>
			<path fill="#E9EEF6" d="M306.805,325.435c-2.31-0.623-4.697-1.134-7.082-1.492c-25.563-3.844-51.742,8.228-65.185,30.294
				c-14.987,24.602-11.952,56.61,7.379,77.857c8.153,8.973,18.715,15.433,30.594,18.663c16.746,4.573,34.938,2.337,49.851-6.188
				c23.807-13.595,36.776-41.825,31.561-68.638C349.226,351.801,330.737,331.97,306.805,325.435z"/>
			<path fill="#EBEFF7" d="M306.712,325.511c-2.303-0.621-4.684-1.131-7.062-1.488c-25.491-3.834-51.595,8.204-65,30.208
				c-14.944,24.531-11.917,56.45,7.358,77.637c8.13,8.947,18.662,15.39,30.508,18.61c16.698,4.561,34.839,2.33,49.709-6.17
				c23.739-13.557,36.671-41.706,31.471-68.443C349.013,351.802,330.577,332.026,306.712,325.511z"/>
			<path fill="#ECF0F7" d="M306.62,325.586c-2.297-0.619-4.671-1.127-7.042-1.483c-25.419-3.822-51.448,8.181-64.815,30.122
				c-14.902,24.462-11.884,56.29,7.337,77.416c8.106,8.922,18.609,15.346,30.421,18.558c16.65,4.548,34.74,2.323,49.568-6.152
				c23.671-13.518,36.567-41.588,31.381-68.249C348.8,351.803,330.416,332.084,306.62,325.586z"/>
			<path fill="#EEF2F8" d="M306.527,325.662c-2.29-0.618-4.657-1.124-7.021-1.479c-25.347-3.812-51.302,8.157-64.631,30.036
				c-14.86,24.393-11.85,56.129,7.317,77.196c8.083,8.896,18.556,15.302,30.334,18.504c16.603,4.534,34.641,2.317,49.427-6.135
				c23.604-13.479,36.463-41.47,31.292-68.055C348.587,351.804,330.256,332.142,306.527,325.662z"/>
			<path fill="#F0F3F9" d="M306.435,325.738c-2.283-0.616-4.644-1.121-7.001-1.476c-25.274-3.801-51.155,8.134-64.446,29.95
				c-14.817,24.322-11.816,55.969,7.295,76.976c8.061,8.871,18.503,15.258,30.248,18.451c16.555,4.521,34.542,2.311,49.286-6.117
				c23.537-13.44,36.358-41.351,31.203-67.86C348.374,351.805,330.096,332.198,306.435,325.738z"/>
			<path fill="#F2F4F9" d="M306.342,325.813c-2.277-0.614-4.631-1.117-6.981-1.471c-25.202-3.791-51.009,8.11-64.262,29.864
				c-14.775,24.253-11.782,55.809,7.275,76.755c8.038,8.846,18.45,15.215,30.161,18.398c16.508,4.509,34.443,2.304,49.145-6.1
				c23.469-13.402,36.254-41.232,31.113-67.665C348.161,351.806,329.935,332.256,306.342,325.813z"/>
			<path fill="#F3F6FA" d="M306.25,325.89c-2.271-0.613-4.617-1.114-6.961-1.467c-25.13-3.779-50.862,8.087-64.077,29.778
				c-14.732,24.183-11.748,55.648,7.254,76.534c8.014,8.82,18.396,15.171,30.074,18.346c16.46,4.496,34.344,2.298,49.004-6.081
				c23.402-13.364,36.15-41.114,31.024-67.472C347.948,351.807,329.775,332.313,306.25,325.89z"/>
			<path fill="#F5F7FB" d="M306.157,325.965c-2.264-0.61-4.604-1.11-6.941-1.462c-25.058-3.769-50.716,8.063-63.893,29.692
				c-14.69,24.113-11.714,55.488,7.233,76.314c7.991,8.795,18.343,15.127,29.987,18.292c16.413,4.482,34.246,2.291,48.863-6.063
				c23.334-13.326,36.046-40.996,30.935-67.277C347.735,351.809,329.615,332.37,306.157,325.965z"/>
			<path fill="#F7F8FB" d="M306.064,326.041c-2.258-0.609-4.591-1.108-6.921-1.458c-24.986-3.753-50.569,8.04-63.708,29.607
				c-14.647,24.043-11.68,55.327,7.212,76.093c7.968,8.77,18.291,15.083,29.901,18.239c16.366,4.47,34.146,2.284,48.722-6.046
				c23.267-13.287,35.941-40.878,30.845-67.083C347.522,351.81,329.455,332.428,306.064,326.041z"/>
			<path fill="#F8FAFC" d="M305.972,326.117c-2.251-0.607-4.577-1.105-6.901-1.455c-24.913-3.746-50.423,8.019-63.524,29.522
				c-14.605,23.973-11.646,55.167,7.191,75.872c7.945,8.744,18.238,15.04,29.814,18.188c16.318,4.456,34.047,2.277,48.581-6.029
				c23.199-13.249,35.837-40.759,30.755-66.889C347.31,351.811,329.294,332.484,305.972,326.117z"/>
			<path fill="#FAFBFD" d="M305.879,326.192c-2.244-0.605-4.563-1.102-6.881-1.45c-24.84-3.735-50.276,7.995-63.339,29.437
				c-14.563,23.903-11.612,55.006,7.17,75.651c7.922,8.719,18.185,14.996,29.728,18.135c16.271,4.443,33.949,2.271,48.439-6.012
				c23.132-13.21,35.733-40.641,30.667-66.694C347.097,351.812,329.134,332.542,305.879,326.192z"/>
			<path fill="#FCFCFE" d="M305.786,326.269c-2.237-0.604-4.55-1.099-6.86-1.446c-24.768-3.725-50.13,7.972-63.155,29.351
				c-14.52,23.834-11.578,54.846,7.15,75.432c7.898,8.693,18.131,14.952,29.641,18.081c16.224,4.43,33.85,2.264,48.298-5.994
				c23.065-13.172,35.629-40.522,30.577-66.499C346.884,351.813,328.974,332.6,305.786,326.269z"/>
			<path fill="#FDFEFE" d="M305.694,326.344c-2.231-0.602-4.537-1.095-6.841-1.441c-24.696-3.714-49.983,7.948-62.97,29.265
				c-14.478,23.764-11.544,54.686,7.128,75.211c7.876,8.668,18.079,14.908,29.555,18.028c16.176,4.417,33.75,2.258,48.157-5.977
				c22.997-13.133,35.524-40.403,30.487-66.305C346.671,351.813,328.813,332.656,305.694,326.344z"/>
			<path fill="#FFFFFF" d="M305.601,326.42c-2.225-0.601-4.522-1.102-6.82-1.438c-24.608-3.806-49.837,7.925-62.786,29.179
				c-14.435,23.694-11.51,54.525,7.108,74.99c7.853,8.643,18.025,14.865,29.468,17.976c16.128,4.404,33.652,2.251,48.016-5.959
				c22.93-13.095,35.42-40.285,30.398-66.11C346.458,351.814,328.653,332.714,305.601,326.42z"/>
		</g>
		<g>
			<path fill="#FCD2C5" d="M150.792,432.735c-1.5-0.136-3.075-0.452-4.453-1.034c1.458,0.88,0.785,1.687,2.175,2.829
				c0.661,0.275,3.795-0.162,3.848-0.886C152.533,432.541,151.624,432.756,150.792,432.735z"/>
			<path fill="#FCD2C5" d="M154.811,439.063c-0.232-0.237-3.595-3.635-5.249-4.969c-1.39-1.14-2.857-2.206-4.314-3.088
				c-0.09-0.041-4.654,3.579-5.727,5.087c2.291,1.938,9.917,7.373,10.075,7.538c2.563,2.722,4.042,2.513,4.122,1.452
				c0.02-0.256,2.328,0.967,2.629-0.024c0,0,0.873,0.163,1.251-0.54c0.286-0.532,0.23-1.971,0.025-2.415
				C157.302,441.409,155.456,439.79,154.811,439.063z"/>
			<path fill="#FCD2C5" d="M106.477,344.816c-4.537,5.404-6.263,37.705-3.814,51.019c0.931,5.054,11.357,12.235,13.455-3.78
				c1.707-13.06,8.466-34.884,8.946-43.242C125.149,347.297,110.638,339.853,106.477,344.816z"/>
			<path fill="#AFBDDD" d="M104.606,345.546c-2.2,3.65-4.662,15.785-4.351,29.607c6.632,2.662,15.789,3.103,21.06,1.819
				c1.622-11.537,6.215-23.972,4.701-29.104C123.869,340.61,110.257,336.155,104.606,345.546z"/>
			<path fill="#FCD2C5" d="M112.74,390.868c-0.341-0.355-0.822-0.707-1.396-1.005c-2.523-1.313-6.815-1.543-8.949,3.798
				c-2.334,5.828,25.706,33.468,38.061,43.178c1.095-1.651,2.913-3.503,5.261-5.541C138.091,425.551,119.024,397.387,112.74,390.868
				z"/>
		</g>
	</g>
	<g>
		<g>
			<path fill="#FCD2C5" d="M654.793,330.271c-0.585,0.211-0.219,2.919,0.166,3.406c1.27,0.888,1.787,0.141,2.858,1.146
				c-0.807-1.008-1.435-2.249-1.899-3.461C655.711,330.677,655.674,329.868,654.793,330.271z"/>
			<path fill="#FCD2C5" d="M649.724,329.498c-0.76-0.363-2.534-1.522-3.185-1.627c-0.419-0.065-1.627,0.224-2.003,0.587
				c-0.491,0.478-0.157,1.163-0.157,1.163c-0.753,0.485,0.806,2.112,0.597,2.189c-0.861,0.316-0.689,1.592,2.167,3.09
				c0.17,0.091,6.468,5.158,8.615,6.611c1.003-1.244,2.948-5.885,2.893-5.945c-1.074-1.002-2.301-1.977-3.575-2.865
				C653.581,331.638,649.975,329.639,649.724,329.498z"/>
			<path fill="#FCD2C5" d="M739.774,339.769c-7.185,0.782-28.92,9.225-40.1,11.276c-13.714,2.513-7.063,11.183-2.668,11.761
				c11.583,1.524,42.514-5.044,43.924-10.965C741.541,349.273,741.078,339.627,739.774,339.769z"/>
			<path fill="#FCD2C5" d="M699.585,353.212c-6.884-3.704-34.733-12.972-41.288-17.971c-1.15,2.427-2.264,4.371-3.38,5.662
				c10.95,8.003,40.461,24.854,44.761,21.556c3.939-3.019,2.744-6.535,1.068-8.324C700.362,353.728,699.96,353.413,699.585,353.212z
				"/>
			<path fill="#194767" d="M737.168,336.531c-9.584,4.815-38.477,13.751-39.288,14.008c-3.033-1.255-25.242-9.904-36.697-15.181
				c0,0,0.11,2.069-1.568,4.921c-1.603,2.728-3.504,3.222-3.504,3.222c9.482,6.725,33.292,20.151,42.179,21.038
				c9.21,1.05,39.447-4.782,45.651-9.935C749.789,349.749,743.415,333.396,737.168,336.531z"/>
		</g>
		<path fill="#194767" d="M651.918,333.659l-67.167-55.907c-0.326-0.269-0.769-0.274-0.987-0.01
			c-0.216,0.264-0.133,0.69,0.181,0.962l66.328,56.9c0.661,0.563,1.568,0.59,2.027,0.059c0.457-0.534,0.297-1.422-0.355-1.984
			C651.935,333.673,651.923,333.664,651.918,333.659z"/>
		<path fill="#20201E" d="M734.707,315.917c-1.604,4.286,0.812,13.678-1.807,20.175c-0.944,2.339,12.496-1.405,12.348-2.415
			c-0.68-4.469-0.798-10.581-1.767-13.923C743.438,319.608,737.112,312.455,734.707,315.917z"/>
		<path fill="#194767" d="M807.957,588.31c-1.495-1.196-7.784,2.464-7.909,4.081c-0.494,6.466-10.182,9.122-7.783,11.518
			c1.213,1.211,7.795,1.565,10.184-0.146c3.029-2.172,3.542-4.164,4.196-5.87c1.597-4.177,3.737-3.838,3.918-6.184
			C810.724,589.577,808.733,588.928,807.957,588.31z"/>
		<path fill="#FCD2C5" d="M806.031,585.753l-6.789,3.229c0,0,0.736,1.695,0.806,3.411c0,0,0.377,1.88,4.808-0.104
			c2.602-1.165,3.102-3.979,3.102-3.979C806.41,587.002,806.031,585.753,806.031,585.753z"/>
		<path fill="#FCD2C5" d="M778.074,490.336c0.577-16.877,0.023-33.423,0.931-55.931l-34.815-2.653
			c2.753,25.258,10.151,59.784,10.151,59.784c2.379,23.89,33.833,64.539,45.283,98.549c0,0,3.596-1.011,6.407-4.332
			C785.104,504.919,777.801,498.319,778.074,490.336z"/>
		<path fill="#FCD2C5" d="M717.126,448.956c2.704,25.55,6.15,35.45,7.575,51.986c3.906,45.471,5.579,88.945,5.579,88.945
			s3.585,1.779,7.763,1.032c-0.385-2.041,9.879-60.348,7.227-88.151c-1.729-18.124,6.735-21.211,8.229-64.748L717.126,448.956z"/>
		<path fill="#FCD2C5" d="M743.677,321.36c1.275,2.2,4.076,10.362,0.424,14.179c0.929,4.329,12.972,4.088,16.125-3.349
			c-1.433-2.066-1.4-14.171-2.335-17.206C756.901,315.742,746.651,321.741,743.677,321.36z"/>
		<path fill="#983619" d="M776.63,350.2c-0.194-10.19-8.824-15.139-16.404-18.01c0,0-8.961,6.874-13.382,5.483
			c-2.815-0.883-2.743-2.135-2.743-2.135s-9.481-0.427-11.011,4.49c-3.82,12.278-10.831,16.599-11.795,23.575
			c-1.108,7.973,7.293,10.928,7.183,13.94c-1.772,50.137-13.845,69.414-19.28,99.805c13.481,7.453,53.852,16.083,83.291,2.713
			c-3.175-30.108-13.745-57.512-17.173-80.427C772.573,381.321,776.806,359.163,776.63,350.2z"/>
		<path fill="#FCD2C5" d="M744.154,302.05c-5.715-0.259-10.265,2.15-11.402,7.568c-0.411,1.94,0.811,19.341,10.165,21.769
			c3.958,1.026,11.354-5.865,11.562-10.452c0,0,1.145-6.795,1.147-6.86C755.9,307.997,750.292,302.33,744.154,302.05z"/>
		<path fill="#20201E" d="M741.245,296.185c0,0-2.754-0.672-5.79,0.925c-6.574,3.452-6.273,18.171-1.178,22.799
			c-2.167-12.596,2.844-16.786,2.844-16.786s6.817-1.747,12.42,3.264c5.797,5.183,6.028,27.163,4.072,34.6
			c-1.004,3.813,13.61-0.743,16.108-6.521c7.733-17.909,1.872-31.599-4.258-37.835C759.098,290.153,744.957,287.883,741.245,296.185
			z"/>
		<path fill="#FCD2C5" d="M754.855,312.238c-0.592-0.118-1.641-0.162-2.508,0.662c0.09,2.151,0.673,5.686,0.961,7.432
			c1.534-0.11,2.614-1.549,3.257-2.902C757.525,315.405,756.415,312.543,754.855,312.238z"/>
		<path fill="#194767" d="M808.768,600.137c0.016,0.153,0.555,0.183,0.63,0.048c0.309-0.54,1.188-8.816,1.188-8.816l-1.259-0.095
			C809.327,591.273,808.655,599.08,808.768,600.137z"/>
		<path fill="#194767" d="M729.587,592.893c-3.244,7.299-12.086,7.063-10.709,10.161c0.693,1.563,5.2,1.865,8.142,1.865
			c3.116,0,6.652-3.105,7.904-4.426c2.358-2.479,5.725-1.139,5.725-4.463c0-2.133-1.71-3.248-2.211-4.102
			C737.473,590.274,730.246,591.407,729.587,592.893z"/>
		<path fill="#FCD2C5" d="M730.261,589.359c0,0,0.09,1.593-0.674,3.533c-0.216,0.551-1.046,1.789,1.745,1.604
			c1.456-0.092,7.105-2.568,7.105-2.568c-0.587-1.145-1.04-3.623-1.04-3.623L730.261,589.359z"/>
		<path fill="#194767" d="M737.544,604.81c0.049,0.146,0.605,0.155,0.635,0c0.626-3.553,1.912-7.036,1.912-7.036l-1.261-1.847
			C738.83,595.927,737.313,604.047,737.544,604.81z"/>
		<g>
			<path fill="#AEBFDD" d="M700.806,364.135c-0.171-0.618-0.738-1.049-1.38-1.049h-69.095c-0.944,0-1.631,0.902-1.376,1.812
				l13.668,49.333c0.843,3.055,3.628,5.172,6.796,5.172h64.817c0.944,0,1.629-0.902,1.379-1.812L700.806,364.135z"/>
			<g>
				<path fill="#D2DBEA" d="M713.599,414.352h-69.736c-1.419,0-2.581,1.161-2.581,2.58c0,1.416,1.162,2.575,2.581,2.575h69.736
					c1.419,0,2.58-1.159,2.58-2.575C716.179,415.513,715.018,414.352,713.599,414.352z"/>
			</g>
			<g>
				<g>
					<path fill="#FFFFFF" d="M757.561,414.352h-44.34c-1.42,0-2.58,1.161-2.58,2.58c0,1.416,1.16,2.575,2.58,2.575h44.34
						c1.421,0,2.577-1.159,2.577-2.575C760.138,415.513,758.981,414.352,757.561,414.352z"/>
				</g>
				<g>
					<path fill="#194767" d="M747.334,416.02h-3.43c-0.404,0-0.729,0.327-0.729,0.731v0.006c0,0.403,0.324,0.731,0.729,0.731h3.43
						c0.405,0,0.733-0.328,0.733-0.731v-0.006C748.067,416.347,747.739,416.02,747.334,416.02z"/>
					<path fill="#194767" d="M740.979,416.02h-2.086c-0.404,0-0.732,0.327-0.732,0.731v0.006c0,0.403,0.328,0.731,0.732,0.731h2.086
						c0.402,0,0.729-0.328,0.729-0.731v-0.006C741.708,416.347,741.381,416.02,740.979,416.02z"/>
				</g>
			</g>
			<polygon opacity="0.55" fill="#D2DBEA" points="637.651,363.086 673.059,414.228 675.766,414.228 640.356,363.086 			"/>
			<polygon opacity="0.55" fill="#D2DBEA" points="643.435,363.086 678.847,414.228 688.104,414.228 652.696,363.086 			"/>
		</g>
		<g>
			<path fill="#FCD2C5" d="M696.213,410.006c0,0.674,3.171,3.501,3.816,3.34c1.617-0.399,2.153-0.653,3.246-1.352
				c-1.379,0.142-4.273-1.66-5.427-2.366C697.193,409.222,696.213,408.929,696.213,410.006z"/>
			<path fill="#FCD2C5" d="M690.198,414.507c-1.162,0.849-1.447,1.998-0.945,2.701c0.432,0.604,1.004,0.628,1.035,1.561
				c0.059,1.775,2.397,0.51,2.323,0.738c-1.004,3.031,8.671,1.228,15.511-1.762c-0.544-1.63-3.599-6.082-3.69-6.068
				C702.901,412.063,691.563,413.512,690.198,414.507z"/>
			<path fill="#FCD2C5" d="M761.282,344.481c-3.471,6.943-8.48,31.491-13.132,42.783c-5.695,13.85,5.997,12.877,9.082,9.242
				c8.105-9.575,20.155-41.332,15.626-46.051C770.893,348.41,761.909,343.222,761.282,344.481z"/>
			<path fill="#FCD2C5" d="M751.566,388.09c-0.584,0.11-1.107,0.292-1.506,0.515c-7.347,4.063-37.799,20.184-46.127,23.203
				c1.527,2.441,2.635,4.58,3.152,6.34c13.598-5.239,51.861-18.455,51.378-24.252C758.03,388.579,754.16,387.616,751.566,388.09z"/>
			<path fill="#194767" d="M759.797,343.891c-2.831,2.754-12.367,41.692-12.613,42.574c-2.892,2.011-30.038,15.524-41.466,22.801
				c0,0,1.938,1.104,3.536,4.278c1.531,3.033,0.871,5.038,0.871,5.038c11.589-4.656,43.448-14.714,49.418-22.225
				c6.301-7.709,17.649-36.432,16.604-45.032C775.159,343.218,765.186,338.66,759.797,343.891z"/>
		</g>
	</g>
	<g>
		<path fill="#FCD2C5" d="M853.252,202.148c-0.614,1.122,1.616,3.258,2.25,3.287c1.585,0.072,2.456-1.302,3.938-1.197
			c-1.521-0.451-3.044-1.073-4.285-1.97C854.466,201.773,853.868,201.029,853.252,202.148z"/>
		<path fill="#FCD2C5" d="M855.074,204.446c-1.764-0.006-6.771,1.091-7.58,1.251c-2.354,0.472-3.471,0.522-4.768,1.126
			c-1.294,0.605-1.499,1.535-1.891,2.342c-0.398,0.805,0.194,1.009,0.522,1.411c-0.459,1.304,1.962,1.104,1.915,1.721
			c-0.183,2.522,2.336,1.555,5.235,1.312c0.174-0.017,11.069-0.248,12.756-0.704c0.863-1.2-0.269-8.128-0.376-8.188
			C858.993,203.643,856.836,204.454,855.074,204.446z"/>
		<path fill="#FCD2C5" d="M917.056,186.972c-18.652,5.062-37.761,14.082-56.825,17.277c0.39,2.822,0.023,6.057,0.227,8.682
			c13.855,0.764,52.693-5.889,61.05-15.404C929.863,188.012,918.07,186.694,917.056,186.972z"/>
		<path fill="#FCD2C5" d="M948.116,148.597c-12.701,10.049-21.126,24.853-31.216,34.837c-12.377,12.243-3.854,18.864,2.661,15.621
			c17.162-8.544,37.648-25.506,42.322-41.159C963.905,151.11,950.42,146.776,948.116,148.597z"/>
		<path fill="#FFFFFF" d="M944.79,147.387c-7.386,6.751-25.548,29.683-32.753,38.672c-17.107,5.713-34.284,12.483-51.555,15.965
			c-0.115,4.451-0.455,8.837-0.426,13.34c18.884-2.497,43.479-4.319,60.865-14.623c17.381-10.304,36.961-27.473,41.163-33.751
			C972.275,151.775,956.127,137.033,944.79,147.387z"/>
	</g>
</g>
</svg>
