<?xml version="1.0" encoding="utf-8"?>
<!-- Generator: Adobe Illustrator 16.0.0, SVG Export Plug-In . SVG Version: 6.00 Build 0)  -->
<!DOCTYPE svg PUBLIC "-//W3C//DTD SVG 1.1//EN" "http://www.w3.org/Graphics/SVG/1.1/DTD/svg11.dtd">
<svg version="1.1" id="Layer_1" xmlns="http://www.w3.org/2000/svg" xmlns:xlink="http://www.w3.org/1999/xlink" x="0px" y="0px"
	 width="1171.441px" height="481.476px" viewBox="0 0 1171.441 481.476" enable-background="new 0 0 1171.441 481.476"
	 xml:space="preserve">
<g>
	<g>
		<g>
			<g>
				
					<linearGradient id="SVGID_1_" gradientUnits="userSpaceOnUse" x1="668.9355" y1="448.6943" x2="683.7151" y2="237.3369" gradientTransform="matrix(-1 0 0 1 1101.9463 0)">
					<stop  offset="0" style="stop-color:#34AAB6"/>
					<stop  offset="0.9946" style="stop-color:#41D9D9"/>
				</linearGradient>
				<path fill="url(#SVGID_1_)" d="M409.349,447.601c13.674,3.375,43.32,1.612,54.508-11.054
					c11.184-12.669,13.121-28.538,9.345-45.172c-1.825-8.056-9.987-21.787-8.865-30.707c1.897-15.111,12.785-27.929,15.652-37.646
					c2.873-9.711,1.748-22.436-6.451-29.721c-20.576-18.279-34.188-44.117-39.678-49.394c-6.577-6.337-17.207-8.885-24.734-3.886
					c-14.496,9.625-4.561,23.705-1.839,31.453c11.53,32.83-25.929,30.77-35.112,56c-4.871,13.382,23.239,50.476,22.203,53.604
					c-1.596,4.829-5.792,7.341-10.458,8.924c-4.669,1.579-11.697,7.973-11.697,17.09
					C372.222,431.156,394.239,443.871,409.349,447.601z"/>
			</g>
			<path fill="#1A4765" d="M425.675,313.1c0.502,10.939,0.734,21.879,0.929,32.814c0.204,10.938,0.184,21.876,0.281,32.816
				l-0.275,32.813c-0.195,10.939-0.431,21.88-0.935,32.818c-0.506-10.938-0.744-21.879-0.939-32.818l-0.275-32.813
				c0.097-10.94,0.078-21.879,0.281-32.816C424.937,334.979,425.169,324.039,425.675,313.1z"/>
			<path fill="#1A4765" d="M424.946,381.155c3.828-6.586,8.245-12.722,12.795-18.748c2.311-2.99,4.649-5.96,7.095-8.845
				c2.411-2.877,4.967-5.844,8.125-8.006c-2.512,2.864-4.429,6.058-6.613,9.16c-2.144,3.119-4.394,6.152-6.672,9.165
				C435.059,369.862,430.295,375.734,424.946,381.155z"/>
			<path fill="#1A4765" d="M404.482,401.235c4.617,3.037,8.629,6.811,12.314,10.854c1.811,2.05,3.564,4.156,5.159,6.389
				c0.807,1.113,1.562,2.229,2.302,3.42c0.674,1.206,1.369,2.63,1.128,4.038c-0.328-1.352-1.128-2.384-2.081-3.319l-2.812-2.931
				c-1.878-1.963-3.683-3.974-5.507-5.969C411.4,409.668,407.785,405.663,404.482,401.235z"/>
			<path fill="#1A4765" d="M406.218,321.714c4.299,4.328,7.487,9.528,10.518,14.685c2.973,5.223,5.686,10.512,8.211,16.019
				c-4.145-4.463-7.301-9.645-10.32-14.808C411.653,332.396,408.933,327.123,406.218,321.714z"/>
		</g>
		<g>
			<g>
				<path fill="#10609C" d="M421.896,455.578c8.023-2.379,17.141-6.671,18.117-16.146c0.976-9.477-4.442-17.179-12.521-21.983
					c-3.917-2.329-9.502-3.684-12.65-6.925c-1.696-1.741-2.295-3.403-2.531-5.26c-0.459-3.606,0.493-5.148,0.769-8.695
					c0.275-3.541,0.189-6.845-2.847-10.004c-5.894-6.149-17.474-4.268-22.936-11.585c-2.574-3.452-1.458-6.955-0.967-11.296
					c0.491-4.339,1.481-10.035-0.712-14.596c-2.19-4.56-5.826-8.807-11.832-8.008c-6.009,0.801-10.062,6.513-12.756,12.122
					c-1.789,3.718-4.004,7.138-5.083,11.661c-2.999,12.573-6.121,22.967,1.641,35.091c6.263,9.781,21.185,9.041,23.647,36.267
					C383.486,461.031,412.855,458.259,421.896,455.578z"/>
			</g>
			<path fill="#1A4765" d="M380.206,387.799c4.591,4.784,8.979,9.741,13.339,14.718c4.381,4.964,8.612,10.046,12.839,15.129
				c4.19,5.122,8.372,10.244,12.406,15.49c4.055,5.229,8.084,10.481,11.904,15.904c-4.601-4.78-8.989-9.734-13.348-14.713
				c-4.376-4.961-8.609-10.047-12.839-15.132c-4.185-5.126-8.365-10.246-12.4-15.491
				C388.052,398.476,384.025,393.224,380.206,387.799z"/>
			<path fill="#1A4765" d="M401.836,414.73c-1.229-4.518-2.498-8.915-3.04-13.606c-0.25-2.333-0.361-4.721-0.043-7.105
				c0.275-2.367,1.027-4.779,2.462-6.675c-0.559,2.297-0.602,4.537-0.568,6.77c0.078,2.238,0.284,4.479,0.563,6.738
				C401.652,405.351,402.51,410,401.836,414.73z"/>
			<path fill="#1A4765" d="M404.221,437.074c1.744-0.385,3.265-1.036,4.944-1.51c1.653-0.517,3.479-0.873,5.375-0.778
				c1.888,0.124,3.768,0.747,5.3,1.795c1.561,1.015,2.712,2.461,3.631,3.977c-3.128-1.751-5.958-3.244-9.075-3.343
				c-1.55-0.126-3.163,0.07-4.881,0.209C407.819,437.578,405.931,437.642,404.221,437.074z"/>
			<path fill="#1A4765" d="M369.874,393.769c3.903-0.034,7.686,0.405,11.445,1.389c1.863,0.533,3.722,1.166,5.464,2.116
				c1.736,0.909,3.418,2.187,4.434,3.888c-1.678-1.01-3.423-1.557-5.174-2.141c-1.768-0.537-3.546-1.042-5.357-1.516
				C377.095,396.483,373.373,395.603,369.874,393.769z"/>
		</g>
	</g>
	<g>
		<g>
			<g>
				
					<linearGradient id="SVGID_2_" gradientUnits="userSpaceOnUse" x1="1066.7646" y1="158.3359" x2="1020.891" y2="-23.6118" gradientTransform="matrix(-0.9502 0.3115 0.3115 0.9502 1050.9915 -30.9204)">
					<stop  offset="0" style="stop-color:#34AAB6"/>
					<stop  offset="0.9946" style="stop-color:#41D9D9"/>
				</linearGradient>
				<path fill="url(#SVGID_2_)" d="M91.384,451.498c12.756-0.957,37.835-10.859,43.905-24.957
					c6.067-14.096,3.252-28.342-4.709-41.623c-3.857-6.435-14.782-15.979-16.343-23.991c-2.638-13.577,3.133-27.717,2.861-36.911
					c-0.27-9.195-4.842-19.859-13.973-23.822c-22.93-9.952-41.985-28.396-48.215-31.401c-7.471-3.601-17.366-2.795-22.445,3.645
					c-9.783,12.406,2.775,21.75,7.313,27.662c19.236,25.067-13.669,33.887-14.452,58.256c-0.416,12.927,34.332,36.98,34.323,39.978
					c-0.015,4.62-2.925,7.972-6.503,10.658c-3.578,2.683-7.837,10.188-5.257,18.056C54.692,447.813,77.291,452.554,91.384,451.498z"
					/>
			</g>
			<path fill="#1A4765" d="M67.422,330.816c3.527,9.299,6.821,18.672,10.087,28.056c3.263,9.378,6.345,18.826,9.528,28.232
				l9.04,28.4c2.925,9.493,5.817,18.998,8.478,28.579c-3.533-9.294-6.827-18.667-10.093-28.052l-9.525-28.238
				c-3.004-9.469-6.115-18.9-9.034-28.397C72.972,349.903,70.079,340.396,67.422,330.816z"/>
			<path fill="#1A4765" d="M86.047,389.747c1.44-6.763,3.512-13.307,5.739-19.797c1.145-3.232,2.319-6.458,3.616-9.638
				c1.268-3.169,2.631-6.445,4.75-9.209c-1.361,3.183-2.115,6.482-3.123,9.777c-0.964,3.294-2.046,6.551-3.16,9.798
				C91.577,377.145,89.129,383.559,86.047,389.747z"/>
			<path fill="#1A4765" d="M74.068,412.867c4.841,1.312,9.369,3.435,13.691,5.88c2.147,1.258,4.253,2.577,6.26,4.052
				c1.013,0.735,1.979,1.484,2.961,2.303c0.918,0.849,1.922,1.882,2.115,3.165c-0.672-1.074-1.652-1.735-2.737-2.275l-3.261-1.734
				c-2.169-1.165-4.296-2.388-6.436-3.593C82.422,418.185,78.169,415.751,74.068,412.867z"/>
			<path fill="#1A4765" d="M53.07,343.754c4.933,2.52,9.152,6.101,13.227,9.693c4.044,3.668,7.88,7.469,11.62,11.503
				c-4.838-2.676-9.034-6.256-13.094-9.857C60.781,351.433,56.941,347.653,53.07,343.754z"/>
		</g>
		<g>
			<g>
				<path fill="#10609C" d="M94.519,450.367c6.253-4.328,12.905-10.61,11.068-19.062c-1.84-8.454-8.696-13.566-17.029-15.428
					c-4.035-0.901-9.243-0.49-12.871-2.395c-1.957-1.027-2.947-2.289-3.673-3.824c-1.417-2.982-1.03-4.583-1.799-7.718
					c-0.76-3.139-1.773-5.964-5.28-7.833c-6.831-3.637-16.286,1.261-23.074-3.508c-3.199-2.249-3.225-5.589-4.029-9.471
					c-0.8-3.885-1.561-9.079-4.743-12.397c-3.18-3.314-7.516-5.952-12.476-3.559c-4.959,2.387-6.835,8.466-7.579,14.067
					c-0.491,3.714-1.435,7.29-1.087,11.499c0.967,11.698,1.217,21.55,11.347,29.815c8.167,6.669,20.835,1.811,30.664,24.605
					C62.916,465.933,87.479,455.233,94.519,450.367z"/>
			</g>
			<path fill="#1A4765" d="M39.37,403.669c5.314,2.829,10.506,5.864,15.672,8.928c5.183,3.043,10.273,6.23,15.365,9.422
				c5.059,3.237,10.115,6.474,15.086,9.854c4.976,3.367,9.935,6.762,14.769,10.361c-5.324-2.824-10.51-5.86-15.681-8.923
				c-5.183-3.044-10.269-6.234-15.359-9.428c-5.056-3.236-10.116-6.474-15.083-9.857C49.156,410.662,44.197,407.268,39.37,403.669z"
				/>
			<path fill="#1A4765" d="M65.651,420.788c-2.333-3.551-4.672-6.982-6.472-10.879c-0.875-1.947-1.65-3.973-2.046-6.119
				c-0.43-2.124-0.462-4.413,0.235-6.457c0.167,2.142,0.763,4.086,1.429,6.004c0.701,1.907,1.51,3.781,2.391,5.653
				C62.841,412.746,64.899,416.52,65.651,420.788z"/>
			<path fill="#1A4765" d="M74.031,439.396c1.398-0.824,2.526-1.817,3.837-2.699c1.286-0.914,2.755-1.74,4.419-2.193
				c1.665-0.432,3.464-0.422,5.083,0.051c1.639,0.431,3.036,1.355,4.259,2.402c-3.194-0.622-6.059-1.116-8.779-0.317
				c-1.372,0.33-2.707,0.957-4.149,1.56C77.279,438.816,75.664,439.401,74.031,439.396z"/>
			<path fill="#1A4765" d="M32.143,411.741c3.358-1.133,6.75-1.821,10.268-2.036c1.76-0.069,3.545-0.049,5.313,0.278
				c1.759,0.293,3.573,0.918,4.93,2.1c-1.736-0.396-3.4-0.373-5.076-0.385c-1.67,0.038-3.352,0.106-5.048,0.213
				C39.139,412.044,35.679,412.335,32.143,411.741z"/>
		</g>
		<g>
			
				<linearGradient id="SVGID_3_" gradientUnits="userSpaceOnUse" x1="1113.2744" y1="136.0664" x2="1093.8246" y2="58.9229" gradientTransform="matrix(-0.9502 0.3115 0.3115 0.9502 1050.9915 -30.9204)">
				<stop  offset="0" style="stop-color:#34AAB6"/>
				<stop  offset="0.9946" style="stop-color:#41D9D9"/>
			</linearGradient>
			<path fill="url(#SVGID_3_)" d="M53.365,443.909c0.491-6.131-2.672-10.917-0.394-22.385c3.906-19.629-21.624-19.307-29.113-30.098
				c-6.139-8.851-9.7-17.534-5.355-24.829c-3.393,2.91-4.847,7.932-5.47,12.644c-0.491,3.714-1.435,7.29-1.087,11.499
				c0.967,11.698,1.217,21.55,11.347,29.815C31.299,427.092,43.62,422.621,53.365,443.909z"/>
		</g>
	</g>
	<g>
		<g>
			<g>
				
					<linearGradient id="SVGID_4_" gradientUnits="userSpaceOnUse" x1="-426.9873" y1="646.1045" x2="-506.049" y2="451.893" gradientTransform="matrix(0.9502 0.3115 -0.3115 0.9502 1402.1752 -30.9204)">
					<stop  offset="0" style="stop-color:#34AAB6"/>
					<stop  offset="0.9946" style="stop-color:#41D9D9"/>
				</linearGradient>
				<path fill="url(#SVGID_4_)" d="M777.918,450.597c-14.712-1.105-43.643-12.53-50.642-28.791
					c-7.006-16.26-3.758-32.689,5.432-48.011c4.448-7.423,17.05-18.43,18.849-27.678c3.039-15.659-3.613-31.972-3.298-42.575
					c0.312-10.606,5.585-22.906,16.118-27.48c26.447-11.479,48.431-32.756,55.612-36.223c8.619-4.155,20.032-3.223,25.89,4.207
					c11.287,14.31-3.192,25.085-8.429,31.91c-22.196,28.911,15.769,39.088,16.669,67.195c0.483,14.91-39.602,42.659-39.59,46.114
					c0.015,5.329,3.368,9.198,7.501,12.294c4.129,3.097,9.039,11.756,6.064,20.832C820.238,446.343,794.179,451.813,777.918,450.597
					z"/>
			</g>
			<path fill="#1A4765" d="M805.563,311.388c-4.071,10.722-7.871,21.535-11.635,32.36c-3.771,10.823-7.32,21.717-10.991,32.572
				l-10.432,32.756c-3.377,10.951-6.708,21.914-9.779,32.969c4.074-10.722,7.881-21.535,11.64-32.36l10.987-32.572
				c3.47-10.922,7.062-21.804,10.429-32.755C799.158,333.406,802.493,322.438,805.563,311.388z"/>
			<path fill="#1A4765" d="M784.077,379.365c-1.664-7.803-4.053-15.351-6.624-22.837c-1.322-3.729-2.676-7.448-4.173-11.118
				c-1.458-3.651-3.035-7.437-5.475-10.621c1.566,3.668,2.437,7.478,3.599,11.277c1.112,3.803,2.361,7.557,3.647,11.301
				C777.698,364.826,780.524,372.223,784.077,379.365z"/>
			<path fill="#1A4765" d="M797.894,406.033c-5.589,1.516-10.806,3.962-15.798,6.785c-2.475,1.446-4.903,2.974-7.216,4.672
				c-1.172,0.847-2.288,1.711-3.416,2.655c-1.063,0.983-2.215,2.172-2.436,3.652c0.77-1.239,1.902-2.007,3.15-2.628l3.76-1.997
				c2.505-1.345,4.96-2.754,7.427-4.145C788.261,412.167,793.163,409.363,797.894,406.033z"/>
			<path fill="#1A4765" d="M822.119,326.311c-5.694,2.905-10.566,7.037-15.265,11.185c-4.66,4.227-9.088,8.611-13.402,13.267
				c5.587-3.088,10.423-7.217,15.11-11.373C813.226,335.168,817.647,330.808,822.119,326.311z"/>
		</g>
		<g>
			<g>
				<path fill="#10609C" d="M774.306,449.288c-7.212-4.989-14.889-12.237-12.769-21.986c2.125-9.748,10.027-15.648,19.639-17.795
					c4.661-1.041,10.664-0.565,14.852-2.765c2.256-1.182,3.395-2.637,4.236-4.41c1.638-3.438,1.188-5.286,2.072-8.901
					c0.883-3.62,2.045-6.877,6.095-9.035c7.877-4.195,18.785,1.456,26.612-4.047c3.693-2.594,3.727-6.445,4.647-10.927
					c0.93-4.48,1.803-10.476,5.473-14.298c3.671-3.822,8.67-6.864,14.392-4.106c5.723,2.757,7.885,9.766,8.741,16.229
					c0.571,4.282,1.659,8.408,1.258,13.264c-1.12,13.494-1.405,24.858-13.088,34.393c-9.426,7.695-24.035,2.088-35.374,28.384
					C810.758,467.247,782.424,454.903,774.306,449.288z"/>
			</g>
			<path fill="#1A4765" d="M837.923,395.424c-6.138,3.265-12.119,6.765-18.082,10.297c-5.979,3.511-11.85,7.189-17.724,10.87
				c-5.835,3.732-11.672,7.465-17.402,11.368c-5.743,3.884-11.463,7.795-17.033,11.95c6.136-3.26,12.122-6.76,18.086-10.291
				c5.976-3.513,11.85-7.192,17.715-10.873c5.834-3.733,11.671-7.471,17.399-11.374
				C826.628,403.491,832.347,399.577,837.923,395.424z"/>
			<path fill="#1A4765" d="M807.602,415.172c2.693-4.093,5.395-8.06,7.466-12.553c1.005-2.242,1.897-4.58,2.362-7.058
				c0.494-2.446,0.531-5.09-0.27-7.445c-0.195,2.467-0.885,4.711-1.65,6.923c-0.81,2.202-1.741,4.366-2.758,6.519
				C810.844,405.896,808.472,410.247,807.602,415.172z"/>
			<path fill="#1A4765" d="M797.938,436.635c-1.613-0.95-2.916-2.095-4.432-3.114c-1.475-1.057-3.174-2.006-5.097-2.53
				c-1.919-0.493-3.994-0.487-5.862,0.058c-1.885,0.499-3.504,1.565-4.911,2.771c3.686-0.717,6.988-1.286,10.125-0.365
				c1.582,0.382,3.123,1.106,4.79,1.801C794.189,435.967,796.053,436.644,797.938,436.635z"/>
			<path fill="#1A4765" d="M846.255,404.738c-3.873-1.311-7.787-2.107-11.851-2.354c-2.023-0.078-4.08-0.052-6.126,0.321
				c-2.021,0.342-4.112,1.063-5.679,2.426c2.003-0.456,3.916-0.432,5.851-0.442c1.932,0.043,3.868,0.121,5.825,0.242
				C838.182,405.081,842.176,405.419,846.255,404.738z"/>
		</g>
		<g>
			
				<linearGradient id="SVGID_5_" gradientUnits="userSpaceOnUse" x1="-380.0693" y1="620.2168" x2="-412.556" y2="540.4148" gradientTransform="matrix(0.9502 0.3115 -0.3115 0.9502 1402.1752 -30.9204)">
				<stop  offset="0" style="stop-color:#34AAB6"/>
				<stop  offset="0.9946" style="stop-color:#41D9D9"/>
			</linearGradient>
			<path fill="url(#SVGID_5_)" d="M821.778,441.841c-0.566-7.069,3.076-12.591,0.446-25.821
				c-4.499-22.642,24.944-22.271,33.584-34.721c7.086-10.204,11.188-20.223,6.181-28.638c3.914,3.355,5.591,9.147,6.307,14.585
				c0.571,4.282,1.659,8.408,1.258,13.264c-1.12,13.494-1.405,24.858-13.088,34.393
				C847.227,422.443,833.016,417.283,821.778,441.841z"/>
		</g>
	</g>
	<g>
		<g>
			<g>
				
					<linearGradient id="SVGID_6_" gradientUnits="userSpaceOnUse" x1="-160.8237" y1="575.1973" x2="-256.2678" y2="340.7434" gradientTransform="matrix(0.9502 0.3115 -0.3115 0.9502 1402.1752 -30.9204)">
					<stop  offset="0" style="stop-color:#34AAB6"/>
					<stop  offset="0.9946" style="stop-color:#41D9D9"/>
				</linearGradient>
				<path fill="url(#SVGID_6_)" d="M1049.341,466.254c-17.768-1.335-52.689-15.127-61.147-34.756
					c-8.448-19.633-4.524-39.463,6.562-57.962c5.375-8.96,20.584-22.248,22.754-33.41c3.673-18.905-4.362-38.598-3.979-51.4
					c0.377-12.802,6.742-27.65,19.456-33.172c31.929-13.861,58.472-39.546,67.141-43.727c10.399-5.019,24.179-3.895,31.252,5.077
					c13.626,17.276-3.856,30.282-10.176,38.521c-26.793,34.905,19.038,47.188,20.129,81.12c0.578,18.006-47.81,51.499-47.799,55.668
					c0.022,6.435,4.071,11.106,9.057,14.843c4.984,3.739,10.91,14.19,7.32,25.145
					C1100.428,461.12,1068.967,467.723,1049.341,466.254z"/>
			</g>
			<path fill="#1A4765" d="M1082.709,298.198c-4.912,12.946-9.504,25.998-14.047,39.063c-4.554,13.067-8.838,26.219-13.269,39.322
				l-12.593,39.546c-4.075,13.218-8.101,26.457-11.805,39.798c4.919-12.943,9.511-25.994,14.058-39.064l13.261-39.319
				c4.187-13.185,8.521-26.322,12.588-39.547C1074.974,324.774,1079,311.541,1082.709,298.198z"/>
			<path fill="#1A4765" d="M1056.771,380.263c-2.005-9.418-4.893-18.532-7.992-27.569c-1.597-4.503-3.233-8.991-5.036-13.422
				c-1.763-4.407-3.671-8.978-6.61-12.822c1.886,4.431,2.939,9.028,4.336,13.615c1.347,4.59,2.856,9.122,4.405,13.643
				C1049.071,362.711,1052.478,371.64,1056.771,380.263z"/>
			<path fill="#1A4765" d="M1073.45,412.456c-6.744,1.832-13.049,4.784-19.067,8.191c-2.988,1.75-5.923,3.587-8.716,5.643
				c-1.408,1.021-2.764,2.064-4.121,3.201c-1.286,1.189-2.674,2.622-2.943,4.411c0.93-1.496,2.3-2.419,3.808-3.17l4.54-2.412
				c3.019-1.624,5.982-3.325,8.966-5.004C1061.817,419.861,1067.74,416.474,1073.45,412.456z"/>
			<path fill="#1A4765" d="M1102.693,316.215c-6.87,3.507-12.752,8.494-18.422,13.501c-5.631,5.107-10.971,10.394-16.183,16.014
				c6.744-3.727,12.578-8.708,18.241-13.728C1091.954,326.906,1097.295,321.645,1102.693,316.215z"/>
		</g>
		<g>
			<g>
				<path fill="#10609C" d="M1044.974,464.675c-8.708-6.023-17.972-14.772-15.411-26.542c2.562-11.769,12.104-18.892,23.706-21.484
					c5.622-1.256,12.872-0.683,17.929-3.337c2.726-1.427,4.101-3.185,5.117-5.32c1.971-4.155,1.435-6.382,2.498-10.75
					c1.066-4.367,2.475-8.302,7.359-10.905c9.513-5.065,22.681,1.756,32.127-4.884c4.456-3.135,4.497-7.784,5.611-13.193
					c1.116-5.409,2.177-12.644,6.603-17.262c4.431-4.615,10.47-8.288,17.376-4.96c6.91,3.334,9.52,11.793,10.554,19.596
					c0.685,5.169,2.001,10.15,1.514,16.014c-1.346,16.289-1.688,30.007-15.795,41.521c-11.379,9.286-29.019,2.52-42.708,34.262
					C1088.983,486.354,1054.775,471.454,1044.974,464.675z"/>
			</g>
			<path fill="#1A4765" d="M1121.774,399.652c-7.41,3.937-14.63,8.16-21.831,12.429c-7.217,4.237-14.306,8.679-21.389,13.123
				c-7.051,4.503-14.094,9.012-21.01,13.723c-6.933,4.685-13.841,9.411-20.567,14.423c7.41-3.931,14.636-8.154,21.831-12.422
				c7.217-4.238,14.302-8.682,21.388-13.126c7.049-4.51,14.093-9.018,21.01-13.732
				C1108.138,409.387,1115.045,404.662,1121.774,399.652z"/>
			<path fill="#1A4765" d="M1085.169,423.488c3.255-4.941,6.513-9.726,9.012-15.153c1.221-2.705,2.3-5.532,2.853-8.52
				c0.601-2.953,0.646-6.145-0.323-8.991c-0.239,2.979-1.071,5.688-1.992,8.363c-0.976,2.653-2.106,5.269-3.329,7.868
				C1089.083,412.29,1086.22,417.541,1085.169,423.488z"/>
			<path fill="#1A4765" d="M1073.501,449.399c-1.945-1.146-3.515-2.528-5.343-3.763c-1.785-1.274-3.837-2.417-6.154-3.053
				c-2.317-0.598-4.826-0.585-7.081,0.072c-2.276,0.601-4.228,1.891-5.927,3.346c4.448-0.87,8.437-1.554,12.223-0.441
				c1.911,0.459,3.771,1.331,5.783,2.173C1068.981,448.592,1071.224,449.407,1073.501,449.399z"/>
			<path fill="#1A4765" d="M1131.832,410.89c-4.678-1.578-9.395-2.54-14.302-2.835c-2.448-0.099-4.932-0.066-7.396,0.385
				c-2.445,0.413-4.972,1.279-6.865,2.927c2.419-0.551,4.735-0.52,7.064-0.534c2.334,0.051,4.673,0.146,7.035,0.293
				C1122.084,411.309,1126.908,411.716,1131.832,410.89z"/>
		</g>
		<g>
			
				<linearGradient id="SVGID_7_" gradientUnits="userSpaceOnUse" x1="-104.1865" y1="543.9434" x2="-143.4029" y2="447.6101" gradientTransform="matrix(0.9502 0.3115 -0.3115 0.9502 1402.1752 -30.9204)">
				<stop  offset="0" style="stop-color:#34AAB6"/>
				<stop  offset="0.9946" style="stop-color:#41D9D9"/>
			</linearGradient>
			<path fill="url(#SVGID_7_)" d="M1102.282,455.682c-0.684-8.532,3.716-15.196,0.543-31.165
				c-5.438-27.333,30.109-26.891,40.541-41.917c8.556-12.323,13.509-24.417,7.462-34.572c4.721,4.048,6.744,11.04,7.614,17.605
				c0.685,5.169,2.001,10.15,1.514,16.014c-1.346,16.289-1.688,30.007-15.795,41.521
				C1133.006,432.269,1115.851,426.04,1102.282,455.682z"/>
		</g>
	</g>
	<g>
		<polygon fill="#1499AB" points="264.605,318.772 217.586,326.501 189.494,331.115 132.632,320.916 96.099,314.364 
			154.199,299.317 		"/>
		<polygon fill="#1A4765" points="217.586,326.501 189.494,331.115 132.632,320.916 154.199,315.335 		"/>
		<g>
			<g>
				<path fill="#1A4765" d="M270.187,216.177l-24.605,67.516c-0.419,1.15,0.376,2.385,1.593,2.479l74.698,5.927
					c4.093,0.32,7.9-2.125,9.307-5.984l22.702-62.306c0.419-1.15-0.371-2.382-1.592-2.48l-80.216-6.362
					C271.243,214.9,270.471,215.394,270.187,216.177z"/>
				<polygon fill="#D0DAE9" points="330.099,281.233 350.979,223.92 272.492,217.695 251.61,275.006 				"/>
				<g id="XMLID_259_">
					<g id="XMLID_263_">
						<path fill="#B0C0DE" d="M337.478,235.181c-0.135-0.457-0.522-0.786-0.976-0.826c-0.27-0.026-0.546,0.061-0.766,0.232
							l-16.809,13.035l-15.744,3.894c-0.33,0.083-0.559,0.313-0.705,0.468c-0.024,0.023-0.049,0.046-0.072,0.069l-12.506,11.13
							l-14.665-9.354c-0.112-0.071-0.244-0.117-0.379-0.129c-0.442-0.041-0.772,0.264-0.956,0.506l-13.164,10.715l1.458,1.738
							c5.286-4.345,11.63-9.409,12.649-10.411l14.604,9.309c0.132,0.087,0.287,0.138,0.456,0.156
							c0.305,0.022,0.611-0.069,0.818-0.259l13.322-11.849c0.833-0.181,15.528-3.826,15.528-3.826
							c0.517-0.126,17.512-13.39,17.512-13.39C337.46,236.099,337.609,235.637,337.478,235.181z"/>
					</g>
					<path id="XMLID_260_" fill="#B0C0DE" d="M340.594,232.09l-10.851,3.226l5.769,0.827l0.146,5.539L340.594,232.09z"/>
				</g>
				<polygon opacity="0.55" fill="#D0DAE9" points="276.325,238.226 278.205,233.071 268.878,232.331 267.001,237.485 				"/>
				<polygon opacity="0.55" fill="#D0DAE9" points="273.582,245.606 275.458,240.45 266.135,239.712 264.255,244.867 				"/>
				<polygon opacity="0.55" fill="#D0DAE9" points="270.838,252.985 272.715,247.831 263.394,247.094 261.511,252.248 				"/>
				<polygon opacity="0.55" fill="#D0DAE9" points="268.095,260.365 269.972,255.208 260.65,254.472 258.774,259.627 				"/>
				<g>
					<path fill="#AEC0DE" d="M257.126,286.902l-78.305-6.295c-1.828-0.149-3.208-1.766-3.059-3.597l0,0
						c0.146-1.827,1.764-3.205,3.595-3.062l78.302,6.296c1.828,0.149,3.208,1.768,3.062,3.599l0,0
						C260.573,285.673,258.957,287.049,257.126,286.902z"/>
				</g>
				<polygon opacity="0.55" fill="#D0DAE9" points="326.842,218.832 275.875,281.244 292.915,283.074 343.88,220.66 				"/>
				<g>
					<g>
						<path fill="#D2DBEA" d="M325.094,292.366l-72.075-5.795c-1.88-0.149-3.292-1.809-3.139-3.684l0,0
							c0.151-1.873,1.808-3.285,3.685-3.136l72.08,5.797c1.874,0.149,3.284,1.808,3.134,3.686l0,0
							C328.63,291.107,326.968,292.52,325.094,292.366z"/>
					</g>
					<g>
						<polygon fill="#1A4765" points="309.104,288.393 302.635,287.873 302.787,285.931 309.262,286.45 						"/>
						<polygon fill="#1A4765" points="300.689,287.715 296,287.34 296.153,285.397 300.847,285.772 						"/>
					</g>
				</g>
				<path opacity="0.55" fill="#D0DAE9" d="M279.846,224.124c-0.229,1.998-1.992,3.49-3.94,3.335c-1.954-0.155-3.343-1.9-3.12-3.897
					c0.232-1.998,1.995-3.49,3.943-3.335C278.678,220.381,280.073,222.126,279.846,224.124z"/>
			</g>
			<g>
				<path fill="#FCD2C5" d="M228.618,286.058c0.028,0.845-3.564,1.747-4.368,1.508c-1.762-1.155-1.08-2.18-2.884-3.023
					c1.672,0.504,3.552,0.678,5.314,0.648C227.645,285.109,228.681,284.749,228.618,286.058z"/>
				<path fill="#FCD2C5" d="M225.412,286.926c2.095,1.349,6.429,4.883,6.733,5.132c0.838,0.769,3.194,2.419,3.653,3.188
					c0.293,0.491,0.537,2.162,0.267,2.813c-0.353,0.866-1.383,0.786-1.383,0.786c-0.232,1.191-3.065,0.056-3.059,0.356
					c0.034,1.243-1.656,1.671-4.985-1.18c-0.198-0.166-9.751-5.544-12.662-7.515c1.064-1.893,5.926-6.673,6.032-6.636
					C221.811,284.716,223.656,285.772,225.412,286.926z"/>
				<path fill="#FCD2C5" d="M175.421,240.206c0.706,0.275,1.308,0.625,1.75,0.996c8.127,6.805,33.83,37.206,43.426,42.949
					c-2.482,2.664-4.367,5.048-5.435,7.104c-15.589-9.761-51.671-38.439-49.686-45.516
					C167.299,239.259,172.327,238.992,175.421,240.206z"/>
				<path fill="#FCD2C5" d="M173.862,183.814c2.635,9.442,2.95,41.073,5.995,56.185c3.74,18.536-10.526,14.523-13.474,9.276
					c-7.754-13.819-20.565-54.929-13.818-59.687C155.486,187.525,173.386,182.104,173.862,183.814z"/>
				<path fill="#C6FFF0" d="M177.122,182.581c6.509,7.881,3.413,49.553,4.907,56.983c0.258,1.268,0.439,2.5,0.542,3.667
					c3.24,3.226,7.441,7.717,11.873,12.458c9.677,10.352,21.725,23.231,27.289,26.56l-7.746,10.882
					c-13.726-8.592-43.735-31.997-49.609-42.902c-6.297-11.299-19.874-50.165-14.929-60.249
					C156.888,174.827,171.376,175.618,177.122,182.581z"/>
			</g>
			<path fill="#1F6DD2" d="M165.394,293.593c13.405-5.1,79.645-19.81,114.31-14.223c20.791,3.349,17.56,24.456,11.462,27.215
				c-16.307,7.368-80.116,30.351-109.357,26.355C159.338,329.871,158.239,296.316,165.394,293.593z"/>
			<path fill="#1F6DD2" d="M146.203,296.718c8.412-11.619,80.949-26.154,115.613-20.57c20.788,3.35,16.776,23.145,11.461,27.214
				c-10.997,8.418-56.024,33.292-103.901,26.818C146.9,327.142,137.02,309.401,146.203,296.718z"/>
			<path fill="#FCD2C5" d="M280.486,399.592c-1.507,3.062-1.771,5.391-1.771,5.391c-3.308,2.427-8.68,1.677-8.749,1.419
				c0,0-0.245-3.84,1.202-8.799C271.682,397.729,277.341,395.597,280.486,399.592z"/>
			<path fill="#1F6DD2" d="M295.486,299.375c-7.357,50.701-14.13,102.897-14.13,102.897c-2.485-2.14-7.795-2.231-11.058,0.209
				c0,0-3.659-50.729-5.191-95.775C264.103,277.002,298.486,278.69,295.486,299.375z"/>
			<path fill="#D0DAE9" d="M279.209,402.832c0,0,0.163,0.563,1.294,2.06c2.183,2.885,13,9.913,12.788,13.827
				c-0.106,1.975-4.365,3.526-7.76,3.478c-3.401-0.047-6.365-0.399-8.119-1.565c-2.189-1.458-6.087-7.356-6.854-8.554
				c-1.879-2.966-0.293-7.607-0.293-7.607C272.936,400.174,279.209,402.832,279.209,402.832z"/>
			<path fill="#D0DAE9" d="M278.454,407.566c2.977,2.871,13.165,8.377,12.989,11.675c-0.092,1.664-3.671,2.967-6.535,2.927
				c-2.863-0.041-5.354-0.334-6.835-1.319c-1.845-1.226-5.229-6.136-5.768-7.203C269.354,407.802,275.565,404.783,278.454,407.566z"
				/>
			<path fill="#FCD2C5" d="M201.915,397.238c-0.918,5.024-2.385,9.938-2.385,9.938c-0.112,0.247-7.347-2.352-10.228-5.266
				c0,0,2.216-3.423,3.813-6.612C196.858,391.849,201.389,397.281,201.915,397.238z"/>
			<path fill="#1F6DD2" d="M245.627,324.592c-24.847,44.804-43.277,75.696-43.277,75.696c-1.573-2.88-6.274-5.005-10.188-3.879
				c0,0,12.2-35.462,26.738-78.128C228.485,290.151,255.766,306.314,245.627,324.592z"/>
			<path fill="#D0DAE9" d="M189.764,401.537l0.075-0.071c1.877-1.811,4.646-2.555,7.088-1.626c0.028,0.015,0.063,0.029,0.098,0.041
				c1.883,0.758,2.981,2.732,2.83,4.759c-0.135,1.778-0.488,4.336-1.4,5.557c-0.849,1.138-5.72,6.274-8.11,7.368
				c-1.914,0.878-4.899,0.761-8.262,0.275c-3.36-0.487-7.324-2.686-7.117-4.654C175.369,409.283,187.158,404.042,189.764,401.537z"
				/>
			<path fill="#D0DAE9" d="M191.371,404.502c3.292-2.297,8.948,1.664,5.116,6.971c-0.703,0.969-4.812,5.282-6.83,6.207
				c-1.615,0.74-4.127,0.64-6.956,0.229c-2.836-0.407-6.168-2.261-5.995-3.92C177.047,410.705,187.979,406.866,191.371,404.502z"/>
			<path fill="#D0DAE9" d="M147.259,266.786c15.913,2.095,31.734,4.416,47.799,4.78c9.941,0.225,13.026-2.353,21.854-4.907
				c0.735,2.418,0.692,7.247,5.059,13.082c3.33,4.442,8.274,15.508-14.977,27.814c-39.241,20.768-71.652-2.297-73.183-2.418
				c0.072-12.307,1.14-26.154,2.689-39.987C139.99,265.821,143.586,266.304,147.259,266.786z"/>
			<path fill="#FCD2C5" d="M178.038,147.629c1.153,0.855,13.149,7.556,16.579,7.045c-0.034,0.953-2.373,10.997-0.169,16.41
				c-0.97,5.025-14.9,5.019-18.714-3.507C177.337,165.155,178.701,152.264,178.038,147.629z"/>
			<path fill="#FCD2C5" d="M197.667,123.934c7.714,1.096,14.699,4.419,14.854,11.955c0.06,2.7-5.946,26.022-19.102,26.563
				c-9.378,0.384-13.712-10.713-12.833-16.903c0,0,1.2-8.435,1.211-8.518C182.959,128.827,189.385,122.763,197.667,123.934z"/>
			<path fill="#10609D" d="M161.591,171.297c3.564-0.844,14.143-3.72,14.143-3.72s2.072,2.898,8.511,4.273
				c5.789,1.234,10.203-0.766,10.203-0.766s12.687,5.372,14.882,6.715c13.141,8.036,9.691,16.639,10.251,28.468
				c0.261,5.513-7.062,44.479,2.153,69.162c3.2,8.575-25.76,35.063-77.909,22.699l-4.305-19.755L135.843,297
				c-2.009-0.254-3.831-0.444-5.42-0.563c0.277-48.025,13.877-94.657,14.46-96.844C147.365,190.335,150.901,173.833,161.591,171.297
				z"/>
			<path fill="#1A4765" d="M173.919,114.32c12.154-9.528,31.132-3.146,36.504,9.321c4.009,9.292,9.269,5.688,8.888,3.226
				c1.205,6.175-1.403,11.525-13.345,10.63c-2.508-0.189,5.55,2.302,5.55,2.302s-12.753,26.438-32.448,19.961
				c-5.854-1.928-10.951-7.648-10.951-7.648s6.382,1.063,3.019-4.141C164.607,137.875,163.186,122.734,173.919,114.32z"/>
			<g>
				<path fill="#FCD2C5" d="M293.257,276.08c0.382,0.756-4.247,4.736-5.091,4.74c-2.103,0-3.466-0.758-3.331-2.337
					c1.736-0.247,4.715-1.602,6.296-2.37C291.974,275.631,292.76,274.867,293.257,276.08z"/>
				<path fill="#FCD2C5" d="M288.511,278.868c2.468,0.339,12.182,2.657,12.925,3.161c0.471,0.322,2.221,0.713,2.158,2.113
					c-0.049,0.936-1.653,1.622-1.653,1.622c0.855,2.051-2.818,1.799-2.643,2.048c0.858,1.237-0.97,1.915-5.297,1.26
					c-3.484-0.528-8.859-0.924-14.355-2.138c0.169-2.161,2.56-8.549,2.675-8.561C284.312,278.38,286.427,278.563,288.511,278.868z"
					/>
				<path fill="#FCD2C5" d="M228.865,255.243c0.744,0.144,1.394,0.379,1.899,0.666c9.215,5.24,42.886,19.107,53.355,23.039
					c-1.965,3.064-3.693,5.788-4.376,8.001c-15.577-3.433-61.075-15.638-60.384-22.952
					C219.988,257.293,225.599,254.604,228.865,255.243z"/>
				<path fill="#FCD2C5" d="M216.105,196.155c3.75,9.057,7.883,40.418,12.733,55.048c5.95,17.954-8.701,15.691-12.254,10.839
					c-9.367-12.785-28.982-52.304-22.858-57.846C196.382,201.797,215.422,194.516,216.105,196.155z"/>
				<path fill="#10609D" d="M219.268,191.196c1.42,9.915,2.841,19.083,4.959,29.929c2.129,10.91,7.453,31.815,7.7,32.96
					c3.599,2.813,40.099,18.073,46.026,20.708l-4.406,12.299c-15.061-4.732-51.688-13.748-58.836-23.864
					c-7.617-10.455-30.598-51.134-24.506-60.567C196.266,193.271,219.156,190.407,219.268,191.196z"/>
			</g>
		</g>
		<polygon fill="#3DC7C9" points="189.486,331.115 189.486,463.884 239.477,449.155 264.603,318.761 		"/>
		<polygon fill="#79D9D3" points="189.486,331.115 96.099,314.36 115.568,449.155 189.486,463.884 		"/>
	</g>
	<g>
		<path fill-rule="evenodd" clip-rule="evenodd" fill="#B0C0DE" d="M559.266,364.386c0,2.791-5.349,5.405-14.286,7.435
			c-12.455,2.882-31.944,4.73-53.832,4.73c-21.865,0-41.351-1.849-53.809-4.73c-8.965-2.029-14.283-4.644-14.283-7.435
			c0-6.731,30.503-12.195,68.091-12.195C528.76,352.19,559.266,357.654,559.266,364.386z"/>
		<path fill-rule="evenodd" clip-rule="evenodd" fill="#1A4765" d="M544.98,371.82c-12.455,2.882-31.944,4.73-53.832,4.73
			c-21.865,0-41.351-1.849-53.809-4.73c4.937-5.056,27.154-8.874,53.809-8.874C517.832,362.946,540.044,366.765,544.98,371.82z"/>
		<g>
			<path fill="#FCD2C5" d="M481.59,230.598c3.287,42.053,11.984,47.629,9.97,69.073c-3.479,37.018,10.942,123.978,10.942,123.978
				c5.524,0.987,8.977-1.871,8.977-1.871s2.141-64.312,7.321-124.525c1.839-21.402,6.244-34.469,9.786-66.654H481.59z"/>
			<path fill="#1A4765" d="M512.325,419.009c4.296,9.668,16.002,9.353,14.18,13.455c-0.921,2.072-6.887,2.469-10.779,2.469
				c-4.126,0-8.805-4.108-10.469-5.859c-3.119-3.28-7.579-1.507-7.579-5.906c0-2.826,2.268-4.303,2.928-5.436
				C501.888,415.542,511.453,417.045,512.325,419.009z"/>
			<path fill="#FCD2C5" d="M511.634,413.604c0,0-0.864,2.924,0.691,5.404c0.416,0.666,1.383,2.369-2.313,2.125
				c-1.926-0.124-9.407-3.402-9.407-3.402c0.774-1.516,1.374-4.796,1.374-4.796L511.634,413.604z"/>
			<path fill="#1A4765" d="M499.793,434.79c-0.061,0.194-0.747,0.186-0.838,0c-0.353-0.744-1.277-11.25-1.277-11.25l1.676-0.512
				C499.354,423.028,500.103,433.778,499.793,434.79z"/>
			<g>
				<path fill="#FCD2C5" d="M374.811,178.299c-0.223,0.849,3.22,2.58,4.095,2.52c2.046-0.769,1.583-1.965,3.613-2.414
					c-1.819,0.135-3.762-0.118-5.544-0.547C376.01,177.559,375.043,176.956,374.811,178.299z"/>
				<path fill="#FCD2C5" d="M377.867,179.906c-2.433,0.895-7.631,3.495-7.996,3.679c-1.026,0.588-3.793,1.73-4.433,2.408
					c-0.411,0.433-1.036,2.069-0.913,2.792c0.167,0.958,1.231,1.113,1.231,1.113c-0.035,1.263,3.1,0.749,3.022,1.057
					c-0.315,1.25,1.303,2.068,5.327-0.066c0.238-0.13,11.158-3.416,14.558-4.756c-0.657-2.158-4.503-8.115-4.621-8.102
					C382.02,178.482,379.914,179.137,377.867,179.906z"/>
				<path fill="#FCD2C5" d="M459.705,89.683c-4.818,8.982-18.433,38.297-24.959,52.939c-7.998,17.965,7.393,17.129,11.568,12.475
					c11.005-12.268,35.362-51.148,29.596-57.508C473.411,94.828,460.577,88.055,459.705,89.683z"/>
				<path fill="#FCD2C5" d="M439.201,143.838c-0.775,0.121-1.467,0.339-2.004,0.614c-9.792,5.062-42.771,30.081-53.809,33.731
					c1.912,3.266,3.283,6.113,3.897,8.44c18.036-6.365,61.161-27.277,60.75-34.911C447.661,144.722,442.618,143.31,439.201,143.838z
					"/>
				<path fill="#B0C0DE" d="M459.676,87.84c-0.85,0.144-1.549,0.637-1.923,1.354c-2.379,4.606-19.23,41.396-25.048,55.453
					c-3.88,2.531-40.337,25.831-46.906,30.606c0,0,3.26,1.896,4.508,5.567c1.113,3.275,0.921,6.83,0.921,6.83
					c15.388-5.679,49.983-22.691,58.099-32.325c8.558-9.88,34.739-51.789,26.982-60.108
					C473.704,92.435,463.398,87.208,459.676,87.84z"/>
			</g>
			<path fill="#1A4765" d="M469.887,55.042c-0.138-0.178-10.521-9.956-13.606-4.457c-1.779,6.605,3.148,20.243,0.184,30.291
				c-1.073,3.618,16.246-4.856,15.873-6.336C470.693,67.981,468.377,60.379,469.887,55.042z"/>
			<path fill="#FCD2C5" d="M496.602,230.598h-46.999c3.547,32.185,7.949,45.251,9.789,66.654
				c5.181,60.214,7.321,124.525,7.321,124.525s3.453,2.858,8.977,1.871c0,0,14.421-86.96,10.942-123.978
				C484.618,278.228,493.316,272.651,496.602,230.598z"/>
			<path fill="#FCD2C5" d="M468.676,61.883c0.163,1.079,4.146,12.196,2.347,18.639c1.771,5.587,17.608,3.748,20.829-6.451
				c-2.143-2.546-3.627-18.502-5.243-22.385C485.4,52.809,472.647,62.012,468.676,61.883z"/>
			<path fill="#EFF9FF" d="M513.893,100.037c-1.544-13.411-11.189-20.367-22.041-25.965c0,0-7.642,8.405-13.224,9.481
				c-3.834,0.737-7.604-3.03-7.604-3.03s-12.294,3.329-13.689,10.004c-3.49,16.665-12.18,23.245-12.572,32.561
				c-0.451,10.65,11.59,19.816,11.834,23.802c3.983,66.306-23.458,84.214-26.79,124.959c18.705,8.128,86.108,14.407,123.226-6.934
				c-7.981-39.285-25.375-74.072-32.779-103.846C514.332,137.273,515.25,111.829,513.893,100.037z"/>
			<path fill="#FCD2C5" d="M468.722,33.325c-7.235,0.365-12.685,3.946-13.467,10.917c-0.282,2.494,3.362,24.281,15.451,26.216
				c5.108,0.818,13.603-8.764,13.313-14.57c0,0,0.62-8.704,0.617-8.785C484.248,39.407,476.496,32.938,468.722,33.325z"/>
			<path fill="#1A4765" d="M464.445,26.521c0,0-3.607-0.522-7.303,1.906c-7.99,5.246-5.817,24.112,1.268,29.426
				c-4.308-15.91,1.593-21.914,1.593-21.914s8.518-3.087,16.298,2.655c8.047,5.938,11.017,34.139,9.415,43.934
				c-0.823,5.019,17.876-7.14,20.368-14.871c7.722-23.955-2.85-35.393-10.584-43.564C487.373,15.513,468.191,15.401,464.445,26.521z
				"/>
			<path fill="#FCD2C5" d="M483.708,44.165c-0.758-0.077-2.195,0.058-3.346,0.66c0.37,2.698,1.535,7.083,2.108,9.253
				c1.923-0.328,4.492-2.974,4.679-4.859C487.347,47.221,485.705,44.363,483.708,44.165z"/>
			<path fill="#1A4765" d="M465.866,419.009c-4.296,9.668-16.004,9.353-14.183,13.455c0.918,2.072,6.89,2.469,10.782,2.469
				c4.126,0,8.804-4.108,10.469-5.859c3.122-3.28,7.579-1.507,7.579-5.906c0-2.826-2.267-4.303-2.927-5.436
				C476.304,415.542,466.738,417.045,465.866,419.009z"/>
			<path fill="#FCD2C5" d="M466.558,413.604c0,0,0.864,2.924-0.691,5.404c-0.417,0.666-1.383,2.369,2.313,2.125
				c1.925-0.124,9.407-3.402,9.407-3.402c-0.774-1.516-1.375-4.796-1.375-4.796L466.558,413.604z"/>
			<path fill="#1A4765" d="M478.398,434.79c0.061,0.194,0.747,0.186,0.838,0c0.353-0.744,1.276-11.25,1.276-11.25l-1.675-0.512
				C478.838,423.028,478.088,433.778,478.398,434.79z"/>
			<g>
				<path fill="#FCD2C5" d="M426.822,194.602c-0.998-0.137-2.054-0.57-2.06,0.792c-0.078,0.875,3.604,2.012,4.454,1.808
					c1.895-1.101,1.243-2.204,3.166-2.982C430.611,194.654,428.651,194.729,426.822,194.602z"/>
				<path fill="#FCD2C5" d="M433.825,193.601c-1.92,0.777-3.892,1.773-5.786,2.875c-2.247,1.279-6.939,4.711-7.271,4.953
					c-0.916,0.751-3.447,2.336-3.972,3.111c-0.328,0.493-0.672,2.21-0.434,2.904c0.324,0.918,1.4,0.892,1.4,0.892
					c0.17,1.251,3.18,0.224,3.154,0.537c-0.105,1.292,1.627,1.828,5.238-0.947c0.215-0.164,10.435-5.217,13.571-7.105
					C438.718,198.801,433.934,193.566,433.825,193.601z"/>
				<path fill="#FCD2C5" d="M487.275,92.251c-3.257,9.66-5.329,42.488-9.333,58.01c-4.901,19.044,10.133,15.667,13.479,10.382
					c8.816-13.924,18.734-57.401,11.99-62.716C500.488,95.626,487.863,90.5,487.275,92.251z"/>
				<path fill="#FCD2C5" d="M482.534,150.724c-0.74,0.247-1.386,0.576-1.871,0.938c-8.81,6.613-37.181,36.766-47.463,42.198
					c2.427,2.904,4.255,5.481,5.251,7.674c16.729-9.271,55.777-37.055,54.107-44.514
					C491.028,150.187,485.823,149.635,482.534,150.724z"/>
				<path fill="#B0C0DE" d="M485.241,91.755c-3.186,4.089-8.854,59.313-9.006,60.503c-3.401,3.14-27.633,26.442-41.173,37.974
					c0,0,2.712,1.084,5.369,4.924c2.538,3.668,2.044,6.395,2.044,6.395c14.231-8.156,45.521-30.672,51.923-41.521
					c6.805-11.163,16.369-50.571,13.453-61.568C505.099,88.102,491.301,83.977,485.241,91.755z"/>
			</g>
		</g>
		<path fill-rule="evenodd" clip-rule="evenodd" fill="#ACD6F3" d="M533.08,446.728h-83.841
			c-19.835-19.044-28.035-49.579-21.331-77.846c2.35,1.056,5.553,2.055,9.433,2.938c12.458,2.882,31.943,4.73,53.809,4.73
			c21.888,0,41.377-1.849,53.832-4.73c3.854-0.884,7.054-1.883,9.436-2.938C561.117,397.148,552.916,427.684,533.08,446.728z"/>
		<path fill-rule="evenodd" clip-rule="evenodd" fill="#ACD6F3" d="M534.058,448.418c0,8.54-19.204,15.466-42.898,15.466
			c-23.69,0-42.895-6.926-42.895-15.466c0-8.541,19.205-15.466,42.895-15.466C514.854,432.952,534.058,439.877,534.058,448.418z"/>
	</g>
	<g>
		<path fill="#79D9D3" d="M619.831,316.511c0,0.206,0.028,0.411,0.086,0.617l-0.114-0.617H619.831z"/>
		<path fill="#79D9D3" d="M788.301,316.511l-0.112,0.617c0.056-0.206,0.086-0.411,0.086-0.617H788.301z"/>
		<path fill="#3DC7C9" d="M704.05,300.994c-46.516,0-84.247,6.877-84.247,15.342c0,8.491,37.731,15.371,84.247,15.371
			c46.551,0,84.251-6.88,84.251-15.371C788.301,307.871,750.601,300.994,704.05,300.994z M778.223,317.952
			c-4.876,1.614-12.459,3.291-22.654,4.732c-12.988,1.789-30.213,3.112-51.519,3.112c-21.271,0-38.464-1.323-51.454-3.112
			c-10.224-1.441-17.805-3.118-22.712-4.732c-1.59-0.531-1.59-2.704,0-3.203c11.077-3.646,36.144-7.877,74.166-7.877
			c38.057,0,63.127,4.231,74.173,7.877C779.813,315.248,779.813,317.421,778.223,317.952z"/>
		<path fill="#1499AB" d="M778.223,317.952c-4.876,1.614-12.459,3.291-22.654,4.732c-12.988,1.789-30.213,3.112-51.519,3.112
			c-21.271,0-38.464-1.323-51.454-3.112c-10.224-1.441-17.805-3.118-22.712-4.732c-1.59-0.531-1.59-2.704,0-3.203
			c11.077-3.646,36.144-7.877,74.166-7.877c38.057,0,63.127,4.231,74.173,7.877C779.813,315.248,779.813,317.421,778.223,317.952z"
			/>
		<path fill="#1A4765" d="M755.568,322.685c-12.988,1.789-30.213,3.112-51.519,3.112c-21.271,0-38.464-1.323-51.454-3.112
			c12.99-1.824,30.184-3.146,51.454-3.146C725.355,319.538,742.58,320.86,755.568,322.685z"/>
		<g>
			<g>
				<path fill="#FCD2C5" d="M670.927,248.001c-0.896,1.319-4.534,0.057-4.924-0.626c-0.982-1.72,0.049-3.467-0.916-5.051
					c1.372,1.435,2.925,2.767,4.626,3.636C670.654,246.439,671.819,246.684,670.927,248.001z"/>
				<path fill="#FCD2C5" d="M663.739,240.987c2.264,1.492,2.594,4.345,3.601,6.299c1.014,1.954,2.643,8.135,2.924,9.122
					c0.813,2.877,1.398,4.149,1.461,5.929c0.066,1.78-0.85,2.539-1.521,3.433c-0.672,0.896-1.228,0.356-1.862,0.224
					c-1.188,1.247-2.339-1.545-3-1.146c-2.693,1.636-3.059-1.711-4.433-5.068c-0.084-0.2-6.016-12.417-6.478-14.553
					C655.277,243.589,663.606,240.9,663.739,240.987z"/>
				<path fill="#FCD2C5" d="M651.484,168.567c4.991,23.575,5.852,49.914,13.146,72.881c-3.354,1.174-6.734,3.423-9.766,4.692
					c-8.725-14.945-23.428-61.827-17.625-76.508C643.044,154.945,651.212,167.279,651.484,168.567z"/>
				<path fill="#FCD2C5" d="M658.255,102.29c6.378-6.107,18.862,6.394,18.147,9.983c-3.928,19.811-15.564,37.577-20.903,54.452
					c-6.549,20.7-18.742,15.006-18.845,5.932C636.373,148.751,643.546,116.372,658.255,102.29z"/>
				<path fill="#B0C0DE" d="M650.354,107.077c11.086-19.962,34.332-10.262,29.281,8.199c-3.287,12.035-18.408,45.23-24.285,58.339
					c3.392,22.238,5.646,45.147,11.608,66.292c-4.881,2.658-9.551,5.527-14.561,8.059c-7.973-22.373-19.939-50.704-18.388-75.857
					C635.555,146.955,645.776,115.31,650.354,107.077z"/>
			</g>
			<path fill="#10609C" d="M683.124,433.354l-6.627-3.685c0,0-1.421,2.13-2.583,3.506c-2.232,2.65-12.953,4.565-12.953,8.323
				c0,1.899,3.991,3.604,7.249,3.733c3.253,0.129,5.93-0.45,7.851-1.083c1.921-0.625,6.306-2.409,7-3.58
				c1.215-2.032,0.259-4.391,0.259-4.391C683.661,434.083,683.124,433.354,683.124,433.354z"/>
			<path fill="#FCD2C5" d="M674.586,429.457c0,0,1.017,1.603-0.672,3.719c0,0,1.347,2.312,3.854,3.692
				c1.421,0.779,5.551-0.689,5.551-0.689c0.344-2.096,0.16-5.125,0.16-5.125L674.586,429.457z"/>
			<path fill="#10609C" d="M657.106,215.641c0,31.614,3.948,55.185,6.719,95.104c3.406,49.008,9.553,120.062,9.553,120.062
				c0.092,0.354,7.771,3.322,12.285,0l4.793-111.212c0,0,7.933-72.34,7.933-87.625c0-3.639,0.467-9.823,1.075-16.329H657.106z"/>
			<path fill="#10609C" d="M702.271,431.699l6.894-3.154c0,0,1.251,2.232,2.302,3.695c2.02,2.815,12.553,5.567,12.26,9.316
				c-0.149,1.891-4.262,3.276-7.519,3.15c-3.258-0.126-6.087-0.531-7.74-1.693c-2.068-1.445-6.099-2.897-6.698-4.121
				c-1.053-2.12,0.086-4.396,0.086-4.396C701.675,432.382,702.271,431.699,702.271,431.699z"/>
			<path fill="#FCD2C5" d="M710.582,428.257c0,0-0.632,1.74,0.884,3.983c0,0-1.518,2.199-4.131,3.381
				c-1.477,0.667-5.48-1.124-5.48-1.124c-0.18-2.115-0.08-5.28-0.08-5.28L710.582,428.257z"/>
			<path fill="#10609C" d="M697.242,215.641c-7.228,34.85,1.886,80.816,0.543,102.132v111.765
				c9.333,4.172,14.994-0.993,14.994-0.993s5.582-67.423,13.787-115.431c4.549-26.608,9.402-75.118,9.686-97.473H697.242z"/>
			<path fill="#10609C" d="M685.015,37.749c-15.534,10.552-14.017,36.136,7.286,41.56c4.698,1.2,10.631-26.766,8.091-31.39
				c6.408-1.401,11.959-0.689,17.887,0.069C711.578,36.91,696.893,29.681,685.015,37.749z"/>
			<path fill="#D0DAE9" d="M736.962,104.522c-1.863-5.62-8.496-10.377-14.197-11.956c-7.539-2.089-16.168-4.201-21.46-4.224H689.83
				c-5.291,0.023-15.854,2.663-23.389,4.752c-5.704,1.582-10.402,5.808-12.266,11.428c-5.464,16.464-2.964,30.385-2.055,37.164
				c4.038,30.127,2.04,37.434,0.977,68.365c-0.135,3.848,1.213,12.087,1.213,12.087s18.241,5.654,39.854,5.662
				c0.471,0,0.936-0.011,1.406-0.02c0.464,0.009,0.929,0.02,1.399,0.02c21.613-0.008,39.854-5.662,39.854-5.662
				s1.349-8.239,1.214-12.087c-1.064-30.931-3.062-38.237,0.979-68.365C739.922,134.908,742.422,120.987,736.962,104.522z"/>
			<path fill="#FCD2C5" d="M705.416,69.373h-17.471c0.416,7.174-0.661,14.545-1.054,21.756c1.865,3.326,5.929,4.686,9.169,4.835
				c0.203,0.014,0.404,0.029,0.616,0.029c0.219,0,0.416-0.015,0.623-0.029c3.241-0.149,7.301-1.509,9.173-4.835
				C706.079,83.918,705,76.547,705.416,69.373z"/>
			<path fill="#FCD2C5" d="M705.555,63.961c2.309-8.233,0.367-16.06-7.095-19.486c-4.589-2.106-16.441-5.863-19.968,3.857
				c-1.594,4.396-3.963,30.89,9.828,33.826c5.833,1.243,13.755-4.971,15.248-10.768C704.082,69.396,705.528,64.047,705.555,63.961z"
				/>
			<path fill="#10609C" d="M677.477,25.884c5.658-2.304,7.671,0.384,12.384,4.208c6.903,5.596,18.654,2.511,26.849,8.954
				c11.901,9.355,3.636,29.113-2.572,35.091c-6.207,5.975-7.507,2.609-8.668,0.85c-3.219-4.838-1.296-15.221-0.371-20.344
				c-0.694,0.832-4.516,6.357-5.851,6.069c-2.782-0.6-1.055-6.738,0.39-10.136c-8.618,0.311-21.624-5.989-25.454-13.14
				C671.107,31.699,673.177,27.635,677.477,25.884z"/>
			<path fill="#FCD2C5" d="M705.962,58.961c-0.727-0.577-2.504-0.898-3.53-0.869c-0.869,3.36-1.104,6.577-1.127,10.035
				c2.166,0.04,5.243-0.794,6.249-2.927C708.564,63.071,707.869,60.468,705.962,58.961z"/>
			<path fill="#10609C" d="M691.424,97.827c-1.51,2.804,1.957,8.785,4.725,8.785c4.266,0,7.009-6.067,5.631-8.498
				C700.4,95.684,692.938,95.023,691.424,97.827z"/>
			<path fill="#10609C" d="M698.182,105.699c-6.084,23.579-9.927,48.958,8.633,68.324c-0.06,4.715-0.123,9.441-0.185,14.16
				c-4.91-0.374-9.806-0.746-14.719-1.125c-14.671-26.594-10.156-57.924,3.872-83.523
				C695.941,103.248,698.254,105.421,698.182,105.699z"/>
			<path fill="#B0C0DE" d="M706.264,86.787c-0.675,5.797-5.571,7.835-9.486,9.201l9.793,12.708c0,0,3.699-13.339,4.774-19.119
				L706.264,86.787z"/>
			<path fill="#B0C0DE" d="M687.101,86.787c0.672,5.797,5.57,7.841,9.477,9.207l-9.786,12.701c0,0-3.705-13.339-4.772-19.119
				L687.101,86.787z"/>
			<g>
				<path fill="#FCD2C5" d="M598.404,168.903c-0.764,1.397,2.018,4.063,2.811,4.098c1.974,0.089,3.062-1.624,4.909-1.492
					c-1.905-0.565-3.802-1.337-5.346-2.456C599.919,168.436,599.174,167.508,598.404,168.903z"/>
				<path fill="#FCD2C5" d="M607.93,172.106c-2.365-1.338-5.054-0.331-7.25-0.339c-2.2-0.006-8.448,1.36-9.453,1.561
					c-2.929,0.586-4.332,0.648-5.943,1.404c-1.613,0.754-1.868,1.917-2.361,2.918c-0.491,1.004,0.247,1.257,0.651,1.759
					c-0.565,1.627,2.445,1.38,2.388,2.144c-0.224,3.148,2.915,1.943,6.532,1.639c0.218-0.021,13.795-0.31,15.904-0.875
					C609.471,180.818,608.062,172.181,607.93,172.106z"/>
				<path fill="#FCD2C5" d="M677.964,149.977c-23.254,6.316-47.087,17.56-70.855,21.543c0.488,3.519,0.025,7.554,0.281,10.825
					c17.277,0.953,65.705-7.341,76.124-19.205C693.937,151.277,679.235,149.632,677.964,149.977z"/>
				<path fill="#FCD2C5" d="M733.862,113.723c2.522-8.459-14.292-13.867-17.168-11.593c-15.838,12.529-26.336,30.99-38.923,43.437
					c-15.433,15.267-4.804,23.523,3.317,19.479C702.491,154.39,728.036,133.237,733.862,113.723z"/>
				<path fill="#B0C0DE" d="M734.116,125.064c12.708-18.975-7.432-37.356-21.563-24.445c-9.215,8.417-31.858,37.012-40.847,48.221
					c-21.337,7.127-42.754,15.567-64.285,19.906c-0.144,5.553-0.568,11.023-0.534,16.636c23.547-3.111,54.219-5.387,75.895-18.235
					C704.464,154.296,728.877,132.89,734.116,125.064z"/>
			</g>
		</g>
		<path fill="#79D9D3" d="M788.188,317.128l-22.074,130.126h-123.89l-22.308-130.126c2.264,8.109,39.058,14.579,84.133,14.579
			C749.16,331.707,785.951,325.237,788.188,317.128z"/>
		<path fill="#79D9D3" d="M765.988,447.248c0,9.186-27.73,16.636-61.93,16.636s-61.924-7.45-61.924-16.636
			c0-9.191,27.725-16.637,61.924-16.637S765.988,438.057,765.988,447.248z"/>
		<path fill="#3DC7C9" d="M746.362,303.071v5.82c14.951,1.561,25.632,3.803,31.86,5.857c1.591,0.499,1.591,2.672,0,3.203
			c-4.876,1.614-12.459,3.291-22.654,4.732c-12.988,1.789-30.213,3.112-51.519,3.112c-21.271,0-38.464-1.323-51.454-3.112
			c-10.224-1.441-17.805-3.118-22.712-4.732c-1.59-0.531-1.59-2.704,0-3.203c5.443-1.79,14.279-3.722,26.358-5.223v-5.818
			c-22.005,2.772-36.439,7.394-36.439,12.628c0,8.491,37.731,15.371,84.247,15.371c46.551,0,84.251-6.88,84.251-15.371
			C788.301,310.677,771.442,305.731,746.362,303.071z"/>
	</g>
	<g>
		<path fill="#ADD7F4" d="M647.011,7.696l-54.478,0.081c-4.462,0.005-8.07,3.624-8.064,8.084l0.037,26.767
			c0.009,4.459,3.631,8.07,8.09,8.063l5.007-0.008c0.207,0,0.408,0.037,0.604,0.115l26.74,10.564
			c1.288,0.511,2.585-0.718,2.146-2.032l-2.178-6.541c-0.348-1.056,0.437-2.146,1.549-2.149l20.609-0.029
			c4.457-0.006,8.066-3.627,8.058-8.087l-0.037-26.767C655.085,11.298,651.47,7.69,647.011,7.696z"/>
		<path fill="#10609D" d="M602.158,24.783c-1.361-0.109-2.431-1.246-2.435-2.635c0-1.46,1.18-2.646,2.645-2.649l34.837-0.051
			c1.432-0.014,2.648,1.183,2.654,2.644c0.002,1.463-1.186,2.652-2.649,2.652l-34.836,0.051
			C602.305,24.793,602.227,24.789,602.158,24.783z"/>
		<path fill="#10609D" d="M602.173,33.925c-1.357-0.112-2.429-1.245-2.435-2.634c-0.002-1.463,1.186-2.652,2.644-2.652l34.836-0.051
			c1.444-0.029,2.652,1.183,2.655,2.643c0,1.461-1.186,2.648-2.646,2.651l-34.836,0.049
			C602.318,33.931,602.244,33.931,602.173,33.925z"/>
		<path fill="#10609D" d="M602.184,43.065c-1.357-0.111-2.431-1.248-2.434-2.634c0-1.464,1.186-2.649,2.646-2.652l15.706-0.023
			c1.436-0.003,2.646,1.179,2.656,2.643c0,1.463-1.186,2.649-2.65,2.651l-15.704,0.023
			C602.333,43.075,602.256,43.072,602.184,43.065z"/>
	</g>
	<g>
		<path fill="#ADD7F4" d="M914.954,9.033l-81.471,0.12c-6.667,0.012-12.062,5.424-12.056,12.093l0.058,40.022
			c0.011,6.67,5.424,12.067,12.096,12.062l12.381-0.011c0.206,0,0.413,0.043,0.6,0.124l38.569,16.283
			c1.282,0.54,2.572-0.763,2.016-2.04l-5.358-12.269c-0.442-1.016,0.304-2.159,1.415-2.159l31.84-0.045
			c6.672-0.012,12.07-5.423,12.062-12.093l-0.063-40.028C927.033,14.422,921.618,9.024,914.954,9.033z"/>
	</g>
	<g>
		<path fill-rule="evenodd" clip-rule="evenodd" fill="#ACD6F3" d="M1032.553,315.503c0,0.121,0,0.235-0.026,0.356
			c-0.881,6.287-24.717,11.313-53.983,11.313c-29.272,0-53.105-5.025-53.986-11.313c-0.025-0.121-0.025-0.235-0.025-0.356
			c0-0.293,0.054-0.614,0.172-0.909c2.146-6.023,25.42-10.757,53.84-10.757c28.417,0,51.688,4.733,53.837,10.757
			C1032.495,314.889,1032.553,315.21,1032.553,315.503z"/>
		<path fill-rule="evenodd" clip-rule="evenodd" fill="#E0EDFF" d="M978.555,333.056c-13.469,0-26.586-1.068-36.937-3.012
			c-19.304-3.744-22.285,19.696-22.848,15.811c-0.103-0.481,0.098-32.451,0.489-33.433c4.762-13.406,46.587-14.456,59.295-14.456
			c12.698,0,54.525,1.059,59.373,14.663c0.318,0.788,0.517,32.738,0.369,33.432c-0.992,6.021-8.251-18.848-22.801-16.024
			C1005.114,331.985,992.001,333.056,978.555,333.056z"/>
		<path fill-rule="evenodd" clip-rule="evenodd" fill="#ACD6F3" d="M1032.566,315.509c0,0.121,0,0.235-0.028,0.356
			c-0.474,3.345-7.404,6.316-18.164,8.403c-9.55,1.79-22.097,2.91-35.819,2.91c-13.754,0-26.303-1.12-35.852-2.91
			c-10.754-2.087-17.664-5.087-18.133-8.403c-0.028-0.121-0.028-0.235-0.028-0.356c0-0.293,0.061-0.614,0.176-0.909
			c2.144-6.023,25.417-10.757,53.837-10.757c28.417,0,51.688,4.733,53.838,10.757
			C1032.507,314.895,1032.566,315.216,1032.566,315.509z"/>
		<path fill-rule="evenodd" clip-rule="evenodd" fill="#ACD6F3" d="M924.542,315.509c0-0.293,0.061-0.614,0.176-0.909
			c-0.086,0.41-0.147,0.823-0.147,1.266C924.542,315.744,924.542,315.63,924.542,315.509z"/>
		<path fill-rule="evenodd" clip-rule="evenodd" fill="#ACD6F3" d="M1032.566,315.509c0,0.121,0,0.235-0.028,0.356
			c0-0.442-0.058-0.855-0.146-1.266C1032.507,314.895,1032.566,315.216,1032.566,315.509z"/>
		<path fill-rule="evenodd" clip-rule="evenodd" fill="#1499AB" d="M1027.502,323.201c-13.047,2.45-30.191,3.978-48.944,3.978
			c-18.789,0-35.936-1.527-48.979-3.978c8.191-4.094,27.02-6.986,48.979-6.986C1000.482,316.215,1019.313,319.107,1027.502,323.201z
			"/>
		<g>
			<path fill="#271814" d="M1016.596,55.541c2.159,4.577,1.66,14.992,2.904,19.894c2.238,8.833,10.843,14.682,19.567,17.311
				c8.721,2.628,17.992,2.87,26.829,5.097c20.984,5.292,39.135,24.086,39.391,45.727c0.181,14.832-8.012,29.209-20.178,37.707
				c-12.159,8.494-27.846,11.304-42.479,8.873c-11.697-1.939-23.153-7.352-30.558-16.613c-4.866-6.09-26.356-26.678-29.938-32.951
				c-2.468-4.328-11.457-22.367-11.552-27.346c-0.235-12.705-7.274-41.782,5.559-62.324
				C981.105,42.977,1006.949,35.074,1016.596,55.541z"/>
			<path fill="#1A4765" d="M1002.645,443.156c-1.289-1.53-2.877-3.901-2.877-3.901l-7.388,4.104c0,0-0.6,0.81-0.217,3.148
				c0,0-1.062,2.626,0.289,4.891c0.771,1.306,5.378,2.566,7.801,3.994c1.943,1.145,5.119,1.349,8.753,1.202
				c3.625-0.144,8.073-2.044,8.073-4.154C1017.079,448.248,1005.137,446.111,1002.645,443.156z"/>
			<path fill="#FCD2C5" d="M1002.645,443.156c-2.328-2.314-2.027-10.136-2.027-10.136l-10.432-6.293c0,0,1.592,17.442,1.983,19.779
				c0,0,8.268,0.939,9.847,0.065C1004.813,445.034,1002.645,443.156,1002.645,443.156z"/>
			<path fill="#B0C0DE" d="M973.633,220.313c-4.028,13.333,0.31,25.65,1.948,39.454c8.045,67.647,15.317,180.889,15.317,180.889
				c0.097,0.391,4.646,3.357,11.624,0.901l17.254-221.244H973.633z"/>
			<g>
				<path fill="#FCD2C5" d="M898.218,200.947c1.561-0.118,3.604-0.465,5.057-1.05c-0.204,1.176-1.237,1.797-2.707,2.961
					c-0.696,0.278-3.929-0.235-4.004-0.987C896.449,200.709,897.35,200.953,898.218,200.947z"/>
				<path fill="#FCD2C5" d="M896.328,206.136c0.19-0.213,2.92-3.283,4.288-4.46c1.143-1.004,2.957-1.923,4.18-2.663
					c0.074-0.034,3.753,4.035,4.801,5.648c-2.504,3.254-6.787,4.568-8.572,6.801c-2.009,2.528-3.051,1.854-3.323,0.812
					c-0.29-1.083-1.358,1.621-2.323-0.284c-0.146-0.292-1.175-0.224-1.562-0.964c-0.285-0.56,0.086-1.693,0.24-2.118
					C894.289,208.242,895.806,206.805,896.328,206.136z"/>
				<path fill="#FCD2C5" d="M958.214,108.448c0.833-1.349,16.559,7.771,18.556,10.262c4.603,5.745-18.283,37.75-28.344,47.673
					c-3.821,3.766-17.036,3.673-9.248-11.284C945.528,142.909,953.625,115.887,958.214,108.448z"/>
				<path fill="#B0C0DE" d="M976.77,118.71c3.071,3.834-2.915,21.311-12.346,34.168c-1.685-0.689-6.525-3.369-8.156-4.205
					c-3.989-2.04-9.363-5.335-12.943-7.989c6.087-11.976,11.648-26.985,14.89-32.236C959.047,107.099,974.772,116.219,976.77,118.71
					z"/>
				<path fill="#FCD2C5" d="M940.541,156.276c2.655-1.326,7.281-1.547,9.278,4.112c2.707,7.647-27.385,34.509-40.443,44.433
					c-1.114-1.739-2.359-3.495-4.776-5.659c8.056-5.877,27.804-35.161,34.469-41.859
					C939.434,156.936,939.943,156.58,940.541,156.276z"/>
			</g>
			<path fill="#1A4765" d="M952.821,443.156c1.293-1.53,2.878-3.901,2.878-3.901l7.387,4.104c0,0,0.604,0.81,0.216,3.148
				c0,0,1.064,2.626-0.284,4.891c-0.775,1.306-5.666,3.294-7.8,3.994c-2.145,0.7-5.126,1.349-8.754,1.202
				c-3.627-0.144-8.075-2.044-8.075-4.154C938.389,448.248,950.333,446.111,952.821,443.156z"/>
			<path fill="#FCD2C5" d="M952.821,443.156c2.12-2.143,1.991-5.406,1.991-5.406l9.416,0.196c0,0-0.539,6.224-0.927,8.561
				c0,0-7.537,1.427-9.995,0.075C950.511,445.04,952.219,443.771,952.821,443.156z"/>
			<path fill="#B0C0DE" d="M943.268,220.313c-3.113,14.291,10.395,220.342,10.395,220.342c0.098,0.391,6.81,4.238,12.438,0.358
				l16.634-220.701H943.268z"/>
			<path fill="#FCD2C5" d="M975.188,83.326c3.257,0.82,16.186-9.694,17.376-10.509c-1.052,4.878-1.666,23.07-0.336,25.781
				c-4.442,8.765-17.861,7.637-18.349,2.207C976.484,95.224,975.129,84.339,975.188,83.326z"/>
			<path fill="#FCD2C5" d="M980.601,55.521c7.98,1.202,12.242,8.58,11.058,16.484c-0.015,0.083-1.236,8.21-1.236,8.21
				c-0.896,5.958-11.5,13.958-16.53,12.076c-11.891-4.445-11.118-27.34-10.322-29.82C965.794,55.546,973.168,54.404,980.601,55.521z
				"/>
			<path fill="#1A4765" d="M953.048,162.239c0-8.402-14.212-20.352-0.919-35.597c7.205-8.265,0.403-17.095,11.047-22.247
				c2.473-1.197,10.704-3.59,10.704-3.59s1.812,4.067,5.455,4.101c5.303,0.046,12.894-6.308,12.894-6.308s18.774,8.11,21.676,10.739
				c12.811,11.597,1.885,36.888-0.184,62.418c-1.612,19.809,6.302,31.814,7.028,53.719c-6.5,8.563-54.595,12.845-79.422-1.357
				C941.327,200.465,953.048,180.489,953.048,162.239z"/>
			<path fill="#271814" d="M970.495,52.832c2.639-11.795,16.892-11.548,27.218,0.316c14.599,16.783-6.055,30.575-6.055,30.575
				c-0.717-3.128,2.02-23.04-19.837-26.363c0,0-9.76,3.716-8.092,17.793C958.048,71.936,958.781,50.604,970.495,52.832z"/>
			<path fill="#FCD2C5" d="M992.564,68.851c0.131,1.963-0.837,4.887-2.745,5.547c-0.956-2.121-2.903-6.408-3.74-9.106
				c1.072-0.814,2.525-1.194,3.314-1.245C991.475,63.909,992.427,66.773,992.564,68.851z"/>
			<g>
				<path fill="#FCD2C5" d="M984.88,189.169c0.012-1.171,0.913-0.789,1.77-0.662c1.567,0.123,3.244,0.075,4.765-0.285
					c-1.656,0.654-1.105,1.602-2.732,2.531C987.95,190.923,984.802,189.922,984.88,189.169z"/>
				<path fill="#FCD2C5" d="M981.47,200.701c0.022-0.27-2.563,0.588-2.703-0.488c0,0-0.922,0.017-1.19-0.774
					c-0.198-0.597,0.108-2.066,0.399-2.488c0.452-0.66,2.638-2,3.425-2.638c0.287-0.204,4.341-3.104,6.277-4.189
					c1.63-0.93,3.329-1.768,4.98-2.422c0.099-0.029,4.157,4.5,5,6.242c-2.696,1.592-11.499,5.845-11.691,5.989
					C982.853,202.279,981.372,201.806,981.47,200.701z"/>
				<path fill="#FCD2C5" d="M1029.296,156.75c-9.146-10.262-31.357-28.153-36.681-35.083c-0.964-1.256,12.952-11.989,15.987-12.974
					c7.013-2.264,28.813,30.486,34.522,43.415C1045.293,157.014,1040.516,169.34,1029.296,156.75z"/>
				<path fill="#B0C0DE" d="M993.023,123.934c-2.668-8.311,7.35-21.094,18.835-15.813c4.459,2.053,14.685,12.017,23.362,25.393
					c-4.592,6.839-13.034,13.204-18.883,15.401C1005.317,139.361,994.903,129.808,993.023,123.934z"/>
				<path fill="#FCD2C5" d="M1032.436,151.952c0.416-0.307,0.975-0.583,1.612-0.79c2.826-0.906,10.127-0.441,9.261,5.63
					c-1.366,9.62-32.328,29.929-46.743,37.749c-0.838-1.888-2.386-4.115-4.443-6.623
					C1000.979,183.344,1024.827,157.556,1032.436,151.952z"/>
			</g>
		</g>
		<path fill-rule="evenodd" clip-rule="evenodd" fill="#E0EDFF" d="M1050.521,372.286c-14.637-22.775-17.955-51.956-17.955-55.922
			c0-0.178,0-0.323-0.028-0.499c-0.474,3.345-7.404,6.316-18.164,8.403c-9.55,1.79-22.097,2.91-35.819,2.91
			c-13.754,0-26.303-1.12-35.852-2.91c-10.754-2.087-17.664-5.087-18.133-8.403c-0.028,0.176-0.028,0.321-0.028,0.499
			c0,3.966-3.32,33.146-17.96,55.922c-16.212,25.241,10.615,58.409,30.424,77.506c1.336,7.858,19.392,14.092,41.535,14.092
			c22.14,0,40.196-6.233,41.533-14.092C1039.876,430.695,1066.738,397.527,1050.521,372.286z"/>
	</g>
	<path fill="#10609D" d="M886.259,18.279h-21.983c-11.37,0-20.303,0.112-20.191,21.621c0.106,20.734,8.821,21.248,20.191,21.248
		h21.983c11.408,0,20.379-0.513,20.737-21.434C907.366,18.021,897.667,18.279,886.259,18.279z"/>
	<polygon fill="#FFFFFF" points="868.309,52.315 888.69,40.549 868.309,28.783 	"/>
</g>
</svg>
