<?xml version="1.0" encoding="utf-8"?>
<!-- Generator: Adobe Illustrator 16.0.0, SVG Export Plug-In . SVG Version: 6.00 Build 0)  -->
<!DOCTYPE svg PUBLIC "-//W3C//DTD SVG 1.1//EN" "http://www.w3.org/Graphics/SVG/1.1/DTD/svg11.dtd">
<svg version="1.1" id="Layer_1" xmlns="http://www.w3.org/2000/svg" xmlns:xlink="http://www.w3.org/1999/xlink" x="0px" y="0px"
	 width="779.573px" height="786.572px" viewBox="0 0 779.573 786.572" enable-background="new 0 0 779.573 786.572"
	 xml:space="preserve">
<g>
	<g>
		<g>
			<path fill="#C0E1FD" d="M193.103,683.466V195.187c0-15.386,12.473-27.858,27.858-27.858h325.002
				c15.385,0,27.856,12.473,27.856,27.858v488.279c0,15.384-12.472,27.856-27.856,27.856H220.961
				C205.576,711.322,193.103,698.85,193.103,683.466z"/>
			<path fill="#ACD8FD" d="M551.377,656.414V217.591c0-1.685-1.368-3.06-3.062-3.06H218.609c-1.694,0-3.068,1.375-3.068,3.06
				v438.823c0,1.692,1.375,3.06,3.068,3.06h329.707C550.009,659.474,551.377,658.106,551.377,656.414z"/>
			<linearGradient id="SVGID_1_" gradientUnits="userSpaceOnUse" x1="221.9531" y1="437.0029" x2="544.9648" y2="437.0029">
				<stop  offset="0" style="stop-color:#E4F2FF"/>
				<stop  offset="1" style="stop-color:#E7F3FF"/>
			</linearGradient>
			<rect x="221.953" y="220.944" fill="url(#SVGID_1_)" width="323.012" height="432.117"/>
			<g>
				<path fill="#FFFFFF" d="M539.537,271.891v354.732c0,7.438-6.033,13.471-13.472,13.471H240.853
					c-7.438,0-13.472-6.032-13.472-13.471V271.891H539.537z"/>
				<g>
					<path fill="#6180A1" d="M539.537,249.867v22.024H227.381v-22.024c0-7.438,6.033-13.473,13.472-13.473h285.212
						C533.504,236.394,539.537,242.428,539.537,249.867z"/>
					<path fill="#FFFFFF" d="M400.72,261.343H259.516c-3.977,0-7.2-3.224-7.2-7.201s3.223-7.2,7.2-7.2H400.72
						c3.976,0,7.199,3.224,7.199,7.2S404.696,261.343,400.72,261.343z"/>
					<path fill="#D8D8D8" d="M262.284,257.176c-1.933,0-3.506-1.573-3.506-3.505c0-1.933,1.573-3.505,3.506-3.505
						s3.505,1.572,3.505,3.505C265.789,255.603,264.217,257.176,262.284,257.176z M262.284,251.556
						c-1.166,0-2.115,0.949-2.115,2.115c0,1.166,0.949,2.115,2.115,2.115c1.166,0,2.115-0.949,2.115-2.115
						C264.398,252.505,263.449,251.556,262.284,251.556z"/>
					<path fill="#D8D8D8" d="M340.744,254.856h-69.943c-0.654,0-1.187-0.53-1.187-1.185s0.532-1.186,1.187-1.186h69.943
						c0.655,0,1.185,0.531,1.185,1.186S341.398,254.856,340.744,254.856z"/>
					<g>
						<circle fill="#779DC7" cx="447.259" cy="254.142" r="5.599"/>
						<circle fill="#3F5369" cx="467.632" cy="254.142" r="5.598"/>
						<circle fill="#3F5369" cx="488.004" cy="254.142" r="5.598"/>
						<circle fill="#3F5369" cx="508.376" cy="254.142" r="5.598"/>
					</g>
				</g>
				<g>
					<g>
						<path fill="#D6EAFF" d="M454.241,317.275H307.066c-3.646,0-6.604-2.957-6.604-6.603c0-3.647,2.957-6.604,6.604-6.604h147.175
							c3.647,0,6.604,2.957,6.604,6.604C460.845,314.318,457.889,317.275,454.241,317.275z"/>
						<path fill="#D6EAFF" d="M486.424,324.678H302.896c-0.767,0-1.39-0.623-1.39-1.39c0-0.769,0.623-1.391,1.39-1.391h183.528
							c0.768,0,1.391,0.623,1.391,1.391C487.814,324.055,487.191,324.678,486.424,324.678z"/>
						<path fill="#D6EAFF" d="M520.144,332.028H302.896c-0.767,0-1.39-0.622-1.39-1.39c0-0.768,0.623-1.39,1.39-1.39h217.248
							c0.768,0,1.392,0.622,1.392,1.39C521.535,331.407,520.911,332.028,520.144,332.028z"/>
						<path fill="#D6EAFF" d="M508.377,339.38H302.896c-0.767,0-1.39-0.623-1.39-1.39s0.623-1.39,1.39-1.39h205.481
							c0.768,0,1.392,0.623,1.392,1.39S509.145,339.38,508.377,339.38z"/>
						<path fill="#D6EAFF" d="M486.424,346.731H302.896c-0.767,0-1.39-0.623-1.39-1.39c0-0.769,0.623-1.392,1.39-1.392h183.528
							c0.768,0,1.391,0.623,1.391,1.392C487.814,346.108,487.191,346.731,486.424,346.731z"/>
					</g>
					<g>
						<path fill="#D6EAFF" d="M454.241,509.301H307.066c-3.646,0-6.604-2.956-6.604-6.604s2.957-6.604,6.604-6.604h147.175
							c3.647,0,6.604,2.956,6.604,6.604S457.889,509.301,454.241,509.301z"/>
						<path fill="#D6EAFF" d="M486.424,516.702H302.896c-0.767,0-1.39-0.622-1.39-1.39c0-0.767,0.623-1.39,1.39-1.39h183.528
							c0.768,0,1.391,0.623,1.391,1.39C487.814,516.08,487.191,516.702,486.424,516.702z"/>
						<path fill="#D6EAFF" d="M520.144,524.055H302.896c-0.767,0-1.39-0.623-1.39-1.391c0-0.769,0.623-1.39,1.39-1.39h217.248
							c0.768,0,1.392,0.621,1.392,1.39C521.535,523.432,520.911,524.055,520.144,524.055z"/>
						<path fill="#D6EAFF" d="M508.377,531.406H302.896c-0.767,0-1.39-0.623-1.39-1.392c0-0.768,0.623-1.391,1.39-1.391h205.481
							c0.768,0,1.392,0.623,1.392,1.391C509.769,530.783,509.145,531.406,508.377,531.406z"/>
						<path fill="#D6EAFF" d="M486.424,538.756H302.896c-0.767,0-1.39-0.622-1.39-1.391c0-0.767,0.623-1.389,1.39-1.389h183.528
							c0.768,0,1.391,0.622,1.391,1.389C487.814,538.134,487.191,538.756,486.424,538.756z"/>
					</g>
					<g>
						<path fill="#D6EAFF" d="M454.241,575.915H307.066c-3.646,0-6.604-2.955-6.604-6.603s2.957-6.604,6.604-6.604h147.175
							c3.647,0,6.604,2.957,6.604,6.604S457.889,575.915,454.241,575.915z"/>
						<path fill="#D6EAFF" d="M486.424,583.318H302.896c-0.767,0-1.39-0.622-1.39-1.391c0-0.768,0.623-1.391,1.39-1.391h183.528
							c0.768,0,1.391,0.623,1.391,1.391C487.814,582.696,487.191,583.318,486.424,583.318z"/>
						<path fill="#D6EAFF" d="M520.144,590.669H302.896c-0.767,0-1.39-0.622-1.39-1.391c0-0.768,0.623-1.39,1.39-1.39h217.248
							c0.768,0,1.392,0.622,1.392,1.39C521.535,590.047,520.911,590.669,520.144,590.669z"/>
						<path fill="#D6EAFF" d="M508.377,598.02H302.896c-0.767,0-1.39-0.622-1.39-1.39s0.623-1.39,1.39-1.39h205.481
							c0.768,0,1.392,0.622,1.392,1.39S509.145,598.02,508.377,598.02z"/>
						<path fill="#D6EAFF" d="M486.424,605.372H302.896c-0.767,0-1.39-0.623-1.39-1.391c0-0.769,0.623-1.392,1.39-1.392h183.528
							c0.768,0,1.391,0.623,1.391,1.392C487.814,604.749,487.191,605.372,486.424,605.372z"/>
					</g>
					<path fill="#D6EAFF" d="M286.811,352.534h-40.309c-3.855,0-6.98-3.125-6.98-6.98v-40.309c0-3.855,3.125-6.98,6.98-6.98h40.309
						c3.854,0,6.979,3.125,6.979,6.98v40.309C293.789,349.409,290.665,352.534,286.811,352.534z"/>
					<path fill="#D6EAFF" d="M286.811,544.559h-40.309c-3.855,0-6.98-3.125-6.98-6.98V497.27c0-3.854,3.125-6.979,6.98-6.979h40.309
						c3.854,0,6.979,3.125,6.979,6.979v40.309C293.789,541.434,290.665,544.559,286.811,544.559z"/>
					<path fill="#D6EAFF" d="M286.811,611.174h-40.309c-3.855,0-6.98-3.125-6.98-6.979v-40.31c0-3.854,3.125-6.979,6.98-6.979
						h40.309c3.854,0,6.979,3.125,6.979,6.979v40.31C293.789,608.049,290.665,611.174,286.811,611.174z"/>
				</g>
			</g>
			<path fill="#ACD8FD" d="M571.515,683.457c0,14.092-11.463,25.576-25.558,25.576H220.965c-14.095,0-25.56-11.484-25.56-25.576
				V195.192c0-14.093,11.465-25.559,25.56-25.559h324.992c14.095,0,25.558,11.465,25.558,25.559V683.457z M188.378,247.522v31.244
				h3.188v-31.244H188.378z M188.378,209.603v31.245h3.188v-31.245H188.378z M545.957,165.029H220.965
				c-16.63,0-30.165,13.535-30.165,30.164v488.265c0,16.628,13.535,30.162,30.165,30.162h324.992
				c16.63,0,30.163-13.534,30.163-30.162V195.192C576.12,178.564,562.587,165.029,545.957,165.029z"/>
			<circle fill="#B0BDCF" cx="383.462" cy="195.961" r="6.578"/>
			<circle cx="383.462" cy="195.96" r="3.42"/>
			<circle fill="#FFFFFF" cx="386.068" cy="194.386" r="1.575"/>
			<path fill="#ACD8FD" d="M383.47,669.25c-1.696,0-3.336,0.299-4.847,0.84c-0.019,0-0.018,0.004-0.036,0.004
				c-0.429,0.148-0.84,0.313-1.25,0.517c-0.279,0.131-0.56,0.262-0.82,0.411c-0.057,0.036-0.109,0.056-0.166,0.093
				c-1.371,0.76-2.579,1.754-3.625,2.894c-0.015,0.014-0.032,0.02-0.046,0.034c-0.07,0.074-0.131,0.156-0.198,0.231
				c-0.212,0.244-0.422,0.486-0.619,0.742c-0.312,0.406-0.608,0.823-0.884,1.263c-0.167,0.317-0.354,0.635-0.521,0.951
				c-0.112,0.243-0.224,0.467-0.335,0.708c-0.821,1.809-1.269,3.804-1.269,5.909c0,8.073,6.544,14.616,14.616,14.616
				c8.054,0,14.598-6.543,14.598-14.616C398.068,675.793,391.524,669.25,383.47,669.25z M383.466,696.809
				c-7.16,0-12.968-5.801-12.968-12.959c0-1.343,0.203-2.631,0.575-3.861c0.223-0.671,0.5-1.316,0.802-1.938
				c0.097-0.202,0.203-0.41,0.334-0.615c0.095-0.205,0.224-0.41,0.374-0.614c0.112-0.207,0.26-0.411,0.41-0.598
				c0.26-0.373,0.561-0.743,0.898-1.098c0.913-1.006,1.991-1.885,3.204-2.557c0.017-0.018,0.039-0.038,0.058-0.02
				c0.297-0.187,0.593-0.333,0.911-0.465c0.018-0.019,0.038-0.036,0.056-0.036c0.242-0.113,0.484-0.225,0.745-0.299
				c0.074-0.037,0.154-0.075,0.228-0.093c1.362-0.504,2.845-0.767,4.373-0.767c7.158,0,12.959,5.8,12.959,12.96
				C396.425,691.008,390.624,696.809,383.466,696.809z"/>
			<path fill="#E6E7E8" d="M370.186,680.413c0.021,0.004,0.043,0.008,0.065,0.013c0.378,0.062,0.751-0.154,0.864-0.52
				c0.491-1.573,1.523-3.445,2.778-4.781c0.251-0.267,0.271-0.677,0.055-0.975c-0.013-0.018-0.025-0.035-0.038-0.053
				c-0.296-0.408-0.89-0.427-1.229-0.056c-1.399,1.532-2.474,3.361-3.119,5.388C369.418,679.872,369.726,680.338,370.186,680.413z"
				/>
			<path fill="#E6E7E8" d="M379.605,670.688c-0.012-0.033-0.022-0.067-0.034-0.101c-0.132-0.406-0.582-0.638-0.984-0.493
				c-0.776,0.276-1.526,0.622-2.236,1.021c-0.343,0.192-0.465,0.619-0.313,0.981c0.01,0.024,0.021,0.051,0.031,0.076
				c0.17,0.425,0.683,0.602,1.084,0.377c0.618-0.348,1.265-0.648,1.939-0.893C379.493,671.512,379.734,671.093,379.605,670.688z"/>
			<path fill="#A4D4FD" d="M383.466,696.809c-7.158,0-12.968-5.801-12.968-12.959s5.81-12.96,12.968-12.96
				c7.158,0,12.959,5.802,12.959,12.96S390.624,696.809,383.466,696.809z"/>
		</g>
	</g>
	<path fill="#C1D1DE" d="M368.557,430.571v45.489c0,4.753-3.86,8.611-8.613,8.611H190.801v-62.713h169.143
		C364.697,421.959,368.557,425.818,368.557,430.571z"/>
	<path fill="#D7DADE" d="M576.12,195.192v275.256H421.668c-16.386,0-29.66-13.273-29.66-29.661V165.029h153.948
		C562.587,165.029,576.12,178.564,576.12,195.192z"/>
	<path fill="#EDEDED" d="M718.402,228.558c6.356-21.123-3.41-28.008-1.819-33.176c5.067-16.481,31.07-29.477,27.644-62.303
		c0.567,0.045-1.162-8.051-7.6-30.374c-0.639-2.218-1.335-12.959-2.32-15.751c-0.324-3.117-11.375,2.356-13.825,2.802
		c-30.669,5.576-47.313,9.404-65.257,45.272c-2.214,4.423-3.798,9.716-6.877,13.646c-2.861,3.232-19.691,12.768-20.853,16.464
		c-17.027,19.556-7.564,32.634-9.316,42.049c-1.146,6.151-18.046,28.707-17.966,35.638c-7.812,25.811,2.948,51.533,9.991,55.308
		c2.892,1.55,5.43,2.868,7.778,3.973c-9.239,17.203-7.124,15.05-10.28,14.674c-1.104-0.033-1.603,1.767-0.09,2.081
		c1.862,0.223,5.981-8.584-40.913,78.721c3.384,1.53-2.007,13.259,45.753-77.297c14.729,11.188,18.275,31.9,27.949,38.198
		c12.293,8.001,16.889-0.405,14.513-6.093c-1.071-2.569-8.386-10.676-1.167-11.079c5.643-0.313,7.7,5.8,9.549,9.9
		c8.395,18.614,27.927,14.105,20.954,1.568c-1.075-1.936-2.797-3.505-3.926-5.418c-1.755-2.968-1.223-6.635,2.269-6.586
		c11.449,4.351,11.841,6.937,19.014,9.076c17.291,5.16,28.549-15.204,19.929-29.021c-9.429-15.11-31.002-8.491-33.677-8.269
		c0.035-1.463,0.727-2.861,2.362-4.023c16.988-12.063,39.861,24.359,50.242,7.971c8.291-13.09-23.178-16.779-20.244-26.121
		c2.248-7.166,15.745-7.272,22.031-8.365c12.815-2.229,25.901-11.691,26.777-25.054C770.562,233.57,738.436,210.154,718.402,228.558
		z M615.604,315.656c-1.18,0.537-1.061,0.666-0.477-0.443C615.26,315.382,615.423,315.53,615.604,315.656z M622.979,304.198
		c-2.483,7.49-3.685,7.042-6.495,8.439C622.039,302.091,620.682,303.374,622.979,304.198z"/>
	<g>
		<g>
			<path fill-rule="evenodd" clip-rule="evenodd" fill="#BDB5FF" d="M608.352,294.715c-5.783-2.762-7.05-10.931-9.336-16.916
				c-6.146-16.085-2.474-35.158,4.443-50.34c2.919-6.407,11.388-17.826,12.528-24.316c1.674-9.537-4.297-15.163,1.168-29.018
				c8.432-21.38,23.181-25.616,27.557-31.625c3.06-4.201,4.585-9.745,6.743-14.428c18.983-41.189,40.016-44.291,62.479-50.4
				c2.676-0.728,10.276-5.682,12.868-4.507c1.145,0.518,1.899,13.749,2.589,16.188c6.422,22.738,12.462,36.362,1.509,60.323
				c-5.066,11.083-17.548,22.992-20.699,33.928c-1.531,5.321,7.935,11.469,1.65,33.375c-4.644,16.187-14.952,17.416-22.969,29.038
				c-4.922,7.139-6.708,16.526-11.57,23.987c-10.361,15.896-23.557,24.001-34.932,27.991
				C627.815,303.104,622.192,301.329,608.352,294.715z"/>
			<path fill-rule="evenodd" clip-rule="evenodd" fill="#FFFFFF" d="M724.773,73.105c5.621-1.12,2.703,1.817-22.806,54.549
				l34.279-11.827c0.169,1.101,0.31,2.202,0.422,3.303l-35.218,12.149c-2.066,0.614,0.973-4.572-15.556,29.598
				c53.224-16.581,47.149-15.897,45.005-11.201c-0.474,1.038,3.19-0.412-46.965,15.215l-6.255,12.862h35.034
				c-0.583,1.098-1.105,2.182-1.552,3.265H677c-1.281-0.049,1.098-4.021-14.815,28.873l51.667-9.438
				c0.052,1.097,0.064,2.201,0.038,3.309c-55.941,10.217-52.302,9.779-53.102,9.246c-0.16-0.012,0.906-2.104-13.053,26.752
				l45.226,1.283c-0.938,0.975-1.861,2.025-2.764,3.184c-46.26-1.313-43.276-1.075-43.89-1.613l-15.303,31.831l48.854-9.01
				c-2.397,4.958,3.305,2.708-50.651,12.629c-65.794,136.014-58.88,120.931-62.508,119.517l54.456-110.362
				c-25.285-51.153-23.26-44.596-21.322-50.493L623,283.525l17.947-37.333c-32.123-40.671-28.486-33.935-26.392-38.711
				l28.054,35.491l15.672-32.599c-37.545-54.384-34.912-48.149-31.78-51.812l33.47,48.465l7.103-14.771
				c-28.273-55.381-24.929-45.965-21.993-50.276l23.791,46.603c4.383-9.058,17.473-36.119,19.245-39.782
				c-8.646-64.615-9.146-57.822-4.787-60.368l7.364,55.04C692.919,138.872,726.968,68.539,724.773,73.105z"/>
		</g>
		<g>
			<path fill-rule="evenodd" clip-rule="evenodd" fill="#99CAFF" d="M615.333,308.973c7.125-4.281,9.765-32.566,9.53-41.39
				c-0.261-9.799-2.089-19.871,3.176-28.786c10.341-17.503,22.286-9.207,23.226-0.429c0.423,3.964-3.358,18.739,6.33,15.1
				c7.573-2.843,5.919-11.991,5.421-18.394c-2.26-29.082,26.379-34.465,26.184-14.123c-0.029,3.143-1.158,6.179-1.273,9.319
				c-0.245,6.578,5.815,12.436,12.688,2.48c4.311-6.241,7.474-12.859,13.271-17.985c18.866-16.686,47.963,3.343,46.528,26.306
				c-0.837,13.43-13.367,23.921-25.638,27.157c-6.018,1.586-18.939,2.753-21.092,10.096c-2.808,9.573,27.32,10.789,19.384,24.53
				c-9.939,17.205-31.84-17.419-48.103-4.021c-3.971,3.27-2.195,7.574,1.143,10.52c4.266,3.765,19.462,9.277,9.608,18.707
				c-20.532,19.657-48.585-28.62-79.479-17.56C615.232,308.801,615.389,308.941,615.333,308.973z"/>
			<path fill="#564DA1" d="M676.998,271.163c65.024-38.981,59.898-36.844,61.181-34.704c0.755,2.032,5.703-1.778-59.609,37.375
				c38.578,18.203,35.245,16.453,35.667,17.176c0.72,1.541-0.808,2.631-2.034,2.122l-36.844-17.399l-35.836,21.539
				c40.032,17.524,36.965,15.92,37.407,16.8c0.459,1.175-0.518,2.634-2.037,2.051l-38.651-16.928l-21.233,12.762
				c-1.414,0.679-3.342-1.379-1.594-2.658l21.024-12.638l3.465-42.089c0.214-1.668,2.212-1.823,2.923-0.579
				c0.304,0.67,0.431-2.242-3.096,40.742l36.037-21.661l2.687-45.514c0.211-1.946,3.114-2.006,3.096,0.182
				C679.542,228.449,676.943,271.196,676.998,271.163z"/>
		</g>
		<g>
			<path fill-rule="evenodd" clip-rule="evenodd" fill="#FFCFE5" d="M607.11,315.219c5.602,0.24,16.284,16.143,18.99,21.444
				c3.007,5.888,5.17,12.444,11.163,16.028c11.77,7.035,16.17-1.732,13.896-7.234c-1.027-2.484-8.03-10.017-1.118-10.986
				c5.403-0.757,7.371,5.195,9.143,9.149c8.038,17.955,26.737,11.91,20.062-0.078c-1.03-1.852-2.677-3.286-3.759-5.109
				c-2.265-3.817-0.563-9.24,6.718-5.559c4.564,2.306,8.572,5.208,13.659,6.375c16.554,3.801,27.333-17.444,19.08-30.585
				c-4.827-7.685-15.632-9.86-23.942-7.821c-4.077,1.002-12.108,4.477-15.75,0.822c-4.75-4.767,12.704-15.201,3.573-20.781
				c-11.437-6.986-13.244,20.585-27.197,17.893c-3.407-0.657-3.743-3.779-2.715-6.601c1.313-3.607,8.536-11.771-0.34-14.181
				c-18.502-5.023-19.552,32.621-41.418,36.029C607.107,315.354,607.153,315.221,607.11,315.219z"/>
			<path fill="#9089CC" d="M655.829,317.734c51.086,2.125,47.36,2.514,47.432,0.83c-0.209-1.447,3.95-0.784-47.362-2.92
				c16.983-23.22,15.573-21.11,15.59-21.673c-0.069-1.145-1.326-1.3-1.887-0.602l-16.217,22.187l-28.174-1.205
				c18.065-23.287,16.766-21.349,16.743-22.012c-0.108-0.844-1.155-1.394-1.866-0.558l-17.438,22.49l-16.692-0.714
				c-1.058,0.054-1.536,1.894-0.086,2.089l16.526,0.707l15.624,23.816c0.664,0.918,1.898,0.365,1.917-0.602
				c-0.035-0.494,0.979,1.189-14.969-23.134l28.33,1.212l16.267,26.094c0.753,1.085,2.491,0.185,1.774-1.105
				C671.108,342.215,655.785,317.733,655.829,317.734z"/>
		</g>
	</g>
	<g>
		<path fill="#3556E3" d="M556.64,59.072c3.039,1.902,3.63,5.998,0.301,8.908c-2.022,1.329-2.819,1.302-13.211,0.49
			c-7.376-0.575-36.637-3.509-38.408-4.084c-4.334-1.408-5.628-6.374-3.767-9.677c2.828-5.021,5.544-3.754,36.753,0.3
			c-2.364-2.516-12.313-13.565-13.194-16.898l0.369-0.771l0.818-0.227C529.178,38.423,530.837,42.923,556.64,59.072z"/>
		<path fill-rule="evenodd" clip-rule="evenodd" d="M527.543,39.725c1.559-0.648,3.134,0.512,2.38-1.334
			c-0.755-1.847-1.159-3.172,1.136-3.98c2.627-0.925,4.487-3.9,2.769-5.721c-1.448,0.648-2.881,1.094-4.19,1.923
			c-7.043,4.459-6.016,2.742-7.428,3.25c-0.197,0-0.665,0.376-0.829,0.816c-0.583,1.551,4.203,7.008,4.645,6.978
			C526.563,41.617,526.462,40.175,527.543,39.725z"/>
		<linearGradient id="SVGID_2_" gradientUnits="userSpaceOnUse" x1="517.6113" y1="451.8057" x2="517.6113" y2="66.1689">
			<stop  offset="0" style="stop-color:#F6FAFE"/>
			<stop  offset="1" style="stop-color:#C4E3FF"/>
		</linearGradient>
		<path fill="url(#SVGID_2_)" d="M630.165,95.848v326.297c0,16.388-13.291,29.661-29.66,29.661H434.718
			c-16.387,0-29.66-13.273-29.66-29.661V95.848c0-5.108,1.306-9.936,3.58-14.131c5.014-9.265,14.821-15.548,26.08-15.548h165.787
			C616.874,66.168,630.165,79.461,630.165,95.848z"/>
		<g>
			<g>
				<path fill="#85C6FF" d="M534.001,109.223h-99.896c-1.728,0-3.127-1.4-3.127-3.128c0-1.727,1.4-3.127,3.127-3.127h99.896
					c1.729,0,3.129,1.4,3.129,3.127C537.13,107.823,535.729,109.223,534.001,109.223z"/>
				<path fill="#85C6FF" d="M534.001,126.263h-51.529c-1.728,0-3.128-1.401-3.128-3.128c0-1.728,1.4-3.129,3.128-3.129h51.529
					c1.729,0,3.129,1.401,3.129,3.129C537.13,124.862,535.729,126.263,534.001,126.263z"/>
				<path fill="#85C6FF" d="M471.092,126.263h-36.987c-1.728,0-3.127-1.401-3.127-3.128c0-1.728,1.4-3.129,3.127-3.129h36.987
					c1.728,0,3.127,1.401,3.127,3.129C474.219,124.862,472.819,126.263,471.092,126.263z"/>
			</g>
			<g>
				<path fill="#85C6FF" d="M593.598,141.423h-23.925c-5.878,0-10.644-4.766-10.644-10.645V98.451
					c0-5.88,4.766-10.645,10.644-10.645h23.925c5.88,0,10.645,4.765,10.645,10.645v32.328
					C604.242,136.657,599.478,141.423,593.598,141.423z"/>
				<g>
					<circle fill="#FFFFFF" cx="581.636" cy="104.817" r="8.114"/>
					<path fill="#FFFFFF" d="M565.432,122.543v10.959h32.407v-10.959C588.89,116.004,574.38,116.004,565.432,122.543z"/>
				</g>
			</g>
		</g>
		<g>
			<g>
				<path fill="#85C6FF" d="M601.113,193.934h-99.896c-1.728,0-3.127-1.4-3.127-3.129c0-1.728,1.399-3.128,3.127-3.128h99.896
					c1.729,0,3.129,1.4,3.129,3.128C604.242,192.534,602.842,193.934,601.113,193.934z"/>
				<path fill="#85C6FF" d="M601.113,210.974h-51.527c-1.729,0-3.129-1.402-3.129-3.128c0-1.728,1.399-3.129,3.129-3.129h51.527
					c1.729,0,3.129,1.401,3.129,3.129C604.242,209.572,602.842,210.974,601.113,210.974z"/>
				<path fill="#85C6FF" d="M538.203,210.974h-36.986c-1.728,0-3.127-1.402-3.127-3.128c0-1.728,1.399-3.129,3.127-3.129h36.986
					c1.729,0,3.129,1.401,3.129,3.129C541.332,209.572,539.932,210.974,538.203,210.974z"/>
			</g>
			<g>
				<circle fill="#85C6FF" cx="456.277" cy="199.325" r="25.3"/>
				<path fill="#FFFFFF" d="M456.058,213.769c-0.123,0-0.251-0.007-0.374-0.024c-0.862-0.117-1.621-0.628-2.052-1.384
					l-13.321-23.296c-0.768-1.341-0.303-3.05,1.038-3.817c1.339-0.763,3.049-0.302,3.814,1.041l11.508,20.125l11.174-11.135
					c1.09-1.09,2.863-1.086,3.953,0.006c1.091,1.094,1.086,2.865-0.008,3.955l-13.759,13.714
					C457.502,213.48,456.792,213.769,456.058,213.769z"/>
			</g>
		</g>
		<g>
			<g>
				<path fill="#85C6FF" d="M535.874,281.48h-99.896c-1.728,0-3.127,1.4-3.127,3.129c0,1.728,1.4,3.128,3.127,3.128h99.896
					c1.729,0,3.129-1.4,3.129-3.128C539.003,282.881,537.603,281.48,535.874,281.48z"/>
				<path fill="#85C6FF" d="M535.874,264.44h-51.53c-1.727,0-3.127,1.4-3.127,3.129c0,1.728,1.4,3.128,3.127,3.128h51.53
					c1.729,0,3.129-1.4,3.129-3.128C539.003,265.841,537.603,264.44,535.874,264.44z"/>
				<path fill="#85C6FF" d="M472.965,264.44h-36.987c-1.728,0-3.127,1.4-3.127,3.129c0,1.728,1.4,3.128,3.127,3.128h36.987
					c1.728,0,3.127-1.4,3.127-3.128C476.092,265.841,474.692,264.44,472.965,264.44z"/>
			</g>
			<g>
				<circle fill="#85C6FF" cx="580.815" cy="276.089" r="25.3"/>
				<circle fill="#FFFFFF" cx="580.815" cy="276.089" r="10.848"/>
			</g>
		</g>
		<g>
			<g>
				<g>
					<path fill="#85C6FF" d="M443.183,341.354v95.132c0,1.548-1.249,2.797-2.797,2.797c-1.546,0-2.797-1.249-2.797-2.797v-95.132
						c0-1.546,1.251-2.795,2.797-2.795C441.934,338.559,443.183,339.808,443.183,341.354z"/>
					<path fill="#FFFFFF" d="M440.386,436.859c-0.207,0-0.373-0.165-0.373-0.373v-95.132c0-0.209,0.166-0.373,0.373-0.373
						c0.21,0,0.374,0.164,0.374,0.373v95.132C440.76,436.694,440.596,436.859,440.386,436.859z"/>
				</g>
				<g>
					<path fill="#C8C8C8" d="M443.183,344.226v16.629c-0.877,0.297-1.809,0.465-2.797,0.465s-1.921-0.168-2.797-0.465v-16.629
						c0.876-0.299,1.809-0.466,2.797-0.466S442.306,343.927,443.183,344.226z"/>
					<circle fill="#85C6FF" cx="440.386" cy="352.534" r="7.536"/>
				</g>
			</g>
			<g>
				<g>
					<path fill="#85C6FF" d="M474.82,341.354v95.132c0,1.548-1.25,2.797-2.796,2.797c-1.548,0-2.797-1.249-2.797-2.797v-95.132
						c0-1.546,1.249-2.795,2.797-2.795C473.57,338.559,474.82,339.808,474.82,341.354z"/>
					<path fill="#FFFFFF" d="M472.023,436.859c-0.209,0-0.373-0.165-0.373-0.373v-95.132c0-0.209,0.164-0.373,0.373-0.373
						c0.21,0,0.374,0.164,0.374,0.373v95.132C472.397,436.694,472.233,436.859,472.023,436.859z"/>
				</g>
				<g>
					<path fill="#C8C8C8" d="M474.82,381.667v16.63c-0.876,0.298-1.808,0.466-2.796,0.466c-0.987,0-1.92-0.167-2.797-0.466v-16.63
						c0.877-0.297,1.81-0.465,2.797-0.465C473.013,381.202,473.944,381.37,474.82,381.667z"/>
					<circle fill="#85C6FF" cx="472.024" cy="389.976" r="7.537"/>
				</g>
			</g>
			<g>
				<g>
					<path fill="#85C6FF" d="M506.459,341.354v95.132c0,1.548-1.249,2.797-2.797,2.797c-1.547,0-2.795-1.249-2.795-2.797v-95.132
						c0-1.546,1.248-2.795,2.795-2.795C505.21,338.559,506.459,339.808,506.459,341.354z"/>
					<path fill="#FFFFFF" d="M503.662,436.859c-0.209,0-0.372-0.165-0.372-0.373v-95.132c0-0.209,0.163-0.373,0.372-0.373
						c0.211,0,0.374,0.164,0.374,0.373v95.132C504.036,436.694,503.873,436.859,503.662,436.859z"/>
				</g>
				<g>
					<path fill="#C8C8C8" d="M506.459,361.786v16.629c-0.876,0.298-1.808,0.466-2.797,0.466c-0.987,0-1.919-0.167-2.795-0.466
						v-16.629c0.876-0.298,1.808-0.466,2.795-0.466C504.651,361.32,505.583,361.488,506.459,361.786z"/>
					<circle fill="#85C6FF" cx="503.663" cy="370.094" r="7.536"/>
				</g>
			</g>
			<g>
				<g>
					<path fill="#85C6FF" d="M538.098,341.354v95.132c0,1.548-1.248,2.797-2.795,2.797c-1.548,0-2.797-1.249-2.797-2.797v-95.132
						c0-1.546,1.249-2.795,2.797-2.795C536.85,338.559,538.098,339.808,538.098,341.354z"/>
					<path fill="#FFFFFF" d="M535.303,436.859c-0.209,0-0.374-0.165-0.374-0.373v-95.132c0-0.209,0.165-0.373,0.374-0.373
						s0.374,0.164,0.374,0.373v95.132C535.677,436.694,535.512,436.859,535.303,436.859z"/>
				</g>
				<g>
					<path fill="#C8C8C8" d="M538.098,411.163v16.628c-0.876,0.299-1.809,0.466-2.795,0.466c-0.989,0-1.921-0.167-2.797-0.466
						v-16.628c0.876-0.299,1.808-0.467,2.797-0.467C536.289,410.696,537.222,410.864,538.098,411.163z"/>
					<circle fill="#85C6FF" cx="535.301" cy="419.47" r="7.536"/>
				</g>
			</g>
			<g>
				<g>
					<path fill="#85C6FF" d="M569.737,341.354v95.132c0,1.548-1.249,2.797-2.797,2.797s-2.797-1.249-2.797-2.797v-95.132
						c0-1.546,1.249-2.795,2.797-2.795S569.737,339.808,569.737,341.354z"/>
					<path fill="#FFFFFF" d="M566.938,436.859c-0.207,0-0.372-0.165-0.372-0.373v-95.132c0-0.209,0.165-0.373,0.372-0.373
						c0.211,0,0.375,0.164,0.375,0.373v95.132C567.313,436.694,567.149,436.859,566.938,436.859z"/>
				</g>
				<g>
					<path fill="#C8C8C8" d="M569.737,381.66v16.629c-0.877,0.298-1.809,0.466-2.797,0.466s-1.921-0.168-2.797-0.466V381.66
						c0.876-0.298,1.809-0.466,2.797-0.466S568.86,381.362,569.737,381.66z"/>
					<circle fill="#85C6FF" cx="566.94" cy="389.968" r="7.536"/>
				</g>
			</g>
			<g>
				<g>
					<path fill="#85C6FF" d="M601.375,341.354v95.132c0,1.548-1.249,2.797-2.796,2.797c-1.548,0-2.797-1.249-2.797-2.797v-95.132
						c0-1.546,1.249-2.795,2.797-2.795C600.126,338.559,601.375,339.808,601.375,341.354z"/>
					<path fill="#FFFFFF" d="M598.579,436.859c-0.21,0-0.374-0.165-0.374-0.373v-95.132c0-0.209,0.164-0.373,0.374-0.373
						c0.209,0,0.373,0.164,0.373,0.373v95.132C598.952,436.694,598.788,436.859,598.579,436.859z"/>
				</g>
				<g>
					<path fill="#C8C8C8" d="M601.375,400.918v16.63c-0.876,0.297-1.808,0.465-2.796,0.465c-0.987,0-1.92-0.168-2.797-0.465v-16.63
						c0.877-0.299,1.81-0.467,2.797-0.467C599.567,400.451,600.499,400.619,601.375,400.918z"/>
					<circle fill="#85C6FF" cx="598.58" cy="409.226" r="7.536"/>
				</g>
			</g>
		</g>
	</g>
	<path fill="#EDEDED" d="M576.586,109.532c-0.26-2.004-7.978-5.214-8.406-4.949c-3.916,2.587-33.091-22.501-46.606-34.413
		l-86.855-2.982c-11.264-0.194-21.066,5.559-26.08,14.651c0.764-0.98,1.603-2.032,2.573-3.173c2.125,1.434,4.195,2.493,6.972,3.277
		c2.368,4.854,3.206,4.622,5.07,0.771c5.761,0.105,10.963-2.475,14.262-7.656c0.036,0.243-7.326,26.891-1.138,69.478
		c0.317,2.23,2.256,3.154,4.493,3.343c1.812,8.181-4.604,10.212-4.501,14.501c3.025,1.274,6.136,2.271,9.29,2.933
		c2.182-0.88,2.768-3.784,2.893-3.878c3.709-2.204-2.425-5.49-2.145-5.48c-0.988-0.556,5.071-0.143-0.111-8.859
		c6.188-2.286-6.152-22.937,1.212-62.262c9.133-19.279,48.768,3.372,61.575-6.106c29.659,30.679,66.124,27.047,57.885,36.551
		c-3.263,3.766-1.38,12.313,3.468,3.326C575.45,109.25,576.885,111.76,576.586,109.532z"/>
	<g>
		<path fill="#FFFFFF" d="M207.929,95.932c0,2.415-1.958,4.373-4.373,4.373h-6.079c-2.416,0-4.375-1.958-4.375-4.373
			c0-2.416,1.959-4.374,4.375-4.374h6.079C205.972,91.558,207.929,93.517,207.929,95.932z"/>
		<path fill="#FFFFFF" d="M233.602,81.854c-0.005-0.17-0.006-0.344-0.006-0.516c0-9.806,7.95-17.756,17.757-17.756
			c5.623,0,10.633,2.615,13.887,6.694c5.139-3.313,11.259-5.237,17.828-5.237c10.398,0,19.67,4.819,25.708,12.344
			c1.075,1.341,2.714,2.083,4.434,2.08h0.028c7.413,0,13.618,5.166,15.211,12.096h4.455c2.415,0,4.373,1.957,4.373,4.373
			c0,2.415-1.958,4.373-4.373,4.373H220.367c-2.415,0-4.373-1.958-4.373-4.373c0-2.416,1.958-4.373,4.373-4.373h8.359
			C228.726,87.583,230.644,84.058,233.602,81.854z"/>
	</g>
	<g>
		<g>
			<path fill-rule="evenodd" clip-rule="evenodd" fill="#B0BFFF" d="M495.311,75.221l-30.276-2.322
				c-8.83-0.678-16.35,6.365-16.254,15.22c0.001,0.04-0.063-0.078-7.868-9.763l-4.238-26.191
				c3.757,16.735,28.882,1.079,59.372-3.861C496.088,48.304,499.774,58.681,495.311,75.221z"/>
			<path fill-rule="evenodd" clip-rule="evenodd" fill="#3C61FF" d="M496.046,48.304c6.613-1.079,12.149-2.006,17.412,3.187
				c9.389,9.259,2.063,25.283-11.033,24.278l-7.114-0.547C499.528,59.573,496.377,48.304,496.046,48.304z"/>
			<path fill="#B0BFFF" d="M419.3,70.191c-1.207,3.628-2.036-0.766-15.616,19.809c-0.677,1.02-0.415-2.082-1.1-3.097
				c-1.092-1.614-2.671-2.961-4.138-4.051c-2.137-1.587-6.13,1.333-4.738-0.253c2.962-3.37,13.948-15.821,17.619-18.374
				C416.657,61.322,420.543,66.452,419.3,70.191z"/>
			<path fill-rule="evenodd" clip-rule="evenodd" fill="#6D89FF" d="M393.271,82.939c3.051-3.926,13.256,4.002,10.205,7.929
				C400.426,94.794,390.219,86.866,393.271,82.939z"/>
			<path fill-rule="evenodd" clip-rule="evenodd" fill="#234DFF" d="M394.144,82.254c3.672-1.711,10.609,3.747,9.768,7.666
				C400.241,91.631,393.302,86.176,394.144,82.254z"/>
			<path fill="#F99561" d="M398.103,90.502c-8.072,8.492-5.629,11.127-7.607,12.208c-1.148,0.629-3.114-0.261-2.573-2.546
				c1.295-5.489,6.651-12.809,8.934-12.779C398.118,87.4,399.229,89.316,398.103,90.502z"/>
			<path fill="#F99A69" d="M398.452,90.688c-0.456,1.029-5.105,7.814-5.637,15.026c-0.177,2.393-3.864,2.067-3.676-0.39
				c0.425-5.554,4.923-16.95,7.427-17.22C398.027,87.949,398.986,89.48,398.452,90.688z"/>
			<path fill-rule="evenodd" clip-rule="evenodd" fill="#FAA478" d="M397.155,82.891c-0.779-0.278-4.404,13.093-4.382,26.397
				c0.011,6.417,4.746,3.625,4.419-2.437c-0.188-3.491-0.113-6.342-0.017-8.132c0.02-0.266,0.213-0.488,0.476-0.543
				c1.52-0.319,2.962,8.94,7.144,5.295c0.21,0,1.2-1.394,0.285-2.626c-3.597-4.816-7.252-10.221-5.453-15.996
				C399.668,84.85,398.327,83.311,397.155,82.891z"/>
			<path fill-rule="evenodd" clip-rule="evenodd" fill="#C6D1FF" d="M392.917,83.597c0.927-2.683,5.069-1.758,7.765,0.337
				c2.485,1.932,4.636,5.719,2.33,7.381C404.414,87.245,396.375,81.104,392.917,83.597z"/>
			<path fill-rule="evenodd" clip-rule="evenodd" fill="#FBAF89" d="M407.455,36.334c9.435-6.259,23.229-2.091,30.79,9.302
				c7.559,11.391,6.035,25.722-3.398,31.982c-9.433,6.259-23.229,2.091-30.788-9.301C396.5,56.923,398.021,42.593,407.455,36.334z"
				/>
			<path fill-rule="evenodd" clip-rule="evenodd" fill="#FBA87F" d="M406.825,71.876c3.376-4.157,10.177-4.521,12.147-0.566
				c1.19,2.388,0.057,5.457-2.542,7.442C410.126,76.117,406.989,71.876,406.825,71.876z"/>
			<path fill-rule="evenodd" clip-rule="evenodd" fill="#FAA57A" d="M401.682,64.029c1.111,2.125,9.865,2.252,14.781-1.491
				c4.916-3.743,10.624-10.839,11.671-15.427C429.183,42.523,400.573,61.903,401.682,64.029z"/>
			<path fill-rule="evenodd" clip-rule="evenodd" fill="#9A3705" d="M396.85,37.415c-6.793,5.194-7.954,14.987-2.55,21.624
				c6.716,6.717,14.258,6.751,19.956,2.691c6.145-4.399,11.152-9.16,13.982-14.62c0.961,5.382,4.016,9.142,10.523,10.216
				c0,0,20.357-13.329,29.134-19.076c3.706-2.425,2.461-8.151-2.079-8.99c-3.05-0.563-4.043,0.9-12.588,7.355
				c-3.656,2.762-8.418-2.1-5.131-5.083c1.362-1.236,3.193-2.896,4.795-4.35c4.565-4.142-1.383-11.352-6.202-7.274
				c-12.198,10.32-13.342,12.348-15.757,10.142c-0.75-0.685-1.176-1.653-1.176-2.667c0.001-1.819,1.121-2.612,2.271-3.663
				c5.019-4.571-0.936-12.481-5.949-8.649C395.976,38.083,396.89,37.415,396.85,37.415z"/>
			<path fill="#8B3205" d="M395.465,49.097c-6.379,1.704,26.816-23.1,32.196-27.107C433.989,20.28,399.94,45.771,395.465,49.097z"/>
			<path fill="#8B3205" d="M398.409,58.186c-6.239,1.664,23.354-20.462,28.556-24.325C433.145,32.188,403.596,54.343,398.409,58.186
				z"/>
			<path fill="#8B3205" d="M449.508,24.667l-0.205,0.423c-24.222,22.575-27.228,20.814-11.326,7.413
				C442.003,29.11,448.965,22.889,449.508,24.667z"/>
			<path fill="#8B3205" d="M433.391,49.399c-2.702,0.647,0.551-3.372,11.566-10.739C448.089,37.894,442.636,43.258,433.391,49.399z"
				/>
			<path fill="#8B3205" d="M449.05,46.964c-3.973,0.671,5.099-5.875,15.599-12.014C470.063,34.018,453.813,44.195,449.05,46.964z"/>
			<path fill-rule="evenodd" clip-rule="evenodd" fill="#FBAF89" d="M444.635,48.73c-5.214-4.439-8.126,2.366-8.15,5.686
				c-0.026,3.603,2.015,4.95,3.812,6.481C443.753,56.838,448.713,52.203,444.635,48.73z"/>
			<path fill="#F98850" d="M440.652,58.343c-0.351,0-0.694-0.183-0.883-0.511c-0.627-1.095-0.525-2.987-0.103-4.29
				c0.383-1.177,1.026-1.998,1.863-2.373c0.512-0.229,1.112-0.003,1.344,0.51c0.229,0.511,0.001,1.113-0.512,1.343
				c-0.285,0.129-0.571,0.557-0.764,1.148c-0.354,1.094-0.277,2.282-0.065,2.652c0.278,0.487,0.11,1.108-0.377,1.386
				C440.996,58.299,440.824,58.343,440.652,58.343z"/>
			<path fill-rule="evenodd" clip-rule="evenodd" fill="#FBA87F" d="M423.986,60.935c8.747-4.358,13.828,5.837,5.082,10.196
				C420.322,75.489,415.241,65.294,423.986,60.935z"/>
			<path fill-rule="evenodd" clip-rule="evenodd" fill="#FAA175" d="M423.404,78.92c2.244-3.195,1.702-2.544,2.513-3.101
				c0.633,0.069,1.178-0.091,1.047,1.403c-3.163,6.998-3.681,8.664-7.048,2.106c-3.266-6.36-3.918-7.779-1.94-7.969
				C419.183,72.201,422.964,78.159,423.404,78.92z"/>
			<path fill="#3A1502" d="M427.179,65.233l0.227,0.381c-0.171,0.975-1.044,1.917-0.976,2.078c1.565,3.711,1.485,3.704-2.602,3.017
				c-0.294,0.109-1.163-0.646-0.722-1.464c0.392-0.729,1.904-2.366,3.225-3.864C427.054,64.978,426.711,65.233,427.179,65.233z"/>
			<path fill="#3A1502" d="M415.255,72.712c0.072,0.255,0.313,1.573,0.3,1.501c0.269,1.562-2.105,1.386-2.903,1.094
				c-0.861,0.617-1.445,1.083-1.766,0.103c0.173-0.457-0.083-0.241,1.773-2.338C413.723,71.869,414.824,71.159,415.255,72.712z"/>
			<path fill-rule="evenodd" clip-rule="evenodd" fill="#3A1502" d="M427.347,58.239c3.27,0.055,3.102,1.188,3.289,1.982
				c-0.465,2.381-3.932-0.742-8.819,4.494C417.099,69.774,419.396,58.239,427.347,58.239z"/>
			<path fill-rule="evenodd" clip-rule="evenodd" fill="#3A1502" d="M415.118,67.665c0.322,0.599,0.313,0.55,0.315,0.591
				c-0.389,0.901-0.503,0.879-1.36,1.14c-4.496,1.367-4.986,2.725-6.268,3.685C402.754,72.759,409.196,64.767,415.118,67.665z"/>
			<path fill-rule="evenodd" clip-rule="evenodd" fill="#FFFFFF" d="M430.746,73.894c-0.485,0.672,0.231,1.557,0.988,1.22
				c7.609-3.572,9.211-11.367,6.001-11.608C435.548,63.34,436.566,65.823,430.746,73.894z"/>
			<path fill-rule="evenodd" clip-rule="evenodd" fill="#FAA478" d="M443.826,142.429c0.892,3.908,1.741,5.891,0.293,8.392
				c-1.646,2.839-4.453,7.685-4.453,7.685c2.116,10.831,14.848,10.534,13.008,5.696c0.102-0.042-0.328-0.773-1.089-0.707
				c-5.411,0.463-3.716,0.946-6.979-1.799c-0.2-0.168,0.003-0.489,0.238-0.373c1.143,0.567,2.454,1.218,2.454,1.218
				c2.977-0.479,4.79-3.392,5.104-4.783c0,0,1.27-0.907,1.294-2.072c-0.757-1.366-2.252-2.652-3.565-3.336
				c0.171,0,1.607-1.077,2.009-2.834c0.511-2.244-0.357-3.061-3.428-7.925C444.912,142.243,443.786,142.429,443.826,142.429z"/>
			<path fill-rule="evenodd" clip-rule="evenodd" fill="#F99A69" d="M444.606,161.695c3.251,2.737,1.813,2.242,6.442,1.845
				c0.531-0.045,1.039,0.145,1.406,0.499l-5.789,0.583C444.599,161.684,444.564,161.695,444.606,161.695z"/>
			<path fill-rule="evenodd" clip-rule="evenodd" fill="#F8854A" d="M451.813,159.166c-0.474,0.822-0.266,0.746-2.084,0.917
				c-1.982,0.186-1.713,0.164-2.051,0.052C447.246,159.279,447.837,159.411,451.813,159.166z M452.986,157.222
				c-0.799,0.889-1.001,0.956-5.493,0.903c-0.544-0.233-0.627-0.785,0.451-0.788C449.318,157.33,453.028,157.222,452.986,157.222z
				 M450.132,152.35c1.033,0.539,1.16,0.209-1.815,2.172c3.007,0.87,2.418,0.967-0.658,0.459c-1.132-0.468-0.158-0.729-0.37-0.662
				C449.671,152.634,450.174,152.35,450.132,152.35z"/>
			<path fill="#B0BFFF" d="M447.246,66.941c11.535,3.927-3.982,11.388,2.805,62.05c0.751,5.599,2.044,11.869,2.037,11.828
				c2.567,2.153-11.408,6.848-12.429,0.587c-3.548-21.748-4.532-48.187,0.449-69.752C441.488,65.667,447.768,66.941,447.246,66.941z
				"/>
			<path fill="#89A0FF" d="M448.522,69.518c-0.578-0.032-5.254-5.457-8.591,4.132c-0.523,1.504-1.9,6.875,0.253-2.325
				C442.596,64.238,448.563,68.282,448.522,69.518z"/>
			<path fill="#5E7DFF" d="M516.155,58.118c5.796,1.766-0.414,1.13,27.553,21.196c17.326,12.433,29.791,18.265,29.142,17.947
				c2.102,1.552,0.865,3.508-1.282,3.093c-13.536-2.688-29.083-7.266-41.114-13.91c-13.308-7.346-21.967-17.302-20.972-16.058
				c-1.88-2.349-2.785-4.906-1.526-7.931C510.281,56.87,516.296,58.118,516.155,58.118z"/>
			<path fill-rule="evenodd" clip-rule="evenodd" d="M570.891,98.335c-1.153,1.594-3.334,1.333-1.565,2.787
				c1.768,1.455,2.903,2.578,1.127,4.773c-2.036,2.514-2.177,6.683,0.514,7.538c1.046-1.529,2.187-2.838,2.995-4.47
				c4.372-8.815,4.295-6.374,5.402-7.756c0-0.041,0.489-0.515,0.35-1.341c-0.325-1.942-8.018-4.712-8.428-4.42
				C570.938,95.692,571.545,98.335,570.891,98.335z"/>
			<path fill-rule="evenodd" clip-rule="evenodd" fill="#97ABFF" d="M451.909,142.282c-1.816-5.264-16.167-65.813,5.081-70.393
				c15.109-3.257,34.01,1.516,38.475,2.752c-0.051,0.192-0.102,0.387-0.154,0.58c-26.557-2.037-39.514-6.205-45.22,6.578
				C444.609,115.347,453.421,142.282,451.909,142.282z"/>
		</g>
		<g>
			<path fill="#3C3C3C" d="M456.425,164.726c0.636,0.131,0.858,0.089,1.366,0.541c0.948,0.84,0.891,2.506-0.092,3.287
				c-0.531,0.421-0.749,0.367-1.39,0.462l-84.606-2.348c-0.636-0.13-0.857-0.09-1.365-0.541c-0.948-0.839-0.892-2.506,0.091-3.285
				c0.532-0.421,0.751-0.368,1.391-0.462C400.023,163.161,456.425,164.726,456.425,164.726z"/>
			<path fill-rule="evenodd" clip-rule="evenodd" fill="#3C3C3C" d="M408.562,108.753c0,0-35.834,2.161-47.143,2.844
				c-0.842,0.05-1.62,0.469-2.125,1.143c-0.508,0.675-0.692,1.538-0.505,2.36c2.601,11.498,11.11,49.107,11.11,49.107l50.545,0.694
				L408.562,108.753z"/>
			<path fill="#181818" d="M420.513,163.775l35.912,0.951c0,0,2.065,0.537,2.088,2.115c0.014,1.035-0.826,2.016-1.857,2.155
				c-0.152,0.021-0.193,0.017-0.346,0.019l-35.91-0.952c-0.774-0.051-1.041-0.232-1.408-0.577c-1.104-1.031-0.662-3.297,1.006-3.663
				C420.321,163.753,420.405,163.776,420.513,163.775z"/>
			<path fill="#222222" d="M408.817,108.769c0.926,0.119,1.679,0.763,1.926,1.678l11.913,54.351
				c0.283,1.685-1.705,3.255-3.252,2.266c-0.355-0.228-0.641-0.561-0.809-0.948c-0.075-0.171-0.082-0.219-0.13-0.399l-11.913-54.351
				C406.328,110.027,407.355,108.725,408.817,108.769z"/>
		</g>
	</g>
	<g>
		<path fill="#DCEEFD" d="M372.227,470.688H83.418c-4.757,0-8.614-3.855-8.614-8.613v-45.481c0-4.757,3.857-8.613,8.614-8.613
			h288.809c4.757,0,8.614,3.856,8.614,8.613v45.481C380.841,466.832,376.983,470.688,372.227,470.688z"/>
		<g>
			<circle fill="#FFFFFF" cx="111.19" cy="439.333" r="22.457"/>
			<g>
				<path fill="#75B9FF" d="M298.605,431.21H151.431c-3.647,0-6.604-2.956-6.604-6.604c0-3.648,2.957-6.604,6.604-6.604h147.174
					c3.646,0,6.603,2.955,6.603,6.604C305.208,428.254,302.251,431.21,298.605,431.21z"/>
				<path fill="#75B9FF" d="M330.788,438.611H147.26c-0.768,0-1.39-0.622-1.39-1.39s0.623-1.39,1.39-1.39h183.528
					c0.768,0,1.39,0.622,1.39,1.39S331.555,438.611,330.788,438.611z"/>
				<path fill="#75B9FF" d="M364.507,445.964H147.26c-0.768,0-1.39-0.623-1.39-1.391c0-0.769,0.623-1.391,1.39-1.391h217.247
					c0.769,0,1.391,0.622,1.391,1.391C365.897,445.341,365.276,445.964,364.507,445.964z"/>
				<path fill="#75B9FF" d="M352.741,453.314H147.26c-0.768,0-1.39-0.623-1.39-1.391s0.623-1.391,1.39-1.391h205.481
					c0.768,0,1.39,0.623,1.39,1.391S353.508,453.314,352.741,453.314z"/>
				<path fill="#75B9FF" d="M330.788,460.665H147.26c-0.768,0-1.39-0.623-1.39-1.391c0-0.767,0.623-1.39,1.39-1.39h183.528
					c0.768,0,1.39,0.623,1.39,1.39C332.178,460.042,331.555,460.665,330.788,460.665z"/>
			</g>
		</g>
		<path fill="#429CFF" d="M110.824,455.654c-0.976,0-1.892-0.505-2.41-1.347l-9.8-15.926c-0.819-1.33-0.404-3.074,0.927-3.894
			c1.332-0.82,3.075-0.404,3.895,0.927l6.724,10.925l6.561-18.145c0.532-1.47,2.154-2.231,3.626-1.699
			c1.47,0.531,2.23,2.155,1.699,3.624l-8.557,23.666c-0.371,1.022-1.293,1.743-2.375,1.854
			C111.018,455.649,110.92,455.654,110.824,455.654z"/>
	</g>
	<g>
		<polygon fill-rule="evenodd" clip-rule="evenodd" fill="#FFA366" points="647.259,731.458 647.259,742.545 643.782,741.299 
			640.361,731.956 		"/>
		<path fill-rule="evenodd" clip-rule="evenodd" fill="#FFA366" d="M652.267,733.14l0.444,8.357l2.96,0.49
			c0,0,2.639-7.275,3.507-9.349C660.043,730.565,652.267,733.14,652.267,733.14z"/>
		<path fill-rule="evenodd" clip-rule="evenodd" fill="#202AFF" d="M652.191,743.12l-0.768-1.777
			c2.111-1.731,4.135-1.815,6.626-1.107l0.301,2.282L652.191,743.12z"/>
		<path fill-rule="evenodd" clip-rule="evenodd" fill="#5A00C3" d="M650.8,747.938l1.801-3.384l-1.645-1.897
			c2.884-2.317,5.901-2.425,9.034-0.659l-1.269,1.876c0,0,1.271,2.743,1.788,3.863c0.046,0.101,0.037,0.218-0.023,0.311
			c-0.061,0.092-0.164,0.146-0.275,0.143C658.176,748.136,650.8,747.938,650.8,747.938z"/>
		<path fill-rule="evenodd" clip-rule="evenodd" fill="#550259" d="M650.793,747.927c3.43-1.605,6.775-1.804,9.998,0.126
			l-0.458,2.268c-2.742,0.465-5.497,0.453-8.266-0.059L650.793,747.927z"/>
		<path fill-rule="evenodd" clip-rule="evenodd" fill="#410144" d="M652.687,750.368l0.283-0.862
			c0.087-0.263,0.31-0.456,0.582-0.506c0.271-0.048,0.548,0.058,0.72,0.271c0.15,0.19,0.386,0.293,0.626,0.273
			c0.243-0.02,0.457-0.156,0.577-0.366c0.012-0.022,0.025-0.048,0.038-0.069c0.128-0.226,0.36-0.373,0.617-0.393
			c0.258-0.022,0.51,0.087,0.672,0.289c0.077,0.095,0.153,0.189,0.227,0.282c0.126,0.156,0.319,0.243,0.519,0.234
			c0.198-0.009,0.383-0.114,0.495-0.281c0.137-0.206,0.378-0.322,0.626-0.304c0.246,0.021,0.465,0.174,0.566,0.4l0.491,1.077
			C657.389,750.751,655.043,750.74,652.687,750.368z"/>
		<path fill-rule="evenodd" clip-rule="evenodd" fill="#4E00A9" d="M652.624,744.557c0.446-0.294,0.729-0.391,1.096-0.509
			l-1.367,0.213L652.624,744.557z"/>
		<path fill-rule="evenodd" clip-rule="evenodd" fill="#4E00A9" d="M658.704,743.886c-0.402-0.171-0.925-0.202-1.46-0.219
			c0.57-0.092,1.127-0.147,1.628-0.037L658.704,743.886z"/>
		<path fill="#FFFFFF" d="M655.837,745.518c0.106,0,0.214,0.003,0.32,0.008c0.53,0.021,0.596,0.026,1.092,0.056l0.088,0.068
			l-0.075,0.08l-0.475,0.101c-1.439,0.284-2.5,0.331-3.628,0.217l-0.098-0.078l0.087-0.092l0.177-0.044
			C654.262,745.613,654.93,745.5,655.837,745.518z"/>
		<path fill="#FFFFFF" d="M655.824,744.608c1.187,0.03,1.028,0.061,1.604,0.113l0.087,0.07l-0.078,0.079l-0.444,0.087
			c-1.341,0.245-2.329,0.265-3.371,0.12l-0.098-0.08l0.088-0.09l0.167-0.041C654.552,744.695,655.125,744.59,655.824,744.608z"/>
		<path fill="#FFFFFF" d="M655.528,743.539c0.848,0.024,0.738,0.055,1.152,0.104l0.084,0.068l-0.073,0.08l-0.313,0.092
			c-0.929,0.246-1.646,0.277-2.405,0.14l-0.097-0.078l0.082-0.093c0,0,0.514-0.177,0.81-0.245
			C655.005,743.553,655.267,743.531,655.528,743.539z"/>
		<path fill-rule="evenodd" clip-rule="evenodd" fill="#5A00C3" d="M648.572,743.437l1.46,4.088
			c-3.602-0.011-13.018-0.021-16.185,0.073c-2.178,0.065-2.471-0.772-2.208-2.098l0.608-0.462c4.197-0.287,7.795-0.644,10.262-1.128
			c0.476-0.117,0.875-0.437,1.096-0.873c0.091-0.182-0.411-0.8-1.032-1.464c-0.222-0.24-0.267-0.597-0.109-0.885
			c0.157-0.287,0.48-0.444,0.804-0.387c1.539,0.3,3.034,0.329,4.464-0.026c0.355-0.102,0.739-0.007,1.006,0.25
			c0.266,0.258,0.375,0.637,0.285,0.997C648.81,742.484,648.572,743.437,648.572,743.437z"/>
		<path fill-rule="evenodd" clip-rule="evenodd" fill="#550259" d="M631.64,745.5c-0.263,1.325,0.03,2.163,2.208,2.098
			c3.167-0.095,12.583-0.084,16.185-0.073l0.202,0.434l-0.791,1.273c-3.678,0.085-13.759,0.321-17.601,0.412l-1.616-1.862
			C630.375,746.899,630.837,746.15,631.64,745.5z"/>
		<path fill-rule="evenodd" clip-rule="evenodd" fill="#400144" d="M630.533,746.833c0.107,0.015,0.213,0.053,0.309,0.111
			c0.219,0.133,0.36,0.362,0.384,0.619c0.028,0.324,0.063,0.683,0.093,1.024c0.027,0.291,0.207,0.543,0.471,0.665
			c0.266,0.122,0.573,0.092,0.811-0.077c0.207-0.148,0.412-0.296,0.588-0.422c0.297-0.21,0.696-0.199,0.979,0.027
			c0.19,0.153,0.409,0.328,0.603,0.483c0.303,0.241,0.732,0.236,1.028-0.011c0.259-0.215,0.574-0.479,0.844-0.7
			c0.321-0.269,0.795-0.248,1.092,0.049c0.129,0.128,0.262,0.263,0.381,0.381c0.229,0.229,0.568,0.299,0.868,0.182
			c0.454-0.176,1.12-0.435,1.551-0.603c0.263-0.103,0.559-0.062,0.784,0.109c0.223,0.168,0.512,0.388,0.766,0.579
			c0.098,0.072,0.205,0.12,0.318,0.144l-10.559,0.249l-1.616-1.862C630.283,747.446,630.385,747.13,630.533,746.833z
			 M642.781,749.386c0.136-0.036,0.265-0.106,0.369-0.213c0.165-0.168,0.352-0.357,0.522-0.529c0.151-0.155,0.36-0.243,0.578-0.243
			c0.217,0.002,0.425,0.089,0.578,0.244c0.063,0.063,0.127,0.128,0.188,0.19c0.291,0.298,0.761,0.326,1.086,0.066
			c0.171-0.137,0.355-0.285,0.522-0.417c0.297-0.238,0.717-0.238,1.013,0c0.142,0.114,0.3,0.24,0.448,0.358
			c0.163,0.129,0.374,0.184,0.579,0.146s0.385-0.16,0.491-0.339c0.123-0.205,0.338-0.339,0.576-0.356
			c0.093-0.008,0.188,0.003,0.274,0.028l-0.564,0.909L642.781,749.386z"/>
		<path fill="#FFFFFF" d="M636.536,744.457l0.384,0.192l0.082,0.423c-0.105,0.4-0.281,0.756-0.705,1.01l-0.249,0.121l-0.222-0.258
			c-0.225-0.355-0.159-0.735-0.03-1.131l0.274-0.288C636.07,744.526,636.491,744.453,636.536,744.457z M639.085,744.12l0.19,0.318
			l0.004,0.102c0.005,0.473-0.063,0.907-0.418,1.28l-0.212,0.154l-0.286-0.233c-0.342-0.402-0.356-0.838-0.339-1.301l0.19-0.32
			l0.438-0.133C638.797,744.032,639.085,744.12,639.085,744.12z M641.964,743.891l0.191,0.317l0.004,0.094
			c0.005,0.435-0.067,0.836-0.418,1.174l-0.212,0.153l-0.286-0.226c-0.321-0.346-0.356-0.756-0.339-1.193l0.193-0.319l0.437-0.134
			C641.678,743.802,641.964,743.891,641.964,743.891z"/>
		<path fill-rule="evenodd" clip-rule="evenodd" fill="#4E00A8" d="M643.671,742.891c0.51,0.085,0.666,0.116,1.376,0.245
			l0.144,0.147l-0.156,0.134l-1.015,0.09c-0.273,0.021-0.564,0.041-0.83,0.055c0.171-0.144,0.313-0.32,0.416-0.524
			C643.629,742.989,643.65,742.939,643.671,742.891z M648.572,743.437l0.031,0.088c-0.18-0.011-1.555-0.128-1.555-0.128
			l-0.156-0.135l0.145-0.146c0.793-0.146,0.894-0.168,1.573-0.279c0.035-0.005,0.073-0.012,0.116-0.018L648.572,743.437z"/>
		<path fill-rule="evenodd" clip-rule="evenodd" fill="#2046FF" d="M670.478,594.556c6.752,10.898,6.655,53.375-3.686,80.69
			c3.264,17.827,2.605,32.821-1.312,45.46c-0.347,1.12-1.116,3.304-1.116,3.304l0.878,0.304c0,0-3.375,7.793-5.594,9.794
			c-2.962,1.014-5.923,0.827-8.884,0.117c0.475-28.243-1.359-53.908-5.505-77.956l-7.412,27.346
			c5.313,11.378,8.751,28.691,11.322,48.747c-3.314,1.478-6.499,1.899-9.637,1.93c-2.606-2.386-5.965-8.681-5.965-8.681l1.392-0.955
			c0,0-2.251-4.786-3.286-7.175c-17.363-40.063-17.729-79.173-0.571-117.63L670.478,594.556z"/>
		<path fill-rule="evenodd" clip-rule="evenodd" fill="#1139FF" d="M632.566,596.544l-2.684,6.525
			c5.849,13.879,41.43,6.041,41.959-4.802l-1.509-5.801L632.566,596.544z"/>
		<path fill-rule="evenodd" clip-rule="evenodd" fill="#002BFD" d="M634.758,724.222c1.701-1.047,3.605-1.781,5.587-2.221
			c0.532-0.117,1.066-0.205,1.606-0.271c0.847-0.105,1.567-0.158,2.513-0.153c0.803,0.006,1.608,0.037,2.404,0.15l0.221,0.228
			c0,0-1.783,0.288-3.003,0.466c-3.654,0.536-7.274,1.644-10.098,3.881c-0.266-0.432-0.42-0.69-0.42-0.69l1.392-0.955
			L634.758,724.222z M664.93,725.017c-2.407-0.835-4.871-1.503-7.46-2.013c-1.337-0.264-2.7-0.467-4.058-0.487l-0.256-0.193
			l0.193-0.224c0.813-0.127,1.635-0.188,2.457-0.184c0.577,0.005,1.154,0.032,1.73,0.075c0,0,0.999,0.097,1.975,0.258
			c1.351,0.231,1.429,0.293,1.755,0.371c1.096,0.265,2.186,0.569,3.263,0.916c-0.101,0.289-0.165,0.474-0.165,0.474l0.878,0.304
			L664.93,725.017z"/>
		<path fill-rule="evenodd" clip-rule="evenodd" fill="#900EFF" d="M599.545,556.951c-0.225-0.141-0.516-0.12-0.72,0.05
			c-0.205,0.173-0.275,0.454-0.177,0.702c0.367,0.923,0.745,1.868,0.745,1.868l1.099-2.029L599.545,556.951z"/>
		<path fill-rule="evenodd" clip-rule="evenodd" fill="#8E08FF" d="M610.82,572.016c0.066,0.185,0.008,0.39-0.144,0.513
			c-0.151,0.125-0.364,0.14-0.532,0.039c-0.595-0.355-1.208-0.723-1.208-0.723l1.272-1.584L610.82,572.016z"/>
		<path fill-rule="evenodd" clip-rule="evenodd" fill="#FF9854" d="M562.969,568.802c0,0-10.984-9.503-21.607,0.099
			c-1.984,1.796,0.385,3.417,0.385,3.417S555.884,571.564,562.969,568.802z"/>
		<path fill-rule="evenodd" clip-rule="evenodd" fill="#FFA366" d="M540.492,570.571c0,0,1.391,6.241,6.742,2.842
			c0,0-1.699,4.248,3.313,3.951c0,0,1.4,4.459,7.262,3.015c0,0,4.933-0.369,7.799-4.819c0.474-0.734,0.563-1.652,0.237-2.466
			c-0.324-0.81-1.023-1.415-1.874-1.618C556.449,569.866,548.195,570.401,540.492,570.571z"/>
		<path fill-rule="evenodd" clip-rule="evenodd" fill="#FF8E43" d="M554.623,580.596c1.123-0.969,2.215-1.999,3.263-3.113
			c1.183-1.258,2.265-2.62,3.134-4.104l0.439-0.189c0.041,0.133,0.082,0.267,0.122,0.399c-1.244,2.611-3.005,4.939-4.998,7.018
			C555.85,580.695,555.198,580.682,554.623,580.596z M550.208,577.378c1.038-0.763,2.059-1.553,3.051-2.381
			c1.06-0.885,2.1-1.79,3.126-2.711c0,0,0.276-0.049,0.476-0.047l-0.006,0.417c-0.146,0.156-0.29,0.312-0.438,0.468
			c-1.716,1.811-3.482,3.578-5.346,5.26c-0.382-0.568-0.522-1.02-0.522-1.02C550.43,577.371,550.316,577.375,550.208,577.378z
			 M545.471,574.25c0.459-0.306,0.916-0.624,1.375-0.952c0.954-0.68,1.869-1.415,2.738-2.2l0.461-0.042
			c0,0.14,0.002,0.279,0.003,0.418c-0.957,1.09-1.981,2.123-3.073,3.074c0.062-0.64,0.26-1.135,0.26-1.135
			C546.59,573.823,546.003,574.093,545.471,574.25z"/>
		<path fill-rule="evenodd" clip-rule="evenodd" fill="#FFA366" d="M599.606,556.86c3.786,3.121,8.152,7.86,11.217,14.659
			c-6.343,4.72-13.807,8.246-21.864,8.663c-10.078,0.52-19.815-3.667-29.515-5.781c-2.92-0.637-5.876-1.127-8.852-1.421
			c-0.761-0.209-1.041-0.182-1.634-0.743c-0.205-0.193-0.339-0.454-0.508-0.679l-0.2-0.792l0.162-0.797
			c0.426-0.632,0.474-0.87,1.19-1.235c0.866-0.442,1.36-0.353,1.823-0.412c8.748-1.129,17.675-0.234,26.461-0.362
			c4.308-0.063,8.691-0.598,12.516-2.681C594.085,563.274,597.045,560.265,599.606,556.86z"/>
		<path fill-rule="evenodd" clip-rule="evenodd" fill="#FF9752" d="M597.641,559.436c4.595,4.146,8.138,8.78,10.298,14.058
			c1.864-1.105,3.399-2.262,4.448-3.491l-10.293-16.25L597.641,559.436z"/>
		<path fill-rule="evenodd" clip-rule="evenodd" fill="#9E2CFF" d="M598.422,556.86c9.993-13.318,12.532-19.823,15.532-26.854
			c0.524-0.726,0.983-1.508,1.577-2.177c1.721-1.934,4.031-3.33,6.529-3.992c1.649-0.438,3.385-0.396,5.1-0.348
			c2.58,0.586,2.587,0.596,4.998,1.687c1.915,1.39,2.514,1.602,3.947,3.508c2.582,3.434,3.368,8.176,1.992,12.251
			c-0.287,0.85-0.571,1.731-1.108,2.449c-7.521,10.058-26.166,29.365-26.166,29.365C607.758,565.952,602.21,559.984,598.422,556.86z
			"/>
		<path fill-rule="evenodd" clip-rule="evenodd" fill="#9820FF" d="M620.679,530.922c0,0-6.03,23.034-2.977,34.445l3.877-3.927
			L620.679,530.922z"/>
		<path fill-rule="evenodd" clip-rule="evenodd" fill="#A53CFF" d="M618.594,543.151c-1.198,37.964,12.771,29.082,11.042,55.635
			c-0.985,15.129,41.878,7.132,41.993-1.995c0.117-9.125-4.505-24.948,0-43.314c4.506-18.365,6.975-25.856,1.964-30.016
			c-5.01-4.158-24.254-10.768-24.254-10.768l-27.059,13.57C622.28,526.264,619.007,530.098,618.594,543.151z"/>
		<path fill-rule="evenodd" clip-rule="evenodd" fill="#971DFF" d="M637.123,518.819l12.216-6.126
			c1.884,0.646,3.527,1.848,4.714,3.447c0.121,0.167,0.248,0.334,0.378,0.503c6.4,8.32-8.014,17.374-13.299,20.075
			c-0.565,0.278-1.162,0.487-1.777,0.62c-1.912,0.421-6.2,1.356-6.2,1.356L637.123,518.819z"/>
		<path fill-rule="evenodd" clip-rule="evenodd" fill="#FFA366" d="M649.092,503.969c0.331,2.826-0.344,6.682,4.484,12.959
			c6.098,7.926-8.869,16.597-12.714,18.39l-3.599-0.313l1.183-24.182C638.446,510.823,648.759,501.146,649.092,503.969z"/>
		<path fill-rule="evenodd" clip-rule="evenodd" fill="#FFA366" d="M627.427,489.025c-2.037,5.502-0.63,15.688,0,17.893
			c2.932,10.239,16.992,6.038,17.181-5.268c0,0,2.414-7.495,3.517-10.268C649.225,488.61,627.427,489.025,627.427,489.025z"/>
		<path fill-rule="evenodd" clip-rule="evenodd" fill="#FF8E43" d="M647.407,490.955c0,0-17.701,2.425-20.907-0.24
			c-3.205-2.665,16.838-1.711,16.838-1.711L647.407,490.955z"/>
		<path fill-rule="evenodd" clip-rule="evenodd" fill="#FF9148" d="M635.743,538.454c5.206-2.134,11.107-6.198,11.256-13.093
			c0.148-6.894-3.372-15.02,0.297-20.452c3.67-5.434-3.119,0.865-3.119,0.865l-4.938,13.455l0.597,11.624
			C639.836,530.854,630.536,540.586,635.743,538.454z"/>
		<path fill="#AE4500" d="M636.207,466.359c0.187,0.028,0.238,0.063,0.33,0.13c0.315,0.233,0.401,0.686,0.086,1.026
			c-0.01,0.032-0.02,0.064-0.028,0.099c-0.048,0.191-0.048,0.189-0.148,0.704c-0.484,2.596,0.083,5.966,3.421,6.344
			c0,0-1.183-2.766,0.511-3.937c0.714-0.496,1.736-0.518,2.448,0.012c1.423,1.059,1.297,3.486-0.231,4.627
			c0.869,0.184,1.768,0.002,2.637-0.217c0,0,0.458-0.056,0.692,0.226c0.489,0.585-0.392,1.261-2.03,1.404
			c-1.049,0.092-2.18-0.063-3.021-0.752c-0.235,0.029-0.259,0.025-0.378,0.029c-2.494,0.078-4.827-1.794-5.402-4.363
			c-0.346-1.545-0.261-3.227,0.257-4.681c0.099-0.283,0.442-0.571,0.442-0.571C635.919,466.378,636.058,466.35,636.207,466.359z
			 M641.618,471.713c-1.041,0.021-0.814,1.869-0.266,2.79c0.859-0.348,1.396-1.405,0.94-2.31
			C642.165,471.938,641.931,471.706,641.618,471.713z M636.157,467.725C636.236,467.722,636.177,467.723,636.157,467.725
			L636.157,467.725z M636.214,467.72C636.258,467.714,636.214,467.72,636.214,467.72L636.214,467.72z"/>
		<path fill="#AE4500" d="M604.598,464.173c0.753,0.165,0.777,1.076-0.019,1.672c-2.913,2.208-3.824,6.513-3.016,9.951
			c1.211,5.149,5.187,9.477,9.847,12.065c0.101,0.056,0.893,0.393,0.893,0.393c0.413,0.209,0.445,0.92,0.445,0.92
			c-0.143,0.457-0.563,0.567-0.563,0.567c-0.288,0.062-0.895-0.186-1.436-0.444c0,0-1-0.569-1.733-1.063
			c-4.617-3.108-8.739-7.878-9.29-13.913c-0.344-3.756,1.049-7.786,4.257-9.993C603.983,464.327,604.348,464.146,604.598,464.173z
			 M611.409,488.436L611.409,488.436L611.409,488.436z"/>
		<path fill="#AE4500" d="M659.01,470.087c0.267,0.015,0.312,0.036,0.429,0.074c1.079,0.353,1.411,1.909,1.685,3.305
			c0.723,3.706-0.484,7.586-1.945,11.06l-0.095,0.235c-0.295,0.622-0.462,0.621-0.704,0.745c-0.629,0.32-1.358,0.22-1.889-0.412
			c0,0-0.336-0.552-0.329-1.018c0,0,0.581-1.63,1.01-2.835c1.036-2.921,1.619-6.109,0.387-9.035
			C657.558,472.206,657.193,470.084,659.01,470.087z M659.146,484.589C659.187,484.469,659.155,484.557,659.146,484.589
			L659.146,484.589z M659.209,484.254l-0.036,0.238C659.173,484.492,659.215,484.101,659.209,484.254z"/>
		<path fill="#AE4500" d="M662.523,480.475c1.956,0.024,3.943,0.91,5.072,2.477c0.857,1.188-0.846,3.561-2.501,1.773
			c-0.522-0.552-1.179-0.98-1.923-1.129c-2.018-0.403-3.911,0.912-5.447,1.975c-1.089,0.766-1.262,0.665-1.557,0.604
			c-0.708-0.146-1.236-0.84-1.215-1.575c0,0,0.238-0.997,1.146-1.618c0.292-0.201,1.41-0.98,2.369-1.463
			c1.216-0.609,2.547-1.015,3.898-1.042C662.445,480.475,662.523,480.475,662.523,480.475z M657.975,484.974
			C657.991,484.901,657.978,484.955,657.975,484.974L657.975,484.974z M657.996,484.836
			C657.996,484.836,658.01,484.65,657.996,484.836L657.996,484.836z"/>
		<path fill-rule="evenodd" clip-rule="evenodd" fill="#AE4500" d="M627.427,506.3c0,0,0.014,0.078,0.04,0.215
			c0.31,1.7,2.091,4.723,5.278,4.637c10.396-0.28,11.808-9.501,11.808-9.501l3.857,2.494c0,0-6.641,4.28-4.217,14.656
			c2.638,11.283-5.29,21.377-12.165,20.523C614.492,537.146,622.342,512.632,627.427,506.3z"/>
		<path fill-rule="evenodd" clip-rule="evenodd" fill="#FF7012" d="M632.48,511.243c0.208,0.025,0.417,0.039,0.624,0.043
			c-0.214,0.845-0.367,1.717-0.581,2.588c-2.004,8.216-3.572,16.652-2.765,25.011c-0.222-0.061-0.438-0.126-0.651-0.195
			c-0.787-8.912,1.058-18.006,3.185-26.54c0.021-0.089,0.043-0.177,0.063-0.266C632.403,511.675,632.442,511.461,632.48,511.243z
			 M637.025,510.232c-0.596,5.688-0.708,11.457-0.102,17.061c0.349,3.225,0.98,6.438,1.991,9.52c-0.176,0.152-0.354,0.3-0.535,0.439
			c-2.939-8.707-2.854-18.195-2.003-26.773L637.025,510.232z M629.228,509.731c0.161,0.148,0.33,0.288,0.507,0.42
			c-0.197,0.435-0.385,0.877-0.575,1.316c-3.215,7.369-5.121,15.3-5.531,23.321c-0.21-0.293-0.404-0.597-0.584-0.909
			c0.511-7.852,2.435-15.617,5.631-22.903C628.856,510.561,629.228,509.731,629.228,509.731z M640.157,508.707
			c0.049,6.446,1.297,12.88,4.11,18.689c-0.07,0.325-0.149,0.646-0.235,0.963c-3.021-5.928-4.337-12.447-4.481-19.193
			C639.765,509.028,639.967,508.876,640.157,508.707z"/>
		<path fill-rule="evenodd" clip-rule="evenodd" fill="#AE4500" d="M644.555,501.928c0.474-2.709,1.151-6.259,2.453-8.852
			c0.271-0.427,0.286-0.967,0.038-1.407c-0.249-0.439-0.719-0.708-1.226-0.694c-4.423,0.071-13.928,0.276-25.986,0.432
			c-21.653,0.282-21.563-28.95-0.723-28.228c9.043,0.313,10.613,4.129,14.148,9.832c4.487,7.24,9.718,4.66,14.864,4.819
			c20.458,0.635,17.801,23.36,8.128,27.944c-2.482,1.176-4.193,3.321-4.476,6.706c-0.041,0.387-0.335,0.699-0.72,0.761
			s-0.763-0.143-0.921-0.497c-1.257-2.734-1.88-5.225-1.726-8.6C648.41,504.145,643.923,505.538,644.555,501.928z"/>
		<path fill-rule="evenodd" clip-rule="evenodd" fill="#FF883B" d="M658.277,498.432c0-1.357-1.059-2.696-2.01-3.658
			c-0.952-0.959-1.721-1.464-3.067-1.464s-2.638,0.54-3.59,1.5c-0.952,0.961-1.486,2.265-1.486,3.622c0,3.108,0,5.71,0,5.71
			s2.108,0.768,4.405,0.768c1.523,0,2.986-0.61,4.064-1.699c1.078-1.087,1.684-2.562,1.684-4.101
			C658.277,498.883,658.277,498.432,658.277,498.432z"/>
		<path fill-rule="evenodd" clip-rule="evenodd" fill="#FFB07C" d="M657.691,498.094c0-1.269-0.504-2.486-1.401-3.383
			s-2.114-1.401-3.383-1.401s-2.485,0.505-3.383,1.401c-0.896,0.896-1.4,2.114-1.4,3.383c0,2.901,0,6.048,0,6.048s1.987,0,4.151,0
			c1.436,0,2.813-0.57,3.829-1.586c1.017-1.016,1.587-2.394,1.587-3.829C657.691,498.516,657.691,498.094,657.691,498.094z"/>
		<path fill="#FF9048" d="M653.428,496.472c0.441,0.003,0.899,0.263,0.882,0.724c-0.029,0.759-1.319,0.492-2.067,1.206
			c-0.799,0.761-1.364,1.943-1.168,2.914c0,0,0.048,0.343-0.148,0.576c-0.372,0.445-1.191,0.28-1.246-0.709
			C649.554,498.964,651.183,496.456,653.428,496.472z"/>
		<path fill="#FF9048" d="M632.828,496.088c-0.546,2.36-1.219,4.745-0.934,7.198c0.084,0.718-0.061,1.689,1.803,1.295
			c0.531-0.111,1.049-0.285,1.56-0.479l0.33,0.073l-0.085,0.311c-0.591,0.506-1.254,0.939-1.987,1.192c0,0-1.955,0.563-2.658-1.046
			c-0.684-1.563-0.146-3.34,0.316-4.916c0.367-1.257,0.822-2.486,1.312-3.7C632.484,496.017,632.606,495.66,632.828,496.088z"/>
		<path d="M640.298,496.365l-0.283,0.465c-0.987,0.544-1.182,0.686-2.421,1.291c-0.519,0.255-1.416,0.576-1.416,0.576
			c-0.863,0.059-0.838-0.154-1.24-0.415l-0.252-0.954c0.267-0.512,0.545-0.864,0.988-1.007l0.38-0.068
			c0.578-0.063,1.171-0.104,1.613-0.117c1.019-0.032,1.189-0.027,2.157-0.036C639.824,496.1,640.106,496.254,640.298,496.365z
			 M639.725,491.948c0.407,0.003,0.999,0.123,0.999,0.123c0.483,0.166,0.726,0.363,1.035,0.675l0.309,0.412
			c0.097,0.168,0.085,0.154,0.085,0.154l0.196,0.612l-0.616,0.188c-0.231,0.048,0.078-0.035-0.586,0.101
			c0,0-0.001,0.003-0.501,0.056l-0.292,0.003c-0.224-0.021,0.094,0.012-0.711-0.133c-0.039-0.01-0.079-0.018-0.118-0.026
			c-1.518-0.313-3.198-0.215-4.491,0.566l-0.488-0.032l0.034-0.487c1.174-1.409,3.133-2.185,4.997-2.211
			C639.65,491.948,639.65,491.946,639.725,491.948z"/>
		<path fill-rule="evenodd" clip-rule="evenodd" d="M626.384,495.537c0.69,0.006,0.934,0.006,1.823,0.034
			c0.441,0.013,1.035,0.054,1.613,0.117l0.38,0.068c0.443,0.142,0.72,0.494,0.986,1.006l-0.249,0.954
			c-0.401,0.262-0.378,0.475-1.243,0.415c0,0-0.896-0.319-1.414-0.575c-0.995-0.486-1.317-0.673-1.916-1.009
			C626.367,496.21,626.384,495.537,626.384,495.537z M626.792,491.406c1.71,0.145,3.433,0.904,4.503,2.187l0.032,0.488l-0.485,0.033
			c-1.25-0.755-2.86-0.872-4.335-0.599C626.573,492.789,626.668,492.083,626.792,491.406z"/>
		<path fill="#D85600" d="M615.41,466.813c0.577,0.005,1.393,0.129,1.393,0.129c0.533,0.127,0.564,1.063-0.338,0.918
			c-4.805-0.737-9.733,3.928-9.007,9.201c0.246,1.787,0.955,3.516,1.914,5.008c0.327,0.51,0.348,0.355,0.412,0.41
			c0.331,0.28,0.044,0.969-0.479,0.823c-0.812-0.228-1.036-1.218-1.394-1.883c-1.28-2.437-1.923-5.282-1.171-7.908
			c1.047-3.667,4.486-6.584,8.42-6.696C615.243,466.813,615.41,466.813,615.41,466.813z M609.521,482.367
			C609.457,482.358,609.498,482.364,609.521,482.367L609.521,482.367z"/>
		<path fill="#D85600" d="M612.701,483.977c0.749,0.006,0.921,1.38,0.072,1.164C612.203,484.995,612.066,483.971,612.701,483.977z
			 M612.852,484.91C612.553,485.01,612.852,484.91,612.852,484.91L612.852,484.91z"/>
		<path fill="#D85600" d="M615.734,484.841c0.74,0.093,0.283,0.384,0.73,0.788c1.387,1.259,3.334,1.573,5.138,1.531
			c0,0,0.345,0.041,0.452,0.29c0.325,0.753-1.595,0.798-3.063,0.523c-1.325-0.246-2.595-0.927-3.443-1.908
			C615.208,485.673,615.004,484.802,615.734,484.841z"/>
		<path fill="#D85600" d="M621.226,467.204c2.532,0.034,4.659,2.088,6.171,3.994c2.521,3.196,5.053,6.409,8.92,8.334
			c2.24,1.116,4.71,1.825,7.215,1.824c4.039,0,8.087-1.1,12.229,0.916c2.151,1.047,4.049,2.756,4.968,5.017
			c1.193,2.94,0.859,6.463-0.536,9.203c-0.263,0.514-1.279,0.429-0.796-0.557c1.504-3.132,1.471-7.094-0.326-9.703
			c-2.123-3.081-6.149-4.419-9.896-4.273c-2.975,0.117-5.913,0.667-8.895,0.017c-4.058-0.888-7.681-3.175-10.448-6.263
			c-1.593-1.774-2.884-3.795-4.562-5.523c-1.303-1.342-3.093-2.355-5.155-1.907c-3.424,0.745-5.842,4.195-6.322,7.603
			c-0.196,1.389-0.29,2.871,0.127,4.163c0,0,0.241,0.187,0.168,0.491c-0.229,0.945-1.095,0.12-1.244-0.987
			c-0.511-3.813,0.563-7.824,3.772-10.517c1.254-1.05,2.819-1.795,4.468-1.83C621.154,467.204,621.226,467.204,621.226,467.204z
			 M613.718,479.957C613.718,479.957,613.568,479.937,613.718,479.957L613.718,479.957z"/>
		<path fill="#D85600" d="M621.197,475.412c3.285,0.069,5.876,3.313,7.877,5.715c3.461,4.126,9.742,5.733,15.179,4.874
			c2.229-0.363,4.565-0.725,6.558,0.173c2.122,0.955,3.679,3.007,4.177,5.294c0.132,0.604-0.71,1.182-0.969,0.07
			c-0.613-2.515-2.721-4.634-5.287-4.964c-2.443-0.313-4.879,0.667-7.504,0.611c-3.628-0.078-7.384-0.815-10.324-2.929
			c-3.246-2.333-4.736-6.799-8.719-7.743c-1.164-0.276-2.427,0.003-3.268,0.829c-0.907,0.893-1.49,2.108-1.842,3.309
			c-0.128,0.429,0.183,1.355-0.702,1.229c-0.355-0.051-0.529-0.537-0.26-0.827c-0.063-1.19,0.628-2.355,1.243-3.296
			c0.813-1.245,2.073-2.294,3.68-2.345C621.09,475.412,621.197,475.412,621.197,475.412z M616.421,480.925
			C616.352,480.931,616.421,480.925,616.421,480.925L616.421,480.925z"/>
		<path fill="#D85600" d="M621.759,481.595c2.713,0.021,4.444,2.831,5.927,5.053c0.788,1.183,2.021,2.191,3.546,2.202
			c0.648,0.006,1.383-0.178,1.383-0.178c1.056-0.078,0.573,0.826,0.17,0.944c-0.055,0.013-0.111,0.025-0.167,0.038
			c-1.921,0.411-4.004-0.25-5.234-1.789c-1.311-1.638-1.857-3.9-3.839-4.906c-1.257-0.639-3.028-0.679-3.786,0.212
			c0,0-0.157,0.396-0.541,0.381l-0.428-0.355c-0.03-0.126-0.093,0.05,0.001-0.27c0.089-0.308,0.468-0.635,0.468-0.635
			C619.875,481.706,620.707,481.587,621.759,481.595z M619.354,482.604C619.354,482.604,619.236,482.586,619.354,482.604
			L619.354,482.604z"/>
		<path fill-rule="evenodd" clip-rule="evenodd" fill="#6A00C4" d="M671.757,557.927c-0.021,0.075,0.003,0.156,0.062,0.207
			c0.06,0.051,0.144,0.061,0.214,0.026c0.78-0.381,2.42-1.182,2.42-1.182l-1.899-1.733L671.757,557.927z"/>
		<path fill-rule="evenodd" clip-rule="evenodd" fill="#6A00C4" d="M691.463,545.758c0.263-0.025,0.51,0.131,0.599,0.379
			c0.09,0.249-0.003,0.527-0.224,0.673c-0.73,0.487-1.392,0.928-1.392,0.928l-0.03-1.876L691.463,545.758z"/>
		<path fill-rule="evenodd" clip-rule="evenodd" fill="#FFA366" d="M691.615,545.861c1.559,3.527,2.792,7.188,3.551,11.016
			c1.195,6.047,0.846,12.688-2.535,18.042c-2.534,4.019-6.582,6.929-11.187,8.53c-7.737,2.691-16.29,2.194-24.622,0.946
			c-9.148-1.371-18.104-3.84-26.884-6.757c-0.696-0.372-0.976-0.408-1.428-1.091c-0.157-0.235-0.228-0.519-0.34-0.778l-0.014-0.821
			l0.34-0.74c0.208-0.192,0.386-0.424,0.624-0.578c0.753-0.484,1.005-0.493,2.001-0.403c10.673,0.955,21.503,1.392,31.928-0.251
			c3.842-0.606,7.736-1.45,11.045-3.306c0.664-0.374,1.305-0.797,1.872-1.308l0.778-2.998c-0.506-1.623-1.246-3.185-2.125-4.626
			c-0.747-1.225-1.556-2.41-2.418-3.544C675.34,552.721,681.189,547.4,691.615,545.861z"/>
		<path fill-rule="evenodd" clip-rule="evenodd" fill="#FF924A" d="M673.149,570.166c-2.885,2.322-7.537,4.506-13.437,5.008
			c-6.314,0.537-12.271-0.331-16.19-1.163c6.575,0.198,13.127-0.027,19.527-1.035C666.531,572.427,670.056,571.682,673.149,570.166z
			"/>
		<path fill-rule="evenodd" clip-rule="evenodd" fill="#FF9D5C" d="M674.631,560.466c4.164-6.043,10.413-10.059,18.098-11.804
			l-1.767-4.381l-21.293,9.615L674.631,560.466z"/>
		<path fill-rule="evenodd" clip-rule="evenodd" fill="#961BFF" d="M661.941,544.74c0,0,3.563,7.52,7.952,19.057
			c0.635-7.55,1.696-8.99,2.421-9.948L661.941,544.74z"/>
		<path fill-rule="evenodd" clip-rule="evenodd" fill="#9E2CFF" d="M671.699,558.143c-3.231-4.363-6.655-9.173-10.623-12.891
			c-0.502-0.741-1.083-1.438-1.51-2.226c-2.052-3.785-2.08-8.596-0.125-12.411c1.088-2.123,1.635-2.431,3.287-4.125
			c1.959-1.329,2.36-1.819,4.641-2.52c4.108-1.259,8.833-0.386,12.198,2.295c1.586,1.263,2.717,3.04,3.823,4.762
			c3.057,4.745,6.872,9.648,9.117,14.834C682.08,547.409,674.837,553.672,671.699,558.143z"/>
		<path fill-rule="evenodd" clip-rule="evenodd" fill="#032EFF" d="M645.256,656.166l-1.834-18.556
			c-1.483,8.439-1.47,16.364,0.483,23.62L645.256,656.166z"/>
		<path fill-rule="evenodd" clip-rule="evenodd" fill="#FFA366" d="M621.856,576.839c-0.341,0.108-0.701,0.145-1.058,0.105
			c-1.638-0.179-6.531-0.714-8.182-0.895c-0.354-0.038-0.708,0.059-0.991,0.273c-0.476,0.355-0.725,0.938-0.654,1.527
			c0.071,0.589,0.45,1.096,0.995,1.33c1.857,0.801,4.245,1.828,5.585,2.404c0.638,0.274,1.374,0.191,1.935-0.217
			c0.199-0.145,0.453-0.191,0.69-0.127c0.238,0.064,0.432,0.233,0.529,0.457c0.075,0.174,0.154,0.358,0.238,0.548
			c0.495,1.143,1.75,1.752,2.955,1.433c0.104-0.028,0.168-0.045,0.168-0.045s0.029,0.029,0.082,0.082
			c1.69,1.699,4.319,2.032,6.383,0.81c3.238-1.919,7.552-4.473,7.552-4.473l1.223-6.083c0,0-7.723-4.695-10.692-4.603
			c-0.885,0.028-4.331,0.342-6.999,0.593c-0.74,0.063-1.403,0.49-1.765,1.141c-0.359,0.651-0.373,1.44-0.031,2.102
			c0,0,4.374-0.118,5.388-0.218c0.52-0.05,1,0.282,1.135,0.786c0.042,0.157,0.087,0.321,0.129,0.481
			c0.156,0.579-0.172,1.177-0.743,1.358C624.574,575.976,621.856,576.839,621.856,576.839z"/>
		<path fill-rule="evenodd" clip-rule="evenodd" fill="#FF8839" d="M623.578,583.743c0.747-0.794,1.128-1.18,2.342-2.442
			l0.438-0.073c0.017,0.138,0.032,0.275,0.051,0.414c0,0-1.589,2.541-1.634,2.611c-0.219-0.161-0.429-0.341-0.625-0.537
			c-0.053-0.053-0.082-0.082-0.082-0.082s-0.063,0.017-0.168,0.045C623.792,583.707,623.685,583.729,623.578,583.743z
			 M619.348,581.46c1.107-1.034,1.438-1.325,2.975-2.726l0.441-0.043c0.007,0.138,0.015,0.277,0.022,0.416
			c0,0-1.923,2.625-2.015,2.747l-0.065-0.156c-0.098-0.224-0.291-0.393-0.529-0.457c-0.237-0.064-0.489-0.018-0.69,0.127
			C619.441,581.4,619.395,581.433,619.348,581.46z"/>
		<path fill="#3C3C3C" d="M625.295,572.906c0.633,0.158,0.858,0.125,1.351,0.6c0.917,0.884,0.794,2.557-0.226,3.299
			c-0.553,0.402-0.77,0.34-1.419,0.409L540.03,571.4c-0.633-0.157-0.857-0.124-1.348-0.6c-0.919-0.882-0.796-2.556,0.224-3.298
			c0.553-0.403,0.771-0.341,1.419-0.409C568.649,569.032,625.295,572.906,625.295,572.906z"/>
		<path fill-rule="evenodd" clip-rule="evenodd" fill="#3C3C3C" d="M579.453,514.675c0,0-36.117,0.712-47.516,0.937
			c-0.848,0.017-1.646,0.404-2.183,1.063c-0.538,0.657-0.759,1.517-0.604,2.353c2.146,11.666,9.167,49.828,9.167,49.828l50.794,2.76
			L579.453,514.675z"/>
		<path fill="#181818" d="M589.225,570.484l36.07,2.422c0,0,2.054,0.624,2.012,2.211c-0.028,1.042-0.912,1.993-1.956,2.093
			c-0.153,0.014-0.194,0.007-0.35,0.004l-36.065-2.422c-0.776-0.083-1.036-0.276-1.393-0.636c-1.068-1.083-0.53-3.345,1.163-3.644
			C589.033,570.456,589.116,570.483,589.225,570.484z"/>
		<path fill="#222222" d="M579.708,514.702c0.927,0.155,1.657,0.836,1.87,1.767l9.759,55.132c0.217,1.705-1.848,3.205-3.361,2.145
			c-0.35-0.243-0.621-0.59-0.775-0.985c-0.068-0.176-0.072-0.224-0.114-0.407l-9.759-55.133
			C577.155,515.866,578.241,514.598,579.708,514.702z"/>
	</g>
	<g>
		<path fill-rule="evenodd" clip-rule="evenodd" fill="#FAA478" d="M121.886,525.822l0.473,10.563l-9.663,2.393v-10.071
			C122.657,525.581,121.833,525.822,121.886,525.822z"/>
		<path fill-rule="evenodd" clip-rule="evenodd" fill="#FAA478" d="M138.65,767.183c0.743,4.219,11.335,2.005,2.704,4.481
			c-6.143-0.672-4.812-0.105-6.297-2.306c-0.048-1.039-0.112-3.122-0.222-4.155C139.635,764.752,138.647,764.14,138.65,767.183z"/>
		<path fill-rule="evenodd" clip-rule="evenodd" fill="#0D0057" d="M135.424,768.299c0,0.829,0.886,1.979,2.191,2.052
			c5.955,0.322,6.308,0.564,6.508-0.305c7.007,0,8.28-0.027,7.656,1.03c-0.629,1.069-0.718,1.428-1.24,1.43
			c-14.498,0.031-12.617-0.362-12.537,0.949l-3.299,0.201C134.326,767.445,134.03,768.299,135.424,768.299z"/>
		<path fill-rule="evenodd" clip-rule="evenodd" fill="#FAA478" d="M113.845,740.563c0.595,3.376,9.327,1.758,2.227,3.691
			c-5.666-0.618-4.778,0.164-5.37-5.321C114.658,738.562,113.844,738.058,113.845,740.563z"/>
		<path fill-rule="evenodd" clip-rule="evenodd" fill="#0D0057" d="M111.188,741.483c0.054,0,0.149,1.6,1.804,1.688
			c4.914,0.269,5.198,0.465,5.36-0.249c5.064,0,6.875-0.123,6.306,0.848c-0.519,0.882-0.592,1.176-1.021,1.178
			c-11.94,0.025-10.392-0.297-10.325,0.781c-3.54,0.216-2.649,1.291-2.983-4.194C111.276,741.478,111.188,741.483,111.188,741.483z"
			/>
		<path fill-rule="evenodd" clip-rule="evenodd" fill="#360035" d="M88.399,613.84c-6.237,18.785,3.731,98.058,21.694,125.068
			c0.147,0.217,0.397,0.342,0.658,0.325c2.969-0.165,2.981-0.095,3.253-0.4c0.857-0.961-7.318-99.381,0.971-126.496
			C114.976,612.337,94.664,594.972,88.399,613.84z"/>
		<path fill-rule="evenodd" clip-rule="evenodd" fill="#460046" d="M110.324,606.635c-9.195,35.779,17.041,158.755,24.487,158.87
			c4.244,0.064,3.936,0.085,4.018,0.005c0.087-0.087,0.016,7.543,0.932-163.28C139.761,602.229,116.588,582.26,110.324,606.635z"/>
		<path fill-rule="evenodd" clip-rule="evenodd" fill="#FFC4FE" d="M102.289,559.452c-5.916,35.272-35.269,49.601-26.687,53.824
			c23.192,11.231,49.363,9.857,74.23-9.93l-6.265-30.794c7.378-0.195,12.722-12.711,7.687-16.474
			c-2.504-1.919-6.391-4.825-6.391-4.825c-1.027-15.135-11.677-21.385-17.643-20.417l-21.131,4.357
			C102.16,560.269,102.342,559.452,102.289,559.452z"/>
		<path fill-rule="evenodd" clip-rule="evenodd" fill="#FAA478" d="M126.848,533.387c13.218-7.54,28.286,18.872,15.067,26.413
			C128.698,567.338,113.629,540.926,126.848,533.387z"/>
		<path fill-rule="evenodd" clip-rule="evenodd" fill="#4B2200" d="M118.385,472.791c-12.904-0.736-10.503,10.641-18.849,13.311
			c-15.113,4.798-12.654,25.46-6.141,34.911c1.436,2.048,0.892,4.883-1.205,6.251c-10.444,7.027-19.25,30.068-13.029,34.148
			c1.416,0.944,1.764,2.88,0.763,4.26c-5.779,8.018,1.253,17.462,8.281,13.518c1.734-0.98,3.933-0.423,4.994,1.265
			c3.918,6.311,16.088,8.515,19.897-15.655c4.119-26.151-1.581-28.045,3.288-30.781c7.157-4.135,20.203-22.74,18.563-36.844
			c-1.568-13.487-11.739-8.99-10.108-14.39C126.796,476.242,123.782,472.791,118.385,472.791z"/>
		<path fill-rule="evenodd" clip-rule="evenodd" fill="#170B00" d="M116.861,479.731c-11.308-0.646-9.194,9.317-16.512,11.657
			c-13.236,4.202-11.083,22.301-5.377,30.578c1.258,1.795,0.781,4.277-1.056,5.476c-9.147,6.155-16.86,26.336-11.413,29.91
			c1.24,0.827,1.545,2.521,0.672,3.73c-5.063,7.024,1.096,15.296,7.25,11.842c1.52-0.859,3.447-0.372,4.374,1.106
			c3.432,5.527,14.092,7.457,17.428-13.713c3.606-22.89-1.381-24.565,2.88-26.96c6.268-3.621,17.696-19.918,16.258-32.271
			c-1.189-10.239-7.242-8.318-8.609-10.612C121.64,488.604,126.22,479.731,116.861,479.731z"/>
		<path fill-rule="evenodd" clip-rule="evenodd" fill="#421E00" d="M114.537,490.298c-8.868-0.507-7.21,7.308-12.949,9.144
			c-10.381,3.295-8.692,17.488-4.218,23.98c0.986,1.406,0.614,3.354-0.828,4.294c-7.173,4.828-13.223,20.653-8.951,23.456
			c0.971,0.648,1.213,1.976,0.527,2.927c-3.972,5.508,0.86,11.994,5.686,9.286c1.191-0.674,2.702-0.293,3.431,0.866
			c2.691,4.336,11.05,5.851,13.667-10.752c2.832-17.967-1.085-19.266,2.259-21.144c4.916-2.84,13.878-15.62,12.751-25.309
			c-0.934-8.036-5.677-6.521-6.751-8.323C118.292,497.267,121.859,490.298,114.537,490.298z"/>
		<path fill-rule="evenodd" clip-rule="evenodd" fill="#2A1300" d="M112.714,498.585c-7.174-0.411-5.374,5.641-10.155,7.17
			c-8.141,2.585-6.815,13.715-3.309,18.807c0.774,1.104,0.481,2.631-0.648,3.368c-5.625,3.784-10.37,16.197-7.02,18.396
			c0.761,0.506,0.952,1.551,0.412,2.295c-3.114,4.319,0.676,9.406,4.46,7.282c0.934-0.528,2.119-0.229,2.69,0.681
			c2.11,3.399,8.666,4.588,10.719-8.434c2.223-14.101-0.854-15.106,1.771-16.582c3.856-2.228,10.884-12.249,10.001-19.849
			c-0.733-6.302-4.453-5.113-5.295-6.526C115.655,504.044,118.471,498.585,112.714,498.585z"/>
		<path fill-rule="evenodd" clip-rule="evenodd" fill="#0F0700" d="M110.164,510.18c-4.411-0.255-3.306,3.468-6.246,4.409
			c-5.008,1.59-4.193,8.437-2.034,11.568c0.475,0.679,0.296,1.618-0.4,2.071c-3.46,2.329-6.377,9.964-4.316,11.316
			c0.469,0.312,0.583,0.954,0.252,1.409c-1.915,2.658,0.416,5.788,2.743,4.48c0.575-0.325,1.304-0.141,1.657,0.42
			c1.296,2.091,5.33,2.821,6.592-5.188c1.364-8.666-0.524-9.294,1.09-10.199c2.37-1.37,6.694-7.536,6.149-12.21
			c-0.45-3.876-2.737-3.146-3.257-4.014C111.968,513.525,113.704,510.18,110.164,510.18z"/>
		<path fill="#FA9F71" d="M188.704,470.998c0.35-1.21,4.892,1.346,7.403,2.869c1.007,0.611,1.561,1.756,1.417,2.924
			c-4.471,36.347-13.761,49.708-26.686,58.858c-10.742,7.604-22.3,13.986-34.655,18.349c-12.333,3.037-15.698-14.011-4.838-16.975
			c15.064-4.126,29.824-10.376,40.456-21.995C181.668,504.243,188.901,470.998,188.704,470.998z"/>
		<path fill-rule="evenodd" clip-rule="evenodd" fill="#FAA478" d="M187.365,484.753c2.333-20.518,2.165-16.583-2.766-27.969
			c-1.222-2.822,0.956,0.452,3.602-19.209c2.043-1.971,4.5,2.45,3.91,5.526c-1.982,10.335-2.042,10.034-1.581,9.867
			c1.576-0.563,3.621-1.297,3.621-1.297c3.63,1.027,5.462,4.912,5.647,6.688c0,0,1.447,1.312,1.307,2.76
			c-1.138,1.588-3.184,2.971-4.914,3.63c0.174,0,1.837,1.54,2.083,3.814c0.08,0.731-0.454,5.322-1.021,9.826
			C196.997,482.91,192.56,486.507,187.365,484.753z"/>
		<path fill-rule="evenodd" clip-rule="evenodd" fill="#F8854A" d="M199.268,456.522c-0.472-1.095-0.221-0.966-2.457-1.441
			c-2.437-0.52-2.103-0.453-2.54-0.363C193.554,455.803,194.821,455.723,199.268,456.522z M200.444,459.111
			c-0.703-0.996-0.621-1.286-6.694-1.922C190.36,458.191,201.356,459.111,200.444,459.111z M196.19,464.749
			c1.364-0.522,1.473-0.092-1.941-2.962c3.856-0.646,3.155-0.853-0.751-0.666c-1.476,0.416-0.304,0.882-0.557,0.766
			C195.608,464.287,196.245,464.749,196.19,464.749z"/>
		<path fill-rule="evenodd" clip-rule="evenodd" fill="#F98D55" d="M190.231,453.035c-6.353,2.835-1.969,1.747,0.597-3.317
			C190.193,453.244,190.177,453.035,190.231,453.035z"/>
	</g>
</g>
<g>
	<linearGradient id="SVGID_3_" gradientUnits="userSpaceOnUse" x1="12.3721" y1="287.7373" x2="117.0068" y2="287.7373">
		<stop  offset="0" style="stop-color:#E4F2FF"/>
		<stop  offset="1" style="stop-color:#E7F3FF"/>
	</linearGradient>
	<path fill="url(#SVGID_3_)" d="M117.007,287.738c0,69.169-104.635,69.267-104.635,0C12.372,218.567,117.007,218.47,117.007,287.738
		z"/>
	<path fill="#C0E1FD" d="M113.229,287.738c0,64.173-97.077,64.264-97.077,0C16.152,223.564,113.229,223.473,113.229,287.738z"/>
	<path fill="#FFFFFF" d="M64.689,287.738c-3.719-8.1-3.758-22.196,0-30.327C68.444,265.536,68.414,279.629,64.689,287.738z"/>
	<path fill="#FFFFFF" d="M64.689,287.738c11.237-3.692,30.947-3.784,42.391,0C95.625,291.525,75.918,291.426,64.689,287.738z"/>
	<path fill="#FFFFFF" d="M70.38,287.738c0,7.523-11.38,7.533-11.38,0C59,280.214,70.38,280.203,70.38,287.738z"/>
	<g>
		<path fill="#FFFFFF" d="M64.689,250.375c-1.273,0-0.934-0.86-0.934-8.02c0-1.238,1.869-1.236,1.869,0
			C65.625,249.445,65.959,250.375,64.689,250.375z"/>
		<path fill="#FFFFFF" d="M102.053,287.738c0-1.274,0.858-0.936,8.019-0.936c1.237,0,1.236,1.869,0,1.869
			C102.981,288.671,102.053,289.006,102.053,287.738z"/>
		<path fill="#FFFFFF" d="M64.689,325.1c1.273,0,0.937,0.858,0.937,8.019c0,1.239-1.871,1.237-1.871,0
			C63.755,326.028,63.421,325.1,64.689,325.1z"/>
		<path fill="#FFFFFF" d="M27.328,287.738c0,1.273-0.859,0.935-8.019,0.935c-1.238,0-1.236-1.871,0-1.871
			C26.398,286.802,27.328,286.468,27.328,287.738z"/>
	</g>
</g>
</svg>
