<?xml version="1.0" encoding="utf-8"?>
<!-- Generator: Adobe Illustrator 16.0.0, SVG Export Plug-In . SVG Version: 6.00 Build 0)  -->
<!DOCTYPE svg PUBLIC "-//W3C//DTD SVG 1.1//EN" "http://www.w3.org/Graphics/SVG/1.1/DTD/svg11.dtd">
<svg version="1.1" id="Layer_1" xmlns="http://www.w3.org/2000/svg" xmlns:xlink="http://www.w3.org/1999/xlink" x="0px" y="0px"
	 width="123.333px" height="108px" viewBox="0 0 123.333 108" enable-background="new 0 0 123.333 108" xml:space="preserve">
<g>
	<g>
		<g>
			<path fill="#F5F6FF" d="M109.248,44.525H66.111c-6.518,0-11.802,5.283-11.802,11.802l0,0c0,6.519,5.284,11.802,11.802,11.802
				h43.137c6.519,0,11.803-5.283,11.803-11.802l0,0C121.051,49.809,115.767,44.525,109.248,44.525z"/>
		</g>
	</g>
	<g>
		<g>
			<path fill="#F5F6FF" d="M19.982,37.323H34.84c6.518,0,11.801-5.284,11.801-11.802l0,0c0-6.518-5.283-11.802-11.801-11.802H19.982
				c-6.519,0-11.803,5.284-11.803,11.802l0,0C8.18,32.04,13.464,37.323,19.982,37.323z"/>
		</g>
	</g>
	<g>
		<g>
			<path fill="#F5F6FF" d="M39.323,74.656H15.498c-6.518,0-11.802,5.283-11.802,11.801c0,6.519,5.284,11.803,11.802,11.803h23.825
				c6.518,0,11.802-5.284,11.802-11.803C51.125,79.939,45.841,74.656,39.323,74.656z"/>
		</g>
	</g>
	<g>
		<g>
			<circle fill="#F5F6FF" cx="53.778" cy="5.157" r="1.577"/>
		</g>
	</g>
</g>
<g>
	<line fill="#FFFFFF" x1="93.388" y1="38.745" x2="103.994" y2="38.745"/>
</g>
<g>
	<g>
		<circle fill="#D6F0F1" cx="106.696" cy="17.832" r="4.113"/>
	</g>
</g>
<g>
	<g>
		<circle fill="#D27FBD" cx="11.48" cy="54.935" r="1.938"/>
	</g>
</g>
<g>
	<g>
		<circle fill="#FB553E" cx="114.771" cy="85.959" r="1.472"/>
	</g>
</g>
<g>
	<g>
		<circle fill="#88A8CF" cx="84.447" cy="104.225" r="1.472"/>
	</g>
</g>
</svg>
