<?xml version="1.0" encoding="UTF-8"?>
<svg width="304px" height="210px" viewBox="0 0 304 210" version="1.1" xmlns="http://www.w3.org/2000/svg" xmlns:xlink="http://www.w3.org/1999/xlink">
    <!-- Generator: Sketch 59.1 (86144) - https://sketch.com -->
    <title>云部署</title>
    <desc>Created with Sketch.</desc>
    <g id="页面-1" stroke="none" stroke-width="1" fill="none" fill-rule="evenodd">
        <g id="云部署" fill="#0052E0" fill-rule="nonzero">
            <path d="M304,0 L304,210 L94,210 L94,209.888 L53.8770992,209.87195 L53.8770992,210 L53.8757304,210 L52.9861833,209.992764 C23.6871997,209.515828 0,185.521871 0,156.09443 C0,144.379922 3.69193262,133.241638 10.6757729,123.879275 C16.6566421,115.862806 24.8905176,109.587677 34.1451583,105.926615 C36.0320168,98.1320078 39.9169469,90.6270531 45.3650199,84.4679914 C53.5379848,75.2299126 64.07688,70.1421559 75.0404382,70.1421559 C81.8870586,70.1421559 88.4944854,71.7640067 94.4609825,74.8680177 L94,74.633 L94,0 L304,0 Z M156.015047,52 C133.687045,52 111.519148,67.1282092 101.594413,88.5699683 C100.444607,91.0518489 97.5955774,92.2364765 95.0387036,91.2877443 L95.0387036,91.2877443 C94.3733143,91.0408611 93.7920822,90.6744849 93.3056125,90.2222662 C88.4207314,86.7768885 82.6836731,84.9549657 76.6780643,84.9549657 C62.0336842,84.9549657 49.8924677,99.1492076 47.5781445,113.168331 C47.2918048,114.910592 46.0174731,116.263127 44.39796,116.72393 C44.3528025,116.75037 44.3045661,116.773376 44.2488034,116.792948 L44.2488034,116.792948 L44.2518823,116.793291 L43.7635321,116.960327 C27.7019338,122.570614 17,137.866113 17,155.051268 C17,176.08476 33.2382356,193.382726 53.7955147,194.976994 L53.7955147,194.976994 L222.075033,194.976994 L222.075033,195 C240.387777,194.057792 255,178.804939 255,160.193925 C255,140.975489 239.160656,125.0771 220.014207,125.0771 L220.014207,125.0771 L220.014207,125.061992 C219.567764,125.106286 219.104899,125.092552 218.64135,125.016323 C215.980477,124.569942 214.096519,122.173904 214.279544,119.472953 C214.483779,116.458848 214.598041,113.014157 214.598041,110.800106 C214.598041,78.377364 188.318072,52 156.015047,52 Z" id="形状" transform="translate(152.000000, 105.000000) scale(-1, 1) translate(-152.000000, -105.000000) "></path>
        </g>
    </g>
</svg>